ISO-10303-21;
HEADER;
FILE_DESCRIPTION(('SkyG Speed 90B - revision C6B-7 - 2026-10-08','HL1-hatch-lip-front'),'2;1');
FILE_NAME('HL1-hatch-lip-front_C6B-7','2026-10-08T18:09:16',('Author'),(
    'Open CASCADE'),'Open CASCADE STEP processor 7.9','Open CASCADE 7.9'
  ,'Unknown');
FILE_SCHEMA(('AUTOMOTIVE_DESIGN { 1 0 10303 214 1 1 1 1 }'));
ENDSEC;
DATA;
#1 = APPLICATION_PROTOCOL_DEFINITION('international standard',
  'automotive_design',2000,#2);
#2 = APPLICATION_CONTEXT(
  'core data for automotive mechanical design processes');
#3 = SHAPE_DEFINITION_REPRESENTATION(#4,#10);
#4 = PRODUCT_DEFINITION_SHAPE('','',#5);
#5 = PRODUCT_DEFINITION('design','',#6,#9);
#6 = PRODUCT_DEFINITION_FORMATION('','',#7);
#7 = PRODUCT('HL1-hatch-lip-front C6B-7','HL1-hatch-lip-front C6B-7','',(#8));
#8 = PRODUCT_CONTEXT('',#2,'mechanical');
#9 = PRODUCT_DEFINITION_CONTEXT('part definition',#2,'design');
#10 = ADVANCED_BREP_SHAPE_REPRESENTATION('',(#11,#15),#1773);
#11 = AXIS2_PLACEMENT_3D('',#12,#13,#14);
#12 = CARTESIAN_POINT('',(0.,0.,0.));
#13 = DIRECTION('',(0.,0.,1.));
#14 = DIRECTION('',(1.,0.,-0.));
#15 = MANIFOLD_SOLID_BREP('',#16);
#16 = CLOSED_SHELL('',(#17,#499,#573,#1010,#1085,#1165,#1220,#1342,#1368
    ,#1449,#1472,#1499,#1526,#1571,#1598,#1625,#1650,#1685,#1712,#1739,
    #1766));
#17 = ADVANCED_FACE('',(#18),#33,.T.);
#18 = FACE_BOUND('',#19,.T.);
#19 = EDGE_LOOP('',(#20,#56,#82,#110,#136,#164,#249,#281,#313,#398,#421,
    #447,#475));
#20 = ORIENTED_EDGE('',*,*,#21,.T.);
#21 = EDGE_CURVE('',#22,#24,#26,.T.);
#22 = VERTEX_POINT('',#23);
#23 = CARTESIAN_POINT('',(90.3,15.307596153545,11.));
#24 = VERTEX_POINT('',#25);
#25 = CARTESIAN_POINT('',(90.3,-15.30759615354,11.));
#26 = SURFACE_CURVE('',#27,(#32,#44),.PCURVE_S1.);
#27 = CIRCLE('',#28,18.85);
#28 = AXIS2_PLACEMENT_3D('',#29,#30,#31);
#29 = CARTESIAN_POINT('',(90.3,0.,0.));
#30 = DIRECTION('',(1.,0.,0.));
#31 = DIRECTION('',(-0.,0.812074066501,0.583554376658));
#32 = PCURVE('',#33,#38);
#33 = CYLINDRICAL_SURFACE('',#34,18.85);
#34 = AXIS2_PLACEMENT_3D('',#35,#36,#37);
#35 = CARTESIAN_POINT('',(90.3,0.,0.));
#36 = DIRECTION('',(1.,0.,0.));
#37 = DIRECTION('',(-0.,0.,1.));
#38 = DEFINITIONAL_REPRESENTATION('',(#39),#43);
#39 = LINE('',#40,#41);
#40 = CARTESIAN_POINT('',(5.335487735199,0.));
#41 = VECTOR('',#42,1.);
#42 = DIRECTION('',(1.,0.));
#43 = ( GEOMETRIC_REPRESENTATION_CONTEXT(2) 
PARAMETRIC_REPRESENTATION_CONTEXT() REPRESENTATION_CONTEXT('2D SPACE',''
  ) );
#44 = PCURVE('',#45,#50);
#45 = PLANE('',#46);
#46 = AXIS2_PLACEMENT_3D('',#47,#48,#49);
#47 = CARTESIAN_POINT('',(90.3,0.,0.));
#48 = DIRECTION('',(1.,0.,0.));
#49 = DIRECTION('',(-0.,0.,1.));
#50 = DEFINITIONAL_REPRESENTATION('',(#51),#55);
#51 = CIRCLE('',#52,18.85);
#52 = AXIS2_PLACEMENT_2D('',#53,#54);
#53 = CARTESIAN_POINT('',(0.,0.));
#54 = DIRECTION('',(0.583554376658,-0.812074066501));
#55 = ( GEOMETRIC_REPRESENTATION_CONTEXT(2) 
PARAMETRIC_REPRESENTATION_CONTEXT() REPRESENTATION_CONTEXT('2D SPACE',''
  ) );
#56 = ORIENTED_EDGE('',*,*,#57,.T.);
#57 = EDGE_CURVE('',#24,#58,#60,.T.);
#58 = VERTEX_POINT('',#59);
#59 = CARTESIAN_POINT('',(96.,-15.30759615354,11.));
#60 = SURFACE_CURVE('',#61,(#65,#71),.PCURVE_S1.);
#61 = LINE('',#62,#63);
#62 = CARTESIAN_POINT('',(90.3,-15.30759615354,11.));
#63 = VECTOR('',#64,1.);
#64 = DIRECTION('',(1.,0.,0.));
#65 = PCURVE('',#33,#66);
#66 = DEFINITIONAL_REPRESENTATION('',(#67),#70);
#67 = B_SPLINE_CURVE_WITH_KNOTS('',1,(#68,#69),.UNSPECIFIED.,.F.,.F.,(2,
    2),(0.,5.7),.PIECEWISE_BEZIER_KNOTS.);
#68 = CARTESIAN_POINT('',(7.23088287916,0.));
#69 = CARTESIAN_POINT('',(7.23088287916,5.7));
#70 = ( GEOMETRIC_REPRESENTATION_CONTEXT(2) 
PARAMETRIC_REPRESENTATION_CONTEXT() REPRESENTATION_CONTEXT('2D SPACE',''
  ) );
#71 = PCURVE('',#72,#77);
#72 = PLANE('',#73);
#73 = AXIS2_PLACEMENT_3D('',#74,#75,#76);
#74 = CARTESIAN_POINT('',(90.3,-30.,11.));
#75 = DIRECTION('',(0.,0.,1.));
#76 = DIRECTION('',(1.,0.,-0.));
#77 = DEFINITIONAL_REPRESENTATION('',(#78),#81);
#78 = B_SPLINE_CURVE_WITH_KNOTS('',1,(#79,#80),.UNSPECIFIED.,.F.,.F.,(2,
    2),(-6.000000070117E-07,5.7000006),.PIECEWISE_BEZIER_KNOTS.);
#79 = CARTESIAN_POINT('',(-6.000000070117E-07,14.692403846456));
#80 = CARTESIAN_POINT('',(5.7000006,14.692403846456));
#81 = ( GEOMETRIC_REPRESENTATION_CONTEXT(2) 
PARAMETRIC_REPRESENTATION_CONTEXT() REPRESENTATION_CONTEXT('2D SPACE',''
  ) );
#82 = ORIENTED_EDGE('',*,*,#83,.F.);
#83 = EDGE_CURVE('',#84,#58,#86,.T.);
#84 = VERTEX_POINT('',#85);
#85 = CARTESIAN_POINT('',(96.,-6.,17.869597085553));
#86 = SURFACE_CURVE('',#87,(#92,#98),.PCURVE_S1.);
#87 = CIRCLE('',#88,18.85);
#88 = AXIS2_PLACEMENT_3D('',#89,#90,#91);
#89 = CARTESIAN_POINT('',(96.,0.,0.));
#90 = DIRECTION('',(1.,0.,0.));
#91 = DIRECTION('',(-0.,0.,1.));
#92 = PCURVE('',#33,#93);
#93 = DEFINITIONAL_REPRESENTATION('',(#94),#97);
#94 = B_SPLINE_CURVE_WITH_KNOTS('',1,(#95,#96),.UNSPECIFIED.,.F.,.F.,(2,
    2),(0.323938196583,0.94769757198),.PIECEWISE_BEZIER_KNOTS.);
#95 = CARTESIAN_POINT('',(6.607123503762,5.7));
#96 = CARTESIAN_POINT('',(7.23088287916,5.7));
#97 = ( GEOMETRIC_REPRESENTATION_CONTEXT(2) 
PARAMETRIC_REPRESENTATION_CONTEXT() REPRESENTATION_CONTEXT('2D SPACE',''
  ) );
#98 = PCURVE('',#99,#104);
#99 = PLANE('',#100);
#100 = AXIS2_PLACEMENT_3D('',#101,#102,#103);
#101 = CARTESIAN_POINT('',(96.,0.,0.));
#102 = DIRECTION('',(1.,0.,0.));
#103 = DIRECTION('',(-0.,0.,1.));
#104 = DEFINITIONAL_REPRESENTATION('',(#105),#109);
#105 = CIRCLE('',#106,18.85);
#106 = AXIS2_PLACEMENT_2D('',#107,#108);
#107 = CARTESIAN_POINT('',(0.,0.));
#108 = DIRECTION('',(1.,0.));
#109 = ( GEOMETRIC_REPRESENTATION_CONTEXT(2) 
PARAMETRIC_REPRESENTATION_CONTEXT() REPRESENTATION_CONTEXT('2D SPACE',''
  ) );
#110 = ORIENTED_EDGE('',*,*,#111,.T.);
#111 = EDGE_CURVE('',#84,#112,#114,.T.);
#112 = VERTEX_POINT('',#113);
#113 = CARTESIAN_POINT('',(105.,-6.,17.869597085553));
#114 = SURFACE_CURVE('',#115,(#119,#125),.PCURVE_S1.);
#115 = LINE('',#116,#117);
#116 = CARTESIAN_POINT('',(96.,-6.,17.869597085553));
#117 = VECTOR('',#118,1.);
#118 = DIRECTION('',(1.,0.,0.));
#119 = PCURVE('',#33,#120);
#120 = DEFINITIONAL_REPRESENTATION('',(#121),#124);
#121 = B_SPLINE_CURVE_WITH_KNOTS('',1,(#122,#123),.UNSPECIFIED.,.F.,.F.,
  (2,2),(0.,9.),.PIECEWISE_BEZIER_KNOTS.);
#122 = CARTESIAN_POINT('',(6.607123503762,5.7));
#123 = CARTESIAN_POINT('',(6.607123503762,14.7));
#124 = ( GEOMETRIC_REPRESENTATION_CONTEXT(2) 
PARAMETRIC_REPRESENTATION_CONTEXT() REPRESENTATION_CONTEXT('2D SPACE',''
  ) );
#125 = PCURVE('',#126,#131);
#126 = PLANE('',#127);
#127 = AXIS2_PLACEMENT_3D('',#128,#129,#130);
#128 = CARTESIAN_POINT('',(96.,-6.,0.));
#129 = DIRECTION('',(-0.,1.,0.));
#130 = DIRECTION('',(0.,0.,1.));
#131 = DEFINITIONAL_REPRESENTATION('',(#132),#135);
#132 = B_SPLINE_CURVE_WITH_KNOTS('',1,(#133,#134),.UNSPECIFIED.,.F.,.F.,
  (2,2),(-6.000000070117E-07,9.0000006),.PIECEWISE_BEZIER_KNOTS.);
#133 = CARTESIAN_POINT('',(17.869597085553,-6.000000070117E-07));
#134 = CARTESIAN_POINT('',(17.869597085553,9.0000006));
#135 = ( GEOMETRIC_REPRESENTATION_CONTEXT(2) 
PARAMETRIC_REPRESENTATION_CONTEXT() REPRESENTATION_CONTEXT('2D SPACE',''
  ) );
#136 = ORIENTED_EDGE('',*,*,#137,.F.);
#137 = EDGE_CURVE('',#138,#112,#140,.T.);
#138 = VERTEX_POINT('',#139);
#139 = CARTESIAN_POINT('',(105.,-2.377498685594,18.699465232995));
#140 = SURFACE_CURVE('',#141,(#146,#152),.PCURVE_S1.);
#141 = CIRCLE('',#142,18.85);
#142 = AXIS2_PLACEMENT_3D('',#143,#144,#145);
#143 = CARTESIAN_POINT('',(105.,0.,0.));
#144 = DIRECTION('',(1.,0.,0.));
#145 = DIRECTION('',(-0.,0.,1.));
#146 = PCURVE('',#33,#147);
#147 = DEFINITIONAL_REPRESENTATION('',(#148),#151);
#148 = B_SPLINE_CURVE_WITH_KNOTS('',1,(#149,#150),.UNSPECIFIED.,.F.,.F.,
  (2,2),(0.126464075182,0.323938196583),.PIECEWISE_BEZIER_KNOTS.);
#149 = CARTESIAN_POINT('',(6.409649382361,14.7));
#150 = CARTESIAN_POINT('',(6.607123503762,14.7));
#151 = ( GEOMETRIC_REPRESENTATION_CONTEXT(2) 
PARAMETRIC_REPRESENTATION_CONTEXT() REPRESENTATION_CONTEXT('2D SPACE',''
  ) );
#152 = PCURVE('',#153,#158);
#153 = PLANE('',#154);
#154 = AXIS2_PLACEMENT_3D('',#155,#156,#157);
#155 = CARTESIAN_POINT('',(105.,0.,0.));
#156 = DIRECTION('',(1.,0.,0.));
#157 = DIRECTION('',(-0.,0.,1.));
#158 = DEFINITIONAL_REPRESENTATION('',(#159),#163);
#159 = CIRCLE('',#160,18.85);
#160 = AXIS2_PLACEMENT_2D('',#161,#162);
#161 = CARTESIAN_POINT('',(0.,0.));
#162 = DIRECTION('',(1.,0.));
#163 = ( GEOMETRIC_REPRESENTATION_CONTEXT(2) 
PARAMETRIC_REPRESENTATION_CONTEXT() REPRESENTATION_CONTEXT('2D SPACE',''
  ) );
#164 = ORIENTED_EDGE('',*,*,#165,.F.);
#165 = EDGE_CURVE('',#166,#138,#168,.T.);
#166 = VERTEX_POINT('',#167);
#167 = CARTESIAN_POINT('',(100.28238274658,-2.64285332876,
    18.663810604554));
#168 = SURFACE_CURVE('',#169,(#192,#218),.PCURVE_S1.);
#169 = B_SPLINE_CURVE_WITH_KNOTS('',6,(#170,#171,#172,#173,#174,#175,
    #176,#177,#178,#179,#180,#181,#182,#183,#184,#185,#186,#187,#188,
    #189,#190,#191),.UNSPECIFIED.,.F.,.F.,(7,5,5,5,7),(0.,0.120601921458
    ,0.465656689032,0.761168782106,1.),.UNSPECIFIED.);
#170 = CARTESIAN_POINT('',(100.28238274658,-2.64285332876,
    18.663810604554));
#171 = CARTESIAN_POINT('',(100.3677998001,-2.714526746867,
    18.653661426787));
#172 = CARTESIAN_POINT('',(100.45504272441,-2.782087008249,
    18.643757772733));
#173 = CARTESIAN_POINT('',(100.54391395832,-2.845604324818,
    18.634161370193));
#174 = CARTESIAN_POINT('',(100.63423699886,-2.905146241374,
    18.624925645229));
#175 = CARTESIAN_POINT('',(100.72585619271,-2.960777491585,
    18.616096485063));
#176 = CARTESIAN_POINT('',(101.08409081312,-3.160714632921,
    18.583726972202));
#177 = CARTESIAN_POINT('',(101.35911151935,-3.277397171618,
    18.563383562656));
#178 = CARTESIAN_POINT('',(101.64040738245,-3.363936493914,
    18.547616709429));
#179 = CARTESIAN_POINT('',(101.92559065087,-3.421297927816,
    18.536938126515));
#180 = CARTESIAN_POINT('',(102.21274187994,-3.45,18.531594642664));
#181 = CARTESIAN_POINT('',(102.74601383979,-3.45,18.531594642664));
#182 = CARTESIAN_POINT('',(102.99197894969,-3.428948459557,
    18.535513792233));
#183 = CARTESIAN_POINT('',(103.23670392854,-3.386861821811,
    18.543348923106));
#184 = CARTESIAN_POINT('',(103.47896948744,-3.323469690083,
    18.554965202801));
#185 = CARTESIAN_POINT('',(103.71734588294,-3.238257443563,
    18.570086997673));
#186 = CARTESIAN_POINT('',(104.138034948,-3.043399895723,18.602903471542
    ));
#187 = CARTESIAN_POINT('',(104.32234229491,-2.94157040343,18.61954913055
    ));
#188 = CARTESIAN_POINT('',(104.50201087106,-2.824592055845,
    18.637925214563));
#189 = CARTESIAN_POINT('',(104.67589790472,-2.691945864309,
    18.657697462265));
#190 = CARTESIAN_POINT('',(104.84252989296,-2.543082569585,
    18.678412472637));
#191 = CARTESIAN_POINT('',(105.0000006,-2.377498054678,18.699465313212)
  );
#192 = PCURVE('',#33,#193);
#193 = DEFINITIONAL_REPRESENTATION('',(#194),#217);
#194 = B_SPLINE_CURVE_WITH_KNOTS('',6,(#195,#196,#197,#198,#199,#200,
    #201,#202,#203,#204,#205,#206,#207,#208,#209,#210,#211,#212,#213,
    #214,#215,#216),.UNSPECIFIED.,.F.,.F.,(7,5,5,5,7),(0.,0.120601921458
    ,0.465656689032,0.761168782106,0.999999848333),.UNSPECIFIED.);
#195 = CARTESIAN_POINT('',(6.423853178789,9.982382746581));
#196 = CARTESIAN_POINT('',(6.427693413756,10.067799800103));
#197 = CARTESIAN_POINT('',(6.431315773387,10.155042724412));
#198 = CARTESIAN_POINT('',(6.434723587763,10.243913958321));
#199 = CARTESIAN_POINT('',(6.437920052929,10.334236998864));
#200 = CARTESIAN_POINT('',(6.440908235945,10.425856192716));
#201 = CARTESIAN_POINT('',(6.451653088971,10.784090813128));
#202 = CARTESIAN_POINT('',(6.457936062471,11.059111519351));
#203 = CARTESIAN_POINT('',(6.462602571291,11.34040738245));
#204 = CARTESIAN_POINT('',(6.4656978903,11.625590650875));
#205 = CARTESIAN_POINT('',(6.467246711254,11.912741879949));
#206 = CARTESIAN_POINT('',(6.467246711254,12.44601383979));
#207 = CARTESIAN_POINT('',(6.466110729445,12.691978949695));
#208 = CARTESIAN_POINT('',(6.463839658205,12.936703928543));
#209 = CARTESIAN_POINT('',(6.46042069136,13.178969487446));
#210 = CARTESIAN_POINT('',(6.455829695073,13.417345882942));
#211 = CARTESIAN_POINT('',(6.445346855543,13.838034828597));
#212 = CARTESIAN_POINT('',(6.439873137152,14.022342060834));
#213 = CARTESIAN_POINT('',(6.433591464602,14.202010528778));
#214 = CARTESIAN_POINT('',(6.426477212248,14.375897463022));
#215 = CARTESIAN_POINT('',(6.418504414021,14.542529363874));
#216 = CARTESIAN_POINT('',(6.409649382361,14.7));
#217 = ( GEOMETRIC_REPRESENTATION_CONTEXT(2) 
PARAMETRIC_REPRESENTATION_CONTEXT() REPRESENTATION_CONTEXT('2D SPACE',''
  ) );
#218 = PCURVE('',#219,#224);
#219 = CYLINDRICAL_SURFACE('',#220,3.45);
#220 = AXIS2_PLACEMENT_3D('',#221,#222,#223);
#221 = CARTESIAN_POINT('',(102.5,0.,17.85));
#222 = DIRECTION('',(0.,0.,1.));
#223 = DIRECTION('',(1.,0.,-0.));
#224 = DEFINITIONAL_REPRESENTATION('',(#225),#248);
#225 = B_SPLINE_CURVE_WITH_KNOTS('',6,(#226,#227,#228,#229,#230,#231,
    #232,#233,#234,#235,#236,#237,#238,#239,#240,#241,#242,#243,#244,
    #245,#246,#247),.UNSPECIFIED.,.F.,.F.,(7,5,5,5,7),(0.,0.120601921458
    ,0.465656689032,0.761168782106,1.),.UNSPECIFIED.);
#226 = CARTESIAN_POINT('',(4.014257279587,0.813810604554));
#227 = CARTESIAN_POINT('',(4.046577292428,0.803661426787));
#228 = CARTESIAN_POINT('',(4.078536388041,0.793757772733));
#229 = CARTESIAN_POINT('',(4.110164515573,0.784161370193));
#230 = CARTESIAN_POINT('',(4.141489133658,0.774925645229));
#231 = CARTESIAN_POINT('',(4.17253677571,0.766096485063));
#232 = CARTESIAN_POINT('',(4.291450469638,0.733726972202));
#233 = CARTESIAN_POINT('',(4.377542065776,0.713383562656));
#234 = CARTESIAN_POINT('',(4.462193722652,0.697616709429));
#235 = CARTESIAN_POINT('',(4.545893228084,0.686938126515));
#236 = CARTESIAN_POINT('',(4.629125757182,0.681594642664));
#237 = CARTESIAN_POINT('',(4.783697339744,0.681594642664));
#238 = CARTESIAN_POINT('',(4.854991666212,0.685513792233));
#239 = CARTESIAN_POINT('',(4.926578679635,0.693348923106));
#240 = CARTESIAN_POINT('',(4.998758400117,0.704965202801));
#241 = CARTESIAN_POINT('',(5.071835051957,0.720086997673));
#242 = CARTESIAN_POINT('',(5.206219301484,0.752903471542));
#243 = CARTESIAN_POINT('',(5.267099035797,0.76954913055));
#244 = CARTESIAN_POINT('',(5.328995781361,0.787925214563));
#245 = CARTESIAN_POINT('',(5.392111808053,0.807697462265));
#246 = CARTESIAN_POINT('',(5.456663928887,0.828412472637));
#247 = CARTESIAN_POINT('',(5.522897718953,0.849465313212));
#248 = ( GEOMETRIC_REPRESENTATION_CONTEXT(2) 
PARAMETRIC_REPRESENTATION_CONTEXT() REPRESENTATION_CONTEXT('2D SPACE',''
  ) );
#249 = ORIENTED_EDGE('',*,*,#250,.T.);
#250 = EDGE_CURVE('',#166,#251,#253,.T.);
#251 = VERTEX_POINT('',#252);
#252 = CARTESIAN_POINT('',(97.132752797332,2.308459216393E-15,18.85));
#253 = SURFACE_CURVE('',#254,(#259,#269),.PCURVE_S1.);
#254 = ELLIPSE('',#255,29.325394136319,18.85);
#255 = AXIS2_PLACEMENT_3D('',#256,#257,#258);
#256 = CARTESIAN_POINT('',(97.132752797332,0.,0.));
#257 = DIRECTION('',(-0.642787609687,-0.766044443119,0.));
#258 = DIRECTION('',(0.766044443119,-0.642787609687,0.));
#259 = PCURVE('',#33,#260);
#260 = DEFINITIONAL_REPRESENTATION('',(#261),#268);
#261 = B_SPLINE_CURVE_WITH_KNOTS('',5,(#262,#263,#264,#265,#266,#267),
  .UNSPECIFIED.,.F.,.F.,(6,6),(1.430128455186,1.570796326795),
  .PIECEWISE_BEZIER_KNOTS.);
#262 = CARTESIAN_POINT('',(6.423853178789,9.982382746615));
#263 = CARTESIAN_POINT('',(6.395719604467,9.35661712452));
#264 = CARTESIAN_POINT('',(6.367586030145,8.727735345029));
#265 = CARTESIAN_POINT('',(6.339452455823,8.096769265663));
#266 = CARTESIAN_POINT('',(6.311318881501,7.464761031231));
#267 = CARTESIAN_POINT('',(6.28318530718,6.832752797332));
#268 = ( GEOMETRIC_REPRESENTATION_CONTEXT(2) 
PARAMETRIC_REPRESENTATION_CONTEXT() REPRESENTATION_CONTEXT('2D SPACE',''
  ) );
#269 = PCURVE('',#270,#275);
#270 = PLANE('',#271);
#271 = AXIS2_PLACEMENT_3D('',#272,#273,#274);
#272 = CARTESIAN_POINT('',(100.28238274658,-2.64285332876,17.85));
#273 = DIRECTION('',(-0.642787609687,-0.766044443119,0.));
#274 = DIRECTION('',(-0.766044443119,0.642787609687,0.));
#275 = DEFINITIONAL_REPRESENTATION('',(#276),#280);
#276 = ELLIPSE('',#277,29.325394136319,18.85);
#277 = AXIS2_PLACEMENT_2D('',#278,#279);
#278 = CARTESIAN_POINT('',(4.11154989445,17.85));
#279 = DIRECTION('',(-1.,-0.));
#280 = ( GEOMETRIC_REPRESENTATION_CONTEXT(2) 
PARAMETRIC_REPRESENTATION_CONTEXT() REPRESENTATION_CONTEXT('2D SPACE',''
  ) );
#281 = ORIENTED_EDGE('',*,*,#282,.T.);
#282 = EDGE_CURVE('',#251,#283,#285,.T.);
#283 = VERTEX_POINT('',#284);
#284 = CARTESIAN_POINT('',(100.28238274658,2.64285332876,18.663810604554
    ));
#285 = SURFACE_CURVE('',#286,(#291,#301),.PCURVE_S1.);
#286 = ELLIPSE('',#287,29.325394136319,18.85);
#287 = AXIS2_PLACEMENT_3D('',#288,#289,#290);
#288 = CARTESIAN_POINT('',(97.132752797332,0.,0.));
#289 = DIRECTION('',(-0.642787609687,0.766044443119,0.));
#290 = DIRECTION('',(0.766044443119,0.642787609687,0.));
#291 = PCURVE('',#33,#292);
#292 = DEFINITIONAL_REPRESENTATION('',(#293),#300);
#293 = B_SPLINE_CURVE_WITH_KNOTS('',5,(#294,#295,#296,#297,#298,#299),
  .UNSPECIFIED.,.F.,.F.,(6,6),(4.712388980385,4.853056851994),
  .PIECEWISE_BEZIER_KNOTS.);
#294 = CARTESIAN_POINT('',(6.28318530718,6.832752797332));
#295 = CARTESIAN_POINT('',(6.255051732858,7.464761031231));
#296 = CARTESIAN_POINT('',(6.226918158536,8.096769265663));
#297 = CARTESIAN_POINT('',(6.198784584214,8.727735345029));
#298 = CARTESIAN_POINT('',(6.170651009892,9.35661712452));
#299 = CARTESIAN_POINT('',(6.142517435571,9.982382746615));
#300 = ( GEOMETRIC_REPRESENTATION_CONTEXT(2) 
PARAMETRIC_REPRESENTATION_CONTEXT() REPRESENTATION_CONTEXT('2D SPACE',''
  ) );
#301 = PCURVE('',#302,#307);
#302 = PLANE('',#303);
#303 = AXIS2_PLACEMENT_3D('',#304,#305,#306);
#304 = CARTESIAN_POINT('',(97.132752797332,0.,17.85));
#305 = DIRECTION('',(-0.642787609687,0.766044443119,0.));
#306 = DIRECTION('',(0.766044443119,0.642787609687,0.));
#307 = DEFINITIONAL_REPRESENTATION('',(#308),#312);
#308 = ELLIPSE('',#309,29.325394136319,18.85);
#309 = AXIS2_PLACEMENT_2D('',#310,#311);
#310 = CARTESIAN_POINT('',(1.088614628655E-14,17.85));
#311 = DIRECTION('',(1.,0.));
#312 = ( GEOMETRIC_REPRESENTATION_CONTEXT(2) 
PARAMETRIC_REPRESENTATION_CONTEXT() REPRESENTATION_CONTEXT('2D SPACE',''
  ) );
#313 = ORIENTED_EDGE('',*,*,#314,.F.);
#314 = EDGE_CURVE('',#315,#283,#317,.T.);
#315 = VERTEX_POINT('',#316);
#316 = CARTESIAN_POINT('',(105.,2.377498685594,18.699465232995));
#317 = SURFACE_CURVE('',#318,(#341,#367),.PCURVE_S1.);
#318 = B_SPLINE_CURVE_WITH_KNOTS('',6,(#319,#320,#321,#322,#323,#324,
    #325,#326,#327,#328,#329,#330,#331,#332,#333,#334,#335,#336,#337,
    #338,#339,#340),.UNSPECIFIED.,.F.,.F.,(7,5,5,5,7),(0.,0.135705167783
    ,0.534426668068,0.785424434633,1.),.UNSPECIFIED.);
#319 = CARTESIAN_POINT('',(105.0000006,2.377498054678,18.699465313212));
#320 = CARTESIAN_POINT('',(104.91055150717,2.471556085678,
    18.687506533536));
#321 = CARTESIAN_POINT('',(104.81814408212,2.560221348307,
    18.675656492803));
#322 = CARTESIAN_POINT('',(104.72312665384,2.643585664534,
    18.664025900415));
#323 = CARTESIAN_POINT('',(104.62580743016,2.72174285846,18.652710397361
    ));
#324 = CARTESIAN_POINT('',(104.52645493601,2.794788195279,
    18.641791658583));
#325 = CARTESIAN_POINT('',(104.12808600325,3.062698742728,18.60062558296
    ));
#326 = CARTESIAN_POINT('',(103.81515917162,3.219374300839,
    18.573917189159));
#327 = CARTESIAN_POINT('',(103.49240980063,3.335111050142,
    18.552982336518));
#328 = CARTESIAN_POINT('',(103.16368207471,3.411671657993,18.53873043495
    ));
#329 = CARTESIAN_POINT('',(102.83195697742,3.45,18.531594642664));
#330 = CARTESIAN_POINT('',(102.29103093294,3.45,18.531594642664));
#331 = CARTESIAN_POINT('',(102.08208330392,3.434811168422,
    18.534422652172));
#332 = CARTESIAN_POINT('',(101.87389739344,3.404439111207,
    18.540076051306));
#333 = CARTESIAN_POINT('',(101.66722605652,3.358747066805,
    18.548486826677));
#334 = CARTESIAN_POINT('',(101.4629140517,3.297468113867,18.559508374724
    ));
#335 = CARTESIAN_POINT('',(101.0901985423,3.154176472061,18.584352646643
    ));
#336 = CARTESIAN_POINT('',(100.92089283628,3.076465020012,
    18.597536216772));
#337 = CARTESIAN_POINT('',(100.75465173112,2.986827498391,
    18.612305645158));
#338 = CARTESIAN_POINT('',(100.59218790103,2.884932172923,
    18.628464495033));
#339 = CARTESIAN_POINT('',(100.43439088334,2.770403300253,
    18.645749133942));
#340 = CARTESIAN_POINT('',(100.28238274658,2.64285332876,18.663810604554
    ));
#341 = PCURVE('',#33,#342);
#342 = DEFINITIONAL_REPRESENTATION('',(#343),#366);
#343 = B_SPLINE_CURVE_WITH_KNOTS('',6,(#344,#345,#346,#347,#348,#349,
    #350,#351,#352,#353,#354,#355,#356,#357,#358,#359,#360,#361,#362,
    #363,#364,#365),.UNSPECIFIED.,.F.,.F.,(7,5,5,5,7),(
    1.517121697614E-07,0.135705167783,0.534426668068,0.785424434633,1.),
  .UNSPECIFIED.);
#344 = CARTESIAN_POINT('',(6.156721231998,14.7));
#345 = CARTESIAN_POINT('',(6.15169125416,14.61055099064));
#346 = CARTESIAN_POINT('',(6.146945806758,14.518143657219));
#347 = CARTESIAN_POINT('',(6.142480570752,14.423126327444));
#348 = CARTESIAN_POINT('',(6.138291145871,14.325807208021));
#349 = CARTESIAN_POINT('',(6.134373046167,14.226454822931));
#350 = CARTESIAN_POINT('',(6.119993485007,13.828086003254));
#351 = CARTESIAN_POINT('',(6.111563004119,13.515159171627));
#352 = CARTESIAN_POINT('',(6.105323494748,13.192409800633));
#353 = CARTESIAN_POINT('',(6.101192182318,12.863682074717));
#354 = CARTESIAN_POINT('',(6.099123903105,12.531956977427));
#355 = CARTESIAN_POINT('',(6.099123903105,11.991030932944));
#356 = CARTESIAN_POINT('',(6.099943519087,11.782083303927));
#357 = CARTESIAN_POINT('',(6.101582458624,11.573897393444));
#358 = CARTESIAN_POINT('',(6.104047145747,11.367226056527));
#359 = CARTESIAN_POINT('',(6.107350121879,11.162914051706));
#360 = CARTESIAN_POINT('',(6.115065213438,10.790198542307));
#361 = CARTESIAN_POINT('',(6.119246709802,10.620892836287));
#362 = CARTESIAN_POINT('',(6.124066056541,10.454651731127));
#363 = CARTESIAN_POINT('',(6.129539001104,10.292187901039));
#364 = CARTESIAN_POINT('',(6.135683355747,10.134390883342));
#365 = CARTESIAN_POINT('',(6.142517435571,9.982382746581));
#366 = ( GEOMETRIC_REPRESENTATION_CONTEXT(2) 
PARAMETRIC_REPRESENTATION_CONTEXT() REPRESENTATION_CONTEXT('2D SPACE',''
  ) );
#367 = PCURVE('',#368,#373);
#368 = CYLINDRICAL_SURFACE('',#369,3.45);
#369 = AXIS2_PLACEMENT_3D('',#370,#371,#372);
#370 = CARTESIAN_POINT('',(102.5,0.,17.85));
#371 = DIRECTION('',(0.,0.,1.));
#372 = DIRECTION('',(1.,0.,-0.));
#373 = DEFINITIONAL_REPRESENTATION('',(#374),#397);
#374 = B_SPLINE_CURVE_WITH_KNOTS('',6,(#375,#376,#377,#378,#379,#380,
    #381,#382,#383,#384,#385,#386,#387,#388,#389,#390,#391,#392,#393,
    #394,#395,#396),.UNSPECIFIED.,.F.,.F.,(7,5,5,5,7),(0.,0.135705167783
    ,0.534426668068,0.785424434633,1.),.UNSPECIFIED.);
#375 = CARTESIAN_POINT('',(0.760287588227,0.849465313212));
#376 = CARTESIAN_POINT('',(0.797910791597,0.837506533536));
#377 = CARTESIAN_POINT('',(0.834992236021,0.825656492803));
#378 = CARTESIAN_POINT('',(0.871577399073,0.814025900415));
#379 = CARTESIAN_POINT('',(0.907706694445,0.802710397361));
#380 = CARTESIAN_POINT('',(0.943418680164,0.791791658583));
#381 = CARTESIAN_POINT('',(1.082571416308,0.75062558296));
#382 = CARTESIAN_POINT('',(1.183181362321,0.723917189159));
#383 = CARTESIAN_POINT('',(1.28154071985,0.702982336518));
#384 = CARTESIAN_POINT('',(1.378423950628,0.68873043495));
#385 = CARTESIAN_POINT('',(1.474576913048,0.681594642664));
#386 = CARTESIAN_POINT('',(1.631367070869,0.681594642664));
#387 = CARTESIAN_POINT('',(1.691931490852,0.684422652172));
#388 = CARTESIAN_POINT('',(1.752675487352,0.690076051306));
#389 = CARTESIAN_POINT('',(1.813779772634,0.698486826677));
#390 = CARTESIAN_POINT('',(1.875430318113,0.709508374724));
#391 = CARTESIAN_POINT('',(1.991172662664,0.734352646643));
#392 = CARTESIAN_POINT('',(2.045061139413,0.747536216772));
#393 = CARTESIAN_POINT('',(2.099634833024,0.762305645158));
#394 = CARTESIAN_POINT('',(2.155035121975,0.778464495033));
#395 = CARTESIAN_POINT('',(2.211411352298,0.795749133942));
#396 = CARTESIAN_POINT('',(2.268928027593,0.813810604554));
#397 = ( GEOMETRIC_REPRESENTATION_CONTEXT(2) 
PARAMETRIC_REPRESENTATION_CONTEXT() REPRESENTATION_CONTEXT('2D SPACE',''
  ) );
#398 = ORIENTED_EDGE('',*,*,#399,.F.);
#399 = EDGE_CURVE('',#400,#315,#402,.T.);
#400 = VERTEX_POINT('',#401);
#401 = CARTESIAN_POINT('',(105.,6.,17.869597085553));
#402 = SURFACE_CURVE('',#403,(#408,#414),.PCURVE_S1.);
#403 = CIRCLE('',#404,18.85);
#404 = AXIS2_PLACEMENT_3D('',#405,#406,#407);
#405 = CARTESIAN_POINT('',(105.,0.,0.));
#406 = DIRECTION('',(1.,0.,0.));
#407 = DIRECTION('',(-0.,0.,1.));
#408 = PCURVE('',#33,#409);
#409 = DEFINITIONAL_REPRESENTATION('',(#410),#413);
#410 = B_SPLINE_CURVE_WITH_KNOTS('',1,(#411,#412),.UNSPECIFIED.,.F.,.F.,
  (2,2),(5.959247110597,6.156721231998),.PIECEWISE_BEZIER_KNOTS.);
#411 = CARTESIAN_POINT('',(5.959247110597,14.7));
#412 = CARTESIAN_POINT('',(6.156721231998,14.7));
#413 = ( GEOMETRIC_REPRESENTATION_CONTEXT(2) 
PARAMETRIC_REPRESENTATION_CONTEXT() REPRESENTATION_CONTEXT('2D SPACE',''
  ) );
#414 = PCURVE('',#153,#415);
#415 = DEFINITIONAL_REPRESENTATION('',(#416),#420);
#416 = CIRCLE('',#417,18.85);
#417 = AXIS2_PLACEMENT_2D('',#418,#419);
#418 = CARTESIAN_POINT('',(0.,0.));
#419 = DIRECTION('',(1.,0.));
#420 = ( GEOMETRIC_REPRESENTATION_CONTEXT(2) 
PARAMETRIC_REPRESENTATION_CONTEXT() REPRESENTATION_CONTEXT('2D SPACE',''
  ) );
#421 = ORIENTED_EDGE('',*,*,#422,.F.);
#422 = EDGE_CURVE('',#423,#400,#425,.T.);
#423 = VERTEX_POINT('',#424);
#424 = CARTESIAN_POINT('',(96.,6.,17.869597085553));
#425 = SURFACE_CURVE('',#426,(#430,#436),.PCURVE_S1.);
#426 = LINE('',#427,#428);
#427 = CARTESIAN_POINT('',(96.,6.,17.869597085553));
#428 = VECTOR('',#429,1.);
#429 = DIRECTION('',(1.,0.,0.));
#430 = PCURVE('',#33,#431);
#431 = DEFINITIONAL_REPRESENTATION('',(#432),#435);
#432 = B_SPLINE_CURVE_WITH_KNOTS('',1,(#433,#434),.UNSPECIFIED.,.F.,.F.,
  (2,2),(0.,9.),.PIECEWISE_BEZIER_KNOTS.);
#433 = CARTESIAN_POINT('',(5.959247110597,5.7));
#434 = CARTESIAN_POINT('',(5.959247110597,14.7));
#435 = ( GEOMETRIC_REPRESENTATION_CONTEXT(2) 
PARAMETRIC_REPRESENTATION_CONTEXT() REPRESENTATION_CONTEXT('2D SPACE',''
  ) );
#436 = PCURVE('',#437,#442);
#437 = PLANE('',#438);
#438 = AXIS2_PLACEMENT_3D('',#439,#440,#441);
#439 = CARTESIAN_POINT('',(96.,6.,0.));
#440 = DIRECTION('',(-0.,1.,0.));
#441 = DIRECTION('',(0.,0.,1.));
#442 = DEFINITIONAL_REPRESENTATION('',(#443),#446);
#443 = B_SPLINE_CURVE_WITH_KNOTS('',1,(#444,#445),.UNSPECIFIED.,.F.,.F.,
  (2,2),(-6.000000070117E-07,9.0000006),.PIECEWISE_BEZIER_KNOTS.);
#444 = CARTESIAN_POINT('',(17.869597085553,-6.000000070117E-07));
#445 = CARTESIAN_POINT('',(17.869597085553,9.0000006));
#446 = ( GEOMETRIC_REPRESENTATION_CONTEXT(2) 
PARAMETRIC_REPRESENTATION_CONTEXT() REPRESENTATION_CONTEXT('2D SPACE',''
  ) );
#447 = ORIENTED_EDGE('',*,*,#448,.F.);
#448 = EDGE_CURVE('',#449,#423,#451,.T.);
#449 = VERTEX_POINT('',#450);
#450 = CARTESIAN_POINT('',(96.,15.307596153545,11.));
#451 = SURFACE_CURVE('',#452,(#457,#463),.PCURVE_S1.);
#452 = CIRCLE('',#453,18.85);
#453 = AXIS2_PLACEMENT_3D('',#454,#455,#456);
#454 = CARTESIAN_POINT('',(96.,0.,0.));
#455 = DIRECTION('',(1.,0.,0.));
#456 = DIRECTION('',(-0.,0.,1.));
#457 = PCURVE('',#33,#458);
#458 = DEFINITIONAL_REPRESENTATION('',(#459),#462);
#459 = B_SPLINE_CURVE_WITH_KNOTS('',1,(#460,#461),.UNSPECIFIED.,.F.,.F.,
  (2,2),(5.335487735199,5.959247110597),.PIECEWISE_BEZIER_KNOTS.);
#460 = CARTESIAN_POINT('',(5.335487735199,5.7));
#461 = CARTESIAN_POINT('',(5.959247110597,5.7));
#462 = ( GEOMETRIC_REPRESENTATION_CONTEXT(2) 
PARAMETRIC_REPRESENTATION_CONTEXT() REPRESENTATION_CONTEXT('2D SPACE',''
  ) );
#463 = PCURVE('',#464,#469);
#464 = PLANE('',#465);
#465 = AXIS2_PLACEMENT_3D('',#466,#467,#468);
#466 = CARTESIAN_POINT('',(96.,0.,0.));
#467 = DIRECTION('',(1.,0.,0.));
#468 = DIRECTION('',(-0.,0.,1.));
#469 = DEFINITIONAL_REPRESENTATION('',(#470),#474);
#470 = CIRCLE('',#471,18.85);
#471 = AXIS2_PLACEMENT_2D('',#472,#473);
#472 = CARTESIAN_POINT('',(0.,0.));
#473 = DIRECTION('',(1.,0.));
#474 = ( GEOMETRIC_REPRESENTATION_CONTEXT(2) 
PARAMETRIC_REPRESENTATION_CONTEXT() REPRESENTATION_CONTEXT('2D SPACE',''
  ) );
#475 = ORIENTED_EDGE('',*,*,#476,.F.);
#476 = EDGE_CURVE('',#22,#449,#477,.T.);
#477 = SURFACE_CURVE('',#478,(#482,#488),.PCURVE_S1.);
#478 = LINE('',#479,#480);
#479 = CARTESIAN_POINT('',(90.3,15.307596153544,11.));
#480 = VECTOR('',#481,1.);
#481 = DIRECTION('',(1.,0.,0.));
#482 = PCURVE('',#33,#483);
#483 = DEFINITIONAL_REPRESENTATION('',(#484),#487);
#484 = B_SPLINE_CURVE_WITH_KNOTS('',1,(#485,#486),.UNSPECIFIED.,.F.,.F.,
  (2,2),(0.,5.7),.PIECEWISE_BEZIER_KNOTS.);
#485 = CARTESIAN_POINT('',(5.335487735199,0.));
#486 = CARTESIAN_POINT('',(5.335487735199,5.7));
#487 = ( GEOMETRIC_REPRESENTATION_CONTEXT(2) 
PARAMETRIC_REPRESENTATION_CONTEXT() REPRESENTATION_CONTEXT('2D SPACE',''
  ) );
#488 = PCURVE('',#489,#494);
#489 = PLANE('',#490);
#490 = AXIS2_PLACEMENT_3D('',#491,#492,#493);
#491 = CARTESIAN_POINT('',(90.3,-30.,11.));
#492 = DIRECTION('',(0.,0.,1.));
#493 = DIRECTION('',(1.,0.,-0.));
#494 = DEFINITIONAL_REPRESENTATION('',(#495),#498);
#495 = B_SPLINE_CURVE_WITH_KNOTS('',1,(#496,#497),.UNSPECIFIED.,.F.,.F.,
  (2,2),(-6.000000070117E-07,5.7000006),.PIECEWISE_BEZIER_KNOTS.);
#496 = CARTESIAN_POINT('',(-6.000000070117E-07,45.307596153544));
#497 = CARTESIAN_POINT('',(5.7000006,45.307596153544));
#498 = ( GEOMETRIC_REPRESENTATION_CONTEXT(2) 
PARAMETRIC_REPRESENTATION_CONTEXT() REPRESENTATION_CONTEXT('2D SPACE',''
  ) );
#499 = ADVANCED_FACE('',(#500),#489,.F.);
#500 = FACE_BOUND('',#501,.F.);
#501 = EDGE_LOOP('',(#502,#525,#551,#572));
#502 = ORIENTED_EDGE('',*,*,#503,.F.);
#503 = EDGE_CURVE('',#504,#22,#506,.T.);
#504 = VERTEX_POINT('',#505);
#505 = CARTESIAN_POINT('',(90.3,11.341957503007,11.));
#506 = SURFACE_CURVE('',#507,(#511,#518),.PCURVE_S1.);
#507 = LINE('',#508,#509);
#508 = CARTESIAN_POINT('',(90.3,-30.,11.));
#509 = VECTOR('',#510,1.);
#510 = DIRECTION('',(-0.,1.,0.));
#511 = PCURVE('',#489,#512);
#512 = DEFINITIONAL_REPRESENTATION('',(#513),#517);
#513 = LINE('',#514,#515);
#514 = CARTESIAN_POINT('',(0.,0.));
#515 = VECTOR('',#516,1.);
#516 = DIRECTION('',(0.,1.));
#517 = ( GEOMETRIC_REPRESENTATION_CONTEXT(2) 
PARAMETRIC_REPRESENTATION_CONTEXT() REPRESENTATION_CONTEXT('2D SPACE',''
  ) );
#518 = PCURVE('',#45,#519);
#519 = DEFINITIONAL_REPRESENTATION('',(#520),#524);
#520 = LINE('',#521,#522);
#521 = CARTESIAN_POINT('',(11.,30.));
#522 = VECTOR('',#523,1.);
#523 = DIRECTION('',(0.,-1.));
#524 = ( GEOMETRIC_REPRESENTATION_CONTEXT(2) 
PARAMETRIC_REPRESENTATION_CONTEXT() REPRESENTATION_CONTEXT('2D SPACE',''
  ) );
#525 = ORIENTED_EDGE('',*,*,#526,.T.);
#526 = EDGE_CURVE('',#504,#527,#529,.T.);
#527 = VERTEX_POINT('',#528);
#528 = CARTESIAN_POINT('',(96.,11.341957503007,11.));
#529 = SURFACE_CURVE('',#530,(#534,#540),.PCURVE_S1.);
#530 = LINE('',#531,#532);
#531 = CARTESIAN_POINT('',(89.3,11.341957503006,11.));
#532 = VECTOR('',#533,1.);
#533 = DIRECTION('',(1.,0.,0.));
#534 = PCURVE('',#489,#535);
#535 = DEFINITIONAL_REPRESENTATION('',(#536),#539);
#536 = B_SPLINE_CURVE_WITH_KNOTS('',1,(#537,#538),.UNSPECIFIED.,.F.,.F.,
  (2,2),(0.9999994,6.7000006),.PIECEWISE_BEZIER_KNOTS.);
#537 = CARTESIAN_POINT('',(-6.000000070117E-07,41.341957503006));
#538 = CARTESIAN_POINT('',(5.7000006,41.341957503006));
#539 = ( GEOMETRIC_REPRESENTATION_CONTEXT(2) 
PARAMETRIC_REPRESENTATION_CONTEXT() REPRESENTATION_CONTEXT('2D SPACE',''
  ) );
#540 = PCURVE('',#541,#546);
#541 = CYLINDRICAL_SURFACE('',#542,15.8);
#542 = AXIS2_PLACEMENT_3D('',#543,#544,#545);
#543 = CARTESIAN_POINT('',(89.3,0.,0.));
#544 = DIRECTION('',(1.,0.,0.));
#545 = DIRECTION('',(-0.,0.,1.));
#546 = DEFINITIONAL_REPRESENTATION('',(#547),#550);
#547 = B_SPLINE_CURVE_WITH_KNOTS('',1,(#548,#549),.UNSPECIFIED.,.F.,.F.,
  (2,2),(1.,6.7),.PIECEWISE_BEZIER_KNOTS.);
#548 = CARTESIAN_POINT('',(5.482482719174,1.));
#549 = CARTESIAN_POINT('',(5.482482719174,6.7));
#550 = ( GEOMETRIC_REPRESENTATION_CONTEXT(2) 
PARAMETRIC_REPRESENTATION_CONTEXT() REPRESENTATION_CONTEXT('2D SPACE',''
  ) );
#551 = ORIENTED_EDGE('',*,*,#552,.T.);
#552 = EDGE_CURVE('',#527,#449,#553,.T.);
#553 = SURFACE_CURVE('',#554,(#558,#565),.PCURVE_S1.);
#554 = LINE('',#555,#556);
#555 = CARTESIAN_POINT('',(96.,-30.,11.));
#556 = VECTOR('',#557,1.);
#557 = DIRECTION('',(-0.,1.,0.));
#558 = PCURVE('',#489,#559);
#559 = DEFINITIONAL_REPRESENTATION('',(#560),#564);
#560 = LINE('',#561,#562);
#561 = CARTESIAN_POINT('',(5.7,0.));
#562 = VECTOR('',#563,1.);
#563 = DIRECTION('',(0.,1.));
#564 = ( GEOMETRIC_REPRESENTATION_CONTEXT(2) 
PARAMETRIC_REPRESENTATION_CONTEXT() REPRESENTATION_CONTEXT('2D SPACE',''
  ) );
#565 = PCURVE('',#464,#566);
#566 = DEFINITIONAL_REPRESENTATION('',(#567),#571);
#567 = LINE('',#568,#569);
#568 = CARTESIAN_POINT('',(11.,30.));
#569 = VECTOR('',#570,1.);
#570 = DIRECTION('',(0.,-1.));
#571 = ( GEOMETRIC_REPRESENTATION_CONTEXT(2) 
PARAMETRIC_REPRESENTATION_CONTEXT() REPRESENTATION_CONTEXT('2D SPACE',''
  ) );
#572 = ORIENTED_EDGE('',*,*,#476,.F.);
#573 = ADVANCED_FACE('',(#574),#541,.F.);
#574 = FACE_BOUND('',#575,.F.);
#575 = EDGE_LOOP('',(#576,#600,#621,#644,#665,#688,#788,#820,#852,#944,
    #967,#988,#1009));
#576 = ORIENTED_EDGE('',*,*,#577,.T.);
#577 = EDGE_CURVE('',#504,#578,#580,.T.);
#578 = VERTEX_POINT('',#579);
#579 = CARTESIAN_POINT('',(90.3,-11.341957503,11.));
#580 = SURFACE_CURVE('',#581,(#586,#593),.PCURVE_S1.);
#581 = CIRCLE('',#582,15.8);
#582 = AXIS2_PLACEMENT_3D('',#583,#584,#585);
#583 = CARTESIAN_POINT('',(90.3,0.,0.));
#584 = DIRECTION('',(1.,0.,0.));
#585 = DIRECTION('',(-0.,0.717845411583,0.696202531646));
#586 = PCURVE('',#541,#587);
#587 = DEFINITIONAL_REPRESENTATION('',(#588),#592);
#588 = LINE('',#589,#590);
#589 = CARTESIAN_POINT('',(5.482482719174,1.));
#590 = VECTOR('',#591,1.);
#591 = DIRECTION('',(1.,0.));
#592 = ( GEOMETRIC_REPRESENTATION_CONTEXT(2) 
PARAMETRIC_REPRESENTATION_CONTEXT() REPRESENTATION_CONTEXT('2D SPACE',''
  ) );
#593 = PCURVE('',#45,#594);
#594 = DEFINITIONAL_REPRESENTATION('',(#595),#599);
#595 = CIRCLE('',#596,15.8);
#596 = AXIS2_PLACEMENT_2D('',#597,#598);
#597 = CARTESIAN_POINT('',(0.,0.));
#598 = DIRECTION('',(0.696202531646,-0.717845411583));
#599 = ( GEOMETRIC_REPRESENTATION_CONTEXT(2) 
PARAMETRIC_REPRESENTATION_CONTEXT() REPRESENTATION_CONTEXT('2D SPACE',''
  ) );
#600 = ORIENTED_EDGE('',*,*,#601,.T.);
#601 = EDGE_CURVE('',#578,#602,#604,.T.);
#602 = VERTEX_POINT('',#603);
#603 = CARTESIAN_POINT('',(96.,-11.341957503,11.));
#604 = SURFACE_CURVE('',#605,(#609,#615),.PCURVE_S1.);
#605 = LINE('',#606,#607);
#606 = CARTESIAN_POINT('',(89.3,-11.341957503,11.));
#607 = VECTOR('',#608,1.);
#608 = DIRECTION('',(1.,0.,0.));
#609 = PCURVE('',#541,#610);
#610 = DEFINITIONAL_REPRESENTATION('',(#611),#614);
#611 = B_SPLINE_CURVE_WITH_KNOTS('',1,(#612,#613),.UNSPECIFIED.,.F.,.F.,
  (2,2),(1.,6.7),.PIECEWISE_BEZIER_KNOTS.);
#612 = CARTESIAN_POINT('',(7.083887895185,1.));
#613 = CARTESIAN_POINT('',(7.083887895185,6.7));
#614 = ( GEOMETRIC_REPRESENTATION_CONTEXT(2) 
PARAMETRIC_REPRESENTATION_CONTEXT() REPRESENTATION_CONTEXT('2D SPACE',''
  ) );
#615 = PCURVE('',#72,#616);
#616 = DEFINITIONAL_REPRESENTATION('',(#617),#620);
#617 = B_SPLINE_CURVE_WITH_KNOTS('',1,(#618,#619),.UNSPECIFIED.,.F.,.F.,
  (2,2),(0.9999994,6.7000006),.PIECEWISE_BEZIER_KNOTS.);
#618 = CARTESIAN_POINT('',(-6.000000070117E-07,18.658042496994));
#619 = CARTESIAN_POINT('',(5.7000006,18.658042496994));
#620 = ( GEOMETRIC_REPRESENTATION_CONTEXT(2) 
PARAMETRIC_REPRESENTATION_CONTEXT() REPRESENTATION_CONTEXT('2D SPACE',''
  ) );
#621 = ORIENTED_EDGE('',*,*,#622,.F.);
#622 = EDGE_CURVE('',#623,#602,#625,.T.);
#623 = VERTEX_POINT('',#624);
#624 = CARTESIAN_POINT('',(96.,-6.,14.616429112475));
#625 = SURFACE_CURVE('',#626,(#631,#637),.PCURVE_S1.);
#626 = CIRCLE('',#627,15.8);
#627 = AXIS2_PLACEMENT_3D('',#628,#629,#630);
#628 = CARTESIAN_POINT('',(96.,0.,0.));
#629 = DIRECTION('',(1.,0.,0.));
#630 = DIRECTION('',(-0.,0.,1.));
#631 = PCURVE('',#541,#632);
#632 = DEFINITIONAL_REPRESENTATION('',(#633),#636);
#633 = B_SPLINE_CURVE_WITH_KNOTS('',1,(#634,#635),.UNSPECIFIED.,.F.,.F.,
  (2,2),(0.389522616445,0.800702588006),.PIECEWISE_BEZIER_KNOTS.);
#634 = CARTESIAN_POINT('',(6.672707923624,6.7));
#635 = CARTESIAN_POINT('',(7.083887895186,6.7));
#636 = ( GEOMETRIC_REPRESENTATION_CONTEXT(2) 
PARAMETRIC_REPRESENTATION_CONTEXT() REPRESENTATION_CONTEXT('2D SPACE',''
  ) );
#637 = PCURVE('',#99,#638);
#638 = DEFINITIONAL_REPRESENTATION('',(#639),#643);
#639 = CIRCLE('',#640,15.8);
#640 = AXIS2_PLACEMENT_2D('',#641,#642);
#641 = CARTESIAN_POINT('',(0.,0.));
#642 = DIRECTION('',(1.,0.));
#643 = ( GEOMETRIC_REPRESENTATION_CONTEXT(2) 
PARAMETRIC_REPRESENTATION_CONTEXT() REPRESENTATION_CONTEXT('2D SPACE',''
  ) );
#644 = ORIENTED_EDGE('',*,*,#645,.T.);
#645 = EDGE_CURVE('',#623,#646,#648,.T.);
#646 = VERTEX_POINT('',#647);
#647 = CARTESIAN_POINT('',(105.,-6.,14.616429112475));
#648 = SURFACE_CURVE('',#649,(#653,#659),.PCURVE_S1.);
#649 = LINE('',#650,#651);
#650 = CARTESIAN_POINT('',(95.,-6.,14.616429112475));
#651 = VECTOR('',#652,1.);
#652 = DIRECTION('',(1.,0.,0.));
#653 = PCURVE('',#541,#654);
#654 = DEFINITIONAL_REPRESENTATION('',(#655),#658);
#655 = B_SPLINE_CURVE_WITH_KNOTS('',1,(#656,#657),.UNSPECIFIED.,.F.,.F.,
  (2,2),(1.,10.),.PIECEWISE_BEZIER_KNOTS.);
#656 = CARTESIAN_POINT('',(6.672707923624,6.7));
#657 = CARTESIAN_POINT('',(6.672707923624,15.7));
#658 = ( GEOMETRIC_REPRESENTATION_CONTEXT(2) 
PARAMETRIC_REPRESENTATION_CONTEXT() REPRESENTATION_CONTEXT('2D SPACE',''
  ) );
#659 = PCURVE('',#126,#660);
#660 = DEFINITIONAL_REPRESENTATION('',(#661),#664);
#661 = B_SPLINE_CURVE_WITH_KNOTS('',1,(#662,#663),.UNSPECIFIED.,.F.,.F.,
  (2,2),(0.9999994,10.0000006),.PIECEWISE_BEZIER_KNOTS.);
#662 = CARTESIAN_POINT('',(14.616429112475,-6.000000070117E-07));
#663 = CARTESIAN_POINT('',(14.616429112475,9.0000006));
#664 = ( GEOMETRIC_REPRESENTATION_CONTEXT(2) 
PARAMETRIC_REPRESENTATION_CONTEXT() REPRESENTATION_CONTEXT('2D SPACE',''
  ) );
#665 = ORIENTED_EDGE('',*,*,#666,.F.);
#666 = EDGE_CURVE('',#667,#646,#669,.T.);
#667 = VERTEX_POINT('',#668);
#668 = CARTESIAN_POINT('',(105.,-0.714142842856,15.783852508181));
#669 = SURFACE_CURVE('',#670,(#675,#681),.PCURVE_S1.);
#670 = CIRCLE('',#671,15.8);
#671 = AXIS2_PLACEMENT_3D('',#672,#673,#674);
#672 = CARTESIAN_POINT('',(105.,0.,0.));
#673 = DIRECTION('',(1.,0.,0.));
#674 = DIRECTION('',(-0.,0.,1.));
#675 = PCURVE('',#541,#676);
#676 = DEFINITIONAL_REPRESENTATION('',(#677),#680);
#677 = B_SPLINE_CURVE_WITH_KNOTS('',1,(#678,#679),.UNSPECIFIED.,.F.,.F.,
  (2,2),(4.521431806232E-02,0.389522616445),.PIECEWISE_BEZIER_KNOTS.);
#678 = CARTESIAN_POINT('',(6.328399625242,15.7));
#679 = CARTESIAN_POINT('',(6.672707923624,15.7));
#680 = ( GEOMETRIC_REPRESENTATION_CONTEXT(2) 
PARAMETRIC_REPRESENTATION_CONTEXT() REPRESENTATION_CONTEXT('2D SPACE',''
  ) );
#681 = PCURVE('',#153,#682);
#682 = DEFINITIONAL_REPRESENTATION('',(#683),#687);
#683 = CIRCLE('',#684,15.8);
#684 = AXIS2_PLACEMENT_2D('',#685,#686);
#685 = CARTESIAN_POINT('',(0.,0.));
#686 = DIRECTION('',(1.,0.));
#687 = ( GEOMETRIC_REPRESENTATION_CONTEXT(2) 
PARAMETRIC_REPRESENTATION_CONTEXT() REPRESENTATION_CONTEXT('2D SPACE',''
  ) );
#688 = ORIENTED_EDGE('',*,*,#689,.F.);
#689 = EDGE_CURVE('',#690,#667,#692,.T.);
#690 = VERTEX_POINT('',#691);
#691 = CARTESIAN_POINT('',(100.82875221481,-1.991715552109,
    15.673961501787));
#692 = SURFACE_CURVE('',#693,(#721,#752),.PCURVE_S1.);
#693 = B_SPLINE_CURVE_WITH_KNOTS('',6,(#694,#695,#696,#697,#698,#699,
    #700,#701,#702,#703,#704,#705,#706,#707,#708,#709,#710,#711,#712,
    #713,#714,#715,#716,#717,#718,#719,#720),.UNSPECIFIED.,.F.,.F.,(7,5,
    5,5,5,7),(0.,0.100806214134,0.362530666539,0.628213291534,
    0.835116603211,1.),.UNSPECIFIED.);
#694 = CARTESIAN_POINT('',(100.82875221481,-1.991715552109,
    15.673961501787));
#695 = CARTESIAN_POINT('',(100.89694697545,-2.048937750612,
    15.666690184789));
#696 = CARTESIAN_POINT('',(100.96671254464,-2.102703372606,
    15.659603366855));
#697 = CARTESIAN_POINT('',(101.0378715177,-2.153068028728,
    15.652751147823));
#698 = CARTESIAN_POINT('',(101.11026526238,-2.200085794968,
    15.646176666648));
#699 = CARTESIAN_POINT('',(101.18375359586,-2.243808888829,
    15.639916724682));
#700 = CARTESIAN_POINT('',(101.45153815203,-2.389382075977,
    15.618646996013));
#701 = CARTESIAN_POINT('',(101.65144657965,-2.472620965845,
    15.605619054286));
#702 = CARTESIAN_POINT('',(101.8557522375,-2.534829108157,15.59546966794
    ));
#703 = CARTESIAN_POINT('',(102.06282518013,-2.57661573349,
    15.588508729907));
#704 = CARTESIAN_POINT('',(102.27132999608,-2.598316288832,
    15.584888678342));
#705 = CARTESIAN_POINT('',(102.69178600155,-2.601553856488,
    15.584348567257));
#706 = CARTESIAN_POINT('',(102.90362242847,-2.582477575926,
    15.587530815778));
#707 = CARTESIAN_POINT('',(103.11414068059,-2.542732241729,
    15.594170799237));
#708 = CARTESIAN_POINT('',(103.3219577983,-2.481992832677,
    15.604121558466));
#709 = CARTESIAN_POINT('',(103.52539495414,-2.399642118093,
    15.617072084878));
#710 = CARTESIAN_POINT('',(103.87545884083,-2.213202399064,
    15.644441230677));
#711 = CARTESIAN_POINT('',(104.02475795943,-2.117920462469,
    15.657906097581));
#712 = CARTESIAN_POINT('',(104.16900931598,-2.008566108519,
    15.672587977578));
#713 = CARTESIAN_POINT('',(104.30685733338,-1.884663059659,
    15.688125840894));
#714 = CARTESIAN_POINT('',(104.43657168185,-1.745768486667,
    15.704022012816));
#715 = CARTESIAN_POINT('',(104.65104620838,-1.468721835242,
    15.732072567745));
#716 = CARTESIAN_POINT('',(104.7398017628,-1.335868511853,
    15.744359224728));
#717 = CARTESIAN_POINT('',(104.82059319379,-1.193342294147,
    15.75611151532));
#718 = CARTESIAN_POINT('',(104.8918760997,-1.041675533445,
    15.766896172328));
#719 = CARTESIAN_POINT('',(104.95215941327,-0.881618927614,
    15.77627504921));
#720 = CARTESIAN_POINT('',(105.0000006,-0.714140742431,15.783852603214)
  );
#721 = PCURVE('',#541,#722);
#722 = DEFINITIONAL_REPRESENTATION('',(#723),#751);
#723 = B_SPLINE_CURVE_WITH_KNOTS('',6,(#724,#725,#726,#727,#728,#729,
    #730,#731,#732,#733,#734,#735,#736,#737,#738,#739,#740,#741,#742,
    #743,#744,#745,#746,#747,#748,#749,#750),.UNSPECIFIED.,.F.,.F.,(7,5,
    5,5,5,7),(0.,0.100806214134,0.362530666539,0.628213291534,
    0.835116603211,0.999999655353),.UNSPECIFIED.);
#724 = CARTESIAN_POINT('',(6.409579519863,11.528752214815));
#725 = CARTESIAN_POINT('',(6.413230300714,11.596946975457));
#726 = CARTESIAN_POINT('',(6.416662584202,11.666712544641));
#727 = CARTESIAN_POINT('',(6.419879549097,11.7378715177));
#728 = CARTESIAN_POINT('',(6.422884282991,11.810265262388));
#729 = CARTESIAN_POINT('',(6.425679774204,11.883753595864));
#730 = CARTESIAN_POINT('',(6.434991093426,12.151538152039));
#731 = CARTESIAN_POINT('',(6.440323239351,12.351446579653));
#732 = CARTESIAN_POINT('',(6.444312508364,12.555752237507));
#733 = CARTESIAN_POINT('',(6.446993670469,12.762825180136));
#734 = CARTESIAN_POINT('',(6.448386103803,12.971329996083));
#735 = CARTESIAN_POINT('',(6.448593844994,13.391786001556));
#736 = CARTESIAN_POINT('',(6.447369800405,13.603622428473));
#737 = CARTESIAN_POINT('',(6.444819415697,13.814140680599));
#738 = CARTESIAN_POINT('',(6.44092390549,14.0219577983));
#739 = CARTESIAN_POINT('',(6.435648053312,14.225394954147));
#740 = CARTESIAN_POINT('',(6.423721604479,14.575458840836));
#741 = CARTESIAN_POINT('',(6.417631272524,14.724757959434));
#742 = CARTESIAN_POINT('',(6.410648281622,14.869009315988));
#743 = CARTESIAN_POINT('',(6.40274544406,15.006857333389));
#744 = CARTESIAN_POINT('',(6.393898016583,15.136571681859));
#745 = CARTESIAN_POINT('',(6.376273788058,15.351046009563));
#746 = CARTESIAN_POINT('',(6.367829795887,15.439801391763));
#747 = CARTESIAN_POINT('',(6.35877929138,15.52059268717));
#748 = CARTESIAN_POINT('',(6.349156934825,15.591875503705));
#749 = CARTESIAN_POINT('',(6.339010327379,15.652158783243));
#750 = CARTESIAN_POINT('',(6.328399625242,15.7));
#751 = ( GEOMETRIC_REPRESENTATION_CONTEXT(2) 
PARAMETRIC_REPRESENTATION_CONTEXT() REPRESENTATION_CONTEXT('2D SPACE',''
  ) );
#752 = PCURVE('',#753,#758);
#753 = CYLINDRICAL_SURFACE('',#754,2.6);
#754 = AXIS2_PLACEMENT_3D('',#755,#756,#757);
#755 = CARTESIAN_POINT('',(102.5,0.,12.5));
#756 = DIRECTION('',(0.,0.,1.));
#757 = DIRECTION('',(1.,0.,-0.));
#758 = DEFINITIONAL_REPRESENTATION('',(#759),#787);
#759 = B_SPLINE_CURVE_WITH_KNOTS('',6,(#760,#761,#762,#763,#764,#765,
    #766,#767,#768,#769,#770,#771,#772,#773,#774,#775,#776,#777,#778,
    #779,#780,#781,#782,#783,#784,#785,#786),.UNSPECIFIED.,.F.,.F.,(7,5,
    5,5,5,7),(0.,0.100806214134,0.362530666539,0.628213291534,
    0.835116603211,0.999999655353),.UNSPECIFIED.);
#760 = CARTESIAN_POINT('',(4.014257279587,3.173961501787));
#761 = CARTESIAN_POINT('',(4.04849648637,3.166690184789));
#762 = CARTESIAN_POINT('',(4.082343957503,3.159603366855));
#763 = CARTESIAN_POINT('',(4.115833378022,3.152751147823));
#764 = CARTESIAN_POINT('',(4.148995468123,3.146176666648));
#765 = CARTESIAN_POINT('',(4.181859832795,3.139916724682));
#766 = CARTESIAN_POINT('',(4.29908876054,3.118646996013));
#767 = CARTESIAN_POINT('',(4.381931133037,3.105619054286));
#768 = CARTESIAN_POINT('',(4.463486060319,3.09546966794));
#769 = CARTESIAN_POINT('',(4.54418026701,3.088508729907));
#770 = CARTESIAN_POINT('',(4.624436523728,3.084888678342));
#771 = CARTESIAN_POINT('',(4.78615516609,3.084348567257));
#772 = CARTESIAN_POINT('',(4.867572032307,3.087530815778));
#773 = CARTESIAN_POINT('',(4.94939262166,3.094170799237));
#774 = CARTESIAN_POINT('',(5.032056425395,3.104121558466));
#775 = CARTESIAN_POINT('',(5.116006639827,3.117072084878));
#776 = CARTESIAN_POINT('',(5.268551372618,3.144441230677));
#777 = CARTESIAN_POINT('',(5.336461088799,3.157906097581));
#778 = CARTESIAN_POINT('',(5.405737189257,3.172587977578));
#779 = CARTESIAN_POINT('',(5.476633949822,3.188125840894));
#780 = CARTESIAN_POINT('',(5.549416478539,3.204022012816));
#781 = CARTESIAN_POINT('',(5.684171319494,3.232072541742));
#782 = CARTESIAN_POINT('',(5.745472580017,3.244359173364));
#783 = CARTESIAN_POINT('',(5.808225854545,3.256111441624));
#784 = CARTESIAN_POINT('',(5.872386202786,3.266896082158));
#785 = CARTESIAN_POINT('',(5.937947381422,3.276274951189));
#786 = CARTESIAN_POINT('',(6.004938484444,3.283852508181));
#787 = ( GEOMETRIC_REPRESENTATION_CONTEXT(2) 
PARAMETRIC_REPRESENTATION_CONTEXT() REPRESENTATION_CONTEXT('2D SPACE',''
  ) );
#788 = ORIENTED_EDGE('',*,*,#789,.T.);
#789 = EDGE_CURVE('',#690,#790,#792,.T.);
#790 = VERTEX_POINT('',#791);
#791 = CARTESIAN_POINT('',(98.455118050163,1.934941942653E-15,15.8));
#792 = SURFACE_CURVE('',#793,(#798,#808),.PCURVE_S1.);
#793 = ELLIPSE('',#794,24.580436464395,15.8);
#794 = AXIS2_PLACEMENT_3D('',#795,#796,#797);
#795 = CARTESIAN_POINT('',(98.455118050163,0.,0.));
#796 = DIRECTION('',(-0.642787609687,-0.766044443119,0.));
#797 = DIRECTION('',(0.766044443119,-0.642787609687,0.));
#798 = PCURVE('',#541,#799);
#799 = DEFINITIONAL_REPRESENTATION('',(#800),#807);
#800 = B_SPLINE_CURVE_WITH_KNOTS('',5,(#801,#802,#803,#804,#805,#806),
  .UNSPECIFIED.,.F.,.F.,(6,6),(1.444402114111,1.570796326795),
  .PIECEWISE_BEZIER_KNOTS.);
#801 = CARTESIAN_POINT('',(6.409579519863,11.528752214828));
#802 = CARTESIAN_POINT('',(6.384300677326,11.056556077467));
#803 = CARTESIAN_POINT('',(6.35902183479,10.582463940784));
#804 = CARTESIAN_POINT('',(6.333742992253,10.107104434921));
#805 = CARTESIAN_POINT('',(6.308464149716,9.631111242437));
#806 = CARTESIAN_POINT('',(6.28318530718,9.155118050163));
#807 = ( GEOMETRIC_REPRESENTATION_CONTEXT(2) 
PARAMETRIC_REPRESENTATION_CONTEXT() REPRESENTATION_CONTEXT('2D SPACE',''
  ) );
#808 = PCURVE('',#809,#814);
#809 = PLANE('',#810);
#810 = AXIS2_PLACEMENT_3D('',#811,#812,#813);
#811 = CARTESIAN_POINT('',(100.82875221481,-1.991715552109,12.5));
#812 = DIRECTION('',(-0.642787609687,-0.766044443119,0.));
#813 = DIRECTION('',(-0.766044443119,0.642787609687,0.));
#814 = DEFINITIONAL_REPRESENTATION('',(#815),#819);
#815 = ELLIPSE('',#816,24.580436464395,15.8);
#816 = AXIS2_PLACEMENT_2D('',#817,#818);
#817 = CARTESIAN_POINT('',(3.098559340745,12.5));
#818 = DIRECTION('',(-1.,-0.));
#819 = ( GEOMETRIC_REPRESENTATION_CONTEXT(2) 
PARAMETRIC_REPRESENTATION_CONTEXT() REPRESENTATION_CONTEXT('2D SPACE',''
  ) );
#820 = ORIENTED_EDGE('',*,*,#821,.T.);
#821 = EDGE_CURVE('',#790,#822,#824,.T.);
#822 = VERTEX_POINT('',#823);
#823 = CARTESIAN_POINT('',(100.82875221481,1.991715552109,
    15.673961501787));
#824 = SURFACE_CURVE('',#825,(#830,#840),.PCURVE_S1.);
#825 = ELLIPSE('',#826,24.580436464395,15.8);
#826 = AXIS2_PLACEMENT_3D('',#827,#828,#829);
#827 = CARTESIAN_POINT('',(98.455118050163,0.,0.));
#828 = DIRECTION('',(-0.642787609687,0.766044443119,0.));
#829 = DIRECTION('',(0.766044443119,0.642787609687,0.));
#830 = PCURVE('',#541,#831);
#831 = DEFINITIONAL_REPRESENTATION('',(#832),#839);
#832 = B_SPLINE_CURVE_WITH_KNOTS('',5,(#833,#834,#835,#836,#837,#838),
  .UNSPECIFIED.,.F.,.F.,(6,6),(4.712388980385,4.838783193068),
  .PIECEWISE_BEZIER_KNOTS.);
#833 = CARTESIAN_POINT('',(6.28318530718,9.155118050163));
#834 = CARTESIAN_POINT('',(6.257906464643,9.631111242437));
#835 = CARTESIAN_POINT('',(6.232627622106,10.107104434921));
#836 = CARTESIAN_POINT('',(6.20734877957,10.582463940784));
#837 = CARTESIAN_POINT('',(6.182069937033,11.056556077467));
#838 = CARTESIAN_POINT('',(6.156791094496,11.528752214828));
#839 = ( GEOMETRIC_REPRESENTATION_CONTEXT(2) 
PARAMETRIC_REPRESENTATION_CONTEXT() REPRESENTATION_CONTEXT('2D SPACE',''
  ) );
#840 = PCURVE('',#841,#846);
#841 = PLANE('',#842);
#842 = AXIS2_PLACEMENT_3D('',#843,#844,#845);
#843 = CARTESIAN_POINT('',(98.455118050163,0.,12.5));
#844 = DIRECTION('',(-0.642787609687,0.766044443119,0.));
#845 = DIRECTION('',(0.766044443119,0.642787609687,0.));
#846 = DEFINITIONAL_REPRESENTATION('',(#847),#851);
#847 = ELLIPSE('',#848,24.580436464395,15.8);
#848 = AXIS2_PLACEMENT_2D('',#849,#850);
#849 = CARTESIAN_POINT('',(0.,12.5));
#850 = DIRECTION('',(1.,0.));
#851 = ( GEOMETRIC_REPRESENTATION_CONTEXT(2) 
PARAMETRIC_REPRESENTATION_CONTEXT() REPRESENTATION_CONTEXT('2D SPACE',''
  ) );
#852 = ORIENTED_EDGE('',*,*,#853,.F.);
#853 = EDGE_CURVE('',#854,#822,#856,.T.);
#854 = VERTEX_POINT('',#855);
#855 = CARTESIAN_POINT('',(105.,0.714142842856,15.783852508181));
#856 = SURFACE_CURVE('',#857,(#884,#914),.PCURVE_S1.);
#857 = B_SPLINE_CURVE_WITH_KNOTS('',7,(#858,#859,#860,#861,#862,#863,
    #864,#865,#866,#867,#868,#869,#870,#871,#872,#873,#874,#875,#876,
    #877,#878,#879,#880,#881,#882,#883),.UNSPECIFIED.,.F.,.F.,(8,6,6,6,8
    ),(0.,0.274585918306,0.633126278211,0.900473376214,1.),
  .UNSPECIFIED.);
#858 = CARTESIAN_POINT('',(105.0000006,0.714140742431,15.783852603214));
#859 = CARTESIAN_POINT('',(104.93143897949,0.954155185262,
    15.772993144709));
#860 = CARTESIAN_POINT('',(104.83834888251,1.178247671482,
    15.758587028461));
#861 = CARTESIAN_POINT('',(104.72482661399,1.384657057549,
    15.741722264184));
#862 = CARTESIAN_POINT('',(104.59458756968,1.572336731544,
    15.723535226127));
#863 = CARTESIAN_POINT('',(104.45107461429,1.740772324455,
    15.705054393865));
#864 = CARTESIAN_POINT('',(104.29751479728,1.889884872069,
    15.687114189132));
#865 = CARTESIAN_POINT('',(103.92723362239,2.189942527056,
    15.648434598603));
#866 = CARTESIAN_POINT('',(103.70385399738,2.32888780377,15.628338130058
    ));
#867 = CARTESIAN_POINT('',(103.47118728019,2.438259453386,
    15.611290116355));
#868 = CARTESIAN_POINT('',(103.23232776977,2.519341356553,
    15.598064237496));
#869 = CARTESIAN_POINT('',(102.98959751788,2.573087980334,15.58909754279
    ));
#870 = CARTESIAN_POINT('',(102.74490070919,2.6,15.584607791023));
#871 = CARTESIAN_POINT('',(102.3173887762,2.6,15.584607791023));
#872 = CARTESIAN_POINT('',(102.13482236507,2.585036496,15.587104199783)
  );
#873 = CARTESIAN_POINT('',(101.95308298831,2.555123543194,
    15.592094512801));
#874 = CARTESIAN_POINT('',(101.77297187833,2.510114919812,
    15.599510487284));
#875 = CARTESIAN_POINT('',(101.59538688622,2.449725898595,
    15.609213467115));
#876 = CARTESIAN_POINT('',(101.42140297067,2.373553122233,
    15.620978730892));
#877 = CARTESIAN_POINT('',(101.18942345687,2.246671841337,
    15.639490901102));
#878 = CARTESIAN_POINT('',(101.12717235519,2.209992086347,15.6447522409)
  );
#879 = CARTESIAN_POINT('',(101.06566968597,2.171025770216,
    15.650235687408));
#880 = CARTESIAN_POINT('',(101.00499026242,2.129744482999,
    15.655921712663));
#881 = CARTESIAN_POINT('',(100.9452163719,2.086119037723,15.661788289787
    ));
#882 = CARTESIAN_POINT('',(100.88643786004,2.040119555746,
    15.667810727024));
#883 = CARTESIAN_POINT('',(100.82875221481,1.991715552109,
    15.673961501787));
#884 = PCURVE('',#541,#885);
#885 = DEFINITIONAL_REPRESENTATION('',(#886),#913);
#886 = B_SPLINE_CURVE_WITH_KNOTS('',7,(#887,#888,#889,#890,#891,#892,
    #893,#894,#895,#896,#897,#898,#899,#900,#901,#902,#903,#904,#905,
    #906,#907,#908,#909,#910,#911,#912),.UNSPECIFIED.,.F.,.F.,(8,6,6,6,8
    ),(3.432812534994E-07,0.274585918306,0.633126278211,0.900473376214,
    1.),.UNSPECIFIED.);
#887 = CARTESIAN_POINT('',(6.237970989117,15.7));
#888 = CARTESIAN_POINT('',(6.22276468741,15.63143828122));
#889 = CARTESIAN_POINT('',(6.208554939921,15.538348172903));
#890 = CARTESIAN_POINT('',(6.195450392335,15.424825962705));
#891 = CARTESIAN_POINT('',(6.183518298175,15.294587031439));
#892 = CARTESIAN_POINT('',(6.172794796612,15.151074230344));
#893 = CARTESIAN_POINT('',(6.163289600804,14.997514596517));
#894 = CARTESIAN_POINT('',(6.144141483201,14.627233622394));
#895 = CARTESIAN_POINT('',(6.135257029635,14.403853997386));
#896 = CARTESIAN_POINT('',(6.128251552871,14.17118728019));
#897 = CARTESIAN_POINT('',(6.12305201035,13.932327769772));
#898 = CARTESIAN_POINT('',(6.119603306249,13.689597517884));
#899 = CARTESIAN_POINT('',(6.117876473842,13.444900709195));
#900 = CARTESIAN_POINT('',(6.117876473842,13.017388776205));
#901 = CARTESIAN_POINT('',(6.118836621382,12.834822365071));
#902 = CARTESIAN_POINT('',(6.120756008085,12.653082988311));
#903 = CARTESIAN_POINT('',(6.123643062097,12.472971878339));
#904 = CARTESIAN_POINT('',(6.12751410428,12.295386886229));
#905 = CARTESIAN_POINT('',(6.132392164031,12.12140297067));
#906 = CARTESIAN_POINT('',(6.140507647967,11.889423456879));
#907 = CARTESIAN_POINT('',(6.142852905407,11.827172355192));
#908 = CARTESIAN_POINT('',(6.145343412929,11.765669685973));
#909 = CARTESIAN_POINT('',(6.147980798608,11.704990262421));
#910 = CARTESIAN_POINT('',(6.150766730621,11.645216371903));
#911 = CARTESIAN_POINT('',(6.153702915185,11.586437860044));
#912 = CARTESIAN_POINT('',(6.156791094496,11.528752214815));
#913 = ( GEOMETRIC_REPRESENTATION_CONTEXT(2) 
PARAMETRIC_REPRESENTATION_CONTEXT() REPRESENTATION_CONTEXT('2D SPACE',''
  ) );
#914 = PCURVE('',#753,#915);
#915 = DEFINITIONAL_REPRESENTATION('',(#916),#943);
#916 = B_SPLINE_CURVE_WITH_KNOTS('',7,(#917,#918,#919,#920,#921,#922,
    #923,#924,#925,#926,#927,#928,#929,#930,#931,#932,#933,#934,#935,
    #936,#937,#938,#939,#940,#941,#942),.UNSPECIFIED.,.F.,.F.,(8,6,6,6,8
    ),(3.432812534994E-07,0.274585918306,0.633126278211,0.900473376214,
    1.),.UNSPECIFIED.);
#917 = CARTESIAN_POINT('',(6.561432129915,3.283852508181));
#918 = CARTESIAN_POINT('',(6.657437739254,3.272993036648));
#919 = CARTESIAN_POINT('',(6.750146847915,3.258586923041));
#920 = CARTESIAN_POINT('',(6.839917555439,3.241722173236));
#921 = CARTESIAN_POINT('',(6.926977284872,3.223535156814));
#922 = CARTESIAN_POINT('',(7.011467286228,3.205054349008));
#923 = CARTESIAN_POINT('',(7.093461674793,3.18711416816));
#924 = CARTESIAN_POINT('',(7.27676732477,3.148434598603));
#925 = CARTESIAN_POINT('',(7.377162979225,3.128338130058));
#926 = CARTESIAN_POINT('',(7.474999008999,3.111290116355));
#927 = CARTESIAN_POINT('',(7.57095171487,3.098064237496));
#928 = CARTESIAN_POINT('',(7.665675011713,3.08909754279));
#929 = CARTESIAN_POINT('',(7.759789053515,3.084607791023));
#930 = CARTESIAN_POINT('',(7.924216720049,3.084607791023));
#931 = CARTESIAN_POINT('',(7.994434741862,3.087104199783));
#932 = CARTESIAN_POINT('',(8.0648998239,3.092094512801));
#933 = CARTESIAN_POINT('',(8.135870498725,3.099510487284));
#934 = CARTESIAN_POINT('',(8.207604475187,3.109213467115));
#935 = CARTESIAN_POINT('',(8.280372378704,3.120978730892));
#936 = CARTESIAN_POINT('',(8.382069046145,3.139490901102));
#937 = CARTESIAN_POINT('',(8.409844751937,3.1447522409));
#938 = CARTESIAN_POINT('',(8.437824236645,3.150235687408));
#939 = CARTESIAN_POINT('',(8.466023865433,3.155921712663));
#940 = CARTESIAN_POINT('',(8.494460209359,3.161788289787));
#941 = CARTESIAN_POINT('',(8.523150541783,3.167810727024));
#942 = CARTESIAN_POINT('',(8.552113334772,3.173961501787));
#943 = ( GEOMETRIC_REPRESENTATION_CONTEXT(2) 
PARAMETRIC_REPRESENTATION_CONTEXT() REPRESENTATION_CONTEXT('2D SPACE',''
  ) );
#944 = ORIENTED_EDGE('',*,*,#945,.F.);
#945 = EDGE_CURVE('',#946,#854,#948,.T.);
#946 = VERTEX_POINT('',#947);
#947 = CARTESIAN_POINT('',(105.,6.,14.616429112475));
#948 = SURFACE_CURVE('',#949,(#954,#960),.PCURVE_S1.);
#949 = CIRCLE('',#950,15.8);
#950 = AXIS2_PLACEMENT_3D('',#951,#952,#953);
#951 = CARTESIAN_POINT('',(105.,0.,0.));
#952 = DIRECTION('',(1.,0.,0.));
#953 = DIRECTION('',(-0.,0.,1.));
#954 = PCURVE('',#541,#955);
#955 = DEFINITIONAL_REPRESENTATION('',(#956),#959);
#956 = B_SPLINE_CURVE_WITH_KNOTS('',1,(#957,#958),.UNSPECIFIED.,.F.,.F.,
  (2,2),(5.893662690735,6.237970989117),.PIECEWISE_BEZIER_KNOTS.);
#957 = CARTESIAN_POINT('',(5.893662690735,15.7));
#958 = CARTESIAN_POINT('',(6.237970989117,15.7));
#959 = ( GEOMETRIC_REPRESENTATION_CONTEXT(2) 
PARAMETRIC_REPRESENTATION_CONTEXT() REPRESENTATION_CONTEXT('2D SPACE',''
  ) );
#960 = PCURVE('',#153,#961);
#961 = DEFINITIONAL_REPRESENTATION('',(#962),#966);
#962 = CIRCLE('',#963,15.8);
#963 = AXIS2_PLACEMENT_2D('',#964,#965);
#964 = CARTESIAN_POINT('',(0.,0.));
#965 = DIRECTION('',(1.,0.));
#966 = ( GEOMETRIC_REPRESENTATION_CONTEXT(2) 
PARAMETRIC_REPRESENTATION_CONTEXT() REPRESENTATION_CONTEXT('2D SPACE',''
  ) );
#967 = ORIENTED_EDGE('',*,*,#968,.F.);
#968 = EDGE_CURVE('',#969,#946,#971,.T.);
#969 = VERTEX_POINT('',#970);
#970 = CARTESIAN_POINT('',(96.,6.,14.616429112475));
#971 = SURFACE_CURVE('',#972,(#976,#982),.PCURVE_S1.);
#972 = LINE('',#973,#974);
#973 = CARTESIAN_POINT('',(95.,6.,14.616429112475));
#974 = VECTOR('',#975,1.);
#975 = DIRECTION('',(1.,0.,0.));
#976 = PCURVE('',#541,#977);
#977 = DEFINITIONAL_REPRESENTATION('',(#978),#981);
#978 = B_SPLINE_CURVE_WITH_KNOTS('',1,(#979,#980),.UNSPECIFIED.,.F.,.F.,
  (2,2),(1.,10.),.PIECEWISE_BEZIER_KNOTS.);
#979 = CARTESIAN_POINT('',(5.893662690735,6.7));
#980 = CARTESIAN_POINT('',(5.893662690735,15.7));
#981 = ( GEOMETRIC_REPRESENTATION_CONTEXT(2) 
PARAMETRIC_REPRESENTATION_CONTEXT() REPRESENTATION_CONTEXT('2D SPACE',''
  ) );
#982 = PCURVE('',#437,#983);
#983 = DEFINITIONAL_REPRESENTATION('',(#984),#987);
#984 = B_SPLINE_CURVE_WITH_KNOTS('',1,(#985,#986),.UNSPECIFIED.,.F.,.F.,
  (2,2),(0.9999994,10.0000006),.PIECEWISE_BEZIER_KNOTS.);
#985 = CARTESIAN_POINT('',(14.616429112475,-6.000000070117E-07));
#986 = CARTESIAN_POINT('',(14.616429112475,9.0000006));
#987 = ( GEOMETRIC_REPRESENTATION_CONTEXT(2) 
PARAMETRIC_REPRESENTATION_CONTEXT() REPRESENTATION_CONTEXT('2D SPACE',''
  ) );
#988 = ORIENTED_EDGE('',*,*,#989,.F.);
#989 = EDGE_CURVE('',#527,#969,#990,.T.);
#990 = SURFACE_CURVE('',#991,(#996,#1002),.PCURVE_S1.);
#991 = CIRCLE('',#992,15.8);
#992 = AXIS2_PLACEMENT_3D('',#993,#994,#995);
#993 = CARTESIAN_POINT('',(96.,0.,0.));
#994 = DIRECTION('',(1.,0.,0.));
#995 = DIRECTION('',(-0.,0.,1.));
#996 = PCURVE('',#541,#997);
#997 = DEFINITIONAL_REPRESENTATION('',(#998),#1001);
#998 = B_SPLINE_CURVE_WITH_KNOTS('',1,(#999,#1000),.UNSPECIFIED.,.F.,.F.
  ,(2,2),(5.482482719174,5.893662690735),.PIECEWISE_BEZIER_KNOTS.);
#999 = CARTESIAN_POINT('',(5.482482719174,6.7));
#1000 = CARTESIAN_POINT('',(5.893662690735,6.7));
#1001 = ( GEOMETRIC_REPRESENTATION_CONTEXT(2) 
PARAMETRIC_REPRESENTATION_CONTEXT() REPRESENTATION_CONTEXT('2D SPACE',''
  ) );
#1002 = PCURVE('',#464,#1003);
#1003 = DEFINITIONAL_REPRESENTATION('',(#1004),#1008);
#1004 = CIRCLE('',#1005,15.8);
#1005 = AXIS2_PLACEMENT_2D('',#1006,#1007);
#1006 = CARTESIAN_POINT('',(0.,0.));
#1007 = DIRECTION('',(1.,0.));
#1008 = ( GEOMETRIC_REPRESENTATION_CONTEXT(2) 
PARAMETRIC_REPRESENTATION_CONTEXT() REPRESENTATION_CONTEXT('2D SPACE',''
  ) );
#1009 = ORIENTED_EDGE('',*,*,#526,.F.);
#1010 = ADVANCED_FACE('',(#1011),#841,.T.);
#1011 = FACE_BOUND('',#1012,.T.);
#1012 = EDGE_LOOP('',(#1013,#1043,#1064,#1065));
#1013 = ORIENTED_EDGE('',*,*,#1014,.F.);
#1014 = EDGE_CURVE('',#1015,#1017,#1019,.T.);
#1015 = VERTEX_POINT('',#1016);
#1016 = CARTESIAN_POINT('',(98.455118050163,0.,12.5));
#1017 = VERTEX_POINT('',#1018);
#1018 = CARTESIAN_POINT('',(100.82875221481,1.991715552109,12.5));
#1019 = SURFACE_CURVE('',#1020,(#1024,#1031),.PCURVE_S1.);
#1020 = LINE('',#1021,#1022);
#1021 = CARTESIAN_POINT('',(98.455118050163,0.,12.5));
#1022 = VECTOR('',#1023,1.);
#1023 = DIRECTION('',(0.766044443119,0.642787609687,0.));
#1024 = PCURVE('',#841,#1025);
#1025 = DEFINITIONAL_REPRESENTATION('',(#1026),#1030);
#1026 = LINE('',#1027,#1028);
#1027 = CARTESIAN_POINT('',(0.,0.));
#1028 = VECTOR('',#1029,1.);
#1029 = DIRECTION('',(1.,0.));
#1030 = ( GEOMETRIC_REPRESENTATION_CONTEXT(2) 
PARAMETRIC_REPRESENTATION_CONTEXT() REPRESENTATION_CONTEXT('2D SPACE',''
  ) );
#1031 = PCURVE('',#1032,#1037);
#1032 = PLANE('',#1033);
#1033 = AXIS2_PLACEMENT_3D('',#1034,#1035,#1036);
#1034 = CARTESIAN_POINT('',(102.5,0.,12.5));
#1035 = DIRECTION('',(0.,0.,1.));
#1036 = DIRECTION('',(1.,0.,-0.));
#1037 = DEFINITIONAL_REPRESENTATION('',(#1038),#1042);
#1038 = LINE('',#1039,#1040);
#1039 = CARTESIAN_POINT('',(-4.044881949837,0.));
#1040 = VECTOR('',#1041,1.);
#1041 = DIRECTION('',(0.766044443119,0.642787609687));
#1042 = ( GEOMETRIC_REPRESENTATION_CONTEXT(2) 
PARAMETRIC_REPRESENTATION_CONTEXT() REPRESENTATION_CONTEXT('2D SPACE',''
  ) );
#1043 = ORIENTED_EDGE('',*,*,#1044,.T.);
#1044 = EDGE_CURVE('',#1015,#790,#1045,.T.);
#1045 = SURFACE_CURVE('',#1046,(#1050,#1057),.PCURVE_S1.);
#1046 = LINE('',#1047,#1048);
#1047 = CARTESIAN_POINT('',(98.455118050163,0.,12.5));
#1048 = VECTOR('',#1049,1.);
#1049 = DIRECTION('',(0.,0.,1.));
#1050 = PCURVE('',#841,#1051);
#1051 = DEFINITIONAL_REPRESENTATION('',(#1052),#1056);
#1052 = LINE('',#1053,#1054);
#1053 = CARTESIAN_POINT('',(0.,0.));
#1054 = VECTOR('',#1055,1.);
#1055 = DIRECTION('',(0.,-1.));
#1056 = ( GEOMETRIC_REPRESENTATION_CONTEXT(2) 
PARAMETRIC_REPRESENTATION_CONTEXT() REPRESENTATION_CONTEXT('2D SPACE',''
  ) );
#1057 = PCURVE('',#809,#1058);
#1058 = DEFINITIONAL_REPRESENTATION('',(#1059),#1063);
#1059 = LINE('',#1060,#1061);
#1060 = CARTESIAN_POINT('',(3.098559340745,0.));
#1061 = VECTOR('',#1062,1.);
#1062 = DIRECTION('',(0.,-1.));
#1063 = ( GEOMETRIC_REPRESENTATION_CONTEXT(2) 
PARAMETRIC_REPRESENTATION_CONTEXT() REPRESENTATION_CONTEXT('2D SPACE',''
  ) );
#1064 = ORIENTED_EDGE('',*,*,#821,.T.);
#1065 = ORIENTED_EDGE('',*,*,#1066,.F.);
#1066 = EDGE_CURVE('',#1017,#822,#1067,.T.);
#1067 = SURFACE_CURVE('',#1068,(#1072,#1079),.PCURVE_S1.);
#1068 = LINE('',#1069,#1070);
#1069 = CARTESIAN_POINT('',(100.82875221481,1.991715552109,12.5));
#1070 = VECTOR('',#1071,1.);
#1071 = DIRECTION('',(0.,0.,1.));
#1072 = PCURVE('',#841,#1073);
#1073 = DEFINITIONAL_REPRESENTATION('',(#1074),#1078);
#1074 = LINE('',#1075,#1076);
#1075 = CARTESIAN_POINT('',(3.098559340745,0.));
#1076 = VECTOR('',#1077,1.);
#1077 = DIRECTION('',(0.,-1.));
#1078 = ( GEOMETRIC_REPRESENTATION_CONTEXT(2) 
PARAMETRIC_REPRESENTATION_CONTEXT() REPRESENTATION_CONTEXT('2D SPACE',''
  ) );
#1079 = PCURVE('',#753,#1080);
#1080 = DEFINITIONAL_REPRESENTATION('',(#1081),#1084);
#1081 = B_SPLINE_CURVE_WITH_KNOTS('',1,(#1082,#1083),.UNSPECIFIED.,.F.,
  .F.,(2,2),(0.,3.173961501787),.PIECEWISE_BEZIER_KNOTS.);
#1082 = CARTESIAN_POINT('',(8.552113334772,0.));
#1083 = CARTESIAN_POINT('',(8.552113334772,3.173961501787));
#1084 = ( GEOMETRIC_REPRESENTATION_CONTEXT(2) 
PARAMETRIC_REPRESENTATION_CONTEXT() REPRESENTATION_CONTEXT('2D SPACE',''
  ) );
#1085 = ADVANCED_FACE('',(#1086,#1134),#1032,.F.);
#1086 = FACE_BOUND('',#1087,.F.);
#1087 = EDGE_LOOP('',(#1088,#1112,#1113));
#1088 = ORIENTED_EDGE('',*,*,#1089,.T.);
#1089 = EDGE_CURVE('',#1090,#1017,#1092,.T.);
#1090 = VERTEX_POINT('',#1091);
#1091 = CARTESIAN_POINT('',(100.82875221481,-1.991715552109,12.5));
#1092 = SURFACE_CURVE('',#1093,(#1098,#1105),.PCURVE_S1.);
#1093 = CIRCLE('',#1094,2.6);
#1094 = AXIS2_PLACEMENT_3D('',#1095,#1096,#1097);
#1095 = CARTESIAN_POINT('',(102.5,0.,12.5));
#1096 = DIRECTION('',(0.,0.,1.));
#1097 = DIRECTION('',(-0.642787609687,-0.766044443119,0.));
#1098 = PCURVE('',#1032,#1099);
#1099 = DEFINITIONAL_REPRESENTATION('',(#1100),#1104);
#1100 = CIRCLE('',#1101,2.6);
#1101 = AXIS2_PLACEMENT_2D('',#1102,#1103);
#1102 = CARTESIAN_POINT('',(0.,0.));
#1103 = DIRECTION('',(-0.642787609687,-0.766044443119));
#1104 = ( GEOMETRIC_REPRESENTATION_CONTEXT(2) 
PARAMETRIC_REPRESENTATION_CONTEXT() REPRESENTATION_CONTEXT('2D SPACE',''
  ) );
#1105 = PCURVE('',#753,#1106);
#1106 = DEFINITIONAL_REPRESENTATION('',(#1107),#1111);
#1107 = LINE('',#1108,#1109);
#1108 = CARTESIAN_POINT('',(4.014257279587,0.));
#1109 = VECTOR('',#1110,1.);
#1110 = DIRECTION('',(1.,0.));
#1111 = ( GEOMETRIC_REPRESENTATION_CONTEXT(2) 
PARAMETRIC_REPRESENTATION_CONTEXT() REPRESENTATION_CONTEXT('2D SPACE',''
  ) );
#1112 = ORIENTED_EDGE('',*,*,#1014,.F.);
#1113 = ORIENTED_EDGE('',*,*,#1114,.F.);
#1114 = EDGE_CURVE('',#1090,#1015,#1115,.T.);
#1115 = SURFACE_CURVE('',#1116,(#1120,#1127),.PCURVE_S1.);
#1116 = LINE('',#1117,#1118);
#1117 = CARTESIAN_POINT('',(100.82875221481,-1.991715552109,12.5));
#1118 = VECTOR('',#1119,1.);
#1119 = DIRECTION('',(-0.766044443119,0.642787609687,0.));
#1120 = PCURVE('',#1032,#1121);
#1121 = DEFINITIONAL_REPRESENTATION('',(#1122),#1126);
#1122 = LINE('',#1123,#1124);
#1123 = CARTESIAN_POINT('',(-1.671247785185,-1.991715552109));
#1124 = VECTOR('',#1125,1.);
#1125 = DIRECTION('',(-0.766044443119,0.642787609687));
#1126 = ( GEOMETRIC_REPRESENTATION_CONTEXT(2) 
PARAMETRIC_REPRESENTATION_CONTEXT() REPRESENTATION_CONTEXT('2D SPACE',''
  ) );
#1127 = PCURVE('',#809,#1128);
#1128 = DEFINITIONAL_REPRESENTATION('',(#1129),#1133);
#1129 = LINE('',#1130,#1131);
#1130 = CARTESIAN_POINT('',(0.,0.));
#1131 = VECTOR('',#1132,1.);
#1132 = DIRECTION('',(1.,0.));
#1133 = ( GEOMETRIC_REPRESENTATION_CONTEXT(2) 
PARAMETRIC_REPRESENTATION_CONTEXT() REPRESENTATION_CONTEXT('2D SPACE',''
  ) );
#1134 = FACE_BOUND('',#1135,.F.);
#1135 = EDGE_LOOP('',(#1136));
#1136 = ORIENTED_EDGE('',*,*,#1137,.F.);
#1137 = EDGE_CURVE('',#1138,#1138,#1140,.T.);
#1138 = VERTEX_POINT('',#1139);
#1139 = CARTESIAN_POINT('',(103.3,-1.959434878636E-16,12.5));
#1140 = SURFACE_CURVE('',#1141,(#1146,#1153),.PCURVE_S1.);
#1141 = CIRCLE('',#1142,0.8);
#1142 = AXIS2_PLACEMENT_3D('',#1143,#1144,#1145);
#1143 = CARTESIAN_POINT('',(102.5,0.,12.5));
#1144 = DIRECTION('',(0.,0.,1.));
#1145 = DIRECTION('',(1.,0.,-0.));
#1146 = PCURVE('',#1032,#1147);
#1147 = DEFINITIONAL_REPRESENTATION('',(#1148),#1152);
#1148 = CIRCLE('',#1149,0.8);
#1149 = AXIS2_PLACEMENT_2D('',#1150,#1151);
#1150 = CARTESIAN_POINT('',(0.,0.));
#1151 = DIRECTION('',(1.,0.));
#1152 = ( GEOMETRIC_REPRESENTATION_CONTEXT(2) 
PARAMETRIC_REPRESENTATION_CONTEXT() REPRESENTATION_CONTEXT('2D SPACE',''
  ) );
#1153 = PCURVE('',#1154,#1159);
#1154 = CYLINDRICAL_SURFACE('',#1155,0.8);
#1155 = AXIS2_PLACEMENT_3D('',#1156,#1157,#1158);
#1156 = CARTESIAN_POINT('',(102.5,0.,11.5));
#1157 = DIRECTION('',(0.,0.,1.));
#1158 = DIRECTION('',(1.,0.,-0.));
#1159 = DEFINITIONAL_REPRESENTATION('',(#1160),#1164);
#1160 = LINE('',#1161,#1162);
#1161 = CARTESIAN_POINT('',(0.,1.));
#1162 = VECTOR('',#1163,1.);
#1163 = DIRECTION('',(1.,0.));
#1164 = ( GEOMETRIC_REPRESENTATION_CONTEXT(2) 
PARAMETRIC_REPRESENTATION_CONTEXT() REPRESENTATION_CONTEXT('2D SPACE',''
  ) );
#1165 = ADVANCED_FACE('',(#1166),#1154,.F.);
#1166 = FACE_BOUND('',#1167,.F.);
#1167 = EDGE_LOOP('',(#1168,#1197,#1218,#1219));
#1168 = ORIENTED_EDGE('',*,*,#1169,.F.);
#1169 = EDGE_CURVE('',#1170,#1170,#1172,.T.);
#1170 = VERTEX_POINT('',#1171);
#1171 = CARTESIAN_POINT('',(103.3,-1.959434878636E-16,17.85));
#1172 = SURFACE_CURVE('',#1173,(#1178,#1185),.PCURVE_S1.);
#1173 = CIRCLE('',#1174,0.8);
#1174 = AXIS2_PLACEMENT_3D('',#1175,#1176,#1177);
#1175 = CARTESIAN_POINT('',(102.5,0.,17.85));
#1176 = DIRECTION('',(0.,0.,1.));
#1177 = DIRECTION('',(1.,0.,-0.));
#1178 = PCURVE('',#1154,#1179);
#1179 = DEFINITIONAL_REPRESENTATION('',(#1180),#1184);
#1180 = LINE('',#1181,#1182);
#1181 = CARTESIAN_POINT('',(0.,6.35));
#1182 = VECTOR('',#1183,1.);
#1183 = DIRECTION('',(1.,0.));
#1184 = ( GEOMETRIC_REPRESENTATION_CONTEXT(2) 
PARAMETRIC_REPRESENTATION_CONTEXT() REPRESENTATION_CONTEXT('2D SPACE',''
  ) );
#1185 = PCURVE('',#1186,#1191);
#1186 = PLANE('',#1187);
#1187 = AXIS2_PLACEMENT_3D('',#1188,#1189,#1190);
#1188 = CARTESIAN_POINT('',(102.5,0.,17.85));
#1189 = DIRECTION('',(0.,0.,1.));
#1190 = DIRECTION('',(1.,0.,-0.));
#1191 = DEFINITIONAL_REPRESENTATION('',(#1192),#1196);
#1192 = CIRCLE('',#1193,0.8);
#1193 = AXIS2_PLACEMENT_2D('',#1194,#1195);
#1194 = CARTESIAN_POINT('',(0.,0.));
#1195 = DIRECTION('',(1.,0.));
#1196 = ( GEOMETRIC_REPRESENTATION_CONTEXT(2) 
PARAMETRIC_REPRESENTATION_CONTEXT() REPRESENTATION_CONTEXT('2D SPACE',''
  ) );
#1197 = ORIENTED_EDGE('',*,*,#1198,.F.);
#1198 = EDGE_CURVE('',#1138,#1170,#1199,.T.);
#1199 = SEAM_CURVE('',#1200,(#1204,#1211),.PCURVE_S1.);
#1200 = LINE('',#1201,#1202);
#1201 = CARTESIAN_POINT('',(103.3,-1.959434878636E-16,11.5));
#1202 = VECTOR('',#1203,1.);
#1203 = DIRECTION('',(0.,0.,1.));
#1204 = PCURVE('',#1154,#1205);
#1205 = DEFINITIONAL_REPRESENTATION('',(#1206),#1210);
#1206 = LINE('',#1207,#1208);
#1207 = CARTESIAN_POINT('',(6.28318530718,-0.));
#1208 = VECTOR('',#1209,1.);
#1209 = DIRECTION('',(0.,1.));
#1210 = ( GEOMETRIC_REPRESENTATION_CONTEXT(2) 
PARAMETRIC_REPRESENTATION_CONTEXT() REPRESENTATION_CONTEXT('2D SPACE',''
  ) );
#1211 = PCURVE('',#1154,#1212);
#1212 = DEFINITIONAL_REPRESENTATION('',(#1213),#1217);
#1213 = LINE('',#1214,#1215);
#1214 = CARTESIAN_POINT('',(0.,-0.));
#1215 = VECTOR('',#1216,1.);
#1216 = DIRECTION('',(0.,1.));
#1217 = ( GEOMETRIC_REPRESENTATION_CONTEXT(2) 
PARAMETRIC_REPRESENTATION_CONTEXT() REPRESENTATION_CONTEXT('2D SPACE',''
  ) );
#1218 = ORIENTED_EDGE('',*,*,#1137,.T.);
#1219 = ORIENTED_EDGE('',*,*,#1198,.T.);
#1220 = ADVANCED_FACE('',(#1221,#1339),#1186,.T.);
#1221 = FACE_BOUND('',#1222,.T.);
#1222 = EDGE_LOOP('',(#1223,#1249,#1272,#1295,#1319));
#1223 = ORIENTED_EDGE('',*,*,#1224,.T.);
#1224 = EDGE_CURVE('',#1225,#1227,#1229,.T.);
#1225 = VERTEX_POINT('',#1226);
#1226 = CARTESIAN_POINT('',(105.,2.377498685594,17.85));
#1227 = VERTEX_POINT('',#1228);
#1228 = CARTESIAN_POINT('',(100.28238274658,2.64285332876,17.85));
#1229 = SURFACE_CURVE('',#1230,(#1235,#1242),.PCURVE_S1.);
#1230 = CIRCLE('',#1231,3.45);
#1231 = AXIS2_PLACEMENT_3D('',#1232,#1233,#1234);
#1232 = CARTESIAN_POINT('',(102.5,0.,17.85));
#1233 = DIRECTION('',(0.,0.,1.));
#1234 = DIRECTION('',(1.,0.,-0.));
#1235 = PCURVE('',#1186,#1236);
#1236 = DEFINITIONAL_REPRESENTATION('',(#1237),#1241);
#1237 = CIRCLE('',#1238,3.45);
#1238 = AXIS2_PLACEMENT_2D('',#1239,#1240);
#1239 = CARTESIAN_POINT('',(0.,0.));
#1240 = DIRECTION('',(1.,0.));
#1241 = ( GEOMETRIC_REPRESENTATION_CONTEXT(2) 
PARAMETRIC_REPRESENTATION_CONTEXT() REPRESENTATION_CONTEXT('2D SPACE',''
  ) );
#1242 = PCURVE('',#368,#1243);
#1243 = DEFINITIONAL_REPRESENTATION('',(#1244),#1248);
#1244 = LINE('',#1245,#1246);
#1245 = CARTESIAN_POINT('',(0.,0.));
#1246 = VECTOR('',#1247,1.);
#1247 = DIRECTION('',(1.,0.));
#1248 = ( GEOMETRIC_REPRESENTATION_CONTEXT(2) 
PARAMETRIC_REPRESENTATION_CONTEXT() REPRESENTATION_CONTEXT('2D SPACE',''
  ) );
#1249 = ORIENTED_EDGE('',*,*,#1250,.F.);
#1250 = EDGE_CURVE('',#1251,#1227,#1253,.T.);
#1251 = VERTEX_POINT('',#1252);
#1252 = CARTESIAN_POINT('',(97.132752797332,0.,17.85));
#1253 = SURFACE_CURVE('',#1254,(#1258,#1265),.PCURVE_S1.);
#1254 = LINE('',#1255,#1256);
#1255 = CARTESIAN_POINT('',(97.132752797332,0.,17.85));
#1256 = VECTOR('',#1257,1.);
#1257 = DIRECTION('',(0.766044443119,0.642787609687,0.));
#1258 = PCURVE('',#1186,#1259);
#1259 = DEFINITIONAL_REPRESENTATION('',(#1260),#1264);
#1260 = LINE('',#1261,#1262);
#1261 = CARTESIAN_POINT('',(-5.367247202668,0.));
#1262 = VECTOR('',#1263,1.);
#1263 = DIRECTION('',(0.766044443119,0.642787609687));
#1264 = ( GEOMETRIC_REPRESENTATION_CONTEXT(2) 
PARAMETRIC_REPRESENTATION_CONTEXT() REPRESENTATION_CONTEXT('2D SPACE',''
  ) );
#1265 = PCURVE('',#302,#1266);
#1266 = DEFINITIONAL_REPRESENTATION('',(#1267),#1271);
#1267 = LINE('',#1268,#1269);
#1268 = CARTESIAN_POINT('',(0.,0.));
#1269 = VECTOR('',#1270,1.);
#1270 = DIRECTION('',(1.,0.));
#1271 = ( GEOMETRIC_REPRESENTATION_CONTEXT(2) 
PARAMETRIC_REPRESENTATION_CONTEXT() REPRESENTATION_CONTEXT('2D SPACE',''
  ) );
#1272 = ORIENTED_EDGE('',*,*,#1273,.F.);
#1273 = EDGE_CURVE('',#1274,#1251,#1276,.T.);
#1274 = VERTEX_POINT('',#1275);
#1275 = CARTESIAN_POINT('',(100.28238274658,-2.64285332876,17.85));
#1276 = SURFACE_CURVE('',#1277,(#1281,#1288),.PCURVE_S1.);
#1277 = LINE('',#1278,#1279);
#1278 = CARTESIAN_POINT('',(100.28238274658,-2.64285332876,17.85));
#1279 = VECTOR('',#1280,1.);
#1280 = DIRECTION('',(-0.766044443119,0.642787609687,0.));
#1281 = PCURVE('',#1186,#1282);
#1282 = DEFINITIONAL_REPRESENTATION('',(#1283),#1287);
#1283 = LINE('',#1284,#1285);
#1284 = CARTESIAN_POINT('',(-2.217617253419,-2.64285332876));
#1285 = VECTOR('',#1286,1.);
#1286 = DIRECTION('',(-0.766044443119,0.642787609687));
#1287 = ( GEOMETRIC_REPRESENTATION_CONTEXT(2) 
PARAMETRIC_REPRESENTATION_CONTEXT() REPRESENTATION_CONTEXT('2D SPACE',''
  ) );
#1288 = PCURVE('',#270,#1289);
#1289 = DEFINITIONAL_REPRESENTATION('',(#1290),#1294);
#1290 = LINE('',#1291,#1292);
#1291 = CARTESIAN_POINT('',(0.,0.));
#1292 = VECTOR('',#1293,1.);
#1293 = DIRECTION('',(1.,0.));
#1294 = ( GEOMETRIC_REPRESENTATION_CONTEXT(2) 
PARAMETRIC_REPRESENTATION_CONTEXT() REPRESENTATION_CONTEXT('2D SPACE',''
  ) );
#1295 = ORIENTED_EDGE('',*,*,#1296,.T.);
#1296 = EDGE_CURVE('',#1274,#1297,#1299,.T.);
#1297 = VERTEX_POINT('',#1298);
#1298 = CARTESIAN_POINT('',(105.,-2.377498685594,17.85));
#1299 = SURFACE_CURVE('',#1300,(#1305,#1312),.PCURVE_S1.);
#1300 = CIRCLE('',#1301,3.45);
#1301 = AXIS2_PLACEMENT_3D('',#1302,#1303,#1304);
#1302 = CARTESIAN_POINT('',(102.5,0.,17.85));
#1303 = DIRECTION('',(0.,0.,1.));
#1304 = DIRECTION('',(1.,0.,-0.));
#1305 = PCURVE('',#1186,#1306);
#1306 = DEFINITIONAL_REPRESENTATION('',(#1307),#1311);
#1307 = CIRCLE('',#1308,3.45);
#1308 = AXIS2_PLACEMENT_2D('',#1309,#1310);
#1309 = CARTESIAN_POINT('',(0.,0.));
#1310 = DIRECTION('',(1.,0.));
#1311 = ( GEOMETRIC_REPRESENTATION_CONTEXT(2) 
PARAMETRIC_REPRESENTATION_CONTEXT() REPRESENTATION_CONTEXT('2D SPACE',''
  ) );
#1312 = PCURVE('',#219,#1313);
#1313 = DEFINITIONAL_REPRESENTATION('',(#1314),#1318);
#1314 = LINE('',#1315,#1316);
#1315 = CARTESIAN_POINT('',(0.,0.));
#1316 = VECTOR('',#1317,1.);
#1317 = DIRECTION('',(1.,0.));
#1318 = ( GEOMETRIC_REPRESENTATION_CONTEXT(2) 
PARAMETRIC_REPRESENTATION_CONTEXT() REPRESENTATION_CONTEXT('2D SPACE',''
  ) );
#1319 = ORIENTED_EDGE('',*,*,#1320,.F.);
#1320 = EDGE_CURVE('',#1225,#1297,#1321,.T.);
#1321 = SURFACE_CURVE('',#1322,(#1326,#1333),.PCURVE_S1.);
#1322 = LINE('',#1323,#1324);
#1323 = CARTESIAN_POINT('',(105.,0.,17.85));
#1324 = VECTOR('',#1325,1.);
#1325 = DIRECTION('',(0.,-1.,0.));
#1326 = PCURVE('',#1186,#1327);
#1327 = DEFINITIONAL_REPRESENTATION('',(#1328),#1332);
#1328 = LINE('',#1329,#1330);
#1329 = CARTESIAN_POINT('',(2.5,0.));
#1330 = VECTOR('',#1331,1.);
#1331 = DIRECTION('',(0.,-1.));
#1332 = ( GEOMETRIC_REPRESENTATION_CONTEXT(2) 
PARAMETRIC_REPRESENTATION_CONTEXT() REPRESENTATION_CONTEXT('2D SPACE',''
  ) );
#1333 = PCURVE('',#153,#1334);
#1334 = DEFINITIONAL_REPRESENTATION('',(#1335),#1338);
#1335 = B_SPLINE_CURVE_WITH_KNOTS('',1,(#1336,#1337),.UNSPECIFIED.,.F.,
  .F.,(2,2),(-3.45,3.45),.PIECEWISE_BEZIER_KNOTS.);
#1336 = CARTESIAN_POINT('',(17.85,-3.45));
#1337 = CARTESIAN_POINT('',(17.85,3.45));
#1338 = ( GEOMETRIC_REPRESENTATION_CONTEXT(2) 
PARAMETRIC_REPRESENTATION_CONTEXT() REPRESENTATION_CONTEXT('2D SPACE',''
  ) );
#1339 = FACE_BOUND('',#1340,.T.);
#1340 = EDGE_LOOP('',(#1341));
#1341 = ORIENTED_EDGE('',*,*,#1169,.F.);
#1342 = ADVANCED_FACE('',(#1343),#809,.T.);
#1343 = FACE_BOUND('',#1344,.T.);
#1344 = EDGE_LOOP('',(#1345,#1346,#1366,#1367));
#1345 = ORIENTED_EDGE('',*,*,#1114,.F.);
#1346 = ORIENTED_EDGE('',*,*,#1347,.T.);
#1347 = EDGE_CURVE('',#1090,#690,#1348,.T.);
#1348 = SURFACE_CURVE('',#1349,(#1353,#1360),.PCURVE_S1.);
#1349 = LINE('',#1350,#1351);
#1350 = CARTESIAN_POINT('',(100.82875221481,-1.991715552109,12.5));
#1351 = VECTOR('',#1352,1.);
#1352 = DIRECTION('',(0.,0.,1.));
#1353 = PCURVE('',#809,#1354);
#1354 = DEFINITIONAL_REPRESENTATION('',(#1355),#1359);
#1355 = LINE('',#1356,#1357);
#1356 = CARTESIAN_POINT('',(0.,0.));
#1357 = VECTOR('',#1358,1.);
#1358 = DIRECTION('',(0.,-1.));
#1359 = ( GEOMETRIC_REPRESENTATION_CONTEXT(2) 
PARAMETRIC_REPRESENTATION_CONTEXT() REPRESENTATION_CONTEXT('2D SPACE',''
  ) );
#1360 = PCURVE('',#753,#1361);
#1361 = DEFINITIONAL_REPRESENTATION('',(#1362),#1365);
#1362 = B_SPLINE_CURVE_WITH_KNOTS('',1,(#1363,#1364),.UNSPECIFIED.,.F.,
  .F.,(2,2),(0.,3.173961501787),.PIECEWISE_BEZIER_KNOTS.);
#1363 = CARTESIAN_POINT('',(4.014257279587,0.));
#1364 = CARTESIAN_POINT('',(4.014257279587,3.173961501787));
#1365 = ( GEOMETRIC_REPRESENTATION_CONTEXT(2) 
PARAMETRIC_REPRESENTATION_CONTEXT() REPRESENTATION_CONTEXT('2D SPACE',''
  ) );
#1366 = ORIENTED_EDGE('',*,*,#789,.T.);
#1367 = ORIENTED_EDGE('',*,*,#1044,.F.);
#1368 = ADVANCED_FACE('',(#1369),#753,.T.);
#1369 = FACE_BOUND('',#1370,.T.);
#1370 = EDGE_LOOP('',(#1371,#1406,#1425,#1426,#1427,#1428,#1429,#1430));
#1371 = ORIENTED_EDGE('',*,*,#1372,.T.);
#1372 = EDGE_CURVE('',#1373,#1375,#1377,.T.);
#1373 = VERTEX_POINT('',#1374);
#1374 = CARTESIAN_POINT('',(105.,0.714142842854,16.4));
#1375 = VERTEX_POINT('',#1376);
#1376 = CARTESIAN_POINT('',(105.,-0.714142842854,16.4));
#1377 = SURFACE_CURVE('',#1378,(#1383,#1390),.PCURVE_S1.);
#1378 = CIRCLE('',#1379,2.6);
#1379 = AXIS2_PLACEMENT_3D('',#1380,#1381,#1382);
#1380 = CARTESIAN_POINT('',(102.5,0.,16.4));
#1381 = DIRECTION('',(0.,0.,-1.));
#1382 = DIRECTION('',(0.961538461538,0.274670324175,0.));
#1383 = PCURVE('',#753,#1384);
#1384 = DEFINITIONAL_REPRESENTATION('',(#1385),#1389);
#1385 = LINE('',#1386,#1387);
#1386 = CARTESIAN_POINT('',(6.561432129914,3.9));
#1387 = VECTOR('',#1388,1.);
#1388 = DIRECTION('',(-1.,-0.));
#1389 = ( GEOMETRIC_REPRESENTATION_CONTEXT(2) 
PARAMETRIC_REPRESENTATION_CONTEXT() REPRESENTATION_CONTEXT('2D SPACE',''
  ) );
#1390 = PCURVE('',#1391,#1396);
#1391 = PLANE('',#1392);
#1392 = AXIS2_PLACEMENT_3D('',#1393,#1394,#1395);
#1393 = CARTESIAN_POINT('',(102.5,0.,16.4));
#1394 = DIRECTION('',(0.,0.,1.));
#1395 = DIRECTION('',(1.,0.,-0.));
#1396 = DEFINITIONAL_REPRESENTATION('',(#1397),#1405);
#1397 = ( BOUNDED_CURVE() B_SPLINE_CURVE(2,(#1398,#1399,#1400,#1401,
#1402,#1403,#1404),.UNSPECIFIED.,.T.,.F.) B_SPLINE_CURVE_WITH_KNOTS((1,2
    ,2,2,2,1),(-2.094395102393,0.,2.094395102393,4.188790204786,
6.28318530718,8.377580409573),.UNSPECIFIED.) CURVE() 
GEOMETRIC_REPRESENTATION_ITEM() RATIONAL_B_SPLINE_CURVE((1.,0.5,1.,0.5,
1.,0.5,1.)) REPRESENTATION_ITEM('') );
#1398 = CARTESIAN_POINT('',(2.5,0.714142842854));
#1399 = CARTESIAN_POINT('',(3.736931687685,-3.615984176068));
#1400 = CARTESIAN_POINT('',(-0.631534156157,-2.522134930888));
#1401 = CARTESIAN_POINT('',(-5.,-1.428285685709));
#1402 = CARTESIAN_POINT('',(-1.868465843843,1.807992088034));
#1403 = CARTESIAN_POINT('',(1.263068312315,5.044269861776));
#1404 = CARTESIAN_POINT('',(2.5,0.714142842854));
#1405 = ( GEOMETRIC_REPRESENTATION_CONTEXT(2) 
PARAMETRIC_REPRESENTATION_CONTEXT() REPRESENTATION_CONTEXT('2D SPACE',''
  ) );
#1406 = ORIENTED_EDGE('',*,*,#1407,.F.);
#1407 = EDGE_CURVE('',#667,#1375,#1408,.T.);
#1408 = SURFACE_CURVE('',#1409,(#1413,#1419),.PCURVE_S1.);
#1409 = LINE('',#1410,#1411);
#1410 = CARTESIAN_POINT('',(105.,-0.714142842854,12.5));
#1411 = VECTOR('',#1412,1.);
#1412 = DIRECTION('',(0.,0.,1.));
#1413 = PCURVE('',#753,#1414);
#1414 = DEFINITIONAL_REPRESENTATION('',(#1415),#1418);
#1415 = B_SPLINE_CURVE_WITH_KNOTS('',1,(#1416,#1417),.UNSPECIFIED.,.F.,
  .F.,(2,2),(3.283852508181,3.9),.PIECEWISE_BEZIER_KNOTS.);
#1416 = CARTESIAN_POINT('',(6.004938484445,3.283852508181));
#1417 = CARTESIAN_POINT('',(6.004938484445,3.9));
#1418 = ( GEOMETRIC_REPRESENTATION_CONTEXT(2) 
PARAMETRIC_REPRESENTATION_CONTEXT() REPRESENTATION_CONTEXT('2D SPACE',''
  ) );
#1419 = PCURVE('',#153,#1420);
#1420 = DEFINITIONAL_REPRESENTATION('',(#1421),#1424);
#1421 = B_SPLINE_CURVE_WITH_KNOTS('',1,(#1422,#1423),.UNSPECIFIED.,.F.,
  .F.,(2,2),(1.693072023722,3.9000006),.PIECEWISE_BEZIER_KNOTS.);
#1422 = CARTESIAN_POINT('',(14.193072023722,0.714142842854));
#1423 = CARTESIAN_POINT('',(16.4000006,0.714142842854));
#1424 = ( GEOMETRIC_REPRESENTATION_CONTEXT(2) 
PARAMETRIC_REPRESENTATION_CONTEXT() REPRESENTATION_CONTEXT('2D SPACE',''
  ) );
#1425 = ORIENTED_EDGE('',*,*,#689,.F.);
#1426 = ORIENTED_EDGE('',*,*,#1347,.F.);
#1427 = ORIENTED_EDGE('',*,*,#1089,.T.);
#1428 = ORIENTED_EDGE('',*,*,#1066,.T.);
#1429 = ORIENTED_EDGE('',*,*,#853,.F.);
#1430 = ORIENTED_EDGE('',*,*,#1431,.T.);
#1431 = EDGE_CURVE('',#854,#1373,#1432,.T.);
#1432 = SURFACE_CURVE('',#1433,(#1437,#1443),.PCURVE_S1.);
#1433 = LINE('',#1434,#1435);
#1434 = CARTESIAN_POINT('',(105.,0.714142842854,12.5));
#1435 = VECTOR('',#1436,1.);
#1436 = DIRECTION('',(0.,0.,1.));
#1437 = PCURVE('',#753,#1438);
#1438 = DEFINITIONAL_REPRESENTATION('',(#1439),#1442);
#1439 = B_SPLINE_CURVE_WITH_KNOTS('',1,(#1440,#1441),.UNSPECIFIED.,.F.,
  .F.,(2,2),(3.283852508181,3.9),.PIECEWISE_BEZIER_KNOTS.);
#1440 = CARTESIAN_POINT('',(6.561432129914,3.283852508181));
#1441 = CARTESIAN_POINT('',(6.561432129914,3.9));
#1442 = ( GEOMETRIC_REPRESENTATION_CONTEXT(2) 
PARAMETRIC_REPRESENTATION_CONTEXT() REPRESENTATION_CONTEXT('2D SPACE',''
  ) );
#1443 = PCURVE('',#153,#1444);
#1444 = DEFINITIONAL_REPRESENTATION('',(#1445),#1448);
#1445 = B_SPLINE_CURVE_WITH_KNOTS('',1,(#1446,#1447),.UNSPECIFIED.,.F.,
  .F.,(2,2),(1.693072023722,3.9000006),.PIECEWISE_BEZIER_KNOTS.);
#1446 = CARTESIAN_POINT('',(14.193072023722,-0.714142842854));
#1447 = CARTESIAN_POINT('',(16.4000006,-0.714142842854));
#1448 = ( GEOMETRIC_REPRESENTATION_CONTEXT(2) 
PARAMETRIC_REPRESENTATION_CONTEXT() REPRESENTATION_CONTEXT('2D SPACE',''
  ) );
#1449 = ADVANCED_FACE('',(#1450),#1391,.T.);
#1450 = FACE_BOUND('',#1451,.T.);
#1451 = EDGE_LOOP('',(#1452,#1471));
#1452 = ORIENTED_EDGE('',*,*,#1453,.T.);
#1453 = EDGE_CURVE('',#1373,#1375,#1454,.T.);
#1454 = SURFACE_CURVE('',#1455,(#1459,#1465),.PCURVE_S1.);
#1455 = LINE('',#1456,#1457);
#1456 = CARTESIAN_POINT('',(105.,0.,16.4));
#1457 = VECTOR('',#1458,1.);
#1458 = DIRECTION('',(0.,-1.,0.));
#1459 = PCURVE('',#1391,#1460);
#1460 = DEFINITIONAL_REPRESENTATION('',(#1461),#1464);
#1461 = B_SPLINE_CURVE_WITH_KNOTS('',1,(#1462,#1463),.UNSPECIFIED.,.F.,
  .F.,(2,2),(-2.6,2.6),.PIECEWISE_BEZIER_KNOTS.);
#1462 = CARTESIAN_POINT('',(2.5,2.6));
#1463 = CARTESIAN_POINT('',(2.5,-2.6));
#1464 = ( GEOMETRIC_REPRESENTATION_CONTEXT(2) 
PARAMETRIC_REPRESENTATION_CONTEXT() REPRESENTATION_CONTEXT('2D SPACE',''
  ) );
#1465 = PCURVE('',#153,#1466);
#1466 = DEFINITIONAL_REPRESENTATION('',(#1467),#1470);
#1467 = B_SPLINE_CURVE_WITH_KNOTS('',1,(#1468,#1469),.UNSPECIFIED.,.F.,
  .F.,(2,2),(-2.6,2.6),.PIECEWISE_BEZIER_KNOTS.);
#1468 = CARTESIAN_POINT('',(16.4,-2.6));
#1469 = CARTESIAN_POINT('',(16.4,2.6));
#1470 = ( GEOMETRIC_REPRESENTATION_CONTEXT(2) 
PARAMETRIC_REPRESENTATION_CONTEXT() REPRESENTATION_CONTEXT('2D SPACE',''
  ) );
#1471 = ORIENTED_EDGE('',*,*,#1372,.F.);
#1472 = ADVANCED_FACE('',(#1473),#464,.T.);
#1473 = FACE_BOUND('',#1474,.T.);
#1474 = EDGE_LOOP('',(#1475,#1476,#1477,#1498));
#1475 = ORIENTED_EDGE('',*,*,#552,.T.);
#1476 = ORIENTED_EDGE('',*,*,#448,.T.);
#1477 = ORIENTED_EDGE('',*,*,#1478,.F.);
#1478 = EDGE_CURVE('',#969,#423,#1479,.T.);
#1479 = SURFACE_CURVE('',#1480,(#1484,#1491),.PCURVE_S1.);
#1480 = LINE('',#1481,#1482);
#1481 = CARTESIAN_POINT('',(96.,6.,0.));
#1482 = VECTOR('',#1483,1.);
#1483 = DIRECTION('',(0.,0.,1.));
#1484 = PCURVE('',#464,#1485);
#1485 = DEFINITIONAL_REPRESENTATION('',(#1486),#1490);
#1486 = LINE('',#1487,#1488);
#1487 = CARTESIAN_POINT('',(0.,-6.));
#1488 = VECTOR('',#1489,1.);
#1489 = DIRECTION('',(1.,0.));
#1490 = ( GEOMETRIC_REPRESENTATION_CONTEXT(2) 
PARAMETRIC_REPRESENTATION_CONTEXT() REPRESENTATION_CONTEXT('2D SPACE',''
  ) );
#1491 = PCURVE('',#437,#1492);
#1492 = DEFINITIONAL_REPRESENTATION('',(#1493),#1497);
#1493 = LINE('',#1494,#1495);
#1494 = CARTESIAN_POINT('',(0.,0.));
#1495 = VECTOR('',#1496,1.);
#1496 = DIRECTION('',(1.,0.));
#1497 = ( GEOMETRIC_REPRESENTATION_CONTEXT(2) 
PARAMETRIC_REPRESENTATION_CONTEXT() REPRESENTATION_CONTEXT('2D SPACE',''
  ) );
#1498 = ORIENTED_EDGE('',*,*,#989,.F.);
#1499 = ADVANCED_FACE('',(#1500),#437,.T.);
#1500 = FACE_BOUND('',#1501,.T.);
#1501 = EDGE_LOOP('',(#1502,#1523,#1524,#1525));
#1502 = ORIENTED_EDGE('',*,*,#1503,.F.);
#1503 = EDGE_CURVE('',#946,#400,#1504,.T.);
#1504 = SURFACE_CURVE('',#1505,(#1509,#1516),.PCURVE_S1.);
#1505 = LINE('',#1506,#1507);
#1506 = CARTESIAN_POINT('',(105.,6.,0.));
#1507 = VECTOR('',#1508,1.);
#1508 = DIRECTION('',(0.,0.,1.));
#1509 = PCURVE('',#437,#1510);
#1510 = DEFINITIONAL_REPRESENTATION('',(#1511),#1515);
#1511 = LINE('',#1512,#1513);
#1512 = CARTESIAN_POINT('',(0.,9.));
#1513 = VECTOR('',#1514,1.);
#1514 = DIRECTION('',(1.,0.));
#1515 = ( GEOMETRIC_REPRESENTATION_CONTEXT(2) 
PARAMETRIC_REPRESENTATION_CONTEXT() REPRESENTATION_CONTEXT('2D SPACE',''
  ) );
#1516 = PCURVE('',#153,#1517);
#1517 = DEFINITIONAL_REPRESENTATION('',(#1518),#1522);
#1518 = LINE('',#1519,#1520);
#1519 = CARTESIAN_POINT('',(0.,-6.));
#1520 = VECTOR('',#1521,1.);
#1521 = DIRECTION('',(1.,0.));
#1522 = ( GEOMETRIC_REPRESENTATION_CONTEXT(2) 
PARAMETRIC_REPRESENTATION_CONTEXT() REPRESENTATION_CONTEXT('2D SPACE',''
  ) );
#1523 = ORIENTED_EDGE('',*,*,#968,.F.);
#1524 = ORIENTED_EDGE('',*,*,#1478,.T.);
#1525 = ORIENTED_EDGE('',*,*,#422,.T.);
#1526 = ADVANCED_FACE('',(#1527),#368,.F.);
#1527 = FACE_BOUND('',#1528,.F.);
#1528 = EDGE_LOOP('',(#1529,#1550,#1551,#1570));
#1529 = ORIENTED_EDGE('',*,*,#1530,.T.);
#1530 = EDGE_CURVE('',#1227,#283,#1531,.T.);
#1531 = SURFACE_CURVE('',#1532,(#1536,#1543),.PCURVE_S1.);
#1532 = LINE('',#1533,#1534);
#1533 = CARTESIAN_POINT('',(100.28238274658,2.64285332876,17.85));
#1534 = VECTOR('',#1535,1.);
#1535 = DIRECTION('',(0.,0.,1.));
#1536 = PCURVE('',#368,#1537);
#1537 = DEFINITIONAL_REPRESENTATION('',(#1538),#1542);
#1538 = LINE('',#1539,#1540);
#1539 = CARTESIAN_POINT('',(2.268928027593,0.));
#1540 = VECTOR('',#1541,1.);
#1541 = DIRECTION('',(0.,1.));
#1542 = ( GEOMETRIC_REPRESENTATION_CONTEXT(2) 
PARAMETRIC_REPRESENTATION_CONTEXT() REPRESENTATION_CONTEXT('2D SPACE',''
  ) );
#1543 = PCURVE('',#302,#1544);
#1544 = DEFINITIONAL_REPRESENTATION('',(#1545),#1549);
#1545 = LINE('',#1546,#1547);
#1546 = CARTESIAN_POINT('',(4.11154989445,0.));
#1547 = VECTOR('',#1548,1.);
#1548 = DIRECTION('',(0.,-1.));
#1549 = ( GEOMETRIC_REPRESENTATION_CONTEXT(2) 
PARAMETRIC_REPRESENTATION_CONTEXT() REPRESENTATION_CONTEXT('2D SPACE',''
  ) );
#1550 = ORIENTED_EDGE('',*,*,#314,.F.);
#1551 = ORIENTED_EDGE('',*,*,#1552,.F.);
#1552 = EDGE_CURVE('',#1225,#315,#1553,.T.);
#1553 = SURFACE_CURVE('',#1554,(#1558,#1564),.PCURVE_S1.);
#1554 = LINE('',#1555,#1556);
#1555 = CARTESIAN_POINT('',(105.,2.377498685594,17.85));
#1556 = VECTOR('',#1557,1.);
#1557 = DIRECTION('',(0.,0.,1.));
#1558 = PCURVE('',#368,#1559);
#1559 = DEFINITIONAL_REPRESENTATION('',(#1560),#1563);
#1560 = B_SPLINE_CURVE_WITH_KNOTS('',1,(#1561,#1562),.UNSPECIFIED.,.F.,
  .F.,(2,2),(-5.999999999062E-07,1.423357088753),
  .PIECEWISE_BEZIER_KNOTS.);
#1561 = CARTESIAN_POINT('',(0.760287840593,-5.999999999062E-07));
#1562 = CARTESIAN_POINT('',(0.760287840593,1.423357088753));
#1563 = ( GEOMETRIC_REPRESENTATION_CONTEXT(2) 
PARAMETRIC_REPRESENTATION_CONTEXT() REPRESENTATION_CONTEXT('2D SPACE',''
  ) );
#1564 = PCURVE('',#153,#1565);
#1565 = DEFINITIONAL_REPRESENTATION('',(#1566),#1569);
#1566 = B_SPLINE_CURVE_WITH_KNOTS('',1,(#1567,#1568),.UNSPECIFIED.,.F.,
  .F.,(2,2),(-5.999999999062E-07,1.423357088753),
  .PIECEWISE_BEZIER_KNOTS.);
#1567 = CARTESIAN_POINT('',(17.8499994,-2.377498685594));
#1568 = CARTESIAN_POINT('',(19.273357088753,-2.377498685594));
#1569 = ( GEOMETRIC_REPRESENTATION_CONTEXT(2) 
PARAMETRIC_REPRESENTATION_CONTEXT() REPRESENTATION_CONTEXT('2D SPACE',''
  ) );
#1570 = ORIENTED_EDGE('',*,*,#1224,.T.);
#1571 = ADVANCED_FACE('',(#1572),#302,.F.);
#1572 = FACE_BOUND('',#1573,.F.);
#1573 = EDGE_LOOP('',(#1574,#1575,#1596,#1597));
#1574 = ORIENTED_EDGE('',*,*,#1250,.F.);
#1575 = ORIENTED_EDGE('',*,*,#1576,.T.);
#1576 = EDGE_CURVE('',#1251,#251,#1577,.T.);
#1577 = SURFACE_CURVE('',#1578,(#1582,#1589),.PCURVE_S1.);
#1578 = LINE('',#1579,#1580);
#1579 = CARTESIAN_POINT('',(97.132752797332,0.,17.85));
#1580 = VECTOR('',#1581,1.);
#1581 = DIRECTION('',(0.,0.,1.));
#1582 = PCURVE('',#302,#1583);
#1583 = DEFINITIONAL_REPRESENTATION('',(#1584),#1588);
#1584 = LINE('',#1585,#1586);
#1585 = CARTESIAN_POINT('',(0.,0.));
#1586 = VECTOR('',#1587,1.);
#1587 = DIRECTION('',(0.,-1.));
#1588 = ( GEOMETRIC_REPRESENTATION_CONTEXT(2) 
PARAMETRIC_REPRESENTATION_CONTEXT() REPRESENTATION_CONTEXT('2D SPACE',''
  ) );
#1589 = PCURVE('',#270,#1590);
#1590 = DEFINITIONAL_REPRESENTATION('',(#1591),#1595);
#1591 = LINE('',#1592,#1593);
#1592 = CARTESIAN_POINT('',(4.11154989445,0.));
#1593 = VECTOR('',#1594,1.);
#1594 = DIRECTION('',(0.,-1.));
#1595 = ( GEOMETRIC_REPRESENTATION_CONTEXT(2) 
PARAMETRIC_REPRESENTATION_CONTEXT() REPRESENTATION_CONTEXT('2D SPACE',''
  ) );
#1596 = ORIENTED_EDGE('',*,*,#282,.T.);
#1597 = ORIENTED_EDGE('',*,*,#1530,.F.);
#1598 = ADVANCED_FACE('',(#1599),#270,.F.);
#1599 = FACE_BOUND('',#1600,.F.);
#1600 = EDGE_LOOP('',(#1601,#1602,#1623,#1624));
#1601 = ORIENTED_EDGE('',*,*,#1273,.F.);
#1602 = ORIENTED_EDGE('',*,*,#1603,.T.);
#1603 = EDGE_CURVE('',#1274,#166,#1604,.T.);
#1604 = SURFACE_CURVE('',#1605,(#1609,#1616),.PCURVE_S1.);
#1605 = LINE('',#1606,#1607);
#1606 = CARTESIAN_POINT('',(100.28238274658,-2.64285332876,17.85));
#1607 = VECTOR('',#1608,1.);
#1608 = DIRECTION('',(0.,0.,1.));
#1609 = PCURVE('',#270,#1610);
#1610 = DEFINITIONAL_REPRESENTATION('',(#1611),#1615);
#1611 = LINE('',#1612,#1613);
#1612 = CARTESIAN_POINT('',(0.,0.));
#1613 = VECTOR('',#1614,1.);
#1614 = DIRECTION('',(0.,-1.));
#1615 = ( GEOMETRIC_REPRESENTATION_CONTEXT(2) 
PARAMETRIC_REPRESENTATION_CONTEXT() REPRESENTATION_CONTEXT('2D SPACE',''
  ) );
#1616 = PCURVE('',#219,#1617);
#1617 = DEFINITIONAL_REPRESENTATION('',(#1618),#1622);
#1618 = LINE('',#1619,#1620);
#1619 = CARTESIAN_POINT('',(4.014257279587,0.));
#1620 = VECTOR('',#1621,1.);
#1621 = DIRECTION('',(0.,1.));
#1622 = ( GEOMETRIC_REPRESENTATION_CONTEXT(2) 
PARAMETRIC_REPRESENTATION_CONTEXT() REPRESENTATION_CONTEXT('2D SPACE',''
  ) );
#1623 = ORIENTED_EDGE('',*,*,#250,.T.);
#1624 = ORIENTED_EDGE('',*,*,#1576,.F.);
#1625 = ADVANCED_FACE('',(#1626),#219,.F.);
#1626 = FACE_BOUND('',#1627,.F.);
#1627 = EDGE_LOOP('',(#1628,#1629,#1648,#1649));
#1628 = ORIENTED_EDGE('',*,*,#1296,.T.);
#1629 = ORIENTED_EDGE('',*,*,#1630,.T.);
#1630 = EDGE_CURVE('',#1297,#138,#1631,.T.);
#1631 = SURFACE_CURVE('',#1632,(#1636,#1642),.PCURVE_S1.);
#1632 = LINE('',#1633,#1634);
#1633 = CARTESIAN_POINT('',(105.,-2.377498685594,17.85));
#1634 = VECTOR('',#1635,1.);
#1635 = DIRECTION('',(0.,0.,1.));
#1636 = PCURVE('',#219,#1637);
#1637 = DEFINITIONAL_REPRESENTATION('',(#1638),#1641);
#1638 = B_SPLINE_CURVE_WITH_KNOTS('',1,(#1639,#1640),.UNSPECIFIED.,.F.,
  .F.,(2,2),(-5.999999999062E-07,1.423357088753),
  .PIECEWISE_BEZIER_KNOTS.);
#1639 = CARTESIAN_POINT('',(5.522897466587,-5.999999999062E-07));
#1640 = CARTESIAN_POINT('',(5.522897466587,1.423357088753));
#1641 = ( GEOMETRIC_REPRESENTATION_CONTEXT(2) 
PARAMETRIC_REPRESENTATION_CONTEXT() REPRESENTATION_CONTEXT('2D SPACE',''
  ) );
#1642 = PCURVE('',#153,#1643);
#1643 = DEFINITIONAL_REPRESENTATION('',(#1644),#1647);
#1644 = B_SPLINE_CURVE_WITH_KNOTS('',1,(#1645,#1646),.UNSPECIFIED.,.F.,
  .F.,(2,2),(-5.999999999062E-07,1.423357088753),
  .PIECEWISE_BEZIER_KNOTS.);
#1645 = CARTESIAN_POINT('',(17.8499994,2.377498685594));
#1646 = CARTESIAN_POINT('',(19.273357088753,2.377498685594));
#1647 = ( GEOMETRIC_REPRESENTATION_CONTEXT(2) 
PARAMETRIC_REPRESENTATION_CONTEXT() REPRESENTATION_CONTEXT('2D SPACE',''
  ) );
#1648 = ORIENTED_EDGE('',*,*,#165,.F.);
#1649 = ORIENTED_EDGE('',*,*,#1603,.F.);
#1650 = ADVANCED_FACE('',(#1651),#153,.T.);
#1651 = FACE_BOUND('',#1652,.T.);
#1652 = EDGE_LOOP('',(#1653,#1654,#1655,#1656,#1657,#1658,#1659,#1660,
    #1681,#1682,#1683,#1684));
#1653 = ORIENTED_EDGE('',*,*,#945,.F.);
#1654 = ORIENTED_EDGE('',*,*,#1503,.T.);
#1655 = ORIENTED_EDGE('',*,*,#399,.T.);
#1656 = ORIENTED_EDGE('',*,*,#1552,.F.);
#1657 = ORIENTED_EDGE('',*,*,#1320,.T.);
#1658 = ORIENTED_EDGE('',*,*,#1630,.T.);
#1659 = ORIENTED_EDGE('',*,*,#137,.T.);
#1660 = ORIENTED_EDGE('',*,*,#1661,.F.);
#1661 = EDGE_CURVE('',#646,#112,#1662,.T.);
#1662 = SURFACE_CURVE('',#1663,(#1667,#1674),.PCURVE_S1.);
#1663 = LINE('',#1664,#1665);
#1664 = CARTESIAN_POINT('',(105.,-6.,0.));
#1665 = VECTOR('',#1666,1.);
#1666 = DIRECTION('',(0.,0.,1.));
#1667 = PCURVE('',#153,#1668);
#1668 = DEFINITIONAL_REPRESENTATION('',(#1669),#1673);
#1669 = LINE('',#1670,#1671);
#1670 = CARTESIAN_POINT('',(0.,6.));
#1671 = VECTOR('',#1672,1.);
#1672 = DIRECTION('',(1.,0.));
#1673 = ( GEOMETRIC_REPRESENTATION_CONTEXT(2) 
PARAMETRIC_REPRESENTATION_CONTEXT() REPRESENTATION_CONTEXT('2D SPACE',''
  ) );
#1674 = PCURVE('',#126,#1675);
#1675 = DEFINITIONAL_REPRESENTATION('',(#1676),#1680);
#1676 = LINE('',#1677,#1678);
#1677 = CARTESIAN_POINT('',(0.,9.));
#1678 = VECTOR('',#1679,1.);
#1679 = DIRECTION('',(1.,0.));
#1680 = ( GEOMETRIC_REPRESENTATION_CONTEXT(2) 
PARAMETRIC_REPRESENTATION_CONTEXT() REPRESENTATION_CONTEXT('2D SPACE',''
  ) );
#1681 = ORIENTED_EDGE('',*,*,#666,.F.);
#1682 = ORIENTED_EDGE('',*,*,#1407,.T.);
#1683 = ORIENTED_EDGE('',*,*,#1453,.F.);
#1684 = ORIENTED_EDGE('',*,*,#1431,.F.);
#1685 = ADVANCED_FACE('',(#1686),#126,.F.);
#1686 = FACE_BOUND('',#1687,.F.);
#1687 = EDGE_LOOP('',(#1688,#1689,#1690,#1711));
#1688 = ORIENTED_EDGE('',*,*,#1661,.F.);
#1689 = ORIENTED_EDGE('',*,*,#645,.F.);
#1690 = ORIENTED_EDGE('',*,*,#1691,.T.);
#1691 = EDGE_CURVE('',#623,#84,#1692,.T.);
#1692 = SURFACE_CURVE('',#1693,(#1697,#1704),.PCURVE_S1.);
#1693 = LINE('',#1694,#1695);
#1694 = CARTESIAN_POINT('',(96.,-6.,0.));
#1695 = VECTOR('',#1696,1.);
#1696 = DIRECTION('',(0.,0.,1.));
#1697 = PCURVE('',#126,#1698);
#1698 = DEFINITIONAL_REPRESENTATION('',(#1699),#1703);
#1699 = LINE('',#1700,#1701);
#1700 = CARTESIAN_POINT('',(0.,0.));
#1701 = VECTOR('',#1702,1.);
#1702 = DIRECTION('',(1.,0.));
#1703 = ( GEOMETRIC_REPRESENTATION_CONTEXT(2) 
PARAMETRIC_REPRESENTATION_CONTEXT() REPRESENTATION_CONTEXT('2D SPACE',''
  ) );
#1704 = PCURVE('',#99,#1705);
#1705 = DEFINITIONAL_REPRESENTATION('',(#1706),#1710);
#1706 = LINE('',#1707,#1708);
#1707 = CARTESIAN_POINT('',(0.,6.));
#1708 = VECTOR('',#1709,1.);
#1709 = DIRECTION('',(1.,0.));
#1710 = ( GEOMETRIC_REPRESENTATION_CONTEXT(2) 
PARAMETRIC_REPRESENTATION_CONTEXT() REPRESENTATION_CONTEXT('2D SPACE',''
  ) );
#1711 = ORIENTED_EDGE('',*,*,#111,.T.);
#1712 = ADVANCED_FACE('',(#1713),#99,.T.);
#1713 = FACE_BOUND('',#1714,.T.);
#1714 = EDGE_LOOP('',(#1715,#1716,#1717,#1738));
#1715 = ORIENTED_EDGE('',*,*,#1691,.T.);
#1716 = ORIENTED_EDGE('',*,*,#83,.T.);
#1717 = ORIENTED_EDGE('',*,*,#1718,.T.);
#1718 = EDGE_CURVE('',#58,#602,#1719,.T.);
#1719 = SURFACE_CURVE('',#1720,(#1724,#1731),.PCURVE_S1.);
#1720 = LINE('',#1721,#1722);
#1721 = CARTESIAN_POINT('',(96.,-30.,11.));
#1722 = VECTOR('',#1723,1.);
#1723 = DIRECTION('',(-0.,1.,0.));
#1724 = PCURVE('',#99,#1725);
#1725 = DEFINITIONAL_REPRESENTATION('',(#1726),#1730);
#1726 = LINE('',#1727,#1728);
#1727 = CARTESIAN_POINT('',(11.,30.));
#1728 = VECTOR('',#1729,1.);
#1729 = DIRECTION('',(0.,-1.));
#1730 = ( GEOMETRIC_REPRESENTATION_CONTEXT(2) 
PARAMETRIC_REPRESENTATION_CONTEXT() REPRESENTATION_CONTEXT('2D SPACE',''
  ) );
#1731 = PCURVE('',#72,#1732);
#1732 = DEFINITIONAL_REPRESENTATION('',(#1733),#1737);
#1733 = LINE('',#1734,#1735);
#1734 = CARTESIAN_POINT('',(5.7,0.));
#1735 = VECTOR('',#1736,1.);
#1736 = DIRECTION('',(0.,1.));
#1737 = ( GEOMETRIC_REPRESENTATION_CONTEXT(2) 
PARAMETRIC_REPRESENTATION_CONTEXT() REPRESENTATION_CONTEXT('2D SPACE',''
  ) );
#1738 = ORIENTED_EDGE('',*,*,#622,.F.);
#1739 = ADVANCED_FACE('',(#1740),#72,.F.);
#1740 = FACE_BOUND('',#1741,.F.);
#1741 = EDGE_LOOP('',(#1742,#1763,#1764,#1765));
#1742 = ORIENTED_EDGE('',*,*,#1743,.F.);
#1743 = EDGE_CURVE('',#24,#578,#1744,.T.);
#1744 = SURFACE_CURVE('',#1745,(#1749,#1756),.PCURVE_S1.);
#1745 = LINE('',#1746,#1747);
#1746 = CARTESIAN_POINT('',(90.3,-30.,11.));
#1747 = VECTOR('',#1748,1.);
#1748 = DIRECTION('',(-0.,1.,0.));
#1749 = PCURVE('',#72,#1750);
#1750 = DEFINITIONAL_REPRESENTATION('',(#1751),#1755);
#1751 = LINE('',#1752,#1753);
#1752 = CARTESIAN_POINT('',(0.,0.));
#1753 = VECTOR('',#1754,1.);
#1754 = DIRECTION('',(0.,1.));
#1755 = ( GEOMETRIC_REPRESENTATION_CONTEXT(2) 
PARAMETRIC_REPRESENTATION_CONTEXT() REPRESENTATION_CONTEXT('2D SPACE',''
  ) );
#1756 = PCURVE('',#45,#1757);
#1757 = DEFINITIONAL_REPRESENTATION('',(#1758),#1762);
#1758 = LINE('',#1759,#1760);
#1759 = CARTESIAN_POINT('',(11.,30.));
#1760 = VECTOR('',#1761,1.);
#1761 = DIRECTION('',(0.,-1.));
#1762 = ( GEOMETRIC_REPRESENTATION_CONTEXT(2) 
PARAMETRIC_REPRESENTATION_CONTEXT() REPRESENTATION_CONTEXT('2D SPACE',''
  ) );
#1763 = ORIENTED_EDGE('',*,*,#57,.T.);
#1764 = ORIENTED_EDGE('',*,*,#1718,.T.);
#1765 = ORIENTED_EDGE('',*,*,#601,.F.);
#1766 = ADVANCED_FACE('',(#1767),#45,.F.);
#1767 = FACE_BOUND('',#1768,.F.);
#1768 = EDGE_LOOP('',(#1769,#1770,#1771,#1772));
#1769 = ORIENTED_EDGE('',*,*,#21,.T.);
#1770 = ORIENTED_EDGE('',*,*,#1743,.T.);
#1771 = ORIENTED_EDGE('',*,*,#577,.F.);
#1772 = ORIENTED_EDGE('',*,*,#503,.T.);
#1773 = ( GEOMETRIC_REPRESENTATION_CONTEXT(3) 
GLOBAL_UNCERTAINTY_ASSIGNED_CONTEXT((#1777)) 
GLOBAL_UNIT_ASSIGNED_CONTEXT((#1774,#1775,#1776)) REPRESENTATION_CONTEXT
('Context #1','3D Context with UNIT and UNCERTAINTY') );
#1774 = ( LENGTH_UNIT() NAMED_UNIT(*) SI_UNIT(.MILLI.,.METRE.) );
#1775 = ( NAMED_UNIT(*) PLANE_ANGLE_UNIT() SI_UNIT($,.RADIAN.) );
#1776 = ( NAMED_UNIT(*) SI_UNIT($,.STERADIAN.) SOLID_ANGLE_UNIT() );
#1777 = UNCERTAINTY_MEASURE_WITH_UNIT(LENGTH_MEASURE(1.E-07),#1774,
  'distance_accuracy_value','confusion accuracy');
#1778 = PRODUCT_RELATED_PRODUCT_CATEGORY('part',$,(#7));
ENDSEC;
END-ISO-10303-21;
