ISO-10303-21;
HEADER;
FILE_DESCRIPTION(('SkyG Speed 90B - revision C6B-2 - 2026-10-08','HL1-hatch-lip-front'),'2;1');
FILE_NAME('HL1-hatch-lip-front_C6B-2','2026-10-08T01:12:38',('Author'),(
    'Open CASCADE'),'Open CASCADE STEP processor 7.9','Open CASCADE 7.9'
  ,'Unknown');
FILE_SCHEMA(('AUTOMOTIVE_DESIGN { 1 0 10303 214 1 1 1 1 }'));
ENDSEC;
DATA;
#1 = APPLICATION_PROTOCOL_DEFINITION('international standard',
  'automotive_design',2000,#2);
#2 = APPLICATION_CONTEXT(
  'core data for automotive mechanical design processes');
#3 = SHAPE_DEFINITION_REPRESENTATION(#4,#10);
#4 = PRODUCT_DEFINITION_SHAPE('','',#5);
#5 = PRODUCT_DEFINITION('design','',#6,#9);
#6 = PRODUCT_DEFINITION_FORMATION('','',#7);
#7 = PRODUCT('HL1-hatch-lip-front C6B-2','HL1-hatch-lip-front C6B-2','',(#8));
#8 = PRODUCT_CONTEXT('',#2,'mechanical');
#9 = PRODUCT_DEFINITION_CONTEXT('part definition',#2,'design');
#10 = ADVANCED_BREP_SHAPE_REPRESENTATION('',(#11,#15),#1168);
#11 = AXIS2_PLACEMENT_3D('',#12,#13,#14);
#12 = CARTESIAN_POINT('',(0.,0.,0.));
#13 = DIRECTION('',(0.,0.,1.));
#14 = DIRECTION('',(1.,0.,-0.));
#15 = MANIFOLD_SOLID_BREP('',#16);
#16 = CLOSED_SHELL('',(#17,#347,#421,#595,#664,#714,#761,#788,#815,#844,
    #925,#1000,#1027,#1127,#1160));
#17 = ADVANCED_FACE('',(#18),#33,.T.);
#18 = FACE_BOUND('',#19,.T.);
#19 = EDGE_LOOP('',(#20,#56,#84,#184,#216,#239,#268,#294,#323));
#20 = ORIENTED_EDGE('',*,*,#21,.T.);
#21 = EDGE_CURVE('',#22,#24,#26,.T.);
#22 = VERTEX_POINT('',#23);
#23 = CARTESIAN_POINT('',(60.3,16.824758542101,8.5));
#24 = VERTEX_POINT('',#25);
#25 = CARTESIAN_POINT('',(60.3,4.616918432786E-15,18.85));
#26 = SURFACE_CURVE('',#27,(#32,#44),.PCURVE_S1.);
#27 = CIRCLE('',#28,18.85);
#28 = AXIS2_PLACEMENT_3D('',#29,#30,#31);
#29 = CARTESIAN_POINT('',(60.3,0.,0.));
#30 = DIRECTION('',(1.,0.,0.));
#31 = DIRECTION('',(-0.,0.,1.));
#32 = PCURVE('',#33,#38);
#33 = CYLINDRICAL_SURFACE('',#34,18.85);
#34 = AXIS2_PLACEMENT_3D('',#35,#36,#37);
#35 = CARTESIAN_POINT('',(60.3,0.,0.));
#36 = DIRECTION('',(1.,0.,0.));
#37 = DIRECTION('',(-0.,0.,1.));
#38 = DEFINITIONAL_REPRESENTATION('',(#39),#43);
#39 = LINE('',#40,#41);
#40 = CARTESIAN_POINT('',(0.,0.));
#41 = VECTOR('',#42,1.);
#42 = DIRECTION('',(1.,0.));
#43 = ( GEOMETRIC_REPRESENTATION_CONTEXT(2) 
PARAMETRIC_REPRESENTATION_CONTEXT() REPRESENTATION_CONTEXT('2D SPACE',''
  ) );
#44 = PCURVE('',#45,#50);
#45 = PLANE('',#46);
#46 = AXIS2_PLACEMENT_3D('',#47,#48,#49);
#47 = CARTESIAN_POINT('',(60.3,0.,0.));
#48 = DIRECTION('',(1.,0.,0.));
#49 = DIRECTION('',(-0.,0.,1.));
#50 = DEFINITIONAL_REPRESENTATION('',(#51),#55);
#51 = CIRCLE('',#52,18.85);
#52 = AXIS2_PLACEMENT_2D('',#53,#54);
#53 = CARTESIAN_POINT('',(0.,0.));
#54 = DIRECTION('',(1.,0.));
#55 = ( GEOMETRIC_REPRESENTATION_CONTEXT(2) 
PARAMETRIC_REPRESENTATION_CONTEXT() REPRESENTATION_CONTEXT('2D SPACE',''
  ) );
#56 = ORIENTED_EDGE('',*,*,#57,.T.);
#57 = EDGE_CURVE('',#24,#58,#60,.T.);
#58 = VERTEX_POINT('',#59);
#59 = CARTESIAN_POINT('',(66.9,4.616918432786E-15,18.85));
#60 = SURFACE_CURVE('',#61,(#65,#72),.PCURVE_S1.);
#61 = LINE('',#62,#63);
#62 = CARTESIAN_POINT('',(60.3,4.616918432786E-15,18.85));
#63 = VECTOR('',#64,1.);
#64 = DIRECTION('',(1.,0.,0.));
#65 = PCURVE('',#33,#66);
#66 = DEFINITIONAL_REPRESENTATION('',(#67),#71);
#67 = LINE('',#68,#69);
#68 = CARTESIAN_POINT('',(6.28318530718,-0.));
#69 = VECTOR('',#70,1.);
#70 = DIRECTION('',(0.,1.));
#71 = ( GEOMETRIC_REPRESENTATION_CONTEXT(2) 
PARAMETRIC_REPRESENTATION_CONTEXT() REPRESENTATION_CONTEXT('2D SPACE',''
  ) );
#72 = PCURVE('',#73,#78);
#73 = CYLINDRICAL_SURFACE('',#74,18.85);
#74 = AXIS2_PLACEMENT_3D('',#75,#76,#77);
#75 = CARTESIAN_POINT('',(60.3,0.,0.));
#76 = DIRECTION('',(1.,0.,0.));
#77 = DIRECTION('',(-0.,0.,1.));
#78 = DEFINITIONAL_REPRESENTATION('',(#79),#83);
#79 = LINE('',#80,#81);
#80 = CARTESIAN_POINT('',(0.,-0.));
#81 = VECTOR('',#82,1.);
#82 = DIRECTION('',(0.,1.));
#83 = ( GEOMETRIC_REPRESENTATION_CONTEXT(2) 
PARAMETRIC_REPRESENTATION_CONTEXT() REPRESENTATION_CONTEXT('2D SPACE',''
  ) );
#84 = ORIENTED_EDGE('',*,*,#85,.F.);
#85 = EDGE_CURVE('',#86,#58,#88,.T.);
#86 = VERTEX_POINT('',#87);
#87 = CARTESIAN_POINT('',(69.528460175498,1.22567110899,18.810109790551)
  );
#88 = SURFACE_CURVE('',#89,(#117,#148),.PCURVE_S1.);
#89 = B_SPLINE_CURVE_WITH_KNOTS('',6,(#90,#91,#92,#93,#94,#95,#96,#97,
    #98,#99,#100,#101,#102,#103,#104,#105,#106,#107,#108,#109,#110,#111,
    #112,#113,#114,#115,#116),.UNSPECIFIED.,.F.,.F.,(7,5,5,5,5,7),(0.,
    9.219739997929E-02,0.323727375092,0.565279989561,0.763692475032,1.),
  .UNSPECIFIED.);
#90 = CARTESIAN_POINT('',(69.528460175498,1.22567110899,18.810109790551)
  );
#91 = CARTESIAN_POINT('',(69.485749298933,1.261509789763,18.807774533814
    ));
#92 = CARTESIAN_POINT('',(69.44198393126,1.295189805643,18.805497648039)
  );
#93 = CARTESIAN_POINT('',(69.397279830573,1.326732543194,18.803296283244
    ));
#94 = CARTESIAN_POINT('',(69.351742501959,1.356160436844,18.801185343726
    ));
#95 = CARTESIAN_POINT('',(69.3054675672,1.383496484907,18.799177628228)
  );
#96 = CARTESIAN_POINT('',(69.140697509782,1.472216019958,18.792528536451
    ));
#97 = CARTESIAN_POINT('',(69.018739874254,1.522624825941,18.788492159153
    ));
#98 = CARTESIAN_POINT('',(68.893990951547,1.560372059256,18.785345268151
    ));
#99 = CARTESIAN_POINT('',(68.767475799229,1.58575667744,18.783186012733)
  );
#100 = CARTESIAN_POINT('',(68.640058459245,1.598949310105,
    18.782062243366));
#101 = CARTESIAN_POINT('',(68.379555046978,1.600995341191,
    18.781887951342));
#102 = CARTESIAN_POINT('',(68.246504142155,1.588770064404,
    18.782929314866));
#103 = CARTESIAN_POINT('',(68.114351748668,1.563291955847,
    18.785102792993));
#104 = CARTESIAN_POINT('',(67.984068817291,1.524375298761,
    18.788357163773));
#105 = CARTESIAN_POINT('',(67.856812050329,1.471681344091,
    18.792582467075));
#106 = CARTESIAN_POINT('',(67.633291028408,1.349813726761,
    18.801689824783));
#107 = CARTESIAN_POINT('',(67.535463452385,1.285216224061,
    18.806323423117));
#108 = CARTESIAN_POINT('',(67.44156314104,1.210763984911,18.811372106427
    ));
#109 = CARTESIAN_POINT('',(67.352709968719,1.126265232205,
    18.816681428315));
#110 = CARTESIAN_POINT('',(67.270244278733,1.031609446622,
    18.822042479881));
#111 = CARTESIAN_POINT('',(67.107127718172,0.802082148299,
    18.833341948262));
#112 = CARTESIAN_POINT('',(67.028866753819,0.661625403798,
    18.839261478554));
#113 = CARTESIAN_POINT('',(66.966014256456,0.507487970862,
    18.844395038481));
#114 = CARTESIAN_POINT('',(66.922282678323,0.343015571046,
    18.848109063172));
#115 = CARTESIAN_POINT('',(66.9,0.172365147837,18.85));
#116 = CARTESIAN_POINT('',(66.9,2.602374448188E-15,18.85));
#117 = PCURVE('',#33,#118);
#118 = DEFINITIONAL_REPRESENTATION('',(#119),#147);
#119 = B_SPLINE_CURVE_WITH_KNOTS('',6,(#120,#121,#122,#123,#124,#125,
    #126,#127,#128,#129,#130,#131,#132,#133,#134,#135,#136,#137,#138,
    #139,#140,#141,#142,#143,#144,#145,#146),.UNSPECIFIED.,.F.,.F.,(7,5,
    5,5,5,7),(0.,9.219739997929E-02,0.323727375092,0.565279989561,
    0.763692475032,1.),.UNSPECIFIED.);
#120 = CARTESIAN_POINT('',(6.218117061746,9.228460175498));
#121 = CARTESIAN_POINT('',(6.216211773517,9.185749298933));
#122 = CARTESIAN_POINT('',(6.214420962308,9.14198393126));
#123 = CARTESIAN_POINT('',(6.212743542748,9.097279830573));
#124 = CARTESIAN_POINT('',(6.211178373475,9.051742501959));
#125 = CARTESIAN_POINT('',(6.209724280787,9.0054675672));
#126 = CARTESIAN_POINT('',(6.205004474714,8.840697509782));
#127 = CARTESIAN_POINT('',(6.202321742844,8.718739874254));
#128 = CARTESIAN_POINT('',(6.200312292197,8.593990951547));
#129 = CARTESIAN_POINT('',(6.19896076557,8.467475799229));
#130 = CARTESIAN_POINT('',(6.19825835652,8.340058459245));
#131 = CARTESIAN_POINT('',(6.198149420646,8.079555046978));
#132 = CARTESIAN_POINT('',(6.198800325253,7.946504142155));
#133 = CARTESIAN_POINT('',(6.20015685755,7.814351748668));
#134 = CARTESIAN_POINT('',(6.202228607083,7.684068817291));
#135 = CARTESIAN_POINT('',(6.205032973899,7.556812050329));
#136 = CARTESIAN_POINT('',(6.211516127589,7.333291028408));
#137 = CARTESIAN_POINT('',(6.214951840245,7.235463452385));
#138 = CARTESIAN_POINT('',(6.218910583446,7.14156314104));
#139 = CARTESIAN_POINT('',(6.223402013705,7.052709968719));
#140 = CARTESIAN_POINT('',(6.228431450995,6.970244278733));
#141 = CARTESIAN_POINT('',(6.240622711603,6.807127718172));
#142 = CARTESIAN_POINT('',(6.248080427209,6.728866753819));
#143 = CARTESIAN_POINT('',(6.256261498325,6.666014256456));
#144 = CARTESIAN_POINT('',(6.264988193426,6.622282678323));
#145 = CARTESIAN_POINT('',(6.274041267507,6.6));
#146 = CARTESIAN_POINT('',(6.28318530718,6.6));
#147 = ( GEOMETRIC_REPRESENTATION_CONTEXT(2) 
PARAMETRIC_REPRESENTATION_CONTEXT() REPRESENTATION_CONTEXT('2D SPACE',''
  ) );
#148 = PCURVE('',#149,#154);
#149 = CYLINDRICAL_SURFACE('',#150,1.6);
#150 = AXIS2_PLACEMENT_3D('',#151,#152,#153);
#151 = CARTESIAN_POINT('',(68.5,0.,16.8));
#152 = DIRECTION('',(0.,0.,1.));
#153 = DIRECTION('',(1.,0.,-0.));
#154 = DEFINITIONAL_REPRESENTATION('',(#155),#183);
#155 = B_SPLINE_CURVE_WITH_KNOTS('',6,(#156,#157,#158,#159,#160,#161,
    #162,#163,#164,#165,#166,#167,#168,#169,#170,#171,#172,#173,#174,
    #175,#176,#177,#178,#179,#180,#181,#182),.UNSPECIFIED.,.F.,.F.,(7,5,
    5,5,5,7),(0.,9.219739997929E-02,0.323727375092,0.565279989561,
    0.763692475032,1.),.UNSPECIFIED.);
#156 = CARTESIAN_POINT('',(0.872664625997,2.010109790551));
#157 = CARTESIAN_POINT('',(0.907511556998,2.007774533814));
#158 = CARTESIAN_POINT('',(0.941996135495,2.005497648039));
#159 = CARTESIAN_POINT('',(0.976147659476,2.003296283244));
#160 = CARTESIAN_POINT('',(1.009992962411,2.001185343726));
#161 = CARTESIAN_POINT('',(1.04355778526,1.999177628228));
#162 = CARTESIAN_POINT('',(1.160518528743,1.992528536451));
#163 = CARTESIAN_POINT('',(1.242568155147,1.988492159153));
#164 = CARTESIAN_POINT('',(1.323454799367,1.985345268151));
#165 = CARTESIAN_POINT('',(1.403558957339,1.983186012733));
#166 = CARTESIAN_POINT('',(1.483257251346,1.982062243366));
#167 = CARTESIAN_POINT('',(1.646076905754,1.981887951342));
#168 = CARTESIAN_POINT('',(1.729171356474,1.982929314866));
#169 = CARTESIAN_POINT('',(1.812672224508,1.985102792993));
#170 = CARTESIAN_POINT('',(1.89700575884,1.988357163773));
#171 = CARTESIAN_POINT('',(1.982601863435,1.992582467075));
#172 = CARTESIAN_POINT('',(2.141717293472,2.001689824783));
#173 = CARTESIAN_POINT('',(2.214725670735,2.006323423117));
#174 = CARTESIAN_POINT('',(2.289191876476,2.011372106427));
#175 = CARTESIAN_POINT('',(2.365341889874,2.016681428315));
#176 = CARTESIAN_POINT('',(2.443421599405,2.022042479881));
#177 = CARTESIAN_POINT('',(2.619411870137,2.033341948262));
#178 = CARTESIAN_POINT('',(2.719302449826,2.039261478554));
#179 = CARTESIAN_POINT('',(2.822161180506,2.044395038481));
#180 = CARTESIAN_POINT('',(2.927208154402,2.048109063172));
#181 = CARTESIAN_POINT('',(3.033864436192,2.05));
#182 = CARTESIAN_POINT('',(3.14159265359,2.05));
#183 = ( GEOMETRIC_REPRESENTATION_CONTEXT(2) 
PARAMETRIC_REPRESENTATION_CONTEXT() REPRESENTATION_CONTEXT('2D SPACE',''
  ) );
#184 = ORIENTED_EDGE('',*,*,#185,.F.);
#185 = EDGE_CURVE('',#186,#86,#188,.T.);
#186 = VERTEX_POINT('',#187);
#187 = CARTESIAN_POINT('',(70.989158122977,2.308459216393E-15,18.85));
#188 = SURFACE_CURVE('',#189,(#194,#204),.PCURVE_S1.);
#189 = ELLIPSE('',#190,29.325394136319,18.85);
#190 = AXIS2_PLACEMENT_3D('',#191,#192,#193);
#191 = CARTESIAN_POINT('',(70.989158122977,0.,0.));
#192 = DIRECTION('',(-0.642787609687,-0.766044443119,0.));
#193 = DIRECTION('',(0.766044443119,-0.642787609687,0.));
#194 = PCURVE('',#33,#195);
#195 = DEFINITIONAL_REPRESENTATION('',(#196),#203);
#196 = B_SPLINE_CURVE_WITH_KNOTS('',5,(#197,#198,#199,#200,#201,#202),
  .UNSPECIFIED.,.F.,.F.,(6,6),(1.570796326795,1.642382025429),
  .PIECEWISE_BEZIER_KNOTS.);
#197 = CARTESIAN_POINT('',(6.28318530718,10.689158122977));
#198 = CARTESIAN_POINT('',(6.268868167453,10.367529946986));
#199 = CARTESIAN_POINT('',(6.254551027726,10.045901770993));
#200 = CARTESIAN_POINT('',(6.240233887999,9.724410943975));
#201 = CARTESIAN_POINT('',(6.225916748272,9.40319481484));
#202 = CARTESIAN_POINT('',(6.211599608546,9.082390380751));
#203 = ( GEOMETRIC_REPRESENTATION_CONTEXT(2) 
PARAMETRIC_REPRESENTATION_CONTEXT() REPRESENTATION_CONTEXT('2D SPACE',''
  ) );
#204 = PCURVE('',#205,#210);
#205 = PLANE('',#206);
#206 = AXIS2_PLACEMENT_3D('',#207,#208,#209);
#207 = CARTESIAN_POINT('',(70.989158122977,0.,16.8));
#208 = DIRECTION('',(-0.642787609687,-0.766044443119,0.));
#209 = DIRECTION('',(-0.766044443119,0.642787609687,0.));
#210 = DEFINITIONAL_REPRESENTATION('',(#211),#215);
#211 = ELLIPSE('',#212,29.325394136319,18.85);
#212 = AXIS2_PLACEMENT_2D('',#213,#214);
#213 = CARTESIAN_POINT('',(0.,16.8));
#214 = DIRECTION('',(-1.,-0.));
#215 = ( GEOMETRIC_REPRESENTATION_CONTEXT(2) 
PARAMETRIC_REPRESENTATION_CONTEXT() REPRESENTATION_CONTEXT('2D SPACE',''
  ) );
#216 = ORIENTED_EDGE('',*,*,#217,.T.);
#217 = EDGE_CURVE('',#186,#218,#220,.T.);
#218 = VERTEX_POINT('',#219);
#219 = CARTESIAN_POINT('',(71.,4.616918432786E-15,18.85));
#220 = SURFACE_CURVE('',#221,(#225,#232),.PCURVE_S1.);
#221 = LINE('',#222,#223);
#222 = CARTESIAN_POINT('',(66.,4.616918432786E-15,18.85));
#223 = VECTOR('',#224,1.);
#224 = DIRECTION('',(1.,0.,0.));
#225 = PCURVE('',#33,#226);
#226 = DEFINITIONAL_REPRESENTATION('',(#227),#231);
#227 = LINE('',#228,#229);
#228 = CARTESIAN_POINT('',(6.28318530718,5.7));
#229 = VECTOR('',#230,1.);
#230 = DIRECTION('',(0.,1.));
#231 = ( GEOMETRIC_REPRESENTATION_CONTEXT(2) 
PARAMETRIC_REPRESENTATION_CONTEXT() REPRESENTATION_CONTEXT('2D SPACE',''
  ) );
#232 = PCURVE('',#73,#233);
#233 = DEFINITIONAL_REPRESENTATION('',(#234),#238);
#234 = LINE('',#235,#236);
#235 = CARTESIAN_POINT('',(0.,5.7));
#236 = VECTOR('',#237,1.);
#237 = DIRECTION('',(0.,1.));
#238 = ( GEOMETRIC_REPRESENTATION_CONTEXT(2) 
PARAMETRIC_REPRESENTATION_CONTEXT() REPRESENTATION_CONTEXT('2D SPACE',''
  ) );
#239 = ORIENTED_EDGE('',*,*,#240,.F.);
#240 = EDGE_CURVE('',#241,#218,#243,.T.);
#241 = VERTEX_POINT('',#242);
#242 = CARTESIAN_POINT('',(71.,6.,17.869597085553));
#243 = SURFACE_CURVE('',#244,(#249,#256),.PCURVE_S1.);
#244 = CIRCLE('',#245,18.85);
#245 = AXIS2_PLACEMENT_3D('',#246,#247,#248);
#246 = CARTESIAN_POINT('',(71.,0.,0.));
#247 = DIRECTION('',(1.,0.,0.));
#248 = DIRECTION('',(-0.,0.,1.));
#249 = PCURVE('',#33,#250);
#250 = DEFINITIONAL_REPRESENTATION('',(#251),#255);
#251 = LINE('',#252,#253);
#252 = CARTESIAN_POINT('',(0.,10.7));
#253 = VECTOR('',#254,1.);
#254 = DIRECTION('',(1.,0.));
#255 = ( GEOMETRIC_REPRESENTATION_CONTEXT(2) 
PARAMETRIC_REPRESENTATION_CONTEXT() REPRESENTATION_CONTEXT('2D SPACE',''
  ) );
#256 = PCURVE('',#257,#262);
#257 = PLANE('',#258);
#258 = AXIS2_PLACEMENT_3D('',#259,#260,#261);
#259 = CARTESIAN_POINT('',(71.,0.,0.));
#260 = DIRECTION('',(1.,0.,0.));
#261 = DIRECTION('',(-0.,0.,1.));
#262 = DEFINITIONAL_REPRESENTATION('',(#263),#267);
#263 = CIRCLE('',#264,18.85);
#264 = AXIS2_PLACEMENT_2D('',#265,#266);
#265 = CARTESIAN_POINT('',(0.,0.));
#266 = DIRECTION('',(1.,0.));
#267 = ( GEOMETRIC_REPRESENTATION_CONTEXT(2) 
PARAMETRIC_REPRESENTATION_CONTEXT() REPRESENTATION_CONTEXT('2D SPACE',''
  ) );
#268 = ORIENTED_EDGE('',*,*,#269,.F.);
#269 = EDGE_CURVE('',#270,#241,#272,.T.);
#270 = VERTEX_POINT('',#271);
#271 = CARTESIAN_POINT('',(66.,6.,17.869597085553));
#272 = SURFACE_CURVE('',#273,(#277,#283),.PCURVE_S1.);
#273 = LINE('',#274,#275);
#274 = CARTESIAN_POINT('',(66.,6.,17.869597085553));
#275 = VECTOR('',#276,1.);
#276 = DIRECTION('',(1.,0.,0.));
#277 = PCURVE('',#33,#278);
#278 = DEFINITIONAL_REPRESENTATION('',(#279),#282);
#279 = B_SPLINE_CURVE_WITH_KNOTS('',1,(#280,#281),.UNSPECIFIED.,.F.,.F.,
  (2,2),(-6.000000070117E-07,5.0000006),.PIECEWISE_BEZIER_KNOTS.);
#280 = CARTESIAN_POINT('',(5.959247110597,5.6999994));
#281 = CARTESIAN_POINT('',(5.959247110597,10.7000006));
#282 = ( GEOMETRIC_REPRESENTATION_CONTEXT(2) 
PARAMETRIC_REPRESENTATION_CONTEXT() REPRESENTATION_CONTEXT('2D SPACE',''
  ) );
#283 = PCURVE('',#284,#289);
#284 = PLANE('',#285);
#285 = AXIS2_PLACEMENT_3D('',#286,#287,#288);
#286 = CARTESIAN_POINT('',(66.,6.,0.));
#287 = DIRECTION('',(-0.,1.,0.));
#288 = DIRECTION('',(0.,0.,1.));
#289 = DEFINITIONAL_REPRESENTATION('',(#290),#293);
#290 = B_SPLINE_CURVE_WITH_KNOTS('',1,(#291,#292),.UNSPECIFIED.,.F.,.F.,
  (2,2),(-6.000000070117E-07,5.0000006),.PIECEWISE_BEZIER_KNOTS.);
#291 = CARTESIAN_POINT('',(17.869597085553,-6.000000070117E-07));
#292 = CARTESIAN_POINT('',(17.869597085553,5.0000006));
#293 = ( GEOMETRIC_REPRESENTATION_CONTEXT(2) 
PARAMETRIC_REPRESENTATION_CONTEXT() REPRESENTATION_CONTEXT('2D SPACE',''
  ) );
#294 = ORIENTED_EDGE('',*,*,#295,.F.);
#295 = EDGE_CURVE('',#296,#270,#298,.T.);
#296 = VERTEX_POINT('',#297);
#297 = CARTESIAN_POINT('',(66.,16.824758542101,8.5));
#298 = SURFACE_CURVE('',#299,(#304,#311),.PCURVE_S1.);
#299 = CIRCLE('',#300,18.85);
#300 = AXIS2_PLACEMENT_3D('',#301,#302,#303);
#301 = CARTESIAN_POINT('',(66.,0.,0.));
#302 = DIRECTION('',(1.,0.,0.));
#303 = DIRECTION('',(-0.,0.,1.));
#304 = PCURVE('',#33,#305);
#305 = DEFINITIONAL_REPRESENTATION('',(#306),#310);
#306 = LINE('',#307,#308);
#307 = CARTESIAN_POINT('',(0.,5.7));
#308 = VECTOR('',#309,1.);
#309 = DIRECTION('',(1.,0.));
#310 = ( GEOMETRIC_REPRESENTATION_CONTEXT(2) 
PARAMETRIC_REPRESENTATION_CONTEXT() REPRESENTATION_CONTEXT('2D SPACE',''
  ) );
#311 = PCURVE('',#312,#317);
#312 = PLANE('',#313);
#313 = AXIS2_PLACEMENT_3D('',#314,#315,#316);
#314 = CARTESIAN_POINT('',(66.,0.,0.));
#315 = DIRECTION('',(1.,0.,0.));
#316 = DIRECTION('',(-0.,0.,1.));
#317 = DEFINITIONAL_REPRESENTATION('',(#318),#322);
#318 = CIRCLE('',#319,18.85);
#319 = AXIS2_PLACEMENT_2D('',#320,#321);
#320 = CARTESIAN_POINT('',(0.,0.));
#321 = DIRECTION('',(1.,0.));
#322 = ( GEOMETRIC_REPRESENTATION_CONTEXT(2) 
PARAMETRIC_REPRESENTATION_CONTEXT() REPRESENTATION_CONTEXT('2D SPACE',''
  ) );
#323 = ORIENTED_EDGE('',*,*,#324,.F.);
#324 = EDGE_CURVE('',#22,#296,#325,.T.);
#325 = SURFACE_CURVE('',#326,(#330,#336),.PCURVE_S1.);
#326 = LINE('',#327,#328);
#327 = CARTESIAN_POINT('',(60.3,16.824758542101,8.5));
#328 = VECTOR('',#329,1.);
#329 = DIRECTION('',(1.,0.,0.));
#330 = PCURVE('',#33,#331);
#331 = DEFINITIONAL_REPRESENTATION('',(#332),#335);
#332 = B_SPLINE_CURVE_WITH_KNOTS('',1,(#333,#334),.UNSPECIFIED.,.F.,.F.,
  (2,2),(-5.999999999062E-07,5.7000006),.PIECEWISE_BEZIER_KNOTS.);
#333 = CARTESIAN_POINT('',(5.180194180274,-5.999999999062E-07));
#334 = CARTESIAN_POINT('',(5.180194180274,5.7000006));
#335 = ( GEOMETRIC_REPRESENTATION_CONTEXT(2) 
PARAMETRIC_REPRESENTATION_CONTEXT() REPRESENTATION_CONTEXT('2D SPACE',''
  ) );
#336 = PCURVE('',#337,#342);
#337 = PLANE('',#338);
#338 = AXIS2_PLACEMENT_3D('',#339,#340,#341);
#339 = CARTESIAN_POINT('',(60.3,-30.,8.5));
#340 = DIRECTION('',(0.,0.,1.));
#341 = DIRECTION('',(1.,0.,-0.));
#342 = DEFINITIONAL_REPRESENTATION('',(#343),#346);
#343 = B_SPLINE_CURVE_WITH_KNOTS('',1,(#344,#345),.UNSPECIFIED.,.F.,.F.,
  (2,2),(-5.999999999062E-07,5.7000006),.PIECEWISE_BEZIER_KNOTS.);
#344 = CARTESIAN_POINT('',(-5.999999999062E-07,46.824758542101));
#345 = CARTESIAN_POINT('',(5.7000006,46.824758542101));
#346 = ( GEOMETRIC_REPRESENTATION_CONTEXT(2) 
PARAMETRIC_REPRESENTATION_CONTEXT() REPRESENTATION_CONTEXT('2D SPACE',''
  ) );
#347 = ADVANCED_FACE('',(#348),#337,.F.);
#348 = FACE_BOUND('',#349,.F.);
#349 = EDGE_LOOP('',(#350,#373,#399,#420));
#350 = ORIENTED_EDGE('',*,*,#351,.F.);
#351 = EDGE_CURVE('',#352,#22,#354,.T.);
#352 = VERTEX_POINT('',#353);
#353 = CARTESIAN_POINT('',(60.3,13.318783728254,8.5));
#354 = SURFACE_CURVE('',#355,(#359,#366),.PCURVE_S1.);
#355 = LINE('',#356,#357);
#356 = CARTESIAN_POINT('',(60.3,-30.,8.5));
#357 = VECTOR('',#358,1.);
#358 = DIRECTION('',(-0.,1.,0.));
#359 = PCURVE('',#337,#360);
#360 = DEFINITIONAL_REPRESENTATION('',(#361),#365);
#361 = LINE('',#362,#363);
#362 = CARTESIAN_POINT('',(0.,0.));
#363 = VECTOR('',#364,1.);
#364 = DIRECTION('',(0.,1.));
#365 = ( GEOMETRIC_REPRESENTATION_CONTEXT(2) 
PARAMETRIC_REPRESENTATION_CONTEXT() REPRESENTATION_CONTEXT('2D SPACE',''
  ) );
#366 = PCURVE('',#45,#367);
#367 = DEFINITIONAL_REPRESENTATION('',(#368),#372);
#368 = LINE('',#369,#370);
#369 = CARTESIAN_POINT('',(8.5,30.));
#370 = VECTOR('',#371,1.);
#371 = DIRECTION('',(0.,-1.));
#372 = ( GEOMETRIC_REPRESENTATION_CONTEXT(2) 
PARAMETRIC_REPRESENTATION_CONTEXT() REPRESENTATION_CONTEXT('2D SPACE',''
  ) );
#373 = ORIENTED_EDGE('',*,*,#374,.T.);
#374 = EDGE_CURVE('',#352,#375,#377,.T.);
#375 = VERTEX_POINT('',#376);
#376 = CARTESIAN_POINT('',(66.,13.318783728254,8.5));
#377 = SURFACE_CURVE('',#378,(#382,#388),.PCURVE_S1.);
#378 = LINE('',#379,#380);
#379 = CARTESIAN_POINT('',(59.3,13.318783728254,8.5));
#380 = VECTOR('',#381,1.);
#381 = DIRECTION('',(1.,0.,0.));
#382 = PCURVE('',#337,#383);
#383 = DEFINITIONAL_REPRESENTATION('',(#384),#387);
#384 = B_SPLINE_CURVE_WITH_KNOTS('',1,(#385,#386),.UNSPECIFIED.,.F.,.F.,
  (2,2),(0.9999994,6.7000006),.PIECEWISE_BEZIER_KNOTS.);
#385 = CARTESIAN_POINT('',(-5.999999999062E-07,43.318783728254));
#386 = CARTESIAN_POINT('',(5.7000006,43.318783728254));
#387 = ( GEOMETRIC_REPRESENTATION_CONTEXT(2) 
PARAMETRIC_REPRESENTATION_CONTEXT() REPRESENTATION_CONTEXT('2D SPACE',''
  ) );
#388 = PCURVE('',#389,#394);
#389 = CYLINDRICAL_SURFACE('',#390,15.8);
#390 = AXIS2_PLACEMENT_3D('',#391,#392,#393);
#391 = CARTESIAN_POINT('',(59.3,0.,0.));
#392 = DIRECTION('',(1.,0.,0.));
#393 = DIRECTION('',(-0.,0.,1.));
#394 = DEFINITIONAL_REPRESENTATION('',(#395),#398);
#395 = B_SPLINE_CURVE_WITH_KNOTS('',1,(#396,#397),.UNSPECIFIED.,.F.,.F.,
  (2,2),(1.,6.7),.PIECEWISE_BEZIER_KNOTS.);
#396 = CARTESIAN_POINT('',(5.280421620822,1.));
#397 = CARTESIAN_POINT('',(5.280421620822,6.7));
#398 = ( GEOMETRIC_REPRESENTATION_CONTEXT(2) 
PARAMETRIC_REPRESENTATION_CONTEXT() REPRESENTATION_CONTEXT('2D SPACE',''
  ) );
#399 = ORIENTED_EDGE('',*,*,#400,.T.);
#400 = EDGE_CURVE('',#375,#296,#401,.T.);
#401 = SURFACE_CURVE('',#402,(#406,#413),.PCURVE_S1.);
#402 = LINE('',#403,#404);
#403 = CARTESIAN_POINT('',(66.,-30.,8.5));
#404 = VECTOR('',#405,1.);
#405 = DIRECTION('',(-0.,1.,0.));
#406 = PCURVE('',#337,#407);
#407 = DEFINITIONAL_REPRESENTATION('',(#408),#412);
#408 = LINE('',#409,#410);
#409 = CARTESIAN_POINT('',(5.7,0.));
#410 = VECTOR('',#411,1.);
#411 = DIRECTION('',(0.,1.));
#412 = ( GEOMETRIC_REPRESENTATION_CONTEXT(2) 
PARAMETRIC_REPRESENTATION_CONTEXT() REPRESENTATION_CONTEXT('2D SPACE',''
  ) );
#413 = PCURVE('',#312,#414);
#414 = DEFINITIONAL_REPRESENTATION('',(#415),#419);
#415 = LINE('',#416,#417);
#416 = CARTESIAN_POINT('',(8.5,30.));
#417 = VECTOR('',#418,1.);
#418 = DIRECTION('',(0.,-1.));
#419 = ( GEOMETRIC_REPRESENTATION_CONTEXT(2) 
PARAMETRIC_REPRESENTATION_CONTEXT() REPRESENTATION_CONTEXT('2D SPACE',''
  ) );
#420 = ORIENTED_EDGE('',*,*,#324,.F.);
#421 = ADVANCED_FACE('',(#422),#389,.F.);
#422 = FACE_BOUND('',#423,.F.);
#423 = EDGE_LOOP('',(#424,#448,#474,#502,#528,#552,#573,#594));
#424 = ORIENTED_EDGE('',*,*,#425,.T.);
#425 = EDGE_CURVE('',#352,#426,#428,.T.);
#426 = VERTEX_POINT('',#427);
#427 = CARTESIAN_POINT('',(60.3,-13.31878372825,8.5));
#428 = SURFACE_CURVE('',#429,(#434,#441),.PCURVE_S1.);
#429 = CIRCLE('',#430,15.8);
#430 = AXIS2_PLACEMENT_3D('',#431,#432,#433);
#431 = CARTESIAN_POINT('',(60.3,0.,0.));
#432 = DIRECTION('',(1.,0.,0.));
#433 = DIRECTION('',(-0.,0.842960995459,0.537974683544));
#434 = PCURVE('',#389,#435);
#435 = DEFINITIONAL_REPRESENTATION('',(#436),#440);
#436 = LINE('',#437,#438);
#437 = CARTESIAN_POINT('',(5.280421620822,1.));
#438 = VECTOR('',#439,1.);
#439 = DIRECTION('',(1.,0.));
#440 = ( GEOMETRIC_REPRESENTATION_CONTEXT(2) 
PARAMETRIC_REPRESENTATION_CONTEXT() REPRESENTATION_CONTEXT('2D SPACE',''
  ) );
#441 = PCURVE('',#45,#442);
#442 = DEFINITIONAL_REPRESENTATION('',(#443),#447);
#443 = CIRCLE('',#444,15.8);
#444 = AXIS2_PLACEMENT_2D('',#445,#446);
#445 = CARTESIAN_POINT('',(0.,0.));
#446 = DIRECTION('',(0.537974683544,-0.842960995459));
#447 = ( GEOMETRIC_REPRESENTATION_CONTEXT(2) 
PARAMETRIC_REPRESENTATION_CONTEXT() REPRESENTATION_CONTEXT('2D SPACE',''
  ) );
#448 = ORIENTED_EDGE('',*,*,#449,.T.);
#449 = EDGE_CURVE('',#426,#450,#452,.T.);
#450 = VERTEX_POINT('',#451);
#451 = CARTESIAN_POINT('',(66.,-13.31878372825,8.5));
#452 = SURFACE_CURVE('',#453,(#457,#463),.PCURVE_S1.);
#453 = LINE('',#454,#455);
#454 = CARTESIAN_POINT('',(59.3,-13.31878372825,8.5));
#455 = VECTOR('',#456,1.);
#456 = DIRECTION('',(1.,0.,0.));
#457 = PCURVE('',#389,#458);
#458 = DEFINITIONAL_REPRESENTATION('',(#459),#462);
#459 = B_SPLINE_CURVE_WITH_KNOTS('',1,(#460,#461),.UNSPECIFIED.,.F.,.F.,
  (2,2),(1.,6.7),.PIECEWISE_BEZIER_KNOTS.);
#460 = CARTESIAN_POINT('',(7.285948993537,1.));
#461 = CARTESIAN_POINT('',(7.285948993537,6.7));
#462 = ( GEOMETRIC_REPRESENTATION_CONTEXT(2) 
PARAMETRIC_REPRESENTATION_CONTEXT() REPRESENTATION_CONTEXT('2D SPACE',''
  ) );
#463 = PCURVE('',#464,#469);
#464 = PLANE('',#465);
#465 = AXIS2_PLACEMENT_3D('',#466,#467,#468);
#466 = CARTESIAN_POINT('',(60.3,-30.,8.5));
#467 = DIRECTION('',(0.,0.,1.));
#468 = DIRECTION('',(1.,0.,-0.));
#469 = DEFINITIONAL_REPRESENTATION('',(#470),#473);
#470 = B_SPLINE_CURVE_WITH_KNOTS('',1,(#471,#472),.UNSPECIFIED.,.F.,.F.,
  (2,2),(0.9999994,6.7000006),.PIECEWISE_BEZIER_KNOTS.);
#471 = CARTESIAN_POINT('',(-5.999999999062E-07,16.681216271746));
#472 = CARTESIAN_POINT('',(5.7000006,16.681216271746));
#473 = ( GEOMETRIC_REPRESENTATION_CONTEXT(2) 
PARAMETRIC_REPRESENTATION_CONTEXT() REPRESENTATION_CONTEXT('2D SPACE',''
  ) );
#474 = ORIENTED_EDGE('',*,*,#475,.F.);
#475 = EDGE_CURVE('',#476,#450,#478,.T.);
#476 = VERTEX_POINT('',#477);
#477 = CARTESIAN_POINT('',(66.,-6.,14.616429112475));
#478 = SURFACE_CURVE('',#479,(#484,#490),.PCURVE_S1.);
#479 = CIRCLE('',#480,15.8);
#480 = AXIS2_PLACEMENT_3D('',#481,#482,#483);
#481 = CARTESIAN_POINT('',(66.,0.,0.));
#482 = DIRECTION('',(1.,0.,0.));
#483 = DIRECTION('',(-0.,0.,1.));
#484 = PCURVE('',#389,#485);
#485 = DEFINITIONAL_REPRESENTATION('',(#486),#489);
#486 = B_SPLINE_CURVE_WITH_KNOTS('',1,(#487,#488),.UNSPECIFIED.,.F.,.F.,
  (2,2),(0.389522616445,1.002763686358),.PIECEWISE_BEZIER_KNOTS.);
#487 = CARTESIAN_POINT('',(6.672707923624,6.7));
#488 = CARTESIAN_POINT('',(7.285948993537,6.7));
#489 = ( GEOMETRIC_REPRESENTATION_CONTEXT(2) 
PARAMETRIC_REPRESENTATION_CONTEXT() REPRESENTATION_CONTEXT('2D SPACE',''
  ) );
#490 = PCURVE('',#491,#496);
#491 = PLANE('',#492);
#492 = AXIS2_PLACEMENT_3D('',#493,#494,#495);
#493 = CARTESIAN_POINT('',(66.,0.,0.));
#494 = DIRECTION('',(1.,0.,0.));
#495 = DIRECTION('',(-0.,0.,1.));
#496 = DEFINITIONAL_REPRESENTATION('',(#497),#501);
#497 = CIRCLE('',#498,15.8);
#498 = AXIS2_PLACEMENT_2D('',#499,#500);
#499 = CARTESIAN_POINT('',(0.,0.));
#500 = DIRECTION('',(1.,0.));
#501 = ( GEOMETRIC_REPRESENTATION_CONTEXT(2) 
PARAMETRIC_REPRESENTATION_CONTEXT() REPRESENTATION_CONTEXT('2D SPACE',''
  ) );
#502 = ORIENTED_EDGE('',*,*,#503,.T.);
#503 = EDGE_CURVE('',#476,#504,#506,.T.);
#504 = VERTEX_POINT('',#505);
#505 = CARTESIAN_POINT('',(71.,-6.,14.616429112475));
#506 = SURFACE_CURVE('',#507,(#511,#517),.PCURVE_S1.);
#507 = LINE('',#508,#509);
#508 = CARTESIAN_POINT('',(65.,-6.,14.616429112475));
#509 = VECTOR('',#510,1.);
#510 = DIRECTION('',(1.,0.,0.));
#511 = PCURVE('',#389,#512);
#512 = DEFINITIONAL_REPRESENTATION('',(#513),#516);
#513 = B_SPLINE_CURVE_WITH_KNOTS('',1,(#514,#515),.UNSPECIFIED.,.F.,.F.,
  (2,2),(1.,6.),.PIECEWISE_BEZIER_KNOTS.);
#514 = CARTESIAN_POINT('',(6.672707923624,6.7));
#515 = CARTESIAN_POINT('',(6.672707923624,11.7));
#516 = ( GEOMETRIC_REPRESENTATION_CONTEXT(2) 
PARAMETRIC_REPRESENTATION_CONTEXT() REPRESENTATION_CONTEXT('2D SPACE',''
  ) );
#517 = PCURVE('',#518,#523);
#518 = PLANE('',#519);
#519 = AXIS2_PLACEMENT_3D('',#520,#521,#522);
#520 = CARTESIAN_POINT('',(66.,-6.,0.));
#521 = DIRECTION('',(-0.,1.,0.));
#522 = DIRECTION('',(0.,0.,1.));
#523 = DEFINITIONAL_REPRESENTATION('',(#524),#527);
#524 = B_SPLINE_CURVE_WITH_KNOTS('',1,(#525,#526),.UNSPECIFIED.,.F.,.F.,
  (2,2),(0.9999994,6.0000006),.PIECEWISE_BEZIER_KNOTS.);
#525 = CARTESIAN_POINT('',(14.616429112475,-6.000000070117E-07));
#526 = CARTESIAN_POINT('',(14.616429112475,5.0000006));
#527 = ( GEOMETRIC_REPRESENTATION_CONTEXT(2) 
PARAMETRIC_REPRESENTATION_CONTEXT() REPRESENTATION_CONTEXT('2D SPACE',''
  ) );
#528 = ORIENTED_EDGE('',*,*,#529,.F.);
#529 = EDGE_CURVE('',#530,#504,#532,.T.);
#530 = VERTEX_POINT('',#531);
#531 = CARTESIAN_POINT('',(71.,6.,14.616429112475));
#532 = SURFACE_CURVE('',#533,(#538,#545),.PCURVE_S1.);
#533 = CIRCLE('',#534,15.8);
#534 = AXIS2_PLACEMENT_3D('',#535,#536,#537);
#535 = CARTESIAN_POINT('',(71.,0.,0.));
#536 = DIRECTION('',(1.,0.,0.));
#537 = DIRECTION('',(-0.,0.379746835443,0.925090450157));
#538 = PCURVE('',#389,#539);
#539 = DEFINITIONAL_REPRESENTATION('',(#540),#544);
#540 = LINE('',#541,#542);
#541 = CARTESIAN_POINT('',(5.893662690735,11.7));
#542 = VECTOR('',#543,1.);
#543 = DIRECTION('',(1.,0.));
#544 = ( GEOMETRIC_REPRESENTATION_CONTEXT(2) 
PARAMETRIC_REPRESENTATION_CONTEXT() REPRESENTATION_CONTEXT('2D SPACE',''
  ) );
#545 = PCURVE('',#257,#546);
#546 = DEFINITIONAL_REPRESENTATION('',(#547),#551);
#547 = CIRCLE('',#548,15.8);
#548 = AXIS2_PLACEMENT_2D('',#549,#550);
#549 = CARTESIAN_POINT('',(0.,0.));
#550 = DIRECTION('',(0.925090450157,-0.379746835443));
#551 = ( GEOMETRIC_REPRESENTATION_CONTEXT(2) 
PARAMETRIC_REPRESENTATION_CONTEXT() REPRESENTATION_CONTEXT('2D SPACE',''
  ) );
#552 = ORIENTED_EDGE('',*,*,#553,.F.);
#553 = EDGE_CURVE('',#554,#530,#556,.T.);
#554 = VERTEX_POINT('',#555);
#555 = CARTESIAN_POINT('',(66.,6.,14.616429112475));
#556 = SURFACE_CURVE('',#557,(#561,#567),.PCURVE_S1.);
#557 = LINE('',#558,#559);
#558 = CARTESIAN_POINT('',(65.,6.,14.616429112475));
#559 = VECTOR('',#560,1.);
#560 = DIRECTION('',(1.,0.,0.));
#561 = PCURVE('',#389,#562);
#562 = DEFINITIONAL_REPRESENTATION('',(#563),#566);
#563 = B_SPLINE_CURVE_WITH_KNOTS('',1,(#564,#565),.UNSPECIFIED.,.F.,.F.,
  (2,2),(1.,6.),.PIECEWISE_BEZIER_KNOTS.);
#564 = CARTESIAN_POINT('',(5.893662690735,6.7));
#565 = CARTESIAN_POINT('',(5.893662690735,11.7));
#566 = ( GEOMETRIC_REPRESENTATION_CONTEXT(2) 
PARAMETRIC_REPRESENTATION_CONTEXT() REPRESENTATION_CONTEXT('2D SPACE',''
  ) );
#567 = PCURVE('',#284,#568);
#568 = DEFINITIONAL_REPRESENTATION('',(#569),#572);
#569 = B_SPLINE_CURVE_WITH_KNOTS('',1,(#570,#571),.UNSPECIFIED.,.F.,.F.,
  (2,2),(0.9999994,6.0000006),.PIECEWISE_BEZIER_KNOTS.);
#570 = CARTESIAN_POINT('',(14.616429112475,-6.000000070117E-07));
#571 = CARTESIAN_POINT('',(14.616429112475,5.0000006));
#572 = ( GEOMETRIC_REPRESENTATION_CONTEXT(2) 
PARAMETRIC_REPRESENTATION_CONTEXT() REPRESENTATION_CONTEXT('2D SPACE',''
  ) );
#573 = ORIENTED_EDGE('',*,*,#574,.F.);
#574 = EDGE_CURVE('',#375,#554,#575,.T.);
#575 = SURFACE_CURVE('',#576,(#581,#587),.PCURVE_S1.);
#576 = CIRCLE('',#577,15.8);
#577 = AXIS2_PLACEMENT_3D('',#578,#579,#580);
#578 = CARTESIAN_POINT('',(66.,0.,0.));
#579 = DIRECTION('',(1.,0.,0.));
#580 = DIRECTION('',(-0.,0.,1.));
#581 = PCURVE('',#389,#582);
#582 = DEFINITIONAL_REPRESENTATION('',(#583),#586);
#583 = B_SPLINE_CURVE_WITH_KNOTS('',1,(#584,#585),.UNSPECIFIED.,.F.,.F.,
  (2,2),(5.280421620822,5.893662690735),.PIECEWISE_BEZIER_KNOTS.);
#584 = CARTESIAN_POINT('',(5.280421620822,6.7));
#585 = CARTESIAN_POINT('',(5.893662690735,6.7));
#586 = ( GEOMETRIC_REPRESENTATION_CONTEXT(2) 
PARAMETRIC_REPRESENTATION_CONTEXT() REPRESENTATION_CONTEXT('2D SPACE',''
  ) );
#587 = PCURVE('',#312,#588);
#588 = DEFINITIONAL_REPRESENTATION('',(#589),#593);
#589 = CIRCLE('',#590,15.8);
#590 = AXIS2_PLACEMENT_2D('',#591,#592);
#591 = CARTESIAN_POINT('',(0.,0.));
#592 = DIRECTION('',(1.,0.));
#593 = ( GEOMETRIC_REPRESENTATION_CONTEXT(2) 
PARAMETRIC_REPRESENTATION_CONTEXT() REPRESENTATION_CONTEXT('2D SPACE',''
  ) );
#594 = ORIENTED_EDGE('',*,*,#374,.F.);
#595 = ADVANCED_FACE('',(#596),#518,.F.);
#596 = FACE_BOUND('',#597,.F.);
#597 = EDGE_LOOP('',(#598,#621,#622,#645));
#598 = ORIENTED_EDGE('',*,*,#599,.F.);
#599 = EDGE_CURVE('',#504,#600,#602,.T.);
#600 = VERTEX_POINT('',#601);
#601 = CARTESIAN_POINT('',(71.,-6.,17.869597085553));
#602 = SURFACE_CURVE('',#603,(#607,#614),.PCURVE_S1.);
#603 = LINE('',#604,#605);
#604 = CARTESIAN_POINT('',(71.,-6.,0.));
#605 = VECTOR('',#606,1.);
#606 = DIRECTION('',(0.,0.,1.));
#607 = PCURVE('',#518,#608);
#608 = DEFINITIONAL_REPRESENTATION('',(#609),#613);
#609 = LINE('',#610,#611);
#610 = CARTESIAN_POINT('',(0.,5.));
#611 = VECTOR('',#612,1.);
#612 = DIRECTION('',(1.,0.));
#613 = ( GEOMETRIC_REPRESENTATION_CONTEXT(2) 
PARAMETRIC_REPRESENTATION_CONTEXT() REPRESENTATION_CONTEXT('2D SPACE',''
  ) );
#614 = PCURVE('',#257,#615);
#615 = DEFINITIONAL_REPRESENTATION('',(#616),#620);
#616 = LINE('',#617,#618);
#617 = CARTESIAN_POINT('',(0.,6.));
#618 = VECTOR('',#619,1.);
#619 = DIRECTION('',(1.,0.));
#620 = ( GEOMETRIC_REPRESENTATION_CONTEXT(2) 
PARAMETRIC_REPRESENTATION_CONTEXT() REPRESENTATION_CONTEXT('2D SPACE',''
  ) );
#621 = ORIENTED_EDGE('',*,*,#503,.F.);
#622 = ORIENTED_EDGE('',*,*,#623,.T.);
#623 = EDGE_CURVE('',#476,#624,#626,.T.);
#624 = VERTEX_POINT('',#625);
#625 = CARTESIAN_POINT('',(66.,-6.,17.869597085553));
#626 = SURFACE_CURVE('',#627,(#631,#638),.PCURVE_S1.);
#627 = LINE('',#628,#629);
#628 = CARTESIAN_POINT('',(66.,-6.,0.));
#629 = VECTOR('',#630,1.);
#630 = DIRECTION('',(0.,0.,1.));
#631 = PCURVE('',#518,#632);
#632 = DEFINITIONAL_REPRESENTATION('',(#633),#637);
#633 = LINE('',#634,#635);
#634 = CARTESIAN_POINT('',(0.,0.));
#635 = VECTOR('',#636,1.);
#636 = DIRECTION('',(1.,0.));
#637 = ( GEOMETRIC_REPRESENTATION_CONTEXT(2) 
PARAMETRIC_REPRESENTATION_CONTEXT() REPRESENTATION_CONTEXT('2D SPACE',''
  ) );
#638 = PCURVE('',#491,#639);
#639 = DEFINITIONAL_REPRESENTATION('',(#640),#644);
#640 = LINE('',#641,#642);
#641 = CARTESIAN_POINT('',(0.,6.));
#642 = VECTOR('',#643,1.);
#643 = DIRECTION('',(1.,0.));
#644 = ( GEOMETRIC_REPRESENTATION_CONTEXT(2) 
PARAMETRIC_REPRESENTATION_CONTEXT() REPRESENTATION_CONTEXT('2D SPACE',''
  ) );
#645 = ORIENTED_EDGE('',*,*,#646,.T.);
#646 = EDGE_CURVE('',#624,#600,#647,.T.);
#647 = SURFACE_CURVE('',#648,(#652,#658),.PCURVE_S1.);
#648 = LINE('',#649,#650);
#649 = CARTESIAN_POINT('',(66.,-6.,17.869597085553));
#650 = VECTOR('',#651,1.);
#651 = DIRECTION('',(1.,0.,0.));
#652 = PCURVE('',#518,#653);
#653 = DEFINITIONAL_REPRESENTATION('',(#654),#657);
#654 = B_SPLINE_CURVE_WITH_KNOTS('',1,(#655,#656),.UNSPECIFIED.,.F.,.F.,
  (2,2),(-6.000000070117E-07,5.0000006),.PIECEWISE_BEZIER_KNOTS.);
#655 = CARTESIAN_POINT('',(17.869597085553,-6.000000070117E-07));
#656 = CARTESIAN_POINT('',(17.869597085553,5.0000006));
#657 = ( GEOMETRIC_REPRESENTATION_CONTEXT(2) 
PARAMETRIC_REPRESENTATION_CONTEXT() REPRESENTATION_CONTEXT('2D SPACE',''
  ) );
#658 = PCURVE('',#73,#659);
#659 = DEFINITIONAL_REPRESENTATION('',(#660),#663);
#660 = B_SPLINE_CURVE_WITH_KNOTS('',1,(#661,#662),.UNSPECIFIED.,.F.,.F.,
  (2,2),(-6.000000070117E-07,5.0000006),.PIECEWISE_BEZIER_KNOTS.);
#661 = CARTESIAN_POINT('',(0.323938196583,5.6999994));
#662 = CARTESIAN_POINT('',(0.323938196583,10.7000006));
#663 = ( GEOMETRIC_REPRESENTATION_CONTEXT(2) 
PARAMETRIC_REPRESENTATION_CONTEXT() REPRESENTATION_CONTEXT('2D SPACE',''
  ) );
#664 = ADVANCED_FACE('',(#665),#491,.T.);
#665 = FACE_BOUND('',#666,.T.);
#666 = EDGE_LOOP('',(#667,#668,#692,#713));
#667 = ORIENTED_EDGE('',*,*,#623,.T.);
#668 = ORIENTED_EDGE('',*,*,#669,.T.);
#669 = EDGE_CURVE('',#624,#670,#672,.T.);
#670 = VERTEX_POINT('',#671);
#671 = CARTESIAN_POINT('',(66.,-16.8247585421,8.5));
#672 = SURFACE_CURVE('',#673,(#678,#685),.PCURVE_S1.);
#673 = CIRCLE('',#674,18.85);
#674 = AXIS2_PLACEMENT_3D('',#675,#676,#677);
#675 = CARTESIAN_POINT('',(66.,0.,0.));
#676 = DIRECTION('',(1.,0.,0.));
#677 = DIRECTION('',(-0.,0.,1.));
#678 = PCURVE('',#491,#679);
#679 = DEFINITIONAL_REPRESENTATION('',(#680),#684);
#680 = CIRCLE('',#681,18.85);
#681 = AXIS2_PLACEMENT_2D('',#682,#683);
#682 = CARTESIAN_POINT('',(0.,0.));
#683 = DIRECTION('',(1.,0.));
#684 = ( GEOMETRIC_REPRESENTATION_CONTEXT(2) 
PARAMETRIC_REPRESENTATION_CONTEXT() REPRESENTATION_CONTEXT('2D SPACE',''
  ) );
#685 = PCURVE('',#73,#686);
#686 = DEFINITIONAL_REPRESENTATION('',(#687),#691);
#687 = LINE('',#688,#689);
#688 = CARTESIAN_POINT('',(0.,5.7));
#689 = VECTOR('',#690,1.);
#690 = DIRECTION('',(1.,0.));
#691 = ( GEOMETRIC_REPRESENTATION_CONTEXT(2) 
PARAMETRIC_REPRESENTATION_CONTEXT() REPRESENTATION_CONTEXT('2D SPACE',''
  ) );
#692 = ORIENTED_EDGE('',*,*,#693,.T.);
#693 = EDGE_CURVE('',#670,#450,#694,.T.);
#694 = SURFACE_CURVE('',#695,(#699,#706),.PCURVE_S1.);
#695 = LINE('',#696,#697);
#696 = CARTESIAN_POINT('',(66.,-30.,8.5));
#697 = VECTOR('',#698,1.);
#698 = DIRECTION('',(-0.,1.,0.));
#699 = PCURVE('',#491,#700);
#700 = DEFINITIONAL_REPRESENTATION('',(#701),#705);
#701 = LINE('',#702,#703);
#702 = CARTESIAN_POINT('',(8.5,30.));
#703 = VECTOR('',#704,1.);
#704 = DIRECTION('',(0.,-1.));
#705 = ( GEOMETRIC_REPRESENTATION_CONTEXT(2) 
PARAMETRIC_REPRESENTATION_CONTEXT() REPRESENTATION_CONTEXT('2D SPACE',''
  ) );
#706 = PCURVE('',#464,#707);
#707 = DEFINITIONAL_REPRESENTATION('',(#708),#712);
#708 = LINE('',#709,#710);
#709 = CARTESIAN_POINT('',(5.7,0.));
#710 = VECTOR('',#711,1.);
#711 = DIRECTION('',(0.,1.));
#712 = ( GEOMETRIC_REPRESENTATION_CONTEXT(2) 
PARAMETRIC_REPRESENTATION_CONTEXT() REPRESENTATION_CONTEXT('2D SPACE',''
  ) );
#713 = ORIENTED_EDGE('',*,*,#475,.F.);
#714 = ADVANCED_FACE('',(#715),#464,.F.);
#715 = FACE_BOUND('',#716,.F.);
#716 = EDGE_LOOP('',(#717,#740,#759,#760));
#717 = ORIENTED_EDGE('',*,*,#718,.F.);
#718 = EDGE_CURVE('',#719,#426,#721,.T.);
#719 = VERTEX_POINT('',#720);
#720 = CARTESIAN_POINT('',(60.3,-16.8247585421,8.5));
#721 = SURFACE_CURVE('',#722,(#726,#733),.PCURVE_S1.);
#722 = LINE('',#723,#724);
#723 = CARTESIAN_POINT('',(60.3,-30.,8.5));
#724 = VECTOR('',#725,1.);
#725 = DIRECTION('',(-0.,1.,0.));
#726 = PCURVE('',#464,#727);
#727 = DEFINITIONAL_REPRESENTATION('',(#728),#732);
#728 = LINE('',#729,#730);
#729 = CARTESIAN_POINT('',(0.,0.));
#730 = VECTOR('',#731,1.);
#731 = DIRECTION('',(0.,1.));
#732 = ( GEOMETRIC_REPRESENTATION_CONTEXT(2) 
PARAMETRIC_REPRESENTATION_CONTEXT() REPRESENTATION_CONTEXT('2D SPACE',''
  ) );
#733 = PCURVE('',#45,#734);
#734 = DEFINITIONAL_REPRESENTATION('',(#735),#739);
#735 = LINE('',#736,#737);
#736 = CARTESIAN_POINT('',(8.5,30.));
#737 = VECTOR('',#738,1.);
#738 = DIRECTION('',(0.,-1.));
#739 = ( GEOMETRIC_REPRESENTATION_CONTEXT(2) 
PARAMETRIC_REPRESENTATION_CONTEXT() REPRESENTATION_CONTEXT('2D SPACE',''
  ) );
#740 = ORIENTED_EDGE('',*,*,#741,.T.);
#741 = EDGE_CURVE('',#719,#670,#742,.T.);
#742 = SURFACE_CURVE('',#743,(#747,#753),.PCURVE_S1.);
#743 = LINE('',#744,#745);
#744 = CARTESIAN_POINT('',(60.3,-16.8247585421,8.5));
#745 = VECTOR('',#746,1.);
#746 = DIRECTION('',(1.,0.,0.));
#747 = PCURVE('',#464,#748);
#748 = DEFINITIONAL_REPRESENTATION('',(#749),#752);
#749 = B_SPLINE_CURVE_WITH_KNOTS('',1,(#750,#751),.UNSPECIFIED.,.F.,.F.,
  (2,2),(-5.999999999062E-07,5.7000006),.PIECEWISE_BEZIER_KNOTS.);
#750 = CARTESIAN_POINT('',(-5.999999999062E-07,13.175241457899));
#751 = CARTESIAN_POINT('',(5.7000006,13.175241457899));
#752 = ( GEOMETRIC_REPRESENTATION_CONTEXT(2) 
PARAMETRIC_REPRESENTATION_CONTEXT() REPRESENTATION_CONTEXT('2D SPACE',''
  ) );
#753 = PCURVE('',#73,#754);
#754 = DEFINITIONAL_REPRESENTATION('',(#755),#758);
#755 = B_SPLINE_CURVE_WITH_KNOTS('',1,(#756,#757),.UNSPECIFIED.,.F.,.F.,
  (2,2),(-5.999999999062E-07,5.7000006),.PIECEWISE_BEZIER_KNOTS.);
#756 = CARTESIAN_POINT('',(1.102991126906,-5.999999999062E-07));
#757 = CARTESIAN_POINT('',(1.102991126906,5.7000006));
#758 = ( GEOMETRIC_REPRESENTATION_CONTEXT(2) 
PARAMETRIC_REPRESENTATION_CONTEXT() REPRESENTATION_CONTEXT('2D SPACE',''
  ) );
#759 = ORIENTED_EDGE('',*,*,#693,.T.);
#760 = ORIENTED_EDGE('',*,*,#449,.F.);
#761 = ADVANCED_FACE('',(#762),#312,.T.);
#762 = FACE_BOUND('',#763,.T.);
#763 = EDGE_LOOP('',(#764,#765,#766,#787));
#764 = ORIENTED_EDGE('',*,*,#400,.T.);
#765 = ORIENTED_EDGE('',*,*,#295,.T.);
#766 = ORIENTED_EDGE('',*,*,#767,.F.);
#767 = EDGE_CURVE('',#554,#270,#768,.T.);
#768 = SURFACE_CURVE('',#769,(#773,#780),.PCURVE_S1.);
#769 = LINE('',#770,#771);
#770 = CARTESIAN_POINT('',(66.,6.,0.));
#771 = VECTOR('',#772,1.);
#772 = DIRECTION('',(0.,0.,1.));
#773 = PCURVE('',#312,#774);
#774 = DEFINITIONAL_REPRESENTATION('',(#775),#779);
#775 = LINE('',#776,#777);
#776 = CARTESIAN_POINT('',(0.,-6.));
#777 = VECTOR('',#778,1.);
#778 = DIRECTION('',(1.,0.));
#779 = ( GEOMETRIC_REPRESENTATION_CONTEXT(2) 
PARAMETRIC_REPRESENTATION_CONTEXT() REPRESENTATION_CONTEXT('2D SPACE',''
  ) );
#780 = PCURVE('',#284,#781);
#781 = DEFINITIONAL_REPRESENTATION('',(#782),#786);
#782 = LINE('',#783,#784);
#783 = CARTESIAN_POINT('',(0.,0.));
#784 = VECTOR('',#785,1.);
#785 = DIRECTION('',(1.,0.));
#786 = ( GEOMETRIC_REPRESENTATION_CONTEXT(2) 
PARAMETRIC_REPRESENTATION_CONTEXT() REPRESENTATION_CONTEXT('2D SPACE',''
  ) );
#787 = ORIENTED_EDGE('',*,*,#574,.F.);
#788 = ADVANCED_FACE('',(#789),#284,.T.);
#789 = FACE_BOUND('',#790,.T.);
#790 = EDGE_LOOP('',(#791,#812,#813,#814));
#791 = ORIENTED_EDGE('',*,*,#792,.F.);
#792 = EDGE_CURVE('',#530,#241,#793,.T.);
#793 = SURFACE_CURVE('',#794,(#798,#805),.PCURVE_S1.);
#794 = LINE('',#795,#796);
#795 = CARTESIAN_POINT('',(71.,6.,0.));
#796 = VECTOR('',#797,1.);
#797 = DIRECTION('',(0.,0.,1.));
#798 = PCURVE('',#284,#799);
#799 = DEFINITIONAL_REPRESENTATION('',(#800),#804);
#800 = LINE('',#801,#802);
#801 = CARTESIAN_POINT('',(0.,5.));
#802 = VECTOR('',#803,1.);
#803 = DIRECTION('',(1.,0.));
#804 = ( GEOMETRIC_REPRESENTATION_CONTEXT(2) 
PARAMETRIC_REPRESENTATION_CONTEXT() REPRESENTATION_CONTEXT('2D SPACE',''
  ) );
#805 = PCURVE('',#257,#806);
#806 = DEFINITIONAL_REPRESENTATION('',(#807),#811);
#807 = LINE('',#808,#809);
#808 = CARTESIAN_POINT('',(0.,-6.));
#809 = VECTOR('',#810,1.);
#810 = DIRECTION('',(1.,0.));
#811 = ( GEOMETRIC_REPRESENTATION_CONTEXT(2) 
PARAMETRIC_REPRESENTATION_CONTEXT() REPRESENTATION_CONTEXT('2D SPACE',''
  ) );
#812 = ORIENTED_EDGE('',*,*,#553,.F.);
#813 = ORIENTED_EDGE('',*,*,#767,.T.);
#814 = ORIENTED_EDGE('',*,*,#269,.T.);
#815 = ADVANCED_FACE('',(#816),#257,.T.);
#816 = FACE_BOUND('',#817,.T.);
#817 = EDGE_LOOP('',(#818,#819,#841,#842,#843));
#818 = ORIENTED_EDGE('',*,*,#240,.T.);
#819 = ORIENTED_EDGE('',*,*,#820,.T.);
#820 = EDGE_CURVE('',#218,#600,#821,.T.);
#821 = SURFACE_CURVE('',#822,(#827,#834),.PCURVE_S1.);
#822 = CIRCLE('',#823,18.85);
#823 = AXIS2_PLACEMENT_3D('',#824,#825,#826);
#824 = CARTESIAN_POINT('',(71.,0.,0.));
#825 = DIRECTION('',(1.,0.,0.));
#826 = DIRECTION('',(-0.,0.,1.));
#827 = PCURVE('',#257,#828);
#828 = DEFINITIONAL_REPRESENTATION('',(#829),#833);
#829 = CIRCLE('',#830,18.85);
#830 = AXIS2_PLACEMENT_2D('',#831,#832);
#831 = CARTESIAN_POINT('',(0.,0.));
#832 = DIRECTION('',(1.,0.));
#833 = ( GEOMETRIC_REPRESENTATION_CONTEXT(2) 
PARAMETRIC_REPRESENTATION_CONTEXT() REPRESENTATION_CONTEXT('2D SPACE',''
  ) );
#834 = PCURVE('',#73,#835);
#835 = DEFINITIONAL_REPRESENTATION('',(#836),#840);
#836 = LINE('',#837,#838);
#837 = CARTESIAN_POINT('',(0.,10.7));
#838 = VECTOR('',#839,1.);
#839 = DIRECTION('',(1.,0.));
#840 = ( GEOMETRIC_REPRESENTATION_CONTEXT(2) 
PARAMETRIC_REPRESENTATION_CONTEXT() REPRESENTATION_CONTEXT('2D SPACE',''
  ) );
#841 = ORIENTED_EDGE('',*,*,#599,.F.);
#842 = ORIENTED_EDGE('',*,*,#529,.F.);
#843 = ORIENTED_EDGE('',*,*,#792,.T.);
#844 = ADVANCED_FACE('',(#845),#205,.T.);
#845 = FACE_BOUND('',#846,.T.);
#846 = EDGE_LOOP('',(#847,#877,#903,#904));
#847 = ORIENTED_EDGE('',*,*,#848,.F.);
#848 = EDGE_CURVE('',#849,#851,#853,.T.);
#849 = VERTEX_POINT('',#850);
#850 = CARTESIAN_POINT('',(70.989158122977,0.,16.8));
#851 = VERTEX_POINT('',#852);
#852 = CARTESIAN_POINT('',(69.528460175498,1.22567110899,16.8));
#853 = SURFACE_CURVE('',#854,(#858,#865),.PCURVE_S1.);
#854 = LINE('',#855,#856);
#855 = CARTESIAN_POINT('',(70.989158122977,0.,16.8));
#856 = VECTOR('',#857,1.);
#857 = DIRECTION('',(-0.766044443119,0.642787609687,0.));
#858 = PCURVE('',#205,#859);
#859 = DEFINITIONAL_REPRESENTATION('',(#860),#864);
#860 = LINE('',#861,#862);
#861 = CARTESIAN_POINT('',(0.,0.));
#862 = VECTOR('',#863,1.);
#863 = DIRECTION('',(1.,0.));
#864 = ( GEOMETRIC_REPRESENTATION_CONTEXT(2) 
PARAMETRIC_REPRESENTATION_CONTEXT() REPRESENTATION_CONTEXT('2D SPACE',''
  ) );
#865 = PCURVE('',#866,#871);
#866 = PLANE('',#867);
#867 = AXIS2_PLACEMENT_3D('',#868,#869,#870);
#868 = CARTESIAN_POINT('',(69.973039236987,-3.544233765348E-17,16.8));
#869 = DIRECTION('',(0.,0.,1.));
#870 = DIRECTION('',(1.,0.,-0.));
#871 = DEFINITIONAL_REPRESENTATION('',(#872),#876);
#872 = LINE('',#873,#874);
#873 = CARTESIAN_POINT('',(1.01611888599,3.544233765348E-17));
#874 = VECTOR('',#875,1.);
#875 = DIRECTION('',(-0.766044443119,0.642787609687));
#876 = ( GEOMETRIC_REPRESENTATION_CONTEXT(2) 
PARAMETRIC_REPRESENTATION_CONTEXT() REPRESENTATION_CONTEXT('2D SPACE',''
  ) );
#877 = ORIENTED_EDGE('',*,*,#878,.T.);
#878 = EDGE_CURVE('',#849,#186,#879,.T.);
#879 = SURFACE_CURVE('',#880,(#884,#891),.PCURVE_S1.);
#880 = LINE('',#881,#882);
#881 = CARTESIAN_POINT('',(70.989158122977,0.,16.8));
#882 = VECTOR('',#883,1.);
#883 = DIRECTION('',(0.,0.,1.));
#884 = PCURVE('',#205,#885);
#885 = DEFINITIONAL_REPRESENTATION('',(#886),#890);
#886 = LINE('',#887,#888);
#887 = CARTESIAN_POINT('',(0.,0.));
#888 = VECTOR('',#889,1.);
#889 = DIRECTION('',(0.,-1.));
#890 = ( GEOMETRIC_REPRESENTATION_CONTEXT(2) 
PARAMETRIC_REPRESENTATION_CONTEXT() REPRESENTATION_CONTEXT('2D SPACE',''
  ) );
#891 = PCURVE('',#892,#897);
#892 = PLANE('',#893);
#893 = AXIS2_PLACEMENT_3D('',#894,#895,#896);
#894 = CARTESIAN_POINT('',(69.528460175498,-1.22567110899,16.8));
#895 = DIRECTION('',(-0.642787609687,0.766044443119,0.));
#896 = DIRECTION('',(0.766044443119,0.642787609687,0.));
#897 = DEFINITIONAL_REPRESENTATION('',(#898),#902);
#898 = LINE('',#899,#900);
#899 = CARTESIAN_POINT('',(1.906805748151,0.));
#900 = VECTOR('',#901,1.);
#901 = DIRECTION('',(0.,-1.));
#902 = ( GEOMETRIC_REPRESENTATION_CONTEXT(2) 
PARAMETRIC_REPRESENTATION_CONTEXT() REPRESENTATION_CONTEXT('2D SPACE',''
  ) );
#903 = ORIENTED_EDGE('',*,*,#185,.T.);
#904 = ORIENTED_EDGE('',*,*,#905,.F.);
#905 = EDGE_CURVE('',#851,#86,#906,.T.);
#906 = SURFACE_CURVE('',#907,(#911,#918),.PCURVE_S1.);
#907 = LINE('',#908,#909);
#908 = CARTESIAN_POINT('',(69.528460175498,1.22567110899,16.8));
#909 = VECTOR('',#910,1.);
#910 = DIRECTION('',(0.,0.,1.));
#911 = PCURVE('',#205,#912);
#912 = DEFINITIONAL_REPRESENTATION('',(#913),#917);
#913 = LINE('',#914,#915);
#914 = CARTESIAN_POINT('',(1.906805748151,0.));
#915 = VECTOR('',#916,1.);
#916 = DIRECTION('',(0.,-1.));
#917 = ( GEOMETRIC_REPRESENTATION_CONTEXT(2) 
PARAMETRIC_REPRESENTATION_CONTEXT() REPRESENTATION_CONTEXT('2D SPACE',''
  ) );
#918 = PCURVE('',#149,#919);
#919 = DEFINITIONAL_REPRESENTATION('',(#920),#924);
#920 = LINE('',#921,#922);
#921 = CARTESIAN_POINT('',(0.872664625997,0.));
#922 = VECTOR('',#923,1.);
#923 = DIRECTION('',(0.,1.));
#924 = ( GEOMETRIC_REPRESENTATION_CONTEXT(2) 
PARAMETRIC_REPRESENTATION_CONTEXT() REPRESENTATION_CONTEXT('2D SPACE',''
  ) );
#925 = ADVANCED_FACE('',(#926),#892,.T.);
#926 = FACE_BOUND('',#927,.T.);
#927 = EDGE_LOOP('',(#928,#951,#974,#999));
#928 = ORIENTED_EDGE('',*,*,#929,.F.);
#929 = EDGE_CURVE('',#930,#849,#932,.T.);
#930 = VERTEX_POINT('',#931);
#931 = CARTESIAN_POINT('',(69.528460175498,-1.22567110899,16.8));
#932 = SURFACE_CURVE('',#933,(#937,#944),.PCURVE_S1.);
#933 = LINE('',#934,#935);
#934 = CARTESIAN_POINT('',(69.528460175498,-1.22567110899,16.8));
#935 = VECTOR('',#936,1.);
#936 = DIRECTION('',(0.766044443119,0.642787609687,0.));
#937 = PCURVE('',#892,#938);
#938 = DEFINITIONAL_REPRESENTATION('',(#939),#943);
#939 = LINE('',#940,#941);
#940 = CARTESIAN_POINT('',(0.,0.));
#941 = VECTOR('',#942,1.);
#942 = DIRECTION('',(1.,0.));
#943 = ( GEOMETRIC_REPRESENTATION_CONTEXT(2) 
PARAMETRIC_REPRESENTATION_CONTEXT() REPRESENTATION_CONTEXT('2D SPACE',''
  ) );
#944 = PCURVE('',#866,#945);
#945 = DEFINITIONAL_REPRESENTATION('',(#946),#950);
#946 = LINE('',#947,#948);
#947 = CARTESIAN_POINT('',(-0.444579061488,-1.22567110899));
#948 = VECTOR('',#949,1.);
#949 = DIRECTION('',(0.766044443119,0.642787609687));
#950 = ( GEOMETRIC_REPRESENTATION_CONTEXT(2) 
PARAMETRIC_REPRESENTATION_CONTEXT() REPRESENTATION_CONTEXT('2D SPACE',''
  ) );
#951 = ORIENTED_EDGE('',*,*,#952,.T.);
#952 = EDGE_CURVE('',#930,#953,#955,.T.);
#953 = VERTEX_POINT('',#954);
#954 = CARTESIAN_POINT('',(69.528460175498,-1.22567110899,
    18.810109790551));
#955 = SURFACE_CURVE('',#956,(#960,#967),.PCURVE_S1.);
#956 = LINE('',#957,#958);
#957 = CARTESIAN_POINT('',(69.528460175498,-1.22567110899,16.8));
#958 = VECTOR('',#959,1.);
#959 = DIRECTION('',(0.,0.,1.));
#960 = PCURVE('',#892,#961);
#961 = DEFINITIONAL_REPRESENTATION('',(#962),#966);
#962 = LINE('',#963,#964);
#963 = CARTESIAN_POINT('',(0.,0.));
#964 = VECTOR('',#965,1.);
#965 = DIRECTION('',(0.,-1.));
#966 = ( GEOMETRIC_REPRESENTATION_CONTEXT(2) 
PARAMETRIC_REPRESENTATION_CONTEXT() REPRESENTATION_CONTEXT('2D SPACE',''
  ) );
#967 = PCURVE('',#149,#968);
#968 = DEFINITIONAL_REPRESENTATION('',(#969),#973);
#969 = LINE('',#970,#971);
#970 = CARTESIAN_POINT('',(5.410520681182,0.));
#971 = VECTOR('',#972,1.);
#972 = DIRECTION('',(0.,1.));
#973 = ( GEOMETRIC_REPRESENTATION_CONTEXT(2) 
PARAMETRIC_REPRESENTATION_CONTEXT() REPRESENTATION_CONTEXT('2D SPACE',''
  ) );
#974 = ORIENTED_EDGE('',*,*,#975,.T.);
#975 = EDGE_CURVE('',#953,#186,#976,.T.);
#976 = SURFACE_CURVE('',#977,(#982,#989),.PCURVE_S1.);
#977 = ELLIPSE('',#978,29.325394136319,18.85);
#978 = AXIS2_PLACEMENT_3D('',#979,#980,#981);
#979 = CARTESIAN_POINT('',(70.989158122977,0.,0.));
#980 = DIRECTION('',(-0.642787609687,0.766044443119,0.));
#981 = DIRECTION('',(0.766044443119,0.642787609687,0.));
#982 = PCURVE('',#892,#983);
#983 = DEFINITIONAL_REPRESENTATION('',(#984),#988);
#984 = ELLIPSE('',#985,29.325394136319,18.85);
#985 = AXIS2_PLACEMENT_2D('',#986,#987);
#986 = CARTESIAN_POINT('',(1.906805748151,16.8));
#987 = DIRECTION('',(1.,0.));
#988 = ( GEOMETRIC_REPRESENTATION_CONTEXT(2) 
PARAMETRIC_REPRESENTATION_CONTEXT() REPRESENTATION_CONTEXT('2D SPACE',''
  ) );
#989 = PCURVE('',#73,#990);
#990 = DEFINITIONAL_REPRESENTATION('',(#991),#998);
#991 = B_SPLINE_CURVE_WITH_KNOTS('',5,(#992,#993,#994,#995,#996,#997),
  .UNSPECIFIED.,.F.,.F.,(6,6),(4.640803281751,4.712388980385),
  .PIECEWISE_BEZIER_KNOTS.);
#992 = CARTESIAN_POINT('',(7.158569863389E-02,9.082390380751));
#993 = CARTESIAN_POINT('',(5.726855890711E-02,9.40319481484));
#994 = CARTESIAN_POINT('',(4.295141918033E-02,9.724410943975));
#995 = CARTESIAN_POINT('',(2.863427945355E-02,10.045901770993));
#996 = CARTESIAN_POINT('',(1.431713972678E-02,10.367529946986));
#997 = CARTESIAN_POINT('',(1.836970198721E-16,10.689158122977));
#998 = ( GEOMETRIC_REPRESENTATION_CONTEXT(2) 
PARAMETRIC_REPRESENTATION_CONTEXT() REPRESENTATION_CONTEXT('2D SPACE',''
  ) );
#999 = ORIENTED_EDGE('',*,*,#878,.F.);
#1000 = ADVANCED_FACE('',(#1001),#866,.T.);
#1001 = FACE_BOUND('',#1002,.T.);
#1002 = EDGE_LOOP('',(#1003,#1004,#1005));
#1003 = ORIENTED_EDGE('',*,*,#929,.T.);
#1004 = ORIENTED_EDGE('',*,*,#848,.T.);
#1005 = ORIENTED_EDGE('',*,*,#1006,.T.);
#1006 = EDGE_CURVE('',#851,#930,#1007,.T.);
#1007 = SURFACE_CURVE('',#1008,(#1013,#1020),.PCURVE_S1.);
#1008 = CIRCLE('',#1009,1.6);
#1009 = AXIS2_PLACEMENT_3D('',#1010,#1011,#1012);
#1010 = CARTESIAN_POINT('',(68.5,0.,16.8));
#1011 = DIRECTION('',(0.,0.,1.));
#1012 = DIRECTION('',(1.,0.,-0.));
#1013 = PCURVE('',#866,#1014);
#1014 = DEFINITIONAL_REPRESENTATION('',(#1015),#1019);
#1015 = CIRCLE('',#1016,1.6);
#1016 = AXIS2_PLACEMENT_2D('',#1017,#1018);
#1017 = CARTESIAN_POINT('',(-1.473039236987,3.544233765348E-17));
#1018 = DIRECTION('',(1.,0.));
#1019 = ( GEOMETRIC_REPRESENTATION_CONTEXT(2) 
PARAMETRIC_REPRESENTATION_CONTEXT() REPRESENTATION_CONTEXT('2D SPACE',''
  ) );
#1020 = PCURVE('',#149,#1021);
#1021 = DEFINITIONAL_REPRESENTATION('',(#1022),#1026);
#1022 = LINE('',#1023,#1024);
#1023 = CARTESIAN_POINT('',(0.,0.));
#1024 = VECTOR('',#1025,1.);
#1025 = DIRECTION('',(1.,0.));
#1026 = ( GEOMETRIC_REPRESENTATION_CONTEXT(2) 
PARAMETRIC_REPRESENTATION_CONTEXT() REPRESENTATION_CONTEXT('2D SPACE',''
  ) );
#1027 = ADVANCED_FACE('',(#1028),#149,.F.);
#1028 = FACE_BOUND('',#1029,.F.);
#1029 = EDGE_LOOP('',(#1030,#1031,#1032,#1033,#1034));
#1030 = ORIENTED_EDGE('',*,*,#85,.F.);
#1031 = ORIENTED_EDGE('',*,*,#905,.F.);
#1032 = ORIENTED_EDGE('',*,*,#1006,.T.);
#1033 = ORIENTED_EDGE('',*,*,#952,.T.);
#1034 = ORIENTED_EDGE('',*,*,#1035,.F.);
#1035 = EDGE_CURVE('',#58,#953,#1036,.T.);
#1036 = SURFACE_CURVE('',#1037,(#1065,#1096),.PCURVE_S1.);
#1037 = B_SPLINE_CURVE_WITH_KNOTS('',6,(#1038,#1039,#1040,#1041,#1042,
    #1043,#1044,#1045,#1046,#1047,#1048,#1049,#1050,#1051,#1052,#1053,
    #1054,#1055,#1056,#1057,#1058,#1059,#1060,#1061,#1062,#1063,#1064),
  .UNSPECIFIED.,.F.,.F.,(7,5,5,5,5,7),(0.,0.234085978525,0.495652889708,
    0.672402174356,0.910198540166,1.),.UNSPECIFIED.);
#1038 = CARTESIAN_POINT('',(66.9,2.22044604925E-16,18.85));
#1039 = CARTESIAN_POINT('',(66.9,-0.170778791474,18.85));
#1040 = CARTESIAN_POINT('',(66.921874405476,-0.339908128859,
    18.848143695116));
#1041 = CARTESIAN_POINT('',(66.964828515863,-0.503025227099,
    18.844495770662));
#1042 = CARTESIAN_POINT('',(67.026608780833,-0.656058844716,
    18.839445820869));
#1043 = CARTESIAN_POINT('',(67.103608702861,-0.795719435962,
    18.83360866145));
#1044 = CARTESIAN_POINT('',(67.288567012684,-1.058888491166,
    18.820748893099));
#1045 = CARTESIAN_POINT('',(67.400175724845,-1.180108883587,
    18.813593026524));
#1046 = CARTESIAN_POINT('',(67.522041728266,-1.283642505523,
    18.80665573216));
#1047 = CARTESIAN_POINT('',(67.651349978386,-1.369906334477,
    18.800377185189));
#1048 = CARTESIAN_POINT('',(67.785922583303,-1.43944404422,
    18.795035453252));
#1049 = CARTESIAN_POINT('',(68.017311967485,-1.528729776712,
    18.787942669353));
#1050 = CARTESIAN_POINT('',(68.112295299632,-1.557339848409,
    18.785586659173));
#1051 = CARTESIAN_POINT('',(68.208460524178,-1.578695847571,
    18.78378749216));
#1052 = CARTESIAN_POINT('',(68.305386075695,-1.592898148656,
    18.782577790953));
#1053 = CARTESIAN_POINT('',(68.402690574741,-1.6,18.781972739838));
#1054 = CARTESIAN_POINT('',(68.63091893261,-1.6,18.781972739838));
#1055 = CARTESIAN_POINT('',(68.761817499646,-1.587145112657,
    18.783067839619));
#1056 = CARTESIAN_POINT('',(68.891800636744,-1.561443185494,
    18.785257254868));
#1057 = CARTESIAN_POINT('',(69.019937609254,-1.522712353266,
    18.788490419218));
#1058 = CARTESIAN_POINT('',(69.145120349764,-1.470627765358,
    18.792661202662));
#1059 = CARTESIAN_POINT('',(69.311520853437,-1.379903265573,
    18.799441186472));
#1060 = CARTESIAN_POINT('',(69.356508500572,-1.353069558956,
    18.801406807064));
#1061 = CARTESIAN_POINT('',(69.400789625843,-1.324250325771,
    18.803469365512));
#1062 = CARTESIAN_POINT('',(69.444275349582,-1.293424400127,
    18.805616936071));
#1063 = CARTESIAN_POINT('',(69.486867877174,-1.260571191174,
    18.807835693116));
#1064 = CARTESIAN_POINT('',(69.528460175498,-1.22567110899,
    18.810109790551));
#1065 = PCURVE('',#149,#1066);
#1066 = DEFINITIONAL_REPRESENTATION('',(#1067),#1095);
#1067 = B_SPLINE_CURVE_WITH_KNOTS('',6,(#1068,#1069,#1070,#1071,#1072,
    #1073,#1074,#1075,#1076,#1077,#1078,#1079,#1080,#1081,#1082,#1083,
    #1084,#1085,#1086,#1087,#1088,#1089,#1090,#1091,#1092,#1093,#1094),
  .UNSPECIFIED.,.F.,.F.,(7,5,5,5,5,7),(0.,0.234085978525,0.495652889708,
    0.672402174356,0.910198540166,1.),.UNSPECIFIED.);
#1068 = CARTESIAN_POINT('',(3.14159265359,2.05));
#1069 = CARTESIAN_POINT('',(3.248329398261,2.05));
#1070 = CARTESIAN_POINT('',(3.354035010969,2.048143695116));
#1071 = CARTESIAN_POINT('',(3.458173301903,2.044495770662));
#1072 = CARTESIAN_POINT('',(3.560170113242,2.039445820869));
#1073 = CARTESIAN_POINT('',(3.659256534739,2.03360866145));
#1074 = CARTESIAN_POINT('',(3.860296339557,2.020748893099));
#1075 = CARTESIAN_POINT('',(3.962391959828,2.013593026524));
#1076 = CARTESIAN_POINT('',(4.061275421421,2.00665573216));
#1077 = CARTESIAN_POINT('',(4.157505672628,2.000377185189));
#1078 = CARTESIAN_POINT('',(4.251620890302,1.995035453252));
#1079 = CARTESIAN_POINT('',(4.406632216927,1.987942669353));
#1080 = CARTESIAN_POINT('',(4.468453936894,1.985586659173));
#1081 = CARTESIAN_POINT('',(4.529771796852,1.98378749216));
#1082 = CARTESIAN_POINT('',(4.590755348945,1.982577790953));
#1083 = CARTESIAN_POINT('',(4.651570589598,1.981972739838));
#1084 = CARTESIAN_POINT('',(4.794213313266,1.981972739838));
#1085 = CARTESIAN_POINT('',(4.876025106407,1.983067839619));
#1086 = CARTESIAN_POINT('',(4.958249769134,1.985257254868));
#1087 = CARTESIAN_POINT('',(5.041294441077,1.988490419218));
#1088 = CARTESIAN_POINT('',(5.12557011324,1.992661202662));
#1089 = CARTESIAN_POINT('',(5.244023793672,1.999441186472));
#1090 = CARTESIAN_POINT('',(5.276738451795,2.001406807064));
#1091 = CARTESIAN_POINT('',(5.309721097988,2.003469365512));
#1092 = CARTESIAN_POINT('',(5.342995491268,2.005616936071));
#1093 = CARTESIAN_POINT('',(5.376586375299,2.007835693116));
#1094 = CARTESIAN_POINT('',(5.410520681182,2.010109790551));
#1095 = ( GEOMETRIC_REPRESENTATION_CONTEXT(2) 
PARAMETRIC_REPRESENTATION_CONTEXT() REPRESENTATION_CONTEXT('2D SPACE',''
  ) );
#1096 = PCURVE('',#73,#1097);
#1097 = DEFINITIONAL_REPRESENTATION('',(#1098),#1126);
#1098 = B_SPLINE_CURVE_WITH_KNOTS('',6,(#1099,#1100,#1101,#1102,#1103,
    #1104,#1105,#1106,#1107,#1108,#1109,#1110,#1111,#1112,#1113,#1114,
    #1115,#1116,#1117,#1118,#1119,#1120,#1121,#1122,#1123,#1124,#1125),
  .UNSPECIFIED.,.F.,.F.,(7,5,5,5,5,7),(0.,0.234085978525,0.495652889708,
    0.672402174356,0.910198540166,1.),.UNSPECIFIED.);
#1099 = CARTESIAN_POINT('',(0.,6.6));
#1100 = CARTESIAN_POINT('',(9.059882836838E-03,6.6));
#1101 = CARTESIAN_POINT('',(1.80322627047E-02,6.621874405476));
#1102 = CARTESIAN_POINT('',(2.668702097126E-02,6.664828515863));
#1103 = CARTESIAN_POINT('',(3.480942820287E-02,6.726608780833));
#1104 = CARTESIAN_POINT('',(4.222476327825E-02,6.803608702861));
#1105 = CARTESIAN_POINT('',(5.620264468215E-02,6.988567012684));
#1106 = CARTESIAN_POINT('',(6.26442985559E-02,7.100175724845));
#1107 = CARTESIAN_POINT('',(6.814893919452E-02,7.222041728266));
#1108 = CARTESIAN_POINT('',(7.27373168615E-02,7.351349978386));
#1109 = CARTESIAN_POINT('',(7.643717547341E-02,7.485922583303));
#1110 = CARTESIAN_POINT('',(8.118874108832E-02,7.717311967485));
#1111 = CARTESIAN_POINT('',(8.271164853382E-02,7.812295299632));
#1112 = CARTESIAN_POINT('',(8.384860436529E-02,7.908460524178));
#1113 = CARTESIAN_POINT('',(8.460477167746E-02,8.005386075695));
#1114 = CARTESIAN_POINT('',(8.498289204951E-02,8.102690574741));
#1115 = CARTESIAN_POINT('',(8.498289204951E-02,8.33091893261));
#1116 = CARTESIAN_POINT('',(8.429846493378E-02,8.461817499647));
#1117 = CARTESIAN_POINT('',(8.293002999263E-02,8.591800636744));
#1118 = CARTESIAN_POINT('',(8.086819864872E-02,8.719937609254));
#1119 = CARTESIAN_POINT('',(7.809628465196E-02,8.845120349764));
#1120 = CARTESIAN_POINT('',(7.326989279758E-02,9.011520853437));
#1121 = CARTESIAN_POINT('',(7.184254141172E-02,9.056508500572));
#1122 = CARTESIAN_POINT('',(7.030976248701E-02,9.100789625843));
#1123 = CARTESIAN_POINT('',(6.867047611685E-02,9.144275349582));
#1124 = CARTESIAN_POINT('',(6.692363503925E-02,9.186867877174));
#1125 = CARTESIAN_POINT('',(6.506824543375E-02,9.228460175498));
#1126 = ( GEOMETRIC_REPRESENTATION_CONTEXT(2) 
PARAMETRIC_REPRESENTATION_CONTEXT() REPRESENTATION_CONTEXT('2D SPACE',''
  ) );
#1127 = ADVANCED_FACE('',(#1128),#73,.T.);
#1128 = FACE_BOUND('',#1129,.T.);
#1129 = EDGE_LOOP('',(#1130,#1131,#1132,#1133,#1134,#1135,#1136,#1137,
    #1159));
#1130 = ORIENTED_EDGE('',*,*,#669,.F.);
#1131 = ORIENTED_EDGE('',*,*,#646,.T.);
#1132 = ORIENTED_EDGE('',*,*,#820,.F.);
#1133 = ORIENTED_EDGE('',*,*,#217,.F.);
#1134 = ORIENTED_EDGE('',*,*,#975,.F.);
#1135 = ORIENTED_EDGE('',*,*,#1035,.F.);
#1136 = ORIENTED_EDGE('',*,*,#57,.F.);
#1137 = ORIENTED_EDGE('',*,*,#1138,.T.);
#1138 = EDGE_CURVE('',#24,#719,#1139,.T.);
#1139 = SURFACE_CURVE('',#1140,(#1145,#1152),.PCURVE_S1.);
#1140 = CIRCLE('',#1141,18.85);
#1141 = AXIS2_PLACEMENT_3D('',#1142,#1143,#1144);
#1142 = CARTESIAN_POINT('',(60.3,0.,0.));
#1143 = DIRECTION('',(1.,0.,0.));
#1144 = DIRECTION('',(-0.,0.,1.));
#1145 = PCURVE('',#73,#1146);
#1146 = DEFINITIONAL_REPRESENTATION('',(#1147),#1151);
#1147 = LINE('',#1148,#1149);
#1148 = CARTESIAN_POINT('',(0.,0.));
#1149 = VECTOR('',#1150,1.);
#1150 = DIRECTION('',(1.,0.));
#1151 = ( GEOMETRIC_REPRESENTATION_CONTEXT(2) 
PARAMETRIC_REPRESENTATION_CONTEXT() REPRESENTATION_CONTEXT('2D SPACE',''
  ) );
#1152 = PCURVE('',#45,#1153);
#1153 = DEFINITIONAL_REPRESENTATION('',(#1154),#1158);
#1154 = CIRCLE('',#1155,18.85);
#1155 = AXIS2_PLACEMENT_2D('',#1156,#1157);
#1156 = CARTESIAN_POINT('',(0.,0.));
#1157 = DIRECTION('',(1.,0.));
#1158 = ( GEOMETRIC_REPRESENTATION_CONTEXT(2) 
PARAMETRIC_REPRESENTATION_CONTEXT() REPRESENTATION_CONTEXT('2D SPACE',''
  ) );
#1159 = ORIENTED_EDGE('',*,*,#741,.T.);
#1160 = ADVANCED_FACE('',(#1161),#45,.F.);
#1161 = FACE_BOUND('',#1162,.F.);
#1162 = EDGE_LOOP('',(#1163,#1164,#1165,#1166,#1167));
#1163 = ORIENTED_EDGE('',*,*,#21,.T.);
#1164 = ORIENTED_EDGE('',*,*,#1138,.T.);
#1165 = ORIENTED_EDGE('',*,*,#718,.T.);
#1166 = ORIENTED_EDGE('',*,*,#425,.F.);
#1167 = ORIENTED_EDGE('',*,*,#351,.T.);
#1168 = ( GEOMETRIC_REPRESENTATION_CONTEXT(3) 
GLOBAL_UNCERTAINTY_ASSIGNED_CONTEXT((#1172)) 
GLOBAL_UNIT_ASSIGNED_CONTEXT((#1169,#1170,#1171)) REPRESENTATION_CONTEXT
('Context #1','3D Context with UNIT and UNCERTAINTY') );
#1169 = ( LENGTH_UNIT() NAMED_UNIT(*) SI_UNIT(.MILLI.,.METRE.) );
#1170 = ( NAMED_UNIT(*) PLANE_ANGLE_UNIT() SI_UNIT($,.RADIAN.) );
#1171 = ( NAMED_UNIT(*) SI_UNIT($,.STERADIAN.) SOLID_ANGLE_UNIT() );
#1172 = UNCERTAINTY_MEASURE_WITH_UNIT(LENGTH_MEASURE(1.E-07),#1169,
  'distance_accuracy_value','confusion accuracy');
#1173 = PRODUCT_RELATED_PRODUCT_CATEGORY('part',$,(#7));
ENDSEC;
END-ISO-10303-21;
