ISO-10303-21;
HEADER;
FILE_DESCRIPTION(('SkyG Speed 90B - revision C6B-8 - 2026-10-10','HL2-hatch-lip-rear'),'2;1');
FILE_NAME('HL2-hatch-lip-rear_C6B-8','2026-10-10T23:18:29',('Author'),(
    'Open CASCADE'),'Open CASCADE STEP processor 7.9','Open CASCADE 7.9'
  ,'Unknown');
FILE_SCHEMA(('AUTOMOTIVE_DESIGN { 1 0 10303 214 1 1 1 1 }'));
ENDSEC;
DATA;
#1 = APPLICATION_PROTOCOL_DEFINITION('international standard',
  'automotive_design',2000,#2);
#2 = APPLICATION_CONTEXT(
  'core data for automotive mechanical design processes');
#3 = SHAPE_DEFINITION_REPRESENTATION(#4,#10);
#4 = PRODUCT_DEFINITION_SHAPE('','',#5);
#5 = PRODUCT_DEFINITION('design','',#6,#9);
#6 = PRODUCT_DEFINITION_FORMATION('','',#7);
#7 = PRODUCT('HL2-hatch-lip-rear C6B-8','HL2-hatch-lip-rear C6B-8','',(#8));
#8 = PRODUCT_CONTEXT('',#2,'mechanical');
#9 = PRODUCT_DEFINITION_CONTEXT('part definition',#2,'design');
#10 = ADVANCED_BREP_SHAPE_REPRESENTATION('',(#11,#15),#1654);
#11 = AXIS2_PLACEMENT_3D('',#12,#13,#14);
#12 = CARTESIAN_POINT('',(0.,0.,0.));
#13 = DIRECTION('',(0.,0.,1.));
#14 = DIRECTION('',(1.,0.,-0.));
#15 = MANIFOLD_SOLID_BREP('',#16);
#16 = CLOSED_SHELL('',(#17,#526,#600,#1041,#1117,#1197,#1252,#1307,#1334
    ,#1411,#1434,#1461,#1488,#1515,#1542,#1585,#1620,#1647));
#17 = ADVANCED_FACE('',(#18),#33,.T.);
#18 = FACE_BOUND('',#19,.T.);
#19 = EDGE_LOOP('',(#20,#55,#81,#109,#366,#389,#415,#443,#469,#502));
#20 = ORIENTED_EDGE('',*,*,#21,.T.);
#21 = EDGE_CURVE('',#22,#24,#26,.T.);
#22 = VERTEX_POINT('',#23);
#23 = CARTESIAN_POINT('',(194.,15.307596153545,11.));
#24 = VERTEX_POINT('',#25);
#25 = CARTESIAN_POINT('',(194.,6.,17.869597085553));
#26 = SURFACE_CURVE('',#27,(#32,#43),.PCURVE_S1.);
#27 = CIRCLE('',#28,18.85);
#28 = AXIS2_PLACEMENT_3D('',#29,#30,#31);
#29 = CARTESIAN_POINT('',(194.,0.,0.));
#30 = DIRECTION('',(1.,0.,0.));
#31 = DIRECTION('',(-0.,0.,1.));
#32 = PCURVE('',#33,#38);
#33 = CYLINDRICAL_SURFACE('',#34,18.85);
#34 = AXIS2_PLACEMENT_3D('',#35,#36,#37);
#35 = CARTESIAN_POINT('',(194.,0.,0.));
#36 = DIRECTION('',(1.,0.,0.));
#37 = DIRECTION('',(-0.,0.,1.));
#38 = DEFINITIONAL_REPRESENTATION('',(#39),#42);
#39 = B_SPLINE_CURVE_WITH_KNOTS('',1,(#40,#41),.UNSPECIFIED.,.F.,.F.,(2,
    2),(5.335487735199,5.959247110597),.PIECEWISE_BEZIER_KNOTS.);
#40 = CARTESIAN_POINT('',(5.335487735199,0.));
#41 = CARTESIAN_POINT('',(5.959247110597,0.));
#42 = ( GEOMETRIC_REPRESENTATION_CONTEXT(2) 
PARAMETRIC_REPRESENTATION_CONTEXT() REPRESENTATION_CONTEXT('2D SPACE',''
  ) );
#43 = PCURVE('',#44,#49);
#44 = PLANE('',#45);
#45 = AXIS2_PLACEMENT_3D('',#46,#47,#48);
#46 = CARTESIAN_POINT('',(194.,0.,0.));
#47 = DIRECTION('',(1.,0.,0.));
#48 = DIRECTION('',(-0.,0.,1.));
#49 = DEFINITIONAL_REPRESENTATION('',(#50),#54);
#50 = CIRCLE('',#51,18.85);
#51 = AXIS2_PLACEMENT_2D('',#52,#53);
#52 = CARTESIAN_POINT('',(0.,0.));
#53 = DIRECTION('',(1.,0.));
#54 = ( GEOMETRIC_REPRESENTATION_CONTEXT(2) 
PARAMETRIC_REPRESENTATION_CONTEXT() REPRESENTATION_CONTEXT('2D SPACE',''
  ) );
#55 = ORIENTED_EDGE('',*,*,#56,.F.);
#56 = EDGE_CURVE('',#57,#24,#59,.T.);
#57 = VERTEX_POINT('',#58);
#58 = CARTESIAN_POINT('',(185.,6.,17.869597085553));
#59 = SURFACE_CURVE('',#60,(#64,#70),.PCURVE_S1.);
#60 = LINE('',#61,#62);
#61 = CARTESIAN_POINT('',(185.,6.,17.869597085553));
#62 = VECTOR('',#63,1.);
#63 = DIRECTION('',(1.,0.,0.));
#64 = PCURVE('',#33,#65);
#65 = DEFINITIONAL_REPRESENTATION('',(#66),#69);
#66 = B_SPLINE_CURVE_WITH_KNOTS('',1,(#67,#68),.UNSPECIFIED.,.F.,.F.,(2,
    2),(0.,9.),.PIECEWISE_BEZIER_KNOTS.);
#67 = CARTESIAN_POINT('',(5.959247110597,-9.));
#68 = CARTESIAN_POINT('',(5.959247110597,0.));
#69 = ( GEOMETRIC_REPRESENTATION_CONTEXT(2) 
PARAMETRIC_REPRESENTATION_CONTEXT() REPRESENTATION_CONTEXT('2D SPACE',''
  ) );
#70 = PCURVE('',#71,#76);
#71 = PLANE('',#72);
#72 = AXIS2_PLACEMENT_3D('',#73,#74,#75);
#73 = CARTESIAN_POINT('',(185.,6.,0.));
#74 = DIRECTION('',(-0.,1.,0.));
#75 = DIRECTION('',(0.,0.,1.));
#76 = DEFINITIONAL_REPRESENTATION('',(#77),#80);
#77 = B_SPLINE_CURVE_WITH_KNOTS('',1,(#78,#79),.UNSPECIFIED.,.F.,.F.,(2,
    2),(-5.999999928008E-07,9.0000006),.PIECEWISE_BEZIER_KNOTS.);
#78 = CARTESIAN_POINT('',(17.869597085553,-5.999999928008E-07));
#79 = CARTESIAN_POINT('',(17.869597085553,9.0000006));
#80 = ( GEOMETRIC_REPRESENTATION_CONTEXT(2) 
PARAMETRIC_REPRESENTATION_CONTEXT() REPRESENTATION_CONTEXT('2D SPACE',''
  ) );
#81 = ORIENTED_EDGE('',*,*,#82,.T.);
#82 = EDGE_CURVE('',#57,#83,#85,.T.);
#83 = VERTEX_POINT('',#84);
#84 = CARTESIAN_POINT('',(185.,3.920777984023,18.437733049375));
#85 = SURFACE_CURVE('',#86,(#91,#97),.PCURVE_S1.);
#86 = CIRCLE('',#87,18.85);
#87 = AXIS2_PLACEMENT_3D('',#88,#89,#90);
#88 = CARTESIAN_POINT('',(185.,0.,0.));
#89 = DIRECTION('',(1.,0.,0.));
#90 = DIRECTION('',(-0.,0.,1.));
#91 = PCURVE('',#33,#92);
#92 = DEFINITIONAL_REPRESENTATION('',(#93),#96);
#93 = B_SPLINE_CURVE_WITH_KNOTS('',1,(#94,#95),.UNSPECIFIED.,.F.,.F.,(2,
    2),(5.959247110597,6.073656708084),.PIECEWISE_BEZIER_KNOTS.);
#94 = CARTESIAN_POINT('',(5.959247110597,-9.));
#95 = CARTESIAN_POINT('',(6.073656708084,-9.));
#96 = ( GEOMETRIC_REPRESENTATION_CONTEXT(2) 
PARAMETRIC_REPRESENTATION_CONTEXT() REPRESENTATION_CONTEXT('2D SPACE',''
  ) );
#97 = PCURVE('',#98,#103);
#98 = PLANE('',#99);
#99 = AXIS2_PLACEMENT_3D('',#100,#101,#102);
#100 = CARTESIAN_POINT('',(185.,0.,0.));
#101 = DIRECTION('',(1.,0.,0.));
#102 = DIRECTION('',(-0.,0.,1.));
#103 = DEFINITIONAL_REPRESENTATION('',(#104),#108);
#104 = CIRCLE('',#105,18.85);
#105 = AXIS2_PLACEMENT_2D('',#106,#107);
#106 = CARTESIAN_POINT('',(0.,0.));
#107 = DIRECTION('',(1.,0.));
#108 = ( GEOMETRIC_REPRESENTATION_CONTEXT(2) 
PARAMETRIC_REPRESENTATION_CONTEXT() REPRESENTATION_CONTEXT('2D SPACE',''
  ) );
#109 = ORIENTED_EDGE('',*,*,#110,.T.);
#110 = EDGE_CURVE('',#83,#111,#113,.T.);
#111 = VERTEX_POINT('',#112);
#112 = CARTESIAN_POINT('',(185.,-3.920777984023,18.437733049375));
#113 = SURFACE_CURVE('',#114,(#171,#266),.PCURVE_S1.);
#114 = B_SPLINE_CURVE_WITH_KNOTS('',7,(#115,#116,#117,#118,#119,#120,
    #121,#122,#123,#124,#125,#126,#127,#128,#129,#130,#131,#132,#133,
    #134,#135,#136,#137,#138,#139,#140,#141,#142,#143,#144,#145,#146,
    #147,#148,#149,#150,#151,#152,#153,#154,#155,#156,#157,#158,#159,
    #160,#161,#162,#163,#164,#165,#166,#167,#168,#169,#170),
  .UNSPECIFIED.,.F.,.F.,(8,6,6,6,6,6,6,6,6,8),(0.,7.739161111249E-02,
    0.289594876065,0.514264707352,0.792883484614,0.999999925422,
    1.122308006976,1.403295048242,1.711852549822,1.996428701987),
  .UNSPECIFIED.);
#115 = CARTESIAN_POINT('',(185.,3.920777984023,18.437733049375));
#116 = CARTESIAN_POINT('',(185.08894839643,3.977494021504,
    18.425672402304));
#117 = CARTESIAN_POINT('',(185.17883222496,4.031495276041,
    18.413976391495));
#118 = CARTESIAN_POINT('',(185.26958173324,4.082812647433,
    18.402674317585));
#119 = CARTESIAN_POINT('',(185.36113115957,4.131474918025,18.39179310181
    ));
#120 = CARTESIAN_POINT('',(185.45341873285,4.177508752698,
    18.381357286002));
#121 = CARTESIAN_POINT('',(185.54638667265,4.220938698877,
    18.371389032593));
#122 = CARTESIAN_POINT('',(185.89661187164,4.373791347225,
    18.335912030217));
#123 = CARTESIAN_POINT('',(186.15799461882,4.466406446978,
    18.313576110047));
#124 = CARTESIAN_POINT('',(186.42296148669,4.540060205773,
    18.295319608398));
#125 = CARTESIAN_POINT('',(186.69050981809,4.595080170244,
    18.281437279113));
#126 = CARTESIAN_POINT('',(186.95974977017,4.631689614238,18.27211833914
    ));
#127 = CARTESIAN_POINT('',(187.22985264169,4.65,18.26745740381));
#128 = CARTESIAN_POINT('',(187.78601803759,4.65,18.26745740381));
#129 = CARTESIAN_POINT('',(188.07197699693,4.629474971447,
    18.272682084236));
#130 = CARTESIAN_POINT('',(188.35691131051,4.588440915867,
    18.283127292021));
#131 = CARTESIAN_POINT('',(188.639842144,4.526756649994,18.298674481837)
  );
#132 = CARTESIAN_POINT('',(188.91970870415,4.444139580869,
    18.319086463078));
#133 = CARTESIAN_POINT('',(189.1952982657,4.340176759019,18.3439918246)
  );
#134 = CARTESIAN_POINT('',(189.7998558228,4.05826694035,18.408655762281)
  );
#135 = CARTESIAN_POINT('',(190.12578984006,3.868530802564,
    18.450549008686));
#136 = CARTESIAN_POINT('',(190.44056757421,3.643923845578,
    18.497562356169));
#137 = CARTESIAN_POINT('',(190.7408848173,3.382896059336,18.548338044855
    ));
#138 = CARTESIAN_POINT('',(191.02231615225,3.083775806996,
    18.601004412037));
#139 = CARTESIAN_POINT('',(191.27896954787,2.745105453803,
    18.652955475453));
#140 = CARTESIAN_POINT('',(191.66942627018,2.084569681903,
    18.736532938355));
#141 = CARTESIAN_POINT('',(191.8194559692,1.777985498717,18.770296806819
    ));
#142 = CARTESIAN_POINT('',(191.94683117941,1.449344211967,
    18.800261643862));
#143 = CARTESIAN_POINT('',(192.04662585296,1.102458996977,
    18.824499547292));
#144 = CARTESIAN_POINT('',(192.11516095939,0.741877616127,
    18.841405675985));
#145 = CARTESIAN_POINT('',(192.15,0.372637637762,18.85));
#146 = CARTESIAN_POINT('',(192.15,-0.220053002124,18.85));
#147 = CARTESIAN_POINT('',(192.137850745,-0.439763661983,18.847002999252
    ));
#148 = CARTESIAN_POINT('',(192.11362045973,-0.657730906217,
    18.84102566515));
#149 = CARTESIAN_POINT('',(192.07764077198,-0.872568031415,
    18.832196495641));
#150 = CARTESIAN_POINT('',(192.03050279962,-1.082932610034,
    18.82075214339));
#151 = CARTESIAN_POINT('',(191.97305631745,-1.28755595095,
    18.807020911696));
#152 = CARTESIAN_POINT('',(191.75330528874,-1.939499497981,
    18.755491280606));
#153 = CARTESIAN_POINT('',(191.5522666087,-2.355453111053,18.70972454177
    ));
#154 = CARTESIAN_POINT('',(191.31355360475,-2.731092226829,18.6580622413
    ));
#155 = CARTESIAN_POINT('',(191.04545974199,-3.066105387033,
    18.604205537689));
#156 = CARTESIAN_POINT('',(190.75485309974,-3.361128199065,
    18.551106261747));
#157 = CARTESIAN_POINT('',(190.44743757809,-3.617339188624,
    18.501009279543));
#158 = CARTESIAN_POINT('',(189.77697649759,-4.076615710931,
    18.405542161322));
#159 = CARTESIAN_POINT('',(189.40966274549,-4.273211782539,
    18.360866118296));
#160 = CARTESIAN_POINT('',(189.03086872248,-4.427867374439,
    18.323553996756));
#161 = CARTESIAN_POINT('',(188.64422551615,-4.542087841958,
    18.294951947155));
#162 = CARTESIAN_POINT('',(188.25259476286,-4.616929347886,
    18.275875010206));
#163 = CARTESIAN_POINT('',(187.85846159716,-4.652898054405,
    18.266719724931));
#164 = CARTESIAN_POINT('',(187.10057197656,-4.647062202637,
    18.268205200087));
#165 = CARTESIAN_POINT('',(186.73731805665,-4.611088485336,
    18.277361706252));
#166 = CARTESIAN_POINT('',(186.37631108234,-4.541990734795,
    18.294925597434));
#167 = CARTESIAN_POINT('',(186.01952406499,-4.439365628711,
    18.320575200975));
#168 = CARTESIAN_POINT('',(185.66920730488,-4.302415471448,
    18.35368232509));
#169 = CARTESIAN_POINT('',(185.32814688836,-4.130013810244,
    18.393239118438));
#170 = CARTESIAN_POINT('',(185.,-3.920777984023,18.437733049375));
#171 = PCURVE('',#33,#172);
#172 = DEFINITIONAL_REPRESENTATION('',(#173),#265);
#173 = B_SPLINE_CURVE_WITH_KNOTS('',3,(#174,#175,#176,#177,#178,#179,
    #180,#181,#182,#183,#184,#185,#186,#187,#188,#189,#190,#191,#192,
    #193,#194,#195,#196,#197,#198,#199,#200,#201,#202,#203,#204,#205,
    #206,#207,#208,#209,#210,#211,#212,#213,#214,#215,#216,#217,#218,
    #219,#220,#221,#222,#223,#224,#225,#226,#227,#228,#229,#230,#231,
    #232,#233,#234,#235,#236,#237,#238,#239,#240,#241,#242,#243,#244,
    #245,#246,#247,#248,#249,#250,#251,#252,#253,#254,#255,#256,#257,
    #258,#259,#260,#261,#262,#263,#264),.UNSPECIFIED.,.F.,.F.,(4,1,1,1,1
    ,1,1,1,1,1,1,1,1,1,1,1,1,1,1,1,1,1,1,1,1,1,1,1,1,1,1,1,1,1,1,1,1,1,1
    ,1,1,1,1,1,1,1,1,1,1,1,1,1,1,1,1,1,1,1,1,1,1,1,1,1,1,1,1,1,1,1,1,1,1
    ,1,1,1,1,1,1,1,1,1,1,1,1,1,1,1,4),(0.,2.268668979531E-02,
    4.537337959062E-02,6.806006938594E-02,9.074675918125E-02,
    0.113433448977,0.136120138772,0.158806828567,0.181493518362,
    0.204180208158,0.226866897953,0.249553587748,0.272240277544,
    0.294926967339,0.317613657134,0.34030034693,0.362987036725,
    0.38567372652,0.408360416316,0.431047106111,0.453733795906,
    0.476420485702,0.499107175497,0.521793865292,0.544480555087,
    0.567167244883,0.589853934678,0.612540624473,0.635227314269,
    0.657914004064,0.680600693859,0.703287383655,0.72597407345,
    0.748660763245,0.771347453041,0.794034142836,0.816720832631,
    0.839407522427,0.862094212222,0.884780902017,0.907467591812,
    0.930154281608,0.952840971403,0.975527661198,0.998214350994,
    1.020901040789,1.043587730584,1.06627442038,1.088961110175,
    1.11164779997,1.134334489766,1.157021179561,1.179707869356,
    1.202394559152,1.225081248947,1.247767938742,1.270454628537,
    1.293141318333,1.315828008128,1.338514697923,1.361201387719,
    1.383888077514,1.406574767309,1.429261457105,1.4519481469,
    1.474634836695,1.497321526491,1.520008216286,1.542694906081,
    1.565381595877,1.588068285672,1.610754975467,1.633441665262,
    1.656128355058,1.678815044853,1.701501734648,1.724188424444,
    1.746875114239,1.769561804034,1.79224849383,1.814935183625,
    1.83762187342,1.860308563216,1.882995253011,1.905681942806,
    1.928368632602,1.951055322397,1.973742012192,1.996428701987),
  .QUASI_UNIFORM_KNOTS.);
#174 = CARTESIAN_POINT('',(6.073656708084,-9.));
#175 = CARTESIAN_POINT('',(6.071552726895,-8.939157524259));
#176 = CARTESIAN_POINT('',(6.067518884648,-8.816355048395));
#177 = CARTESIAN_POINT('',(6.06198444673,-8.62912809086));
#178 = CARTESIAN_POINT('',(6.056960076982,-8.439217326467));
#179 = CARTESIAN_POINT('',(6.052440296299,-8.246926815927));
#180 = CARTESIAN_POINT('',(6.048419884925,-8.05252618076));
#181 = CARTESIAN_POINT('',(6.044895007427,-7.856301044675));
#182 = CARTESIAN_POINT('',(6.041862125325,-7.658515925388));
#183 = CARTESIAN_POINT('',(6.039318215823,-7.459423559879));
#184 = CARTESIAN_POINT('',(6.037260720678,-7.259264643067));
#185 = CARTESIAN_POINT('',(6.035687570115,-7.058270517333));
#186 = CARTESIAN_POINT('',(6.034597192134,-6.856663609075));
#187 = CARTESIAN_POINT('',(6.033988520093,-6.654663890224));
#188 = CARTESIAN_POINT('',(6.033861036088,-6.452473456736));
#189 = CARTESIAN_POINT('',(6.034214682389,-6.250350295607));
#190 = CARTESIAN_POINT('',(6.03504965353,-6.048513327175));
#191 = CARTESIAN_POINT('',(6.036366734666,-5.847173624074));
#192 = CARTESIAN_POINT('',(6.038167228786,-5.646550514763));
#193 = CARTESIAN_POINT('',(6.040452954467,-5.446869584463));
#194 = CARTESIAN_POINT('',(6.043226226304,-5.248365584315));
#195 = CARTESIAN_POINT('',(6.046489847942,-5.051283851304));
#196 = CARTESIAN_POINT('',(6.050247086374,-4.855882817987));
#197 = CARTESIAN_POINT('',(6.054501723631,-4.662433693299));
#198 = CARTESIAN_POINT('',(6.059257833514,-4.47123041032));
#199 = CARTESIAN_POINT('',(6.064520728327,-4.2825564592));
#200 = CARTESIAN_POINT('',(6.070296812376,-4.096708101341));
#201 = CARTESIAN_POINT('',(6.076592761123,-3.914023872333));
#202 = CARTESIAN_POINT('',(6.083415612657,-3.734878909691));
#203 = CARTESIAN_POINT('',(6.090772594424,-3.559689667184));
#204 = CARTESIAN_POINT('',(6.098671002231,-3.388916211599));
#205 = CARTESIAN_POINT('',(6.107118092529,-3.223065056656));
#206 = CARTESIAN_POINT('',(6.116120825542,-3.062693580795));
#207 = CARTESIAN_POINT('',(6.125686145911,-2.908408948641));
#208 = CARTESIAN_POINT('',(6.13581921378,-2.7608888716));
#209 = CARTESIAN_POINT('',(6.146529244323,-2.62082200737));
#210 = CARTESIAN_POINT('',(6.157806906144,-2.489149525231));
#211 = CARTESIAN_POINT('',(6.169708370858,-2.366177865657));
#212 = CARTESIAN_POINT('',(6.182224207786,-2.253143077766));
#213 = CARTESIAN_POINT('',(6.1952928219,-2.15162204635));
#214 = CARTESIAN_POINT('',(6.208860870419,-2.062907472884));
#215 = CARTESIAN_POINT('',(6.222867809712,-1.988175804478));
#216 = CARTESIAN_POINT('',(6.237250219856,-1.928442600222));
#217 = CARTESIAN_POINT('',(6.251942774864,-1.884573649603));
#218 = CARTESIAN_POINT('',(6.266872736192,-1.857283873163));
#219 = CARTESIAN_POINT('',(6.281983596794,-1.847127348496));
#220 = CARTESIAN_POINT('',(6.297148503799,-1.854532837306));
#221 = CARTESIAN_POINT('',(6.31217994402,-1.879326947407));
#222 = CARTESIAN_POINT('',(6.327007533797,-1.921040764372));
#223 = CARTESIAN_POINT('',(6.341532021099,-1.978953619336));
#224 = CARTESIAN_POINT('',(6.355666673826,-2.052093007343));
#225 = CARTESIAN_POINT('',(6.36931972915,-2.139195151938));
#226 = CARTESIAN_POINT('',(6.382415790237,-2.238780606173));
#227 = CARTESIAN_POINT('',(6.394956819315,-2.349840260934));
#228 = CARTESIAN_POINT('',(6.406933689029,-2.471359141805));
#229 = CARTESIAN_POINT('',(6.418342888809,-2.60240036082));
#230 = CARTESIAN_POINT('',(6.429181772415,-2.742078027423));
#231 = CARTESIAN_POINT('',(6.439449582671,-2.889560268248));
#232 = CARTESIAN_POINT('',(6.449146963299,-3.044064824793));
#233 = CARTESIAN_POINT('',(6.458275866712,-3.20485610318));
#234 = CARTESIAN_POINT('',(6.466839498917,-3.371245610173));
#235 = CARTESIAN_POINT('',(6.47484181636,-3.542579064561));
#236 = CARTESIAN_POINT('',(6.482288864411,-3.718274993415));
#237 = CARTESIAN_POINT('',(6.489183275658,-3.897672186025));
#238 = CARTESIAN_POINT('',(6.495545291864,-4.080617110652));
#239 = CARTESIAN_POINT('',(6.501386242326,-4.266865083383));
#240 = CARTESIAN_POINT('',(6.506710518129,-4.45601433425));
#241 = CARTESIAN_POINT('',(6.511523854387,-4.647738769526));
#242 = CARTESIAN_POINT('',(6.51583108852,-4.841722322609));
#243 = CARTESIAN_POINT('',(6.519636736211,-5.037673397951));
#244 = CARTESIAN_POINT('',(6.522944810532,-5.235317985604));
#245 = CARTESIAN_POINT('',(6.52575884224,-5.434398631655));
#246 = CARTESIAN_POINT('',(6.528081845151,-5.634671945887));
#247 = CARTESIAN_POINT('',(6.529916294208,-5.835906736063));
#248 = CARTESIAN_POINT('',(6.531264102834,-6.037881729852));
#249 = CARTESIAN_POINT('',(6.53212658648,-6.240384950998));
#250 = CARTESIAN_POINT('',(6.532504478872,-6.443207522256));
#251 = CARTESIAN_POINT('',(6.53239774858,-6.646158738425));
#252 = CARTESIAN_POINT('',(6.531806349545,-6.848887534706));
#253 = CARTESIAN_POINT('',(6.530730001725,-7.051209011302));
#254 = CARTESIAN_POINT('',(6.529167704635,-7.252908544504));
#255 = CARTESIAN_POINT('',(6.527117886205,-7.453770648585));
#256 = CARTESIAN_POINT('',(6.524578394975,-7.653569017206));
#257 = CARTESIAN_POINT('',(6.521546533516,-7.852066835316));
#258 = CARTESIAN_POINT('',(6.518019080321,-8.049014233287));
#259 = CARTESIAN_POINT('',(6.513992312664,-8.244146305273));
#260 = CARTESIAN_POINT('',(6.509462032408,-8.43718113218));
#261 = CARTESIAN_POINT('',(6.504423573411,-8.627816625655));
#262 = CARTESIAN_POINT('',(6.498871872837,-8.815731487077));
#263 = CARTESIAN_POINT('',(6.494824822409,-8.938957355186));
#264 = CARTESIAN_POINT('',(6.492713906275,-9.));
#265 = ( GEOMETRIC_REPRESENTATION_CONTEXT(2) 
PARAMETRIC_REPRESENTATION_CONTEXT() REPRESENTATION_CONTEXT('2D SPACE',''
  ) );
#266 = PCURVE('',#267,#272);
#267 = CYLINDRICAL_SURFACE('',#268,4.65);
#268 = AXIS2_PLACEMENT_3D('',#269,#270,#271);
#269 = CARTESIAN_POINT('',(187.5,0.,17.25));
#270 = DIRECTION('',(0.,0.,1.));
#271 = DIRECTION('',(1.,0.,-0.));
#272 = DEFINITIONAL_REPRESENTATION('',(#273),#365);
#273 = B_SPLINE_CURVE_WITH_KNOTS('',3,(#274,#275,#276,#277,#278,#279,
    #280,#281,#282,#283,#284,#285,#286,#287,#288,#289,#290,#291,#292,
    #293,#294,#295,#296,#297,#298,#299,#300,#301,#302,#303,#304,#305,
    #306,#307,#308,#309,#310,#311,#312,#313,#314,#315,#316,#317,#318,
    #319,#320,#321,#322,#323,#324,#325,#326,#327,#328,#329,#330,#331,
    #332,#333,#334,#335,#336,#337,#338,#339,#340,#341,#342,#343,#344,
    #345,#346,#347,#348,#349,#350,#351,#352,#353,#354,#355,#356,#357,
    #358,#359,#360,#361,#362,#363,#364),.UNSPECIFIED.,.F.,.F.,(4,1,1,1,1
    ,1,1,1,1,1,1,1,1,1,1,1,1,1,1,1,1,1,1,1,1,1,1,1,1,1,1,1,1,1,1,1,1,1,1
    ,1,1,1,1,1,1,1,1,1,1,1,1,1,1,1,1,1,1,1,1,1,1,1,1,1,1,1,1,1,1,1,1,1,1
    ,1,1,1,1,1,1,1,1,1,1,1,1,1,1,1,4),(0.,2.268668979531E-02,
    4.537337959062E-02,6.806006938594E-02,9.074675918125E-02,
    0.113433448977,0.136120138772,0.158806828567,0.181493518362,
    0.204180208158,0.226866897953,0.249553587748,0.272240277544,
    0.294926967339,0.317613657134,0.34030034693,0.362987036725,
    0.38567372652,0.408360416316,0.431047106111,0.453733795906,
    0.476420485702,0.499107175497,0.521793865292,0.544480555087,
    0.567167244883,0.589853934678,0.612540624473,0.635227314269,
    0.657914004064,0.680600693859,0.703287383655,0.72597407345,
    0.748660763245,0.771347453041,0.794034142836,0.816720832631,
    0.839407522427,0.862094212222,0.884780902017,0.907467591812,
    0.930154281608,0.952840971403,0.975527661198,0.998214350994,
    1.020901040789,1.043587730584,1.06627442038,1.088961110175,
    1.11164779997,1.134334489766,1.157021179561,1.179707869356,
    1.202394559152,1.225081248947,1.247767938742,1.270454628537,
    1.293141318333,1.315828008128,1.338514697923,1.361201387719,
    1.383888077514,1.406574767309,1.429261457105,1.4519481469,
    1.474634836695,1.497321526491,1.520008216286,1.542694906081,
    1.565381595877,1.588068285672,1.610754975467,1.633441665262,
    1.656128355058,1.678815044853,1.701501734648,1.724188424444,
    1.746875114239,1.769561804034,1.79224849383,1.814935183625,
    1.83762187342,1.860308563216,1.882995253011,1.905681942806,
    1.928368632602,1.951055322397,1.973742012192,1.996428701987),
  .QUASI_UNIFORM_KNOTS.);
#274 = CARTESIAN_POINT('',(8.421610660088,1.187733049375));
#275 = CARTESIAN_POINT('',(8.4060934415,1.17948237621));
#276 = CARTESIAN_POINT('',(8.375231719662,1.163424377657));
#277 = CARTESIAN_POINT('',(8.329408993642,1.140798811022));
#278 = CARTESIAN_POINT('',(8.284007136909,1.119771953014));
#279 = CARTESIAN_POINT('',(8.238979605642,1.100460467586));
#280 = CARTESIAN_POINT('',(8.194277696421,1.082967762631));
#281 = CARTESIAN_POINT('',(8.149862286414,1.067387391901));
#282 = CARTESIAN_POINT('',(8.105693913017,1.053799615065));
#283 = CARTESIAN_POINT('',(8.061734389445,1.042272720253));
#284 = CARTESIAN_POINT('',(8.017946061261,1.032863295988));
#285 = CARTESIAN_POINT('',(7.974291818037,1.025616705192));
#286 = CARTESIAN_POINT('',(7.930734619765,1.020567439464));
#287 = CARTESIAN_POINT('',(7.887238340179,1.01773938811));
#288 = CARTESIAN_POINT('',(7.84376391194,1.017146205871));
#289 = CARTESIAN_POINT('',(7.800284644113,1.018790988722));
#290 = CARTESIAN_POINT('',(7.756765347033,1.022665310107));
#291 = CARTESIAN_POINT('',(7.713168537054,1.02875076773));
#292 = CARTESIAN_POINT('',(7.669457348409,1.037018512579));
#293 = CARTESIAN_POINT('',(7.625594559581,1.04742904005));
#294 = CARTESIAN_POINT('',(7.581542663684,1.059931828565));
#295 = CARTESIAN_POINT('',(7.537263596143,1.074464963154));
#296 = CARTESIAN_POINT('',(7.49271868864,1.090954608693));
#297 = CARTESIAN_POINT('',(7.447867912644,1.109314736615));
#298 = CARTESIAN_POINT('',(7.40267154454,1.12944562506));
#299 = CARTESIAN_POINT('',(7.357081441147,1.151237191106));
#300 = CARTESIAN_POINT('',(7.31104495784,1.174567291239));
#301 = CARTESIAN_POINT('',(7.26451109676,1.19929728208));
#302 = CARTESIAN_POINT('',(7.217428264328,1.225271556888));
#303 = CARTESIAN_POINT('',(7.169744447291,1.252315927215));
#304 = CARTESIAN_POINT('',(7.121406791247,1.280236293626));
#305 = CARTESIAN_POINT('',(7.072361164392,1.308817378415));
#306 = CARTESIAN_POINT('',(7.0225523308,1.337821238729));
#307 = CARTESIAN_POINT('',(6.971921572871,1.366987167597));
#308 = CARTESIAN_POINT('',(6.920413678505,1.396027088539));
#309 = CARTESIAN_POINT('',(6.867948666967,1.424638667582));
#310 = CARTESIAN_POINT('',(6.814524694783,1.452453395824));
#311 = CARTESIAN_POINT('',(6.759828231676,1.479229973536));
#312 = CARTESIAN_POINT('',(6.703853864633,1.5045233308));
#313 = CARTESIAN_POINT('',(6.646795558749,1.527793636945));
#314 = CARTESIAN_POINT('',(6.588773694401,1.548555499512));
#315 = CARTESIAN_POINT('',(6.529910680123,1.566353069137));
#316 = CARTESIAN_POINT('',(6.470315088367,1.580780772145));
#317 = CARTESIAN_POINT('',(6.410082122325,1.591490809286));
#318 = CARTESIAN_POINT('',(6.349319232856,1.598201969443));
#319 = CARTESIAN_POINT('',(6.288053879984,1.600709248976));
#320 = CARTESIAN_POINT('',(6.226586802871,1.598880589573));
#321 = CARTESIAN_POINT('',(6.165461069527,1.592778080085));
#322 = CARTESIAN_POINT('',(6.104753676739,1.582580784489));
#323 = CARTESIAN_POINT('',(6.044673171923,1.568568401711));
#324 = CARTESIAN_POINT('',(5.985398355024,1.551113120592));
#325 = CARTESIAN_POINT('',(5.927157161505,1.53067803367));
#326 = CARTESIAN_POINT('',(5.870146090575,1.507784513064));
#327 = CARTESIAN_POINT('',(5.814254431238,1.482846382391));
#328 = CARTESIAN_POINT('',(5.75943328131,1.456278943596));
#329 = CARTESIAN_POINT('',(5.705623744608,1.428475145427));
#330 = CARTESIAN_POINT('',(5.652775211713,1.399809003785));
#331 = CARTESIAN_POINT('',(5.600839701388,1.370632414182));
#332 = CARTESIAN_POINT('',(5.549772686096,1.341274312667));
#333 = CARTESIAN_POINT('',(5.499532508024,1.312039874135));
#334 = CARTESIAN_POINT('',(5.450079352412,1.283209690632));
#335 = CARTESIAN_POINT('',(5.401377658673,1.255041124891));
#336 = CARTESIAN_POINT('',(5.353385370979,1.227762770184));
#337 = CARTESIAN_POINT('',(5.30609246488,1.2015957515));
#338 = CARTESIAN_POINT('',(5.259368938081,1.176672055547));
#339 = CARTESIAN_POINT('',(5.213128851628,1.153133227211));
#340 = CARTESIAN_POINT('',(5.167335913161,1.131129775755));
#341 = CARTESIAN_POINT('',(5.121942847068,1.110789596772));
#342 = CARTESIAN_POINT('',(5.076907230759,1.092227578049));
#343 = CARTESIAN_POINT('',(5.032186904272,1.075544085203));
#344 = CARTESIAN_POINT('',(4.987740901642,1.060826341833));
#345 = CARTESIAN_POINT('',(4.943528935223,1.048148949377));
#346 = CARTESIAN_POINT('',(4.899511294479,1.037574551171));
#347 = CARTESIAN_POINT('',(4.855648620585,1.029154377521));
#348 = CARTESIAN_POINT('',(4.81190179356,1.022928720047));
#349 = CARTESIAN_POINT('',(4.768231472955,1.018927405466));
#350 = CARTESIAN_POINT('',(4.724598846949,1.01716993988));
#351 = CARTESIAN_POINT('',(4.680961792189,1.017666569123));
#352 = CARTESIAN_POINT('',(4.637312734565,1.020414655377));
#353 = CARTESIAN_POINT('',(4.593608084732,1.025399750539));
#354 = CARTESIAN_POINT('',(4.549809780778,1.032597857433));
#355 = CARTESIAN_POINT('',(4.505878497701,1.041974516731));
#356 = CARTESIAN_POINT('',(4.461775203174,1.053484592503));
#357 = CARTESIAN_POINT('',(4.417460494608,1.067071782176));
#358 = CARTESIAN_POINT('',(4.372894541863,1.08266812749));
#359 = CARTESIAN_POINT('',(4.328036862391,1.100193394327));
#360 = CARTESIAN_POINT('',(4.282846150258,1.119554573291));
#361 = CARTESIAN_POINT('',(4.237279993624,1.140644625715));
#362 = CARTESIAN_POINT('',(4.191294863313,1.163343724438));
#363 = CARTESIAN_POINT('',(4.160328251541,1.179455153053));
#364 = CARTESIAN_POINT('',(4.144759954271,1.187733049375));
#365 = ( GEOMETRIC_REPRESENTATION_CONTEXT(2) 
PARAMETRIC_REPRESENTATION_CONTEXT() REPRESENTATION_CONTEXT('2D SPACE',''
  ) );
#366 = ORIENTED_EDGE('',*,*,#367,.T.);
#367 = EDGE_CURVE('',#111,#368,#370,.T.);
#368 = VERTEX_POINT('',#369);
#369 = CARTESIAN_POINT('',(185.,-6.,17.869597085553));
#370 = SURFACE_CURVE('',#371,(#376,#382),.PCURVE_S1.);
#371 = CIRCLE('',#372,18.85);
#372 = AXIS2_PLACEMENT_3D('',#373,#374,#375);
#373 = CARTESIAN_POINT('',(185.,0.,0.));
#374 = DIRECTION('',(1.,0.,0.));
#375 = DIRECTION('',(-0.,0.,1.));
#376 = PCURVE('',#33,#377);
#377 = DEFINITIONAL_REPRESENTATION('',(#378),#381);
#378 = B_SPLINE_CURVE_WITH_KNOTS('',1,(#379,#380),.UNSPECIFIED.,.F.,.F.,
  (2,2),(0.209528599096,0.323938196583),.PIECEWISE_BEZIER_KNOTS.);
#379 = CARTESIAN_POINT('',(6.492713906275,-9.));
#380 = CARTESIAN_POINT('',(6.607123503762,-9.));
#381 = ( GEOMETRIC_REPRESENTATION_CONTEXT(2) 
PARAMETRIC_REPRESENTATION_CONTEXT() REPRESENTATION_CONTEXT('2D SPACE',''
  ) );
#382 = PCURVE('',#98,#383);
#383 = DEFINITIONAL_REPRESENTATION('',(#384),#388);
#384 = CIRCLE('',#385,18.85);
#385 = AXIS2_PLACEMENT_2D('',#386,#387);
#386 = CARTESIAN_POINT('',(0.,0.));
#387 = DIRECTION('',(1.,0.));
#388 = ( GEOMETRIC_REPRESENTATION_CONTEXT(2) 
PARAMETRIC_REPRESENTATION_CONTEXT() REPRESENTATION_CONTEXT('2D SPACE',''
  ) );
#389 = ORIENTED_EDGE('',*,*,#390,.T.);
#390 = EDGE_CURVE('',#368,#391,#393,.T.);
#391 = VERTEX_POINT('',#392);
#392 = CARTESIAN_POINT('',(194.,-6.,17.869597085553));
#393 = SURFACE_CURVE('',#394,(#398,#404),.PCURVE_S1.);
#394 = LINE('',#395,#396);
#395 = CARTESIAN_POINT('',(185.,-6.,17.869597085553));
#396 = VECTOR('',#397,1.);
#397 = DIRECTION('',(1.,0.,0.));
#398 = PCURVE('',#33,#399);
#399 = DEFINITIONAL_REPRESENTATION('',(#400),#403);
#400 = B_SPLINE_CURVE_WITH_KNOTS('',1,(#401,#402),.UNSPECIFIED.,.F.,.F.,
  (2,2),(0.,9.),.PIECEWISE_BEZIER_KNOTS.);
#401 = CARTESIAN_POINT('',(6.607123503762,-9.));
#402 = CARTESIAN_POINT('',(6.607123503762,0.));
#403 = ( GEOMETRIC_REPRESENTATION_CONTEXT(2) 
PARAMETRIC_REPRESENTATION_CONTEXT() REPRESENTATION_CONTEXT('2D SPACE',''
  ) );
#404 = PCURVE('',#405,#410);
#405 = PLANE('',#406);
#406 = AXIS2_PLACEMENT_3D('',#407,#408,#409);
#407 = CARTESIAN_POINT('',(185.,-6.,0.));
#408 = DIRECTION('',(-0.,1.,0.));
#409 = DIRECTION('',(0.,0.,1.));
#410 = DEFINITIONAL_REPRESENTATION('',(#411),#414);
#411 = B_SPLINE_CURVE_WITH_KNOTS('',1,(#412,#413),.UNSPECIFIED.,.F.,.F.,
  (2,2),(-5.999999928008E-07,9.0000006),.PIECEWISE_BEZIER_KNOTS.);
#412 = CARTESIAN_POINT('',(17.869597085553,-5.999999928008E-07));
#413 = CARTESIAN_POINT('',(17.869597085553,9.0000006));
#414 = ( GEOMETRIC_REPRESENTATION_CONTEXT(2) 
PARAMETRIC_REPRESENTATION_CONTEXT() REPRESENTATION_CONTEXT('2D SPACE',''
  ) );
#415 = ORIENTED_EDGE('',*,*,#416,.T.);
#416 = EDGE_CURVE('',#391,#417,#419,.T.);
#417 = VERTEX_POINT('',#418);
#418 = CARTESIAN_POINT('',(194.,-15.30759615354,11.));
#419 = SURFACE_CURVE('',#420,(#425,#431),.PCURVE_S1.);
#420 = CIRCLE('',#421,18.85);
#421 = AXIS2_PLACEMENT_3D('',#422,#423,#424);
#422 = CARTESIAN_POINT('',(194.,0.,0.));
#423 = DIRECTION('',(1.,0.,0.));
#424 = DIRECTION('',(-0.,0.,1.));
#425 = PCURVE('',#33,#426);
#426 = DEFINITIONAL_REPRESENTATION('',(#427),#430);
#427 = B_SPLINE_CURVE_WITH_KNOTS('',1,(#428,#429),.UNSPECIFIED.,.F.,.F.,
  (2,2),(0.323938196583,0.94769757198),.PIECEWISE_BEZIER_KNOTS.);
#428 = CARTESIAN_POINT('',(6.607123503762,0.));
#429 = CARTESIAN_POINT('',(7.23088287916,0.));
#430 = ( GEOMETRIC_REPRESENTATION_CONTEXT(2) 
PARAMETRIC_REPRESENTATION_CONTEXT() REPRESENTATION_CONTEXT('2D SPACE',''
  ) );
#431 = PCURVE('',#432,#437);
#432 = PLANE('',#433);
#433 = AXIS2_PLACEMENT_3D('',#434,#435,#436);
#434 = CARTESIAN_POINT('',(194.,0.,0.));
#435 = DIRECTION('',(1.,0.,0.));
#436 = DIRECTION('',(-0.,0.,1.));
#437 = DEFINITIONAL_REPRESENTATION('',(#438),#442);
#438 = CIRCLE('',#439,18.85);
#439 = AXIS2_PLACEMENT_2D('',#440,#441);
#440 = CARTESIAN_POINT('',(0.,0.));
#441 = DIRECTION('',(1.,0.));
#442 = ( GEOMETRIC_REPRESENTATION_CONTEXT(2) 
PARAMETRIC_REPRESENTATION_CONTEXT() REPRESENTATION_CONTEXT('2D SPACE',''
  ) );
#443 = ORIENTED_EDGE('',*,*,#444,.T.);
#444 = EDGE_CURVE('',#417,#445,#447,.T.);
#445 = VERTEX_POINT('',#446);
#446 = CARTESIAN_POINT('',(199.7,-15.30759615354,11.));
#447 = SURFACE_CURVE('',#448,(#452,#458),.PCURVE_S1.);
#448 = LINE('',#449,#450);
#449 = CARTESIAN_POINT('',(194.,-15.30759615354,11.));
#450 = VECTOR('',#451,1.);
#451 = DIRECTION('',(1.,0.,0.));
#452 = PCURVE('',#33,#453);
#453 = DEFINITIONAL_REPRESENTATION('',(#454),#457);
#454 = B_SPLINE_CURVE_WITH_KNOTS('',1,(#455,#456),.UNSPECIFIED.,.F.,.F.,
  (2,2),(0.,5.7),.PIECEWISE_BEZIER_KNOTS.);
#455 = CARTESIAN_POINT('',(7.23088287916,0.));
#456 = CARTESIAN_POINT('',(7.23088287916,5.7));
#457 = ( GEOMETRIC_REPRESENTATION_CONTEXT(2) 
PARAMETRIC_REPRESENTATION_CONTEXT() REPRESENTATION_CONTEXT('2D SPACE',''
  ) );
#458 = PCURVE('',#459,#464);
#459 = PLANE('',#460);
#460 = AXIS2_PLACEMENT_3D('',#461,#462,#463);
#461 = CARTESIAN_POINT('',(194.,-30.,11.));
#462 = DIRECTION('',(0.,0.,1.));
#463 = DIRECTION('',(1.,0.,-0.));
#464 = DEFINITIONAL_REPRESENTATION('',(#465),#468);
#465 = B_SPLINE_CURVE_WITH_KNOTS('',1,(#466,#467),.UNSPECIFIED.,.F.,.F.,
  (2,2),(-5.999999928008E-07,5.7000006),.PIECEWISE_BEZIER_KNOTS.);
#466 = CARTESIAN_POINT('',(-5.999999928008E-07,14.692403846456));
#467 = CARTESIAN_POINT('',(5.7000006,14.692403846456));
#468 = ( GEOMETRIC_REPRESENTATION_CONTEXT(2) 
PARAMETRIC_REPRESENTATION_CONTEXT() REPRESENTATION_CONTEXT('2D SPACE',''
  ) );
#469 = ORIENTED_EDGE('',*,*,#470,.T.);
#470 = EDGE_CURVE('',#445,#471,#473,.T.);
#471 = VERTEX_POINT('',#472);
#472 = CARTESIAN_POINT('',(199.7,15.307596153545,11.));
#473 = SURFACE_CURVE('',#474,(#479,#486),.PCURVE_S1.);
#474 = CIRCLE('',#475,18.85);
#475 = AXIS2_PLACEMENT_3D('',#476,#477,#478);
#476 = CARTESIAN_POINT('',(199.7,0.,0.));
#477 = DIRECTION('',(-1.,0.,0.));
#478 = DIRECTION('',(0.,-0.812074066501,0.583554376658));
#479 = PCURVE('',#33,#480);
#480 = DEFINITIONAL_REPRESENTATION('',(#481),#485);
#481 = LINE('',#482,#483);
#482 = CARTESIAN_POINT('',(7.23088287916,5.7));
#483 = VECTOR('',#484,1.);
#484 = DIRECTION('',(-1.,-0.));
#485 = ( GEOMETRIC_REPRESENTATION_CONTEXT(2) 
PARAMETRIC_REPRESENTATION_CONTEXT() REPRESENTATION_CONTEXT('2D SPACE',''
  ) );
#486 = PCURVE('',#487,#492);
#487 = PLANE('',#488);
#488 = AXIS2_PLACEMENT_3D('',#489,#490,#491);
#489 = CARTESIAN_POINT('',(199.7,0.,0.));
#490 = DIRECTION('',(1.,0.,0.));
#491 = DIRECTION('',(-0.,0.,1.));
#492 = DEFINITIONAL_REPRESENTATION('',(#493),#501);
#493 = ( BOUNDED_CURVE() B_SPLINE_CURVE(2,(#494,#495,#496,#497,#498,#499
,#500),.UNSPECIFIED.,.T.,.F.) B_SPLINE_CURVE_WITH_KNOTS((1,2,2,2,2,1),(
    -2.094395102393,0.,2.094395102393,4.188790204786,6.28318530718,
8.377580409573),.UNSPECIFIED.) CURVE() GEOMETRIC_REPRESENTATION_ITEM() 
RATIONAL_B_SPLINE_CURVE((1.,0.5,1.,0.5,1.,0.5,1.)) REPRESENTATION_ITEM(
  '') );
#494 = CARTESIAN_POINT('',(11.,15.307596153544));
#495 = CARTESIAN_POINT('',(37.513534279684,-3.744962729713));
#496 = CARTESIAN_POINT('',(7.756767139843,-17.1800775184));
#497 = CARTESIAN_POINT('',(-21.99999999999,-30.61519230708));
#498 = CARTESIAN_POINT('',(-18.75676713984,1.872481364856));
#499 = CARTESIAN_POINT('',(-15.51353427968,34.360155036801));
#500 = CARTESIAN_POINT('',(11.,15.307596153544));
#501 = ( GEOMETRIC_REPRESENTATION_CONTEXT(2) 
PARAMETRIC_REPRESENTATION_CONTEXT() REPRESENTATION_CONTEXT('2D SPACE',''
  ) );
#502 = ORIENTED_EDGE('',*,*,#503,.F.);
#503 = EDGE_CURVE('',#22,#471,#504,.T.);
#504 = SURFACE_CURVE('',#505,(#509,#515),.PCURVE_S1.);
#505 = LINE('',#506,#507);
#506 = CARTESIAN_POINT('',(194.,15.307596153544,11.));
#507 = VECTOR('',#508,1.);
#508 = DIRECTION('',(1.,0.,0.));
#509 = PCURVE('',#33,#510);
#510 = DEFINITIONAL_REPRESENTATION('',(#511),#514);
#511 = B_SPLINE_CURVE_WITH_KNOTS('',1,(#512,#513),.UNSPECIFIED.,.F.,.F.,
  (2,2),(0.,5.7),.PIECEWISE_BEZIER_KNOTS.);
#512 = CARTESIAN_POINT('',(5.335487735199,0.));
#513 = CARTESIAN_POINT('',(5.335487735199,5.7));
#514 = ( GEOMETRIC_REPRESENTATION_CONTEXT(2) 
PARAMETRIC_REPRESENTATION_CONTEXT() REPRESENTATION_CONTEXT('2D SPACE',''
  ) );
#515 = PCURVE('',#516,#521);
#516 = PLANE('',#517);
#517 = AXIS2_PLACEMENT_3D('',#518,#519,#520);
#518 = CARTESIAN_POINT('',(194.,-30.,11.));
#519 = DIRECTION('',(0.,0.,1.));
#520 = DIRECTION('',(1.,0.,-0.));
#521 = DEFINITIONAL_REPRESENTATION('',(#522),#525);
#522 = B_SPLINE_CURVE_WITH_KNOTS('',1,(#523,#524),.UNSPECIFIED.,.F.,.F.,
  (2,2),(-5.999999928008E-07,5.7000006),.PIECEWISE_BEZIER_KNOTS.);
#523 = CARTESIAN_POINT('',(-5.999999928008E-07,45.307596153544));
#524 = CARTESIAN_POINT('',(5.7000006,45.307596153544));
#525 = ( GEOMETRIC_REPRESENTATION_CONTEXT(2) 
PARAMETRIC_REPRESENTATION_CONTEXT() REPRESENTATION_CONTEXT('2D SPACE',''
  ) );
#526 = ADVANCED_FACE('',(#527),#516,.F.);
#527 = FACE_BOUND('',#528,.F.);
#528 = EDGE_LOOP('',(#529,#552,#578,#599));
#529 = ORIENTED_EDGE('',*,*,#530,.F.);
#530 = EDGE_CURVE('',#531,#22,#533,.T.);
#531 = VERTEX_POINT('',#532);
#532 = CARTESIAN_POINT('',(194.,11.341957503007,11.));
#533 = SURFACE_CURVE('',#534,(#538,#545),.PCURVE_S1.);
#534 = LINE('',#535,#536);
#535 = CARTESIAN_POINT('',(194.,-30.,11.));
#536 = VECTOR('',#537,1.);
#537 = DIRECTION('',(-0.,1.,0.));
#538 = PCURVE('',#516,#539);
#539 = DEFINITIONAL_REPRESENTATION('',(#540),#544);
#540 = LINE('',#541,#542);
#541 = CARTESIAN_POINT('',(0.,0.));
#542 = VECTOR('',#543,1.);
#543 = DIRECTION('',(0.,1.));
#544 = ( GEOMETRIC_REPRESENTATION_CONTEXT(2) 
PARAMETRIC_REPRESENTATION_CONTEXT() REPRESENTATION_CONTEXT('2D SPACE',''
  ) );
#545 = PCURVE('',#44,#546);
#546 = DEFINITIONAL_REPRESENTATION('',(#547),#551);
#547 = LINE('',#548,#549);
#548 = CARTESIAN_POINT('',(11.,30.));
#549 = VECTOR('',#550,1.);
#550 = DIRECTION('',(0.,-1.));
#551 = ( GEOMETRIC_REPRESENTATION_CONTEXT(2) 
PARAMETRIC_REPRESENTATION_CONTEXT() REPRESENTATION_CONTEXT('2D SPACE',''
  ) );
#552 = ORIENTED_EDGE('',*,*,#553,.T.);
#553 = EDGE_CURVE('',#531,#554,#556,.T.);
#554 = VERTEX_POINT('',#555);
#555 = CARTESIAN_POINT('',(199.7,11.341957503007,11.));
#556 = SURFACE_CURVE('',#557,(#561,#567),.PCURVE_S1.);
#557 = LINE('',#558,#559);
#558 = CARTESIAN_POINT('',(193.,11.341957503006,11.));
#559 = VECTOR('',#560,1.);
#560 = DIRECTION('',(1.,0.,0.));
#561 = PCURVE('',#516,#562);
#562 = DEFINITIONAL_REPRESENTATION('',(#563),#566);
#563 = B_SPLINE_CURVE_WITH_KNOTS('',1,(#564,#565),.UNSPECIFIED.,.F.,.F.,
  (2,2),(0.9999994,6.7000006),.PIECEWISE_BEZIER_KNOTS.);
#564 = CARTESIAN_POINT('',(-5.999999928008E-07,41.341957503006));
#565 = CARTESIAN_POINT('',(5.7000006,41.341957503006));
#566 = ( GEOMETRIC_REPRESENTATION_CONTEXT(2) 
PARAMETRIC_REPRESENTATION_CONTEXT() REPRESENTATION_CONTEXT('2D SPACE',''
  ) );
#567 = PCURVE('',#568,#573);
#568 = CYLINDRICAL_SURFACE('',#569,15.8);
#569 = AXIS2_PLACEMENT_3D('',#570,#571,#572);
#570 = CARTESIAN_POINT('',(193.,0.,0.));
#571 = DIRECTION('',(1.,0.,0.));
#572 = DIRECTION('',(-0.,0.,1.));
#573 = DEFINITIONAL_REPRESENTATION('',(#574),#577);
#574 = B_SPLINE_CURVE_WITH_KNOTS('',1,(#575,#576),.UNSPECIFIED.,.F.,.F.,
  (2,2),(1.,6.7),.PIECEWISE_BEZIER_KNOTS.);
#575 = CARTESIAN_POINT('',(5.482482719174,1.));
#576 = CARTESIAN_POINT('',(5.482482719174,6.7));
#577 = ( GEOMETRIC_REPRESENTATION_CONTEXT(2) 
PARAMETRIC_REPRESENTATION_CONTEXT() REPRESENTATION_CONTEXT('2D SPACE',''
  ) );
#578 = ORIENTED_EDGE('',*,*,#579,.T.);
#579 = EDGE_CURVE('',#554,#471,#580,.T.);
#580 = SURFACE_CURVE('',#581,(#585,#592),.PCURVE_S1.);
#581 = LINE('',#582,#583);
#582 = CARTESIAN_POINT('',(199.7,-30.,11.));
#583 = VECTOR('',#584,1.);
#584 = DIRECTION('',(-0.,1.,0.));
#585 = PCURVE('',#516,#586);
#586 = DEFINITIONAL_REPRESENTATION('',(#587),#591);
#587 = LINE('',#588,#589);
#588 = CARTESIAN_POINT('',(5.7,0.));
#589 = VECTOR('',#590,1.);
#590 = DIRECTION('',(0.,1.));
#591 = ( GEOMETRIC_REPRESENTATION_CONTEXT(2) 
PARAMETRIC_REPRESENTATION_CONTEXT() REPRESENTATION_CONTEXT('2D SPACE',''
  ) );
#592 = PCURVE('',#487,#593);
#593 = DEFINITIONAL_REPRESENTATION('',(#594),#598);
#594 = LINE('',#595,#596);
#595 = CARTESIAN_POINT('',(11.,30.));
#596 = VECTOR('',#597,1.);
#597 = DIRECTION('',(0.,-1.));
#598 = ( GEOMETRIC_REPRESENTATION_CONTEXT(2) 
PARAMETRIC_REPRESENTATION_CONTEXT() REPRESENTATION_CONTEXT('2D SPACE',''
  ) );
#599 = ORIENTED_EDGE('',*,*,#503,.F.);
#600 = ADVANCED_FACE('',(#601),#568,.F.);
#601 = FACE_BOUND('',#602,.F.);
#602 = EDGE_LOOP('',(#603,#626,#647,#670,#770,#802,#834,#926,#949,#970,
    #993,#1014,#1040));
#603 = ORIENTED_EDGE('',*,*,#604,.T.);
#604 = EDGE_CURVE('',#531,#605,#607,.T.);
#605 = VERTEX_POINT('',#606);
#606 = CARTESIAN_POINT('',(194.,6.,14.616429112475));
#607 = SURFACE_CURVE('',#608,(#613,#619),.PCURVE_S1.);
#608 = CIRCLE('',#609,15.8);
#609 = AXIS2_PLACEMENT_3D('',#610,#611,#612);
#610 = CARTESIAN_POINT('',(194.,0.,0.));
#611 = DIRECTION('',(1.,0.,0.));
#612 = DIRECTION('',(-0.,0.,1.));
#613 = PCURVE('',#568,#614);
#614 = DEFINITIONAL_REPRESENTATION('',(#615),#618);
#615 = B_SPLINE_CURVE_WITH_KNOTS('',1,(#616,#617),.UNSPECIFIED.,.F.,.F.,
  (2,2),(5.482482719174,5.893662690735),.PIECEWISE_BEZIER_KNOTS.);
#616 = CARTESIAN_POINT('',(5.482482719174,1.));
#617 = CARTESIAN_POINT('',(5.893662690735,1.));
#618 = ( GEOMETRIC_REPRESENTATION_CONTEXT(2) 
PARAMETRIC_REPRESENTATION_CONTEXT() REPRESENTATION_CONTEXT('2D SPACE',''
  ) );
#619 = PCURVE('',#44,#620);
#620 = DEFINITIONAL_REPRESENTATION('',(#621),#625);
#621 = CIRCLE('',#622,15.8);
#622 = AXIS2_PLACEMENT_2D('',#623,#624);
#623 = CARTESIAN_POINT('',(0.,0.));
#624 = DIRECTION('',(1.,0.));
#625 = ( GEOMETRIC_REPRESENTATION_CONTEXT(2) 
PARAMETRIC_REPRESENTATION_CONTEXT() REPRESENTATION_CONTEXT('2D SPACE',''
  ) );
#626 = ORIENTED_EDGE('',*,*,#627,.F.);
#627 = EDGE_CURVE('',#628,#605,#630,.T.);
#628 = VERTEX_POINT('',#629);
#629 = CARTESIAN_POINT('',(185.,6.,14.616429112475));
#630 = SURFACE_CURVE('',#631,(#635,#641),.PCURVE_S1.);
#631 = LINE('',#632,#633);
#632 = CARTESIAN_POINT('',(184.,6.,14.616429112475));
#633 = VECTOR('',#634,1.);
#634 = DIRECTION('',(1.,0.,0.));
#635 = PCURVE('',#568,#636);
#636 = DEFINITIONAL_REPRESENTATION('',(#637),#640);
#637 = B_SPLINE_CURVE_WITH_KNOTS('',1,(#638,#639),.UNSPECIFIED.,.F.,.F.,
  (2,2),(1.,10.),.PIECEWISE_BEZIER_KNOTS.);
#638 = CARTESIAN_POINT('',(5.893662690735,-8.));
#639 = CARTESIAN_POINT('',(5.893662690735,1.));
#640 = ( GEOMETRIC_REPRESENTATION_CONTEXT(2) 
PARAMETRIC_REPRESENTATION_CONTEXT() REPRESENTATION_CONTEXT('2D SPACE',''
  ) );
#641 = PCURVE('',#71,#642);
#642 = DEFINITIONAL_REPRESENTATION('',(#643),#646);
#643 = B_SPLINE_CURVE_WITH_KNOTS('',1,(#644,#645),.UNSPECIFIED.,.F.,.F.,
  (2,2),(0.9999994,10.0000006),.PIECEWISE_BEZIER_KNOTS.);
#644 = CARTESIAN_POINT('',(14.616429112475,-5.999999928008E-07));
#645 = CARTESIAN_POINT('',(14.616429112475,9.0000006));
#646 = ( GEOMETRIC_REPRESENTATION_CONTEXT(2) 
PARAMETRIC_REPRESENTATION_CONTEXT() REPRESENTATION_CONTEXT('2D SPACE',''
  ) );
#647 = ORIENTED_EDGE('',*,*,#648,.T.);
#648 = EDGE_CURVE('',#628,#649,#651,.T.);
#649 = VERTEX_POINT('',#650);
#650 = CARTESIAN_POINT('',(185.,0.714142842861,15.78385250818));
#651 = SURFACE_CURVE('',#652,(#657,#663),.PCURVE_S1.);
#652 = CIRCLE('',#653,15.8);
#653 = AXIS2_PLACEMENT_3D('',#654,#655,#656);
#654 = CARTESIAN_POINT('',(185.,0.,0.));
#655 = DIRECTION('',(1.,0.,0.));
#656 = DIRECTION('',(-0.,0.,1.));
#657 = PCURVE('',#568,#658);
#658 = DEFINITIONAL_REPRESENTATION('',(#659),#662);
#659 = B_SPLINE_CURVE_WITH_KNOTS('',1,(#660,#661),.UNSPECIFIED.,.F.,.F.,
  (2,2),(5.893662690735,6.237970989117),.PIECEWISE_BEZIER_KNOTS.);
#660 = CARTESIAN_POINT('',(5.893662690735,-8.));
#661 = CARTESIAN_POINT('',(6.237970989117,-8.));
#662 = ( GEOMETRIC_REPRESENTATION_CONTEXT(2) 
PARAMETRIC_REPRESENTATION_CONTEXT() REPRESENTATION_CONTEXT('2D SPACE',''
  ) );
#663 = PCURVE('',#98,#664);
#664 = DEFINITIONAL_REPRESENTATION('',(#665),#669);
#665 = CIRCLE('',#666,15.8);
#666 = AXIS2_PLACEMENT_2D('',#667,#668);
#667 = CARTESIAN_POINT('',(0.,0.));
#668 = DIRECTION('',(1.,0.));
#669 = ( GEOMETRIC_REPRESENTATION_CONTEXT(2) 
PARAMETRIC_REPRESENTATION_CONTEXT() REPRESENTATION_CONTEXT('2D SPACE',''
  ) );
#670 = ORIENTED_EDGE('',*,*,#671,.F.);
#671 = EDGE_CURVE('',#672,#649,#674,.T.);
#672 = VERTEX_POINT('',#673);
#673 = CARTESIAN_POINT('',(189.17124778518,1.991715552109,
    15.673961501787));
#674 = SURFACE_CURVE('',#675,(#703,#734),.PCURVE_S1.);
#675 = B_SPLINE_CURVE_WITH_KNOTS('',6,(#676,#677,#678,#679,#680,#681,
    #682,#683,#684,#685,#686,#687,#688,#689,#690,#691,#692,#693,#694,
    #695,#696,#697,#698,#699,#700,#701,#702),.UNSPECIFIED.,.F.,.F.,(7,5,
    5,5,5,7),(0.,9.882278167425E-02,0.366715448791,0.634607989119,
    0.837080128796,1.),.UNSPECIFIED.);
#676 = CARTESIAN_POINT('',(189.17124778518,1.991715552109,
    15.673961501787));
#677 = CARTESIAN_POINT('',(189.10439491339,2.047811772168,
    15.666833264685));
#678 = CARTESIAN_POINT('',(189.03603237473,2.100586161524,15.65988233048
    ));
#679 = CARTESIAN_POINT('',(188.9663273905,2.150091044614,15.653155907518
    ));
#680 = CARTESIAN_POINT('',(188.89542978715,2.196377374643,
    15.646694770398));
#681 = CARTESIAN_POINT('',(188.82347228704,2.239494439027,
    15.640533823054));
#682 = CARTESIAN_POINT('',(188.55294659059,2.387909918365,
    15.618895321592));
#683 = CARTESIAN_POINT('',(188.34835376682,2.4734055905,15.605508889508)
  );
#684 = CARTESIAN_POINT('',(188.13915161128,2.536866829638,
    15.595140214283));
#685 = CARTESIAN_POINT('',(187.92708370433,2.578947286941,
    15.588120082499));
#686 = CARTESIAN_POINT('',(187.71357360938,2.6,15.584607791023));
#687 = CARTESIAN_POINT('',(187.28642649169,2.6,15.584607791023));
#688 = CARTESIAN_POINT('',(187.07291651385,2.578947307065,
    15.588120079142));
#689 = CARTESIAN_POINT('',(186.8608486909,2.536866894574,15.595140203452
    ));
#690 = CARTESIAN_POINT('',(186.65164654913,2.473405705272,
    15.605508870764));
#691 = CARTESIAN_POINT('',(186.44705362496,2.387910036626,15.61889530435
    ));
#692 = CARTESIAN_POINT('',(186.10006542994,2.1975457941,15.646649801109)
  );
#693 = CARTESIAN_POINT('',(185.95461934632,2.102471794489,
    15.659985004766));
#694 = CARTESIAN_POINT('',(185.81413562126,1.99387292777,15.674451019081
    ));
#695 = CARTESIAN_POINT('',(185.67991241031,1.871305487999,
    15.689700652793));
#696 = CARTESIAN_POINT('',(185.55359491205,1.734362546,15.705260164471)
  );
#697 = CARTESIAN_POINT('',(185.34368919811,1.460808093679,
    15.732802280523));
#698 = CARTESIAN_POINT('',(185.25636442669,1.329083642681,
    15.744917198324));
#699 = CARTESIAN_POINT('',(185.17686404782,1.187922728324,
    15.756496248592));
#700 = CARTESIAN_POINT('',(185.10668463104,1.03785255683,15.767120122353
    ));
#701 = CARTESIAN_POINT('',(185.04726673936,0.879610053662,
    15.776365940754));
#702 = CARTESIAN_POINT('',(184.9999994,0.714140742431,15.783852603214));
#703 = PCURVE('',#568,#704);
#704 = DEFINITIONAL_REPRESENTATION('',(#705),#733);
#705 = B_SPLINE_CURVE_WITH_KNOTS('',6,(#706,#707,#708,#709,#710,#711,
    #712,#713,#714,#715,#716,#717,#718,#719,#720,#721,#722,#723,#724,
    #725,#726,#727,#728,#729,#730,#731,#732),.UNSPECIFIED.,.F.,.F.,(7,5,
    5,5,5,7),(0.,9.882278167425E-02,0.366715448791,0.634607989119,
    0.837080128796,0.999999655322),.UNSPECIFIED.);
#706 = CARTESIAN_POINT('',(6.156791094496,-3.828752214815));
#707 = CARTESIAN_POINT('',(6.153212151161,-3.895605086601));
#708 = CARTESIAN_POINT('',(6.149843187604,-3.963967625263));
#709 = CARTESIAN_POINT('',(6.14668121331,-4.033672609497));
#710 = CARTESIAN_POINT('',(6.143723319107,-4.104570212846));
#711 = CARTESIAN_POINT('',(6.140966684491,-4.176527712951));
#712 = CARTESIAN_POINT('',(6.131473988496,-4.447053409401));
#713 = CARTESIAN_POINT('',(6.125997245807,-4.651646233174));
#714 = CARTESIAN_POINT('',(6.121927462527,-4.860848388712));
#715 = CARTESIAN_POINT('',(6.119227341329,-5.072916295665));
#716 = CARTESIAN_POINT('',(6.117876473842,-5.286426390612));
#717 = CARTESIAN_POINT('',(6.117876473842,-5.713573508308));
#718 = CARTESIAN_POINT('',(6.119227340038,-5.927083486145));
#719 = CARTESIAN_POINT('',(6.12192745836,-6.139151309094));
#720 = CARTESIAN_POINT('',(6.125997238447,-6.348353450868));
#721 = CARTESIAN_POINT('',(6.131473980932,-6.552946375038));
#722 = CARTESIAN_POINT('',(6.143649731673,-6.899934570057));
#723 = CARTESIAN_POINT('',(6.149725885919,-7.045380653679));
#724 = CARTESIAN_POINT('',(6.156659674217,-7.185864378737));
#725 = CARTESIAN_POINT('',(6.16447638594,-7.320087589688));
#726 = CARTESIAN_POINT('',(6.173198713195,-7.446405087941));
#727 = CARTESIAN_POINT('',(6.190599801801,-7.656310603883));
#728 = CARTESIAN_POINT('',(6.198971656236,-7.743635203812));
#729 = CARTESIAN_POINT('',(6.207935160749,-7.823135447599));
#730 = CARTESIAN_POINT('',(6.217456032785,-7.893314775064));
#731 = CARTESIAN_POINT('',(6.227487560903,-7.952732632104));
#732 = CARTESIAN_POINT('',(6.237970989117,-7.999999999998));
#733 = ( GEOMETRIC_REPRESENTATION_CONTEXT(2) 
PARAMETRIC_REPRESENTATION_CONTEXT() REPRESENTATION_CONTEXT('2D SPACE',''
  ) );
#734 = PCURVE('',#735,#740);
#735 = CYLINDRICAL_SURFACE('',#736,2.6);
#736 = AXIS2_PLACEMENT_3D('',#737,#738,#739);
#737 = CARTESIAN_POINT('',(187.5,0.,12.5));
#738 = DIRECTION('',(0.,0.,1.));
#739 = DIRECTION('',(1.,0.,-0.));
#740 = DEFINITIONAL_REPRESENTATION('',(#741),#769);
#741 = B_SPLINE_CURVE_WITH_KNOTS('',6,(#742,#743,#744,#745,#746,#747,
    #748,#749,#750,#751,#752,#753,#754,#755,#756,#757,#758,#759,#760,
    #761,#762,#763,#764,#765,#766,#767,#768),.UNSPECIFIED.,.F.,.F.,(7,5,
    5,5,5,7),(0.,9.882278167425E-02,0.366715448791,0.634607989119,
    0.837080128796,1.),.UNSPECIFIED.);
#742 = CARTESIAN_POINT('',(0.872664625997,3.173961501787));
#743 = CARTESIAN_POINT('',(0.90623009759,3.166833264685));
#744 = CARTESIAN_POINT('',(0.939419130953,3.15988233048));
#745 = CARTESIAN_POINT('',(0.972263422156,3.153155907518));
#746 = CARTESIAN_POINT('',(1.004791952851,3.146694770398));
#747 = CARTESIAN_POINT('',(1.037032670207,3.140533823054));
#748 = CARTESIAN_POINT('',(1.155710860545,3.118895321592));
#749 = CARTESIAN_POINT('',(1.24051664761,3.105508889508));
#750 = CARTESIAN_POINT('',(1.323971997344,3.095140214283));
#751 = CARTESIAN_POINT('',(1.406533119225,3.088120082499));
#752 = CARTESIAN_POINT('',(1.488652630876,3.084607791023));
#753 = CARTESIAN_POINT('',(1.652939983836,3.084607791023));
#754 = CARTESIAN_POINT('',(1.735059450445,3.088120079142));
#755 = CARTESIAN_POINT('',(1.817620538579,3.095140203452));
#756 = CARTESIAN_POINT('',(1.90107587818,3.105508870764));
#757 = CARTESIAN_POINT('',(1.985881698479,3.11889530435));
#758 = CARTESIAN_POINT('',(2.138103581997,3.146649801109));
#759 = CARTESIAN_POINT('',(2.204736738645,3.159985004766));
#760 = CARTESIAN_POINT('',(2.272704573099,3.174451019081));
#761 = CARTESIAN_POINT('',(2.342245134586,3.189700652793));
#762 = CARTESIAN_POINT('',(2.413607270099,3.205260164471));
#763 = CARTESIAN_POINT('',(2.546225670438,3.232802280523));
#764 = CARTESIAN_POINT('',(2.606865395082,3.244917198324));
#765 = CARTESIAN_POINT('',(2.668925686976,3.256496248592));
#766 = CARTESIAN_POINT('',(2.732359983686,3.267120122353));
#767 = CARTESIAN_POINT('',(2.797158962417,3.276365940754));
#768 = CARTESIAN_POINT('',(2.863346671024,3.283852603214));
#769 = ( GEOMETRIC_REPRESENTATION_CONTEXT(2) 
PARAMETRIC_REPRESENTATION_CONTEXT() REPRESENTATION_CONTEXT('2D SPACE',''
  ) );
#770 = ORIENTED_EDGE('',*,*,#771,.F.);
#771 = EDGE_CURVE('',#772,#672,#774,.T.);
#772 = VERTEX_POINT('',#773);
#773 = CARTESIAN_POINT('',(191.54488194983,1.934941942653E-15,15.8));
#774 = SURFACE_CURVE('',#775,(#780,#790),.PCURVE_S1.);
#775 = ELLIPSE('',#776,24.580436464394,15.8);
#776 = AXIS2_PLACEMENT_3D('',#777,#778,#779);
#777 = CARTESIAN_POINT('',(191.54488194983,0.,0.));
#778 = DIRECTION('',(-0.642787609687,-0.766044443119,0.));
#779 = DIRECTION('',(0.766044443119,-0.642787609687,0.));
#780 = PCURVE('',#568,#781);
#781 = DEFINITIONAL_REPRESENTATION('',(#782),#789);
#782 = B_SPLINE_CURVE_WITH_KNOTS('',5,(#783,#784,#785,#786,#787,#788),
  .UNSPECIFIED.,.F.,.F.,(6,6),(1.570796326795,1.697190539478),
  .PIECEWISE_BEZIER_KNOTS.);
#783 = CARTESIAN_POINT('',(6.28318530718,-1.455118050163));
#784 = CARTESIAN_POINT('',(6.257906464643,-1.931111242437));
#785 = CARTESIAN_POINT('',(6.232627622106,-2.407104434921));
#786 = CARTESIAN_POINT('',(6.20734877957,-2.882463940784));
#787 = CARTESIAN_POINT('',(6.182069937033,-3.356556077467));
#788 = CARTESIAN_POINT('',(6.156791094496,-3.828752214828));
#789 = ( GEOMETRIC_REPRESENTATION_CONTEXT(2) 
PARAMETRIC_REPRESENTATION_CONTEXT() REPRESENTATION_CONTEXT('2D SPACE',''
  ) );
#790 = PCURVE('',#791,#796);
#791 = PLANE('',#792);
#792 = AXIS2_PLACEMENT_3D('',#793,#794,#795);
#793 = CARTESIAN_POINT('',(191.54488194983,0.,12.5));
#794 = DIRECTION('',(-0.642787609687,-0.766044443119,0.));
#795 = DIRECTION('',(-0.766044443119,0.642787609687,0.));
#796 = DEFINITIONAL_REPRESENTATION('',(#797),#801);
#797 = ELLIPSE('',#798,24.580436464394,15.8);
#798 = AXIS2_PLACEMENT_2D('',#799,#800);
#799 = CARTESIAN_POINT('',(0.,12.5));
#800 = DIRECTION('',(-1.,-0.));
#801 = ( GEOMETRIC_REPRESENTATION_CONTEXT(2) 
PARAMETRIC_REPRESENTATION_CONTEXT() REPRESENTATION_CONTEXT('2D SPACE',''
  ) );
#802 = ORIENTED_EDGE('',*,*,#803,.F.);
#803 = EDGE_CURVE('',#804,#772,#806,.T.);
#804 = VERTEX_POINT('',#805);
#805 = CARTESIAN_POINT('',(189.17124778518,-1.991715552109,
    15.673961501787));
#806 = SURFACE_CURVE('',#807,(#812,#822),.PCURVE_S1.);
#807 = ELLIPSE('',#808,24.580436464394,15.8);
#808 = AXIS2_PLACEMENT_3D('',#809,#810,#811);
#809 = CARTESIAN_POINT('',(191.54488194983,0.,0.));
#810 = DIRECTION('',(-0.642787609687,0.766044443119,0.));
#811 = DIRECTION('',(0.766044443119,0.642787609687,0.));
#812 = PCURVE('',#568,#813);
#813 = DEFINITIONAL_REPRESENTATION('',(#814),#821);
#814 = B_SPLINE_CURVE_WITH_KNOTS('',5,(#815,#816,#817,#818,#819,#820),
  .UNSPECIFIED.,.F.,.F.,(6,6),(4.585994767701,4.712388980385),
  .PIECEWISE_BEZIER_KNOTS.);
#815 = CARTESIAN_POINT('',(6.409579519863,-3.828752214828));
#816 = CARTESIAN_POINT('',(6.384300677326,-3.356556077467));
#817 = CARTESIAN_POINT('',(6.35902183479,-2.882463940784));
#818 = CARTESIAN_POINT('',(6.333742992253,-2.407104434921));
#819 = CARTESIAN_POINT('',(6.308464149716,-1.931111242437));
#820 = CARTESIAN_POINT('',(6.28318530718,-1.455118050163));
#821 = ( GEOMETRIC_REPRESENTATION_CONTEXT(2) 
PARAMETRIC_REPRESENTATION_CONTEXT() REPRESENTATION_CONTEXT('2D SPACE',''
  ) );
#822 = PCURVE('',#823,#828);
#823 = PLANE('',#824);
#824 = AXIS2_PLACEMENT_3D('',#825,#826,#827);
#825 = CARTESIAN_POINT('',(189.17124778518,-1.991715552109,12.5));
#826 = DIRECTION('',(-0.642787609687,0.766044443119,0.));
#827 = DIRECTION('',(0.766044443119,0.642787609687,0.));
#828 = DEFINITIONAL_REPRESENTATION('',(#829),#833);
#829 = ELLIPSE('',#830,24.580436464394,15.8);
#830 = AXIS2_PLACEMENT_2D('',#831,#832);
#831 = CARTESIAN_POINT('',(3.098559340745,12.5));
#832 = DIRECTION('',(1.,0.));
#833 = ( GEOMETRIC_REPRESENTATION_CONTEXT(2) 
PARAMETRIC_REPRESENTATION_CONTEXT() REPRESENTATION_CONTEXT('2D SPACE',''
  ) );
#834 = ORIENTED_EDGE('',*,*,#835,.F.);
#835 = EDGE_CURVE('',#836,#804,#838,.T.);
#836 = VERTEX_POINT('',#837);
#837 = CARTESIAN_POINT('',(185.,-0.714142842861,15.78385250818));
#838 = SURFACE_CURVE('',#839,(#866,#896),.PCURVE_S1.);
#839 = B_SPLINE_CURVE_WITH_KNOTS('',7,(#840,#841,#842,#843,#844,#845,
    #846,#847,#848,#849,#850,#851,#852,#853,#854,#855,#856,#857,#858,
    #859,#860,#861,#862,#863,#864,#865),.UNSPECIFIED.,.F.,.F.,(8,6,6,6,8
    ),(0.,0.276887560389,0.633113756531,0.901131192435,1.),
  .UNSPECIFIED.);
#840 = CARTESIAN_POINT('',(184.9999994,-0.714140742431,15.783852603214)
  );
#841 = CARTESIAN_POINT('',(185.06914201411,-0.95618907618,
    15.772901121272));
#842 = CARTESIAN_POINT('',(185.16322631755,-1.182029571091,
    15.758343276336));
#843 = CARTESIAN_POINT('',(185.27804742622,-1.389866269595,
    15.74129554235));
#844 = CARTESIAN_POINT('',(185.40980100218,-1.578641416477,
    15.722922936237));
#845 = CARTESIAN_POINT('',(185.55496871247,-1.747843890233,
    15.704277032306));
#846 = CARTESIAN_POINT('',(185.71025840085,-1.897407572569,
    15.686207470496));
#847 = CARTESIAN_POINT('',(186.08145618559,-2.195325291579,
    15.647655279523));
#848 = CARTESIAN_POINT('',(186.30368400435,-2.332417636139,
    15.627787647946));
#849 = CARTESIAN_POINT('',(186.53500108369,-2.440352704389,
    15.610948641416));
#850 = CARTESIAN_POINT('',(186.77238834321,-2.520382505487,
    15.59789053566));
#851 = CARTESIAN_POINT('',(187.0135734241,-2.573435986207,
    15.589039485853));
#852 = CARTESIAN_POINT('',(187.25668795828,-2.6,15.584607791023));
#853 = CARTESIAN_POINT('',(187.68306309376,-2.6,15.584607791023));
#854 = CARTESIAN_POINT('',(187.86608082006,-2.584962347815,
    15.587116570649));
#855 = CARTESIAN_POINT('',(188.04826536545,-2.55490131134,
    15.592131586376));
#856 = CARTESIAN_POINT('',(188.22880967794,-2.509669155722,
    15.599583932236));
#857 = CARTESIAN_POINT('',(188.40680885933,-2.448978255604,
    15.609333584389));
#858 = CARTESIAN_POINT('',(188.58117862039,-2.372421296433,
    15.621153513054));
#859 = CARTESIAN_POINT('',(188.81305778878,-2.245208028429,
    15.639700800022));
#860 = CARTESIAN_POINT('',(188.8748705014,-2.208696535896,
    15.644934499728));
#861 = CARTESIAN_POINT('',(188.93594270335,-2.169928043198,
    15.650386848752));
#862 = CARTESIAN_POINT('',(188.99620095517,-2.128874666147,
    15.656038660216));
#863 = CARTESIAN_POINT('',(189.05556452864,-2.085507764565,
    15.661868311681));
#864 = CARTESIAN_POINT('',(189.11394532365,-2.039798026446,
    15.667851584271));
#865 = CARTESIAN_POINT('',(189.17124778518,-1.991715552109,
    15.673961501787));
#866 = PCURVE('',#568,#867);
#867 = DEFINITIONAL_REPRESENTATION('',(#868),#895);
#868 = B_SPLINE_CURVE_WITH_KNOTS('',7,(#869,#870,#871,#872,#873,#874,
    #875,#876,#877,#878,#879,#880,#881,#882,#883,#884,#885,#886,#887,
    #888,#889,#890,#891,#892,#893,#894),.UNSPECIFIED.,.F.,.F.,(8,6,6,6,8
    ),(3.432507737704E-07,0.276887560389,0.633113756531,0.901131192435,
    1.),.UNSPECIFIED.);
#869 = CARTESIAN_POINT('',(6.328399625242,-7.999999999998));
#870 = CARTESIAN_POINT('',(6.343734785844,-7.930857286082));
#871 = CARTESIAN_POINT('',(6.358055487145,-7.836772970737));
#872 = CARTESIAN_POINT('',(6.371250951638,-7.72195192045));
#873 = CARTESIAN_POINT('',(6.38325315748,-7.590198457938));
#874 = CARTESIAN_POINT('',(6.394026040505,-7.445030902504));
#875 = CARTESIAN_POINT('',(6.403560562477,-7.289741397897));
#876 = CARTESIAN_POINT('',(6.422573324035,-6.918543814403));
#877 = CARTESIAN_POINT('',(6.431339680598,-6.696315995649));
#878 = CARTESIAN_POINT('',(6.438253295721,-6.464998916304));
#879 = CARTESIAN_POINT('',(6.443385410434,-6.227611656788));
#880 = CARTESIAN_POINT('',(6.44678963817,-5.986426575892));
#881 = CARTESIAN_POINT('',(6.448494140517,-5.743312041713));
#882 = CARTESIAN_POINT('',(6.448494140517,-5.316936906239));
#883 = CARTESIAN_POINT('',(6.447529235169,-5.133919179936));
#884 = CARTESIAN_POINT('',(6.445600346631,-4.951734634549));
#885 = CARTESIAN_POINT('',(6.442698958998,-4.771190322053));
#886 = CARTESIAN_POINT('',(6.438808584927,-4.593191140667));
#887 = CARTESIAN_POINT('',(6.433905969228,-4.418821379603));
#888 = CARTESIAN_POINT('',(6.425769372661,-4.186942211217));
#889 = CARTESIAN_POINT('',(6.423434905142,-4.125129498591));
#890 = CARTESIAN_POINT('',(6.420957069993,-4.064057296647));
#891 = CARTESIAN_POINT('',(6.418334269209,-4.003799044825));
#892 = CARTESIAN_POINT('',(6.415564865739,-3.944435471359));
#893 = CARTESIAN_POINT('',(6.412647185579,-3.886054676346));
#894 = CARTESIAN_POINT('',(6.409579519863,-3.828752214815));
#895 = ( GEOMETRIC_REPRESENTATION_CONTEXT(2) 
PARAMETRIC_REPRESENTATION_CONTEXT() REPRESENTATION_CONTEXT('2D SPACE',''
  ) );
#896 = PCURVE('',#735,#897);
#897 = DEFINITIONAL_REPRESENTATION('',(#898),#925);
#898 = B_SPLINE_CURVE_WITH_KNOTS('',7,(#899,#900,#901,#902,#903,#904,
    #905,#906,#907,#908,#909,#910,#911,#912,#913,#914,#915,#916,#917,
    #918,#919,#920,#921,#922,#923,#924),.UNSPECIFIED.,.F.,.F.,(8,6,6,6,8
    ),(0.,0.276887560389,0.633113756531,0.901131192435,1.),
  .UNSPECIFIED.);
#899 = CARTESIAN_POINT('',(3.419838636155,3.283852603214));
#900 = CARTESIAN_POINT('',(3.516657946418,3.272901121272));
#901 = CARTESIAN_POINT('',(3.61011870284,3.258343276336));
#902 = CARTESIAN_POINT('',(3.700591532022,3.24129554235));
#903 = CARTESIAN_POINT('',(3.788311754158,3.222922936237));
#904 = CARTESIAN_POINT('',(3.873426037045,3.204277032306));
#905 = CARTESIAN_POINT('',(3.956012446795,3.186207470496));
#906 = CARTESIAN_POINT('',(4.139075941252,3.147655279523));
#907 = CARTESIAN_POINT('',(4.238738069932,3.127787647946));
#908 = CARTESIAN_POINT('',(4.335891577695,3.110948641416));
#909 = CARTESIAN_POINT('',(4.431199367124,3.09789053566));
#910 = CARTESIAN_POINT('',(4.525301944391,3.089039485853));
#911 = CARTESIAN_POINT('',(4.61880742588,3.084607791023));
#912 = CARTESIAN_POINT('',(4.782797862601,3.084607791023));
#913 = CARTESIAN_POINT('',(4.85318947034,3.087116570649));
#914 = CARTESIAN_POINT('',(4.923829971886,3.092131586376));
#915 = CARTESIAN_POINT('',(4.994979888293,3.099583932236));
#916 = CARTESIAN_POINT('',(5.066898884445,3.109333584389));
#917 = CARTESIAN_POINT('',(5.139859688592,3.121153513054));
#918 = CARTESIAN_POINT('',(5.241583851739,3.139700800022));
#919 = CARTESIAN_POINT('',(5.269181720799,3.144934499728));
#920 = CARTESIAN_POINT('',(5.296981086154,3.150386848752));
#921 = CARTESIAN_POINT('',(5.324998009825,3.156038660216));
#922 = CARTESIAN_POINT('',(5.353248757187,3.161868311681));
#923 = CARTESIAN_POINT('',(5.38175027696,3.167851584271));
#924 = CARTESIAN_POINT('',(5.410520681182,3.173961501787));
#925 = ( GEOMETRIC_REPRESENTATION_CONTEXT(2) 
PARAMETRIC_REPRESENTATION_CONTEXT() REPRESENTATION_CONTEXT('2D SPACE',''
  ) );
#926 = ORIENTED_EDGE('',*,*,#927,.T.);
#927 = EDGE_CURVE('',#836,#928,#930,.T.);
#928 = VERTEX_POINT('',#929);
#929 = CARTESIAN_POINT('',(185.,-6.,14.616429112475));
#930 = SURFACE_CURVE('',#931,(#936,#942),.PCURVE_S1.);
#931 = CIRCLE('',#932,15.8);
#932 = AXIS2_PLACEMENT_3D('',#933,#934,#935);
#933 = CARTESIAN_POINT('',(185.,0.,0.));
#934 = DIRECTION('',(1.,0.,0.));
#935 = DIRECTION('',(-0.,0.,1.));
#936 = PCURVE('',#568,#937);
#937 = DEFINITIONAL_REPRESENTATION('',(#938),#941);
#938 = B_SPLINE_CURVE_WITH_KNOTS('',1,(#939,#940),.UNSPECIFIED.,.F.,.F.,
  (2,2),(4.521431806264E-02,0.389522616445),.PIECEWISE_BEZIER_KNOTS.);
#939 = CARTESIAN_POINT('',(6.328399625242,-8.));
#940 = CARTESIAN_POINT('',(6.672707923624,-8.));
#941 = ( GEOMETRIC_REPRESENTATION_CONTEXT(2) 
PARAMETRIC_REPRESENTATION_CONTEXT() REPRESENTATION_CONTEXT('2D SPACE',''
  ) );
#942 = PCURVE('',#98,#943);
#943 = DEFINITIONAL_REPRESENTATION('',(#944),#948);
#944 = CIRCLE('',#945,15.8);
#945 = AXIS2_PLACEMENT_2D('',#946,#947);
#946 = CARTESIAN_POINT('',(0.,0.));
#947 = DIRECTION('',(1.,0.));
#948 = ( GEOMETRIC_REPRESENTATION_CONTEXT(2) 
PARAMETRIC_REPRESENTATION_CONTEXT() REPRESENTATION_CONTEXT('2D SPACE',''
  ) );
#949 = ORIENTED_EDGE('',*,*,#950,.T.);
#950 = EDGE_CURVE('',#928,#951,#953,.T.);
#951 = VERTEX_POINT('',#952);
#952 = CARTESIAN_POINT('',(194.,-6.,14.616429112475));
#953 = SURFACE_CURVE('',#954,(#958,#964),.PCURVE_S1.);
#954 = LINE('',#955,#956);
#955 = CARTESIAN_POINT('',(184.,-6.,14.616429112475));
#956 = VECTOR('',#957,1.);
#957 = DIRECTION('',(1.,0.,0.));
#958 = PCURVE('',#568,#959);
#959 = DEFINITIONAL_REPRESENTATION('',(#960),#963);
#960 = B_SPLINE_CURVE_WITH_KNOTS('',1,(#961,#962),.UNSPECIFIED.,.F.,.F.,
  (2,2),(1.,10.),.PIECEWISE_BEZIER_KNOTS.);
#961 = CARTESIAN_POINT('',(6.672707923624,-8.));
#962 = CARTESIAN_POINT('',(6.672707923624,1.));
#963 = ( GEOMETRIC_REPRESENTATION_CONTEXT(2) 
PARAMETRIC_REPRESENTATION_CONTEXT() REPRESENTATION_CONTEXT('2D SPACE',''
  ) );
#964 = PCURVE('',#405,#965);
#965 = DEFINITIONAL_REPRESENTATION('',(#966),#969);
#966 = B_SPLINE_CURVE_WITH_KNOTS('',1,(#967,#968),.UNSPECIFIED.,.F.,.F.,
  (2,2),(0.9999994,10.0000006),.PIECEWISE_BEZIER_KNOTS.);
#967 = CARTESIAN_POINT('',(14.616429112475,-5.999999928008E-07));
#968 = CARTESIAN_POINT('',(14.616429112475,9.0000006));
#969 = ( GEOMETRIC_REPRESENTATION_CONTEXT(2) 
PARAMETRIC_REPRESENTATION_CONTEXT() REPRESENTATION_CONTEXT('2D SPACE',''
  ) );
#970 = ORIENTED_EDGE('',*,*,#971,.T.);
#971 = EDGE_CURVE('',#951,#972,#974,.T.);
#972 = VERTEX_POINT('',#973);
#973 = CARTESIAN_POINT('',(194.,-11.341957503,11.));
#974 = SURFACE_CURVE('',#975,(#980,#986),.PCURVE_S1.);
#975 = CIRCLE('',#976,15.8);
#976 = AXIS2_PLACEMENT_3D('',#977,#978,#979);
#977 = CARTESIAN_POINT('',(194.,0.,0.));
#978 = DIRECTION('',(1.,0.,0.));
#979 = DIRECTION('',(-0.,0.,1.));
#980 = PCURVE('',#568,#981);
#981 = DEFINITIONAL_REPRESENTATION('',(#982),#985);
#982 = B_SPLINE_CURVE_WITH_KNOTS('',1,(#983,#984),.UNSPECIFIED.,.F.,.F.,
  (2,2),(0.389522616445,0.800702588006),.PIECEWISE_BEZIER_KNOTS.);
#983 = CARTESIAN_POINT('',(6.672707923624,1.));
#984 = CARTESIAN_POINT('',(7.083887895186,1.));
#985 = ( GEOMETRIC_REPRESENTATION_CONTEXT(2) 
PARAMETRIC_REPRESENTATION_CONTEXT() REPRESENTATION_CONTEXT('2D SPACE',''
  ) );
#986 = PCURVE('',#432,#987);
#987 = DEFINITIONAL_REPRESENTATION('',(#988),#992);
#988 = CIRCLE('',#989,15.8);
#989 = AXIS2_PLACEMENT_2D('',#990,#991);
#990 = CARTESIAN_POINT('',(0.,0.));
#991 = DIRECTION('',(1.,0.));
#992 = ( GEOMETRIC_REPRESENTATION_CONTEXT(2) 
PARAMETRIC_REPRESENTATION_CONTEXT() REPRESENTATION_CONTEXT('2D SPACE',''
  ) );
#993 = ORIENTED_EDGE('',*,*,#994,.T.);
#994 = EDGE_CURVE('',#972,#995,#997,.T.);
#995 = VERTEX_POINT('',#996);
#996 = CARTESIAN_POINT('',(199.7,-11.341957503,11.));
#997 = SURFACE_CURVE('',#998,(#1002,#1008),.PCURVE_S1.);
#998 = LINE('',#999,#1000);
#999 = CARTESIAN_POINT('',(193.,-11.341957503,11.));
#1000 = VECTOR('',#1001,1.);
#1001 = DIRECTION('',(1.,0.,0.));
#1002 = PCURVE('',#568,#1003);
#1003 = DEFINITIONAL_REPRESENTATION('',(#1004),#1007);
#1004 = B_SPLINE_CURVE_WITH_KNOTS('',1,(#1005,#1006),.UNSPECIFIED.,.F.,
  .F.,(2,2),(1.,6.7),.PIECEWISE_BEZIER_KNOTS.);
#1005 = CARTESIAN_POINT('',(7.083887895185,1.));
#1006 = CARTESIAN_POINT('',(7.083887895185,6.7));
#1007 = ( GEOMETRIC_REPRESENTATION_CONTEXT(2) 
PARAMETRIC_REPRESENTATION_CONTEXT() REPRESENTATION_CONTEXT('2D SPACE',''
  ) );
#1008 = PCURVE('',#459,#1009);
#1009 = DEFINITIONAL_REPRESENTATION('',(#1010),#1013);
#1010 = B_SPLINE_CURVE_WITH_KNOTS('',1,(#1011,#1012),.UNSPECIFIED.,.F.,
  .F.,(2,2),(0.9999994,6.7000006),.PIECEWISE_BEZIER_KNOTS.);
#1011 = CARTESIAN_POINT('',(-5.999999928008E-07,18.658042496994));
#1012 = CARTESIAN_POINT('',(5.7000006,18.658042496994));
#1013 = ( GEOMETRIC_REPRESENTATION_CONTEXT(2) 
PARAMETRIC_REPRESENTATION_CONTEXT() REPRESENTATION_CONTEXT('2D SPACE',''
  ) );
#1014 = ORIENTED_EDGE('',*,*,#1015,.T.);
#1015 = EDGE_CURVE('',#995,#554,#1016,.T.);
#1016 = SURFACE_CURVE('',#1017,(#1022,#1029),.PCURVE_S1.);
#1017 = CIRCLE('',#1018,15.8);
#1018 = AXIS2_PLACEMENT_3D('',#1019,#1020,#1021);
#1019 = CARTESIAN_POINT('',(199.7,0.,0.));
#1020 = DIRECTION('',(-1.,0.,0.));
#1021 = DIRECTION('',(0.,-0.717845411583,0.696202531646));
#1022 = PCURVE('',#568,#1023);
#1023 = DEFINITIONAL_REPRESENTATION('',(#1024),#1028);
#1024 = LINE('',#1025,#1026);
#1025 = CARTESIAN_POINT('',(7.083887895186,6.7));
#1026 = VECTOR('',#1027,1.);
#1027 = DIRECTION('',(-1.,-0.));
#1028 = ( GEOMETRIC_REPRESENTATION_CONTEXT(2) 
PARAMETRIC_REPRESENTATION_CONTEXT() REPRESENTATION_CONTEXT('2D SPACE',''
  ) );
#1029 = PCURVE('',#487,#1030);
#1030 = DEFINITIONAL_REPRESENTATION('',(#1031),#1039);
#1031 = ( BOUNDED_CURVE() B_SPLINE_CURVE(2,(#1032,#1033,#1034,#1035,
#1036,#1037,#1038),.UNSPECIFIED.,.T.,.F.) B_SPLINE_CURVE_WITH_KNOTS((1,2
    ,2,2,2,1),(-2.094395102393,0.,2.094395102393,4.188790204786,
6.28318530718,8.377580409573),.UNSPECIFIED.) CURVE() 
GEOMETRIC_REPRESENTATION_ITEM() RATIONAL_B_SPLINE_CURVE((1.,0.5,1.,0.5,
1.,0.5,1.)) REPRESENTATION_ITEM('') );
#1032 = CARTESIAN_POINT('',(11.,11.341957503007));
#1033 = CARTESIAN_POINT('',(30.644846652494,-7.71060138025));
#1034 = CARTESIAN_POINT('',(4.322423326247,-15.19725819313));
#1035 = CARTESIAN_POINT('',(-21.99999999999,-22.68391500601));
#1036 = CARTESIAN_POINT('',(-15.32242332624,3.855300690125));
#1037 = CARTESIAN_POINT('',(-8.644846652495,30.394516386264));
#1038 = CARTESIAN_POINT('',(11.,11.341957503007));
#1039 = ( GEOMETRIC_REPRESENTATION_CONTEXT(2) 
PARAMETRIC_REPRESENTATION_CONTEXT() REPRESENTATION_CONTEXT('2D SPACE',''
  ) );
#1040 = ORIENTED_EDGE('',*,*,#553,.F.);
#1041 = ADVANCED_FACE('',(#1042),#823,.F.);
#1042 = FACE_BOUND('',#1043,.F.);
#1043 = EDGE_LOOP('',(#1044,#1074,#1095,#1096));
#1044 = ORIENTED_EDGE('',*,*,#1045,.F.);
#1045 = EDGE_CURVE('',#1046,#1048,#1050,.T.);
#1046 = VERTEX_POINT('',#1047);
#1047 = CARTESIAN_POINT('',(189.17124778518,-1.991715552109,12.5));
#1048 = VERTEX_POINT('',#1049);
#1049 = CARTESIAN_POINT('',(191.54488194983,0.,12.5));
#1050 = SURFACE_CURVE('',#1051,(#1055,#1062),.PCURVE_S1.);
#1051 = LINE('',#1052,#1053);
#1052 = CARTESIAN_POINT('',(189.17124778518,-1.991715552109,12.5));
#1053 = VECTOR('',#1054,1.);
#1054 = DIRECTION('',(0.766044443119,0.642787609687,0.));
#1055 = PCURVE('',#823,#1056);
#1056 = DEFINITIONAL_REPRESENTATION('',(#1057),#1061);
#1057 = LINE('',#1058,#1059);
#1058 = CARTESIAN_POINT('',(0.,0.));
#1059 = VECTOR('',#1060,1.);
#1060 = DIRECTION('',(1.,0.));
#1061 = ( GEOMETRIC_REPRESENTATION_CONTEXT(2) 
PARAMETRIC_REPRESENTATION_CONTEXT() REPRESENTATION_CONTEXT('2D SPACE',''
  ) );
#1062 = PCURVE('',#1063,#1068);
#1063 = PLANE('',#1064);
#1064 = AXIS2_PLACEMENT_3D('',#1065,#1066,#1067);
#1065 = CARTESIAN_POINT('',(187.5,0.,12.5));
#1066 = DIRECTION('',(0.,0.,1.));
#1067 = DIRECTION('',(1.,0.,-0.));
#1068 = DEFINITIONAL_REPRESENTATION('',(#1069),#1073);
#1069 = LINE('',#1070,#1071);
#1070 = CARTESIAN_POINT('',(1.671247785185,-1.991715552109));
#1071 = VECTOR('',#1072,1.);
#1072 = DIRECTION('',(0.766044443119,0.642787609687));
#1073 = ( GEOMETRIC_REPRESENTATION_CONTEXT(2) 
PARAMETRIC_REPRESENTATION_CONTEXT() REPRESENTATION_CONTEXT('2D SPACE',''
  ) );
#1074 = ORIENTED_EDGE('',*,*,#1075,.T.);
#1075 = EDGE_CURVE('',#1046,#804,#1076,.T.);
#1076 = SURFACE_CURVE('',#1077,(#1081,#1088),.PCURVE_S1.);
#1077 = LINE('',#1078,#1079);
#1078 = CARTESIAN_POINT('',(189.17124778518,-1.991715552109,12.5));
#1079 = VECTOR('',#1080,1.);
#1080 = DIRECTION('',(0.,0.,1.));
#1081 = PCURVE('',#823,#1082);
#1082 = DEFINITIONAL_REPRESENTATION('',(#1083),#1087);
#1083 = LINE('',#1084,#1085);
#1084 = CARTESIAN_POINT('',(0.,0.));
#1085 = VECTOR('',#1086,1.);
#1086 = DIRECTION('',(0.,-1.));
#1087 = ( GEOMETRIC_REPRESENTATION_CONTEXT(2) 
PARAMETRIC_REPRESENTATION_CONTEXT() REPRESENTATION_CONTEXT('2D SPACE',''
  ) );
#1088 = PCURVE('',#735,#1089);
#1089 = DEFINITIONAL_REPRESENTATION('',(#1090),#1094);
#1090 = LINE('',#1091,#1092);
#1091 = CARTESIAN_POINT('',(5.410520681182,0.));
#1092 = VECTOR('',#1093,1.);
#1093 = DIRECTION('',(0.,1.));
#1094 = ( GEOMETRIC_REPRESENTATION_CONTEXT(2) 
PARAMETRIC_REPRESENTATION_CONTEXT() REPRESENTATION_CONTEXT('2D SPACE',''
  ) );
#1095 = ORIENTED_EDGE('',*,*,#803,.T.);
#1096 = ORIENTED_EDGE('',*,*,#1097,.F.);
#1097 = EDGE_CURVE('',#1048,#772,#1098,.T.);
#1098 = SURFACE_CURVE('',#1099,(#1103,#1110),.PCURVE_S1.);
#1099 = LINE('',#1100,#1101);
#1100 = CARTESIAN_POINT('',(191.54488194983,0.,12.5));
#1101 = VECTOR('',#1102,1.);
#1102 = DIRECTION('',(0.,0.,1.));
#1103 = PCURVE('',#823,#1104);
#1104 = DEFINITIONAL_REPRESENTATION('',(#1105),#1109);
#1105 = LINE('',#1106,#1107);
#1106 = CARTESIAN_POINT('',(3.098559340745,0.));
#1107 = VECTOR('',#1108,1.);
#1108 = DIRECTION('',(0.,-1.));
#1109 = ( GEOMETRIC_REPRESENTATION_CONTEXT(2) 
PARAMETRIC_REPRESENTATION_CONTEXT() REPRESENTATION_CONTEXT('2D SPACE',''
  ) );
#1110 = PCURVE('',#791,#1111);
#1111 = DEFINITIONAL_REPRESENTATION('',(#1112),#1116);
#1112 = LINE('',#1113,#1114);
#1113 = CARTESIAN_POINT('',(0.,0.));
#1114 = VECTOR('',#1115,1.);
#1115 = DIRECTION('',(0.,-1.));
#1116 = ( GEOMETRIC_REPRESENTATION_CONTEXT(2) 
PARAMETRIC_REPRESENTATION_CONTEXT() REPRESENTATION_CONTEXT('2D SPACE',''
  ) );
#1117 = ADVANCED_FACE('',(#1118,#1166),#1063,.F.);
#1118 = FACE_BOUND('',#1119,.F.);
#1119 = EDGE_LOOP('',(#1120,#1144,#1145));
#1120 = ORIENTED_EDGE('',*,*,#1121,.T.);
#1121 = EDGE_CURVE('',#1122,#1046,#1124,.T.);
#1122 = VERTEX_POINT('',#1123);
#1123 = CARTESIAN_POINT('',(189.17124778518,1.991715552109,12.5));
#1124 = SURFACE_CURVE('',#1125,(#1130,#1137),.PCURVE_S1.);
#1125 = CIRCLE('',#1126,2.6);
#1126 = AXIS2_PLACEMENT_3D('',#1127,#1128,#1129);
#1127 = CARTESIAN_POINT('',(187.5,0.,12.5));
#1128 = DIRECTION('',(0.,0.,1.));
#1129 = DIRECTION('',(1.,0.,-0.));
#1130 = PCURVE('',#1063,#1131);
#1131 = DEFINITIONAL_REPRESENTATION('',(#1132),#1136);
#1132 = CIRCLE('',#1133,2.6);
#1133 = AXIS2_PLACEMENT_2D('',#1134,#1135);
#1134 = CARTESIAN_POINT('',(0.,0.));
#1135 = DIRECTION('',(1.,0.));
#1136 = ( GEOMETRIC_REPRESENTATION_CONTEXT(2) 
PARAMETRIC_REPRESENTATION_CONTEXT() REPRESENTATION_CONTEXT('2D SPACE',''
  ) );
#1137 = PCURVE('',#735,#1138);
#1138 = DEFINITIONAL_REPRESENTATION('',(#1139),#1143);
#1139 = LINE('',#1140,#1141);
#1140 = CARTESIAN_POINT('',(0.,0.));
#1141 = VECTOR('',#1142,1.);
#1142 = DIRECTION('',(1.,0.));
#1143 = ( GEOMETRIC_REPRESENTATION_CONTEXT(2) 
PARAMETRIC_REPRESENTATION_CONTEXT() REPRESENTATION_CONTEXT('2D SPACE',''
  ) );
#1144 = ORIENTED_EDGE('',*,*,#1045,.T.);
#1145 = ORIENTED_EDGE('',*,*,#1146,.T.);
#1146 = EDGE_CURVE('',#1048,#1122,#1147,.T.);
#1147 = SURFACE_CURVE('',#1148,(#1152,#1159),.PCURVE_S1.);
#1148 = LINE('',#1149,#1150);
#1149 = CARTESIAN_POINT('',(191.54488194983,0.,12.5));
#1150 = VECTOR('',#1151,1.);
#1151 = DIRECTION('',(-0.766044443119,0.642787609687,0.));
#1152 = PCURVE('',#1063,#1153);
#1153 = DEFINITIONAL_REPRESENTATION('',(#1154),#1158);
#1154 = LINE('',#1155,#1156);
#1155 = CARTESIAN_POINT('',(4.044881949837,0.));
#1156 = VECTOR('',#1157,1.);
#1157 = DIRECTION('',(-0.766044443119,0.642787609687));
#1158 = ( GEOMETRIC_REPRESENTATION_CONTEXT(2) 
PARAMETRIC_REPRESENTATION_CONTEXT() REPRESENTATION_CONTEXT('2D SPACE',''
  ) );
#1159 = PCURVE('',#791,#1160);
#1160 = DEFINITIONAL_REPRESENTATION('',(#1161),#1165);
#1161 = LINE('',#1162,#1163);
#1162 = CARTESIAN_POINT('',(0.,0.));
#1163 = VECTOR('',#1164,1.);
#1164 = DIRECTION('',(1.,0.));
#1165 = ( GEOMETRIC_REPRESENTATION_CONTEXT(2) 
PARAMETRIC_REPRESENTATION_CONTEXT() REPRESENTATION_CONTEXT('2D SPACE',''
  ) );
#1166 = FACE_BOUND('',#1167,.F.);
#1167 = EDGE_LOOP('',(#1168));
#1168 = ORIENTED_EDGE('',*,*,#1169,.F.);
#1169 = EDGE_CURVE('',#1170,#1170,#1172,.T.);
#1170 = VERTEX_POINT('',#1171);
#1171 = CARTESIAN_POINT('',(188.3,-1.959434878636E-16,12.5));
#1172 = SURFACE_CURVE('',#1173,(#1178,#1185),.PCURVE_S1.);
#1173 = CIRCLE('',#1174,0.8);
#1174 = AXIS2_PLACEMENT_3D('',#1175,#1176,#1177);
#1175 = CARTESIAN_POINT('',(187.5,0.,12.5));
#1176 = DIRECTION('',(0.,0.,1.));
#1177 = DIRECTION('',(1.,0.,-0.));
#1178 = PCURVE('',#1063,#1179);
#1179 = DEFINITIONAL_REPRESENTATION('',(#1180),#1184);
#1180 = CIRCLE('',#1181,0.8);
#1181 = AXIS2_PLACEMENT_2D('',#1182,#1183);
#1182 = CARTESIAN_POINT('',(0.,0.));
#1183 = DIRECTION('',(1.,0.));
#1184 = ( GEOMETRIC_REPRESENTATION_CONTEXT(2) 
PARAMETRIC_REPRESENTATION_CONTEXT() REPRESENTATION_CONTEXT('2D SPACE',''
  ) );
#1185 = PCURVE('',#1186,#1191);
#1186 = CYLINDRICAL_SURFACE('',#1187,0.8);
#1187 = AXIS2_PLACEMENT_3D('',#1188,#1189,#1190);
#1188 = CARTESIAN_POINT('',(187.5,0.,11.5));
#1189 = DIRECTION('',(0.,0.,1.));
#1190 = DIRECTION('',(1.,0.,-0.));
#1191 = DEFINITIONAL_REPRESENTATION('',(#1192),#1196);
#1192 = LINE('',#1193,#1194);
#1193 = CARTESIAN_POINT('',(0.,1.));
#1194 = VECTOR('',#1195,1.);
#1195 = DIRECTION('',(1.,0.));
#1196 = ( GEOMETRIC_REPRESENTATION_CONTEXT(2) 
PARAMETRIC_REPRESENTATION_CONTEXT() REPRESENTATION_CONTEXT('2D SPACE',''
  ) );
#1197 = ADVANCED_FACE('',(#1198),#1186,.F.);
#1198 = FACE_BOUND('',#1199,.F.);
#1199 = EDGE_LOOP('',(#1200,#1229,#1250,#1251));
#1200 = ORIENTED_EDGE('',*,*,#1201,.F.);
#1201 = EDGE_CURVE('',#1202,#1202,#1204,.T.);
#1202 = VERTEX_POINT('',#1203);
#1203 = CARTESIAN_POINT('',(188.3,-1.959434878636E-16,17.25));
#1204 = SURFACE_CURVE('',#1205,(#1210,#1217),.PCURVE_S1.);
#1205 = CIRCLE('',#1206,0.8);
#1206 = AXIS2_PLACEMENT_3D('',#1207,#1208,#1209);
#1207 = CARTESIAN_POINT('',(187.5,0.,17.25));
#1208 = DIRECTION('',(0.,0.,1.));
#1209 = DIRECTION('',(1.,0.,-0.));
#1210 = PCURVE('',#1186,#1211);
#1211 = DEFINITIONAL_REPRESENTATION('',(#1212),#1216);
#1212 = LINE('',#1213,#1214);
#1213 = CARTESIAN_POINT('',(0.,5.75));
#1214 = VECTOR('',#1215,1.);
#1215 = DIRECTION('',(1.,0.));
#1216 = ( GEOMETRIC_REPRESENTATION_CONTEXT(2) 
PARAMETRIC_REPRESENTATION_CONTEXT() REPRESENTATION_CONTEXT('2D SPACE',''
  ) );
#1217 = PCURVE('',#1218,#1223);
#1218 = PLANE('',#1219);
#1219 = AXIS2_PLACEMENT_3D('',#1220,#1221,#1222);
#1220 = CARTESIAN_POINT('',(187.5,0.,17.25));
#1221 = DIRECTION('',(0.,0.,1.));
#1222 = DIRECTION('',(1.,0.,-0.));
#1223 = DEFINITIONAL_REPRESENTATION('',(#1224),#1228);
#1224 = CIRCLE('',#1225,0.8);
#1225 = AXIS2_PLACEMENT_2D('',#1226,#1227);
#1226 = CARTESIAN_POINT('',(0.,0.));
#1227 = DIRECTION('',(1.,0.));
#1228 = ( GEOMETRIC_REPRESENTATION_CONTEXT(2) 
PARAMETRIC_REPRESENTATION_CONTEXT() REPRESENTATION_CONTEXT('2D SPACE',''
  ) );
#1229 = ORIENTED_EDGE('',*,*,#1230,.F.);
#1230 = EDGE_CURVE('',#1170,#1202,#1231,.T.);
#1231 = SEAM_CURVE('',#1232,(#1236,#1243),.PCURVE_S1.);
#1232 = LINE('',#1233,#1234);
#1233 = CARTESIAN_POINT('',(188.3,-1.959434878636E-16,11.5));
#1234 = VECTOR('',#1235,1.);
#1235 = DIRECTION('',(0.,0.,1.));
#1236 = PCURVE('',#1186,#1237);
#1237 = DEFINITIONAL_REPRESENTATION('',(#1238),#1242);
#1238 = LINE('',#1239,#1240);
#1239 = CARTESIAN_POINT('',(6.28318530718,-0.));
#1240 = VECTOR('',#1241,1.);
#1241 = DIRECTION('',(0.,1.));
#1242 = ( GEOMETRIC_REPRESENTATION_CONTEXT(2) 
PARAMETRIC_REPRESENTATION_CONTEXT() REPRESENTATION_CONTEXT('2D SPACE',''
  ) );
#1243 = PCURVE('',#1186,#1244);
#1244 = DEFINITIONAL_REPRESENTATION('',(#1245),#1249);
#1245 = LINE('',#1246,#1247);
#1246 = CARTESIAN_POINT('',(0.,-0.));
#1247 = VECTOR('',#1248,1.);
#1248 = DIRECTION('',(0.,1.));
#1249 = ( GEOMETRIC_REPRESENTATION_CONTEXT(2) 
PARAMETRIC_REPRESENTATION_CONTEXT() REPRESENTATION_CONTEXT('2D SPACE',''
  ) );
#1250 = ORIENTED_EDGE('',*,*,#1169,.T.);
#1251 = ORIENTED_EDGE('',*,*,#1230,.T.);
#1252 = ADVANCED_FACE('',(#1253,#1304),#1218,.T.);
#1253 = FACE_BOUND('',#1254,.T.);
#1254 = EDGE_LOOP('',(#1255,#1278));
#1255 = ORIENTED_EDGE('',*,*,#1256,.T.);
#1256 = EDGE_CURVE('',#1257,#1259,#1261,.T.);
#1257 = VERTEX_POINT('',#1258);
#1258 = CARTESIAN_POINT('',(185.,3.920777984023,17.25));
#1259 = VERTEX_POINT('',#1260);
#1260 = CARTESIAN_POINT('',(185.,-3.920777984023,17.25));
#1261 = SURFACE_CURVE('',#1262,(#1266,#1272),.PCURVE_S1.);
#1262 = LINE('',#1263,#1264);
#1263 = CARTESIAN_POINT('',(185.,0.,17.25));
#1264 = VECTOR('',#1265,1.);
#1265 = DIRECTION('',(0.,-1.,0.));
#1266 = PCURVE('',#1218,#1267);
#1267 = DEFINITIONAL_REPRESENTATION('',(#1268),#1271);
#1268 = B_SPLINE_CURVE_WITH_KNOTS('',1,(#1269,#1270),.UNSPECIFIED.,.F.,
  .F.,(2,2),(-4.65,4.65),.PIECEWISE_BEZIER_KNOTS.);
#1269 = CARTESIAN_POINT('',(-2.5,4.65));
#1270 = CARTESIAN_POINT('',(-2.5,-4.65));
#1271 = ( GEOMETRIC_REPRESENTATION_CONTEXT(2) 
PARAMETRIC_REPRESENTATION_CONTEXT() REPRESENTATION_CONTEXT('2D SPACE',''
  ) );
#1272 = PCURVE('',#98,#1273);
#1273 = DEFINITIONAL_REPRESENTATION('',(#1274),#1277);
#1274 = B_SPLINE_CURVE_WITH_KNOTS('',1,(#1275,#1276),.UNSPECIFIED.,.F.,
  .F.,(2,2),(-4.65,4.65),.PIECEWISE_BEZIER_KNOTS.);
#1275 = CARTESIAN_POINT('',(17.25,-4.65));
#1276 = CARTESIAN_POINT('',(17.25,4.65));
#1277 = ( GEOMETRIC_REPRESENTATION_CONTEXT(2) 
PARAMETRIC_REPRESENTATION_CONTEXT() REPRESENTATION_CONTEXT('2D SPACE',''
  ) );
#1278 = ORIENTED_EDGE('',*,*,#1279,.F.);
#1279 = EDGE_CURVE('',#1257,#1259,#1280,.T.);
#1280 = SURFACE_CURVE('',#1281,(#1286,#1297),.PCURVE_S1.);
#1281 = CIRCLE('',#1282,4.65);
#1282 = AXIS2_PLACEMENT_3D('',#1283,#1284,#1285);
#1283 = CARTESIAN_POINT('',(187.5,0.,17.25));
#1284 = DIRECTION('',(0.,0.,-1.));
#1285 = DIRECTION('',(-0.537634408602,0.84317806108,0.));
#1286 = PCURVE('',#1218,#1287);
#1287 = DEFINITIONAL_REPRESENTATION('',(#1288),#1296);
#1288 = ( BOUNDED_CURVE() B_SPLINE_CURVE(2,(#1289,#1290,#1291,#1292,
#1293,#1294,#1295),.UNSPECIFIED.,.T.,.F.) B_SPLINE_CURVE_WITH_KNOTS((1,2
    ,2,2,2,1),(-2.094395102393,0.,2.094395102393,4.188790204786,
6.28318530718,8.377580409573),.UNSPECIFIED.) CURVE() 
GEOMETRIC_REPRESENTATION_ITEM() RATIONAL_B_SPLINE_CURVE((1.,0.5,1.,0.5,
1.,0.5,1.)) REPRESENTATION_ITEM('') );
#1289 = CARTESIAN_POINT('',(-2.5,3.920777984023));
#1290 = CARTESIAN_POINT('',(4.290986673525,8.250905002945));
#1291 = CARTESIAN_POINT('',(4.645493336763,0.20467451745));
#1292 = CARTESIAN_POINT('',(5.,-7.841555968046));
#1293 = CARTESIAN_POINT('',(-2.145493336763,-4.125452501473));
#1294 = CARTESIAN_POINT('',(-9.290986673525,-0.409349034899));
#1295 = CARTESIAN_POINT('',(-2.5,3.920777984023));
#1296 = ( GEOMETRIC_REPRESENTATION_CONTEXT(2) 
PARAMETRIC_REPRESENTATION_CONTEXT() REPRESENTATION_CONTEXT('2D SPACE',''
  ) );
#1297 = PCURVE('',#267,#1298);
#1298 = DEFINITIONAL_REPRESENTATION('',(#1299),#1303);
#1299 = LINE('',#1300,#1301);
#1300 = CARTESIAN_POINT('',(8.421610660088,0.));
#1301 = VECTOR('',#1302,1.);
#1302 = DIRECTION('',(-1.,-0.));
#1303 = ( GEOMETRIC_REPRESENTATION_CONTEXT(2) 
PARAMETRIC_REPRESENTATION_CONTEXT() REPRESENTATION_CONTEXT('2D SPACE',''
  ) );
#1304 = FACE_BOUND('',#1305,.T.);
#1305 = EDGE_LOOP('',(#1306));
#1306 = ORIENTED_EDGE('',*,*,#1201,.F.);
#1307 = ADVANCED_FACE('',(#1308),#791,.F.);
#1308 = FACE_BOUND('',#1309,.F.);
#1309 = EDGE_LOOP('',(#1310,#1311,#1312,#1313));
#1310 = ORIENTED_EDGE('',*,*,#1146,.F.);
#1311 = ORIENTED_EDGE('',*,*,#1097,.T.);
#1312 = ORIENTED_EDGE('',*,*,#771,.T.);
#1313 = ORIENTED_EDGE('',*,*,#1314,.F.);
#1314 = EDGE_CURVE('',#1122,#672,#1315,.T.);
#1315 = SURFACE_CURVE('',#1316,(#1320,#1327),.PCURVE_S1.);
#1316 = LINE('',#1317,#1318);
#1317 = CARTESIAN_POINT('',(189.17124778518,1.991715552109,12.5));
#1318 = VECTOR('',#1319,1.);
#1319 = DIRECTION('',(0.,0.,1.));
#1320 = PCURVE('',#791,#1321);
#1321 = DEFINITIONAL_REPRESENTATION('',(#1322),#1326);
#1322 = LINE('',#1323,#1324);
#1323 = CARTESIAN_POINT('',(3.098559340745,0.));
#1324 = VECTOR('',#1325,1.);
#1325 = DIRECTION('',(0.,-1.));
#1326 = ( GEOMETRIC_REPRESENTATION_CONTEXT(2) 
PARAMETRIC_REPRESENTATION_CONTEXT() REPRESENTATION_CONTEXT('2D SPACE',''
  ) );
#1327 = PCURVE('',#735,#1328);
#1328 = DEFINITIONAL_REPRESENTATION('',(#1329),#1333);
#1329 = LINE('',#1330,#1331);
#1330 = CARTESIAN_POINT('',(0.872664625997,0.));
#1331 = VECTOR('',#1332,1.);
#1332 = DIRECTION('',(0.,1.));
#1333 = ( GEOMETRIC_REPRESENTATION_CONTEXT(2) 
PARAMETRIC_REPRESENTATION_CONTEXT() REPRESENTATION_CONTEXT('2D SPACE',''
  ) );
#1334 = ADVANCED_FACE('',(#1335),#735,.T.);
#1335 = FACE_BOUND('',#1336,.T.);
#1336 = EDGE_LOOP('',(#1337,#1368,#1387,#1388,#1389,#1390,#1391,#1392));
#1337 = ORIENTED_EDGE('',*,*,#1338,.F.);
#1338 = EDGE_CURVE('',#1339,#1341,#1343,.T.);
#1339 = VERTEX_POINT('',#1340);
#1340 = CARTESIAN_POINT('',(185.,0.714142842854,16.4));
#1341 = VERTEX_POINT('',#1342);
#1342 = CARTESIAN_POINT('',(185.,-0.714142842854,16.4));
#1343 = SURFACE_CURVE('',#1344,(#1349,#1356),.PCURVE_S1.);
#1344 = CIRCLE('',#1345,2.6);
#1345 = AXIS2_PLACEMENT_3D('',#1346,#1347,#1348);
#1346 = CARTESIAN_POINT('',(187.5,0.,16.4));
#1347 = DIRECTION('',(0.,0.,1.));
#1348 = DIRECTION('',(1.,0.,-0.));
#1349 = PCURVE('',#735,#1350);
#1350 = DEFINITIONAL_REPRESENTATION('',(#1351),#1355);
#1351 = LINE('',#1352,#1353);
#1352 = CARTESIAN_POINT('',(0.,3.9));
#1353 = VECTOR('',#1354,1.);
#1354 = DIRECTION('',(1.,0.));
#1355 = ( GEOMETRIC_REPRESENTATION_CONTEXT(2) 
PARAMETRIC_REPRESENTATION_CONTEXT() REPRESENTATION_CONTEXT('2D SPACE',''
  ) );
#1356 = PCURVE('',#1357,#1362);
#1357 = PLANE('',#1358);
#1358 = AXIS2_PLACEMENT_3D('',#1359,#1360,#1361);
#1359 = CARTESIAN_POINT('',(187.5,0.,16.4));
#1360 = DIRECTION('',(0.,0.,1.));
#1361 = DIRECTION('',(1.,0.,-0.));
#1362 = DEFINITIONAL_REPRESENTATION('',(#1363),#1367);
#1363 = CIRCLE('',#1364,2.6);
#1364 = AXIS2_PLACEMENT_2D('',#1365,#1366);
#1365 = CARTESIAN_POINT('',(0.,0.));
#1366 = DIRECTION('',(1.,0.));
#1367 = ( GEOMETRIC_REPRESENTATION_CONTEXT(2) 
PARAMETRIC_REPRESENTATION_CONTEXT() REPRESENTATION_CONTEXT('2D SPACE',''
  ) );
#1368 = ORIENTED_EDGE('',*,*,#1369,.F.);
#1369 = EDGE_CURVE('',#649,#1339,#1370,.T.);
#1370 = SURFACE_CURVE('',#1371,(#1375,#1381),.PCURVE_S1.);
#1371 = LINE('',#1372,#1373);
#1372 = CARTESIAN_POINT('',(185.,0.714142842854,12.5));
#1373 = VECTOR('',#1374,1.);
#1374 = DIRECTION('',(0.,0.,1.));
#1375 = PCURVE('',#735,#1376);
#1376 = DEFINITIONAL_REPRESENTATION('',(#1377),#1380);
#1377 = B_SPLINE_CURVE_WITH_KNOTS('',1,(#1378,#1379),.UNSPECIFIED.,.F.,
  .F.,(2,2),(1.693072023722,3.9000006),.PIECEWISE_BEZIER_KNOTS.);
#1378 = CARTESIAN_POINT('',(2.863345830855,1.693072023722));
#1379 = CARTESIAN_POINT('',(2.863345830855,3.9000006));
#1380 = ( GEOMETRIC_REPRESENTATION_CONTEXT(2) 
PARAMETRIC_REPRESENTATION_CONTEXT() REPRESENTATION_CONTEXT('2D SPACE',''
  ) );
#1381 = PCURVE('',#98,#1382);
#1382 = DEFINITIONAL_REPRESENTATION('',(#1383),#1386);
#1383 = B_SPLINE_CURVE_WITH_KNOTS('',1,(#1384,#1385),.UNSPECIFIED.,.F.,
  .F.,(2,2),(1.693072023722,3.9000006),.PIECEWISE_BEZIER_KNOTS.);
#1384 = CARTESIAN_POINT('',(14.193072023722,-0.714142842854));
#1385 = CARTESIAN_POINT('',(16.4000006,-0.714142842854));
#1386 = ( GEOMETRIC_REPRESENTATION_CONTEXT(2) 
PARAMETRIC_REPRESENTATION_CONTEXT() REPRESENTATION_CONTEXT('2D SPACE',''
  ) );
#1387 = ORIENTED_EDGE('',*,*,#671,.F.);
#1388 = ORIENTED_EDGE('',*,*,#1314,.F.);
#1389 = ORIENTED_EDGE('',*,*,#1121,.T.);
#1390 = ORIENTED_EDGE('',*,*,#1075,.T.);
#1391 = ORIENTED_EDGE('',*,*,#835,.F.);
#1392 = ORIENTED_EDGE('',*,*,#1393,.T.);
#1393 = EDGE_CURVE('',#836,#1341,#1394,.T.);
#1394 = SURFACE_CURVE('',#1395,(#1399,#1405),.PCURVE_S1.);
#1395 = LINE('',#1396,#1397);
#1396 = CARTESIAN_POINT('',(185.,-0.714142842854,12.5));
#1397 = VECTOR('',#1398,1.);
#1398 = DIRECTION('',(0.,0.,1.));
#1399 = PCURVE('',#735,#1400);
#1400 = DEFINITIONAL_REPRESENTATION('',(#1401),#1404);
#1401 = B_SPLINE_CURVE_WITH_KNOTS('',1,(#1402,#1403),.UNSPECIFIED.,.F.,
  .F.,(2,2),(1.693072023722,3.9000006),.PIECEWISE_BEZIER_KNOTS.);
#1402 = CARTESIAN_POINT('',(3.419839476325,1.693072023722));
#1403 = CARTESIAN_POINT('',(3.419839476325,3.9000006));
#1404 = ( GEOMETRIC_REPRESENTATION_CONTEXT(2) 
PARAMETRIC_REPRESENTATION_CONTEXT() REPRESENTATION_CONTEXT('2D SPACE',''
  ) );
#1405 = PCURVE('',#98,#1406);
#1406 = DEFINITIONAL_REPRESENTATION('',(#1407),#1410);
#1407 = B_SPLINE_CURVE_WITH_KNOTS('',1,(#1408,#1409),.UNSPECIFIED.,.F.,
  .F.,(2,2),(1.693072023722,3.9000006),.PIECEWISE_BEZIER_KNOTS.);
#1408 = CARTESIAN_POINT('',(14.193072023722,0.714142842854));
#1409 = CARTESIAN_POINT('',(16.4000006,0.714142842854));
#1410 = ( GEOMETRIC_REPRESENTATION_CONTEXT(2) 
PARAMETRIC_REPRESENTATION_CONTEXT() REPRESENTATION_CONTEXT('2D SPACE',''
  ) );
#1411 = ADVANCED_FACE('',(#1412),#1357,.T.);
#1412 = FACE_BOUND('',#1413,.T.);
#1413 = EDGE_LOOP('',(#1414,#1433));
#1414 = ORIENTED_EDGE('',*,*,#1415,.F.);
#1415 = EDGE_CURVE('',#1339,#1341,#1416,.T.);
#1416 = SURFACE_CURVE('',#1417,(#1421,#1427),.PCURVE_S1.);
#1417 = LINE('',#1418,#1419);
#1418 = CARTESIAN_POINT('',(185.,0.,16.4));
#1419 = VECTOR('',#1420,1.);
#1420 = DIRECTION('',(0.,-1.,0.));
#1421 = PCURVE('',#1357,#1422);
#1422 = DEFINITIONAL_REPRESENTATION('',(#1423),#1426);
#1423 = B_SPLINE_CURVE_WITH_KNOTS('',1,(#1424,#1425),.UNSPECIFIED.,.F.,
  .F.,(2,2),(-2.6,2.6),.PIECEWISE_BEZIER_KNOTS.);
#1424 = CARTESIAN_POINT('',(-2.5,2.6));
#1425 = CARTESIAN_POINT('',(-2.5,-2.6));
#1426 = ( GEOMETRIC_REPRESENTATION_CONTEXT(2) 
PARAMETRIC_REPRESENTATION_CONTEXT() REPRESENTATION_CONTEXT('2D SPACE',''
  ) );
#1427 = PCURVE('',#98,#1428);
#1428 = DEFINITIONAL_REPRESENTATION('',(#1429),#1432);
#1429 = B_SPLINE_CURVE_WITH_KNOTS('',1,(#1430,#1431),.UNSPECIFIED.,.F.,
  .F.,(2,2),(-2.6,2.6),.PIECEWISE_BEZIER_KNOTS.);
#1430 = CARTESIAN_POINT('',(16.4,-2.6));
#1431 = CARTESIAN_POINT('',(16.4,2.6));
#1432 = ( GEOMETRIC_REPRESENTATION_CONTEXT(2) 
PARAMETRIC_REPRESENTATION_CONTEXT() REPRESENTATION_CONTEXT('2D SPACE',''
  ) );
#1433 = ORIENTED_EDGE('',*,*,#1338,.T.);
#1434 = ADVANCED_FACE('',(#1435),#487,.T.);
#1435 = FACE_BOUND('',#1436,.T.);
#1436 = EDGE_LOOP('',(#1437,#1438,#1439,#1460));
#1437 = ORIENTED_EDGE('',*,*,#579,.T.);
#1438 = ORIENTED_EDGE('',*,*,#470,.F.);
#1439 = ORIENTED_EDGE('',*,*,#1440,.T.);
#1440 = EDGE_CURVE('',#445,#995,#1441,.T.);
#1441 = SURFACE_CURVE('',#1442,(#1446,#1453),.PCURVE_S1.);
#1442 = LINE('',#1443,#1444);
#1443 = CARTESIAN_POINT('',(199.7,-30.,11.));
#1444 = VECTOR('',#1445,1.);
#1445 = DIRECTION('',(-0.,1.,0.));
#1446 = PCURVE('',#487,#1447);
#1447 = DEFINITIONAL_REPRESENTATION('',(#1448),#1452);
#1448 = LINE('',#1449,#1450);
#1449 = CARTESIAN_POINT('',(11.,30.));
#1450 = VECTOR('',#1451,1.);
#1451 = DIRECTION('',(0.,-1.));
#1452 = ( GEOMETRIC_REPRESENTATION_CONTEXT(2) 
PARAMETRIC_REPRESENTATION_CONTEXT() REPRESENTATION_CONTEXT('2D SPACE',''
  ) );
#1453 = PCURVE('',#459,#1454);
#1454 = DEFINITIONAL_REPRESENTATION('',(#1455),#1459);
#1455 = LINE('',#1456,#1457);
#1456 = CARTESIAN_POINT('',(5.7,0.));
#1457 = VECTOR('',#1458,1.);
#1458 = DIRECTION('',(0.,1.));
#1459 = ( GEOMETRIC_REPRESENTATION_CONTEXT(2) 
PARAMETRIC_REPRESENTATION_CONTEXT() REPRESENTATION_CONTEXT('2D SPACE',''
  ) );
#1460 = ORIENTED_EDGE('',*,*,#1015,.T.);
#1461 = ADVANCED_FACE('',(#1462),#459,.F.);
#1462 = FACE_BOUND('',#1463,.F.);
#1463 = EDGE_LOOP('',(#1464,#1485,#1486,#1487));
#1464 = ORIENTED_EDGE('',*,*,#1465,.F.);
#1465 = EDGE_CURVE('',#417,#972,#1466,.T.);
#1466 = SURFACE_CURVE('',#1467,(#1471,#1478),.PCURVE_S1.);
#1467 = LINE('',#1468,#1469);
#1468 = CARTESIAN_POINT('',(194.,-30.,11.));
#1469 = VECTOR('',#1470,1.);
#1470 = DIRECTION('',(-0.,1.,0.));
#1471 = PCURVE('',#459,#1472);
#1472 = DEFINITIONAL_REPRESENTATION('',(#1473),#1477);
#1473 = LINE('',#1474,#1475);
#1474 = CARTESIAN_POINT('',(0.,0.));
#1475 = VECTOR('',#1476,1.);
#1476 = DIRECTION('',(0.,1.));
#1477 = ( GEOMETRIC_REPRESENTATION_CONTEXT(2) 
PARAMETRIC_REPRESENTATION_CONTEXT() REPRESENTATION_CONTEXT('2D SPACE',''
  ) );
#1478 = PCURVE('',#432,#1479);
#1479 = DEFINITIONAL_REPRESENTATION('',(#1480),#1484);
#1480 = LINE('',#1481,#1482);
#1481 = CARTESIAN_POINT('',(11.,30.));
#1482 = VECTOR('',#1483,1.);
#1483 = DIRECTION('',(0.,-1.));
#1484 = ( GEOMETRIC_REPRESENTATION_CONTEXT(2) 
PARAMETRIC_REPRESENTATION_CONTEXT() REPRESENTATION_CONTEXT('2D SPACE',''
  ) );
#1485 = ORIENTED_EDGE('',*,*,#444,.T.);
#1486 = ORIENTED_EDGE('',*,*,#1440,.T.);
#1487 = ORIENTED_EDGE('',*,*,#994,.F.);
#1488 = ADVANCED_FACE('',(#1489),#432,.F.);
#1489 = FACE_BOUND('',#1490,.F.);
#1490 = EDGE_LOOP('',(#1491,#1512,#1513,#1514));
#1491 = ORIENTED_EDGE('',*,*,#1492,.T.);
#1492 = EDGE_CURVE('',#951,#391,#1493,.T.);
#1493 = SURFACE_CURVE('',#1494,(#1498,#1505),.PCURVE_S1.);
#1494 = LINE('',#1495,#1496);
#1495 = CARTESIAN_POINT('',(194.,-6.,0.));
#1496 = VECTOR('',#1497,1.);
#1497 = DIRECTION('',(0.,0.,1.));
#1498 = PCURVE('',#432,#1499);
#1499 = DEFINITIONAL_REPRESENTATION('',(#1500),#1504);
#1500 = LINE('',#1501,#1502);
#1501 = CARTESIAN_POINT('',(0.,6.));
#1502 = VECTOR('',#1503,1.);
#1503 = DIRECTION('',(1.,0.));
#1504 = ( GEOMETRIC_REPRESENTATION_CONTEXT(2) 
PARAMETRIC_REPRESENTATION_CONTEXT() REPRESENTATION_CONTEXT('2D SPACE',''
  ) );
#1505 = PCURVE('',#405,#1506);
#1506 = DEFINITIONAL_REPRESENTATION('',(#1507),#1511);
#1507 = LINE('',#1508,#1509);
#1508 = CARTESIAN_POINT('',(0.,9.));
#1509 = VECTOR('',#1510,1.);
#1510 = DIRECTION('',(1.,0.));
#1511 = ( GEOMETRIC_REPRESENTATION_CONTEXT(2) 
PARAMETRIC_REPRESENTATION_CONTEXT() REPRESENTATION_CONTEXT('2D SPACE',''
  ) );
#1512 = ORIENTED_EDGE('',*,*,#416,.T.);
#1513 = ORIENTED_EDGE('',*,*,#1465,.T.);
#1514 = ORIENTED_EDGE('',*,*,#971,.F.);
#1515 = ADVANCED_FACE('',(#1516),#405,.F.);
#1516 = FACE_BOUND('',#1517,.F.);
#1517 = EDGE_LOOP('',(#1518,#1519,#1520,#1541));
#1518 = ORIENTED_EDGE('',*,*,#1492,.F.);
#1519 = ORIENTED_EDGE('',*,*,#950,.F.);
#1520 = ORIENTED_EDGE('',*,*,#1521,.T.);
#1521 = EDGE_CURVE('',#928,#368,#1522,.T.);
#1522 = SURFACE_CURVE('',#1523,(#1527,#1534),.PCURVE_S1.);
#1523 = LINE('',#1524,#1525);
#1524 = CARTESIAN_POINT('',(185.,-6.,0.));
#1525 = VECTOR('',#1526,1.);
#1526 = DIRECTION('',(0.,0.,1.));
#1527 = PCURVE('',#405,#1528);
#1528 = DEFINITIONAL_REPRESENTATION('',(#1529),#1533);
#1529 = LINE('',#1530,#1531);
#1530 = CARTESIAN_POINT('',(0.,0.));
#1531 = VECTOR('',#1532,1.);
#1532 = DIRECTION('',(1.,0.));
#1533 = ( GEOMETRIC_REPRESENTATION_CONTEXT(2) 
PARAMETRIC_REPRESENTATION_CONTEXT() REPRESENTATION_CONTEXT('2D SPACE',''
  ) );
#1534 = PCURVE('',#98,#1535);
#1535 = DEFINITIONAL_REPRESENTATION('',(#1536),#1540);
#1536 = LINE('',#1537,#1538);
#1537 = CARTESIAN_POINT('',(0.,6.));
#1538 = VECTOR('',#1539,1.);
#1539 = DIRECTION('',(1.,0.));
#1540 = ( GEOMETRIC_REPRESENTATION_CONTEXT(2) 
PARAMETRIC_REPRESENTATION_CONTEXT() REPRESENTATION_CONTEXT('2D SPACE',''
  ) );
#1541 = ORIENTED_EDGE('',*,*,#390,.T.);
#1542 = ADVANCED_FACE('',(#1543),#267,.F.);
#1543 = FACE_BOUND('',#1544,.F.);
#1544 = EDGE_LOOP('',(#1545,#1546,#1565,#1566));
#1545 = ORIENTED_EDGE('',*,*,#110,.T.);
#1546 = ORIENTED_EDGE('',*,*,#1547,.F.);
#1547 = EDGE_CURVE('',#1259,#111,#1548,.T.);
#1548 = SURFACE_CURVE('',#1549,(#1553,#1559),.PCURVE_S1.);
#1549 = LINE('',#1550,#1551);
#1550 = CARTESIAN_POINT('',(185.,-3.920777984023,17.25));
#1551 = VECTOR('',#1552,1.);
#1552 = DIRECTION('',(0.,0.,1.));
#1553 = PCURVE('',#267,#1554);
#1554 = DEFINITIONAL_REPRESENTATION('',(#1555),#1558);
#1555 = B_SPLINE_CURVE_WITH_KNOTS('',1,(#1556,#1557),.UNSPECIFIED.,.F.,
  .F.,(2,2),(0.,1.187733049375),.PIECEWISE_BEZIER_KNOTS.);
#1556 = CARTESIAN_POINT('',(4.144759954271,0.));
#1557 = CARTESIAN_POINT('',(4.144759954271,1.187733049375));
#1558 = ( GEOMETRIC_REPRESENTATION_CONTEXT(2) 
PARAMETRIC_REPRESENTATION_CONTEXT() REPRESENTATION_CONTEXT('2D SPACE',''
  ) );
#1559 = PCURVE('',#98,#1560);
#1560 = DEFINITIONAL_REPRESENTATION('',(#1561),#1564);
#1561 = B_SPLINE_CURVE_WITH_KNOTS('',1,(#1562,#1563),.UNSPECIFIED.,.F.,
  .F.,(2,2),(-5.999999999062E-07,2.023357088753),
  .PIECEWISE_BEZIER_KNOTS.);
#1562 = CARTESIAN_POINT('',(17.2499994,3.920777984023));
#1563 = CARTESIAN_POINT('',(19.273357088753,3.920777984023));
#1564 = ( GEOMETRIC_REPRESENTATION_CONTEXT(2) 
PARAMETRIC_REPRESENTATION_CONTEXT() REPRESENTATION_CONTEXT('2D SPACE',''
  ) );
#1565 = ORIENTED_EDGE('',*,*,#1279,.F.);
#1566 = ORIENTED_EDGE('',*,*,#1567,.T.);
#1567 = EDGE_CURVE('',#1257,#83,#1568,.T.);
#1568 = SURFACE_CURVE('',#1569,(#1573,#1579),.PCURVE_S1.);
#1569 = LINE('',#1570,#1571);
#1570 = CARTESIAN_POINT('',(185.,3.920777984023,17.25));
#1571 = VECTOR('',#1572,1.);
#1572 = DIRECTION('',(0.,0.,1.));
#1573 = PCURVE('',#267,#1574);
#1574 = DEFINITIONAL_REPRESENTATION('',(#1575),#1578);
#1575 = B_SPLINE_CURVE_WITH_KNOTS('',1,(#1576,#1577),.UNSPECIFIED.,.F.,
  .F.,(2,2),(0.,1.187733049375),.PIECEWISE_BEZIER_KNOTS.);
#1576 = CARTESIAN_POINT('',(8.421610660088,0.));
#1577 = CARTESIAN_POINT('',(8.421610660088,1.187733049375));
#1578 = ( GEOMETRIC_REPRESENTATION_CONTEXT(2) 
PARAMETRIC_REPRESENTATION_CONTEXT() REPRESENTATION_CONTEXT('2D SPACE',''
  ) );
#1579 = PCURVE('',#98,#1580);
#1580 = DEFINITIONAL_REPRESENTATION('',(#1581),#1584);
#1581 = B_SPLINE_CURVE_WITH_KNOTS('',1,(#1582,#1583),.UNSPECIFIED.,.F.,
  .F.,(2,2),(-5.999999999062E-07,2.023357088753),
  .PIECEWISE_BEZIER_KNOTS.);
#1582 = CARTESIAN_POINT('',(17.2499994,-3.920777984023));
#1583 = CARTESIAN_POINT('',(19.273357088753,-3.920777984023));
#1584 = ( GEOMETRIC_REPRESENTATION_CONTEXT(2) 
PARAMETRIC_REPRESENTATION_CONTEXT() REPRESENTATION_CONTEXT('2D SPACE',''
  ) );
#1585 = ADVANCED_FACE('',(#1586),#98,.F.);
#1586 = FACE_BOUND('',#1587,.F.);
#1587 = EDGE_LOOP('',(#1588,#1589,#1610,#1611,#1612,#1613,#1614,#1615,
    #1616,#1617,#1618,#1619));
#1588 = ORIENTED_EDGE('',*,*,#648,.F.);
#1589 = ORIENTED_EDGE('',*,*,#1590,.T.);
#1590 = EDGE_CURVE('',#628,#57,#1591,.T.);
#1591 = SURFACE_CURVE('',#1592,(#1596,#1603),.PCURVE_S1.);
#1592 = LINE('',#1593,#1594);
#1593 = CARTESIAN_POINT('',(185.,6.,0.));
#1594 = VECTOR('',#1595,1.);
#1595 = DIRECTION('',(0.,0.,1.));
#1596 = PCURVE('',#98,#1597);
#1597 = DEFINITIONAL_REPRESENTATION('',(#1598),#1602);
#1598 = LINE('',#1599,#1600);
#1599 = CARTESIAN_POINT('',(0.,-6.));
#1600 = VECTOR('',#1601,1.);
#1601 = DIRECTION('',(1.,0.));
#1602 = ( GEOMETRIC_REPRESENTATION_CONTEXT(2) 
PARAMETRIC_REPRESENTATION_CONTEXT() REPRESENTATION_CONTEXT('2D SPACE',''
  ) );
#1603 = PCURVE('',#71,#1604);
#1604 = DEFINITIONAL_REPRESENTATION('',(#1605),#1609);
#1605 = LINE('',#1606,#1607);
#1606 = CARTESIAN_POINT('',(0.,0.));
#1607 = VECTOR('',#1608,1.);
#1608 = DIRECTION('',(1.,0.));
#1609 = ( GEOMETRIC_REPRESENTATION_CONTEXT(2) 
PARAMETRIC_REPRESENTATION_CONTEXT() REPRESENTATION_CONTEXT('2D SPACE',''
  ) );
#1610 = ORIENTED_EDGE('',*,*,#82,.T.);
#1611 = ORIENTED_EDGE('',*,*,#1567,.F.);
#1612 = ORIENTED_EDGE('',*,*,#1256,.T.);
#1613 = ORIENTED_EDGE('',*,*,#1547,.T.);
#1614 = ORIENTED_EDGE('',*,*,#367,.T.);
#1615 = ORIENTED_EDGE('',*,*,#1521,.F.);
#1616 = ORIENTED_EDGE('',*,*,#927,.F.);
#1617 = ORIENTED_EDGE('',*,*,#1393,.T.);
#1618 = ORIENTED_EDGE('',*,*,#1415,.F.);
#1619 = ORIENTED_EDGE('',*,*,#1369,.F.);
#1620 = ADVANCED_FACE('',(#1621),#71,.T.);
#1621 = FACE_BOUND('',#1622,.T.);
#1622 = EDGE_LOOP('',(#1623,#1644,#1645,#1646));
#1623 = ORIENTED_EDGE('',*,*,#1624,.F.);
#1624 = EDGE_CURVE('',#605,#24,#1625,.T.);
#1625 = SURFACE_CURVE('',#1626,(#1630,#1637),.PCURVE_S1.);
#1626 = LINE('',#1627,#1628);
#1627 = CARTESIAN_POINT('',(194.,6.,0.));
#1628 = VECTOR('',#1629,1.);
#1629 = DIRECTION('',(0.,0.,1.));
#1630 = PCURVE('',#71,#1631);
#1631 = DEFINITIONAL_REPRESENTATION('',(#1632),#1636);
#1632 = LINE('',#1633,#1634);
#1633 = CARTESIAN_POINT('',(0.,9.));
#1634 = VECTOR('',#1635,1.);
#1635 = DIRECTION('',(1.,0.));
#1636 = ( GEOMETRIC_REPRESENTATION_CONTEXT(2) 
PARAMETRIC_REPRESENTATION_CONTEXT() REPRESENTATION_CONTEXT('2D SPACE',''
  ) );
#1637 = PCURVE('',#44,#1638);
#1638 = DEFINITIONAL_REPRESENTATION('',(#1639),#1643);
#1639 = LINE('',#1640,#1641);
#1640 = CARTESIAN_POINT('',(0.,-6.));
#1641 = VECTOR('',#1642,1.);
#1642 = DIRECTION('',(1.,0.));
#1643 = ( GEOMETRIC_REPRESENTATION_CONTEXT(2) 
PARAMETRIC_REPRESENTATION_CONTEXT() REPRESENTATION_CONTEXT('2D SPACE',''
  ) );
#1644 = ORIENTED_EDGE('',*,*,#627,.F.);
#1645 = ORIENTED_EDGE('',*,*,#1590,.T.);
#1646 = ORIENTED_EDGE('',*,*,#56,.T.);
#1647 = ADVANCED_FACE('',(#1648),#44,.F.);
#1648 = FACE_BOUND('',#1649,.F.);
#1649 = EDGE_LOOP('',(#1650,#1651,#1652,#1653));
#1650 = ORIENTED_EDGE('',*,*,#530,.T.);
#1651 = ORIENTED_EDGE('',*,*,#21,.T.);
#1652 = ORIENTED_EDGE('',*,*,#1624,.F.);
#1653 = ORIENTED_EDGE('',*,*,#604,.F.);
#1654 = ( GEOMETRIC_REPRESENTATION_CONTEXT(3) 
GLOBAL_UNCERTAINTY_ASSIGNED_CONTEXT((#1658)) 
GLOBAL_UNIT_ASSIGNED_CONTEXT((#1655,#1656,#1657)) REPRESENTATION_CONTEXT
('Context #1','3D Context with UNIT and UNCERTAINTY') );
#1655 = ( LENGTH_UNIT() NAMED_UNIT(*) SI_UNIT(.MILLI.,.METRE.) );
#1656 = ( NAMED_UNIT(*) PLANE_ANGLE_UNIT() SI_UNIT($,.RADIAN.) );
#1657 = ( NAMED_UNIT(*) SI_UNIT($,.STERADIAN.) SOLID_ANGLE_UNIT() );
#1658 = UNCERTAINTY_MEASURE_WITH_UNIT(LENGTH_MEASURE(1.E-07),#1655,
  'distance_accuracy_value','confusion accuracy');
#1659 = PRODUCT_RELATED_PRODUCT_CATEGORY('part',$,(#7));
ENDSEC;
END-ISO-10303-21;
