ISO-10303-21;
HEADER;
FILE_DESCRIPTION(('SkyG Speed 90B - revision C6B-1 - 2026-10-07','HL2-hatch-lip-rear'),'2;1');
FILE_NAME('HL2-hatch-lip-rear_C6B-1','2026-10-07T21:43:16',('Author'),(
    'Open CASCADE'),'Open CASCADE STEP processor 7.9','Open CASCADE 7.9'
  ,'Unknown');
FILE_SCHEMA(('AUTOMOTIVE_DESIGN { 1 0 10303 214 1 1 1 1 }'));
ENDSEC;
DATA;
#1 = APPLICATION_PROTOCOL_DEFINITION('international standard',
  'automotive_design',2000,#2);
#2 = APPLICATION_CONTEXT(
  'core data for automotive mechanical design processes');
#3 = SHAPE_DEFINITION_REPRESENTATION(#4,#10);
#4 = PRODUCT_DEFINITION_SHAPE('','',#5);
#5 = PRODUCT_DEFINITION('design','',#6,#9);
#6 = PRODUCT_DEFINITION_FORMATION('','',#7);
#7 = PRODUCT('HL2-hatch-lip-rear C6B-1','HL2-hatch-lip-rear C6B-1','',(#8));
#8 = PRODUCT_CONTEXT('',#2,'mechanical');
#9 = PRODUCT_DEFINITION_CONTEXT('part definition',#2,'design');
#10 = ADVANCED_BREP_SHAPE_REPRESENTATION('',(#11,#15),#1178);
#11 = AXIS2_PLACEMENT_3D('',#12,#13,#14);
#12 = CARTESIAN_POINT('',(0.,0.,0.));
#13 = DIRECTION('',(0.,0.,1.));
#14 = DIRECTION('',(1.,0.,-0.));
#15 = MANIFOLD_SOLID_BREP('',#16);
#16 = CLOSED_SHELL('',(#17,#347,#421,#603,#672,#722,#769,#798,#977,#1025
    ,#1076,#1083,#1116,#1144,#1171));
#17 = ADVANCED_FACE('',(#18),#33,.T.);
#18 = FACE_BOUND('',#19,.T.);
#19 = EDGE_LOOP('',(#20,#56,#82,#111,#139,#171,#271,#294,#323));
#20 = ORIENTED_EDGE('',*,*,#21,.T.);
#21 = EDGE_CURVE('',#22,#24,#26,.T.);
#22 = VERTEX_POINT('',#23);
#23 = CARTESIAN_POINT('',(194.,16.824758542101,8.5));
#24 = VERTEX_POINT('',#25);
#25 = CARTESIAN_POINT('',(194.,6.,17.869597085553));
#26 = SURFACE_CURVE('',#27,(#32,#44),.PCURVE_S1.);
#27 = CIRCLE('',#28,18.85);
#28 = AXIS2_PLACEMENT_3D('',#29,#30,#31);
#29 = CARTESIAN_POINT('',(194.,0.,0.));
#30 = DIRECTION('',(1.,0.,0.));
#31 = DIRECTION('',(-0.,0.,1.));
#32 = PCURVE('',#33,#38);
#33 = CYLINDRICAL_SURFACE('',#34,18.85);
#34 = AXIS2_PLACEMENT_3D('',#35,#36,#37);
#35 = CARTESIAN_POINT('',(194.,0.,0.));
#36 = DIRECTION('',(1.,0.,0.));
#37 = DIRECTION('',(-0.,0.,1.));
#38 = DEFINITIONAL_REPRESENTATION('',(#39),#43);
#39 = LINE('',#40,#41);
#40 = CARTESIAN_POINT('',(0.,0.));
#41 = VECTOR('',#42,1.);
#42 = DIRECTION('',(1.,0.));
#43 = ( GEOMETRIC_REPRESENTATION_CONTEXT(2) 
PARAMETRIC_REPRESENTATION_CONTEXT() REPRESENTATION_CONTEXT('2D SPACE',''
  ) );
#44 = PCURVE('',#45,#50);
#45 = PLANE('',#46);
#46 = AXIS2_PLACEMENT_3D('',#47,#48,#49);
#47 = CARTESIAN_POINT('',(194.,0.,0.));
#48 = DIRECTION('',(1.,0.,0.));
#49 = DIRECTION('',(-0.,0.,1.));
#50 = DEFINITIONAL_REPRESENTATION('',(#51),#55);
#51 = CIRCLE('',#52,18.85);
#52 = AXIS2_PLACEMENT_2D('',#53,#54);
#53 = CARTESIAN_POINT('',(0.,0.));
#54 = DIRECTION('',(1.,0.));
#55 = ( GEOMETRIC_REPRESENTATION_CONTEXT(2) 
PARAMETRIC_REPRESENTATION_CONTEXT() REPRESENTATION_CONTEXT('2D SPACE',''
  ) );
#56 = ORIENTED_EDGE('',*,*,#57,.F.);
#57 = EDGE_CURVE('',#58,#24,#60,.T.);
#58 = VERTEX_POINT('',#59);
#59 = CARTESIAN_POINT('',(189.,6.,17.869597085553));
#60 = SURFACE_CURVE('',#61,(#65,#71),.PCURVE_S1.);
#61 = LINE('',#62,#63);
#62 = CARTESIAN_POINT('',(189.,6.,17.869597085553));
#63 = VECTOR('',#64,1.);
#64 = DIRECTION('',(1.,0.,0.));
#65 = PCURVE('',#33,#66);
#66 = DEFINITIONAL_REPRESENTATION('',(#67),#70);
#67 = B_SPLINE_CURVE_WITH_KNOTS('',1,(#68,#69),.UNSPECIFIED.,.F.,.F.,(2,
    2),(-5.999999928008E-07,5.0000006),.PIECEWISE_BEZIER_KNOTS.);
#68 = CARTESIAN_POINT('',(5.959247110597,-5.0000006));
#69 = CARTESIAN_POINT('',(5.959247110597,5.999999928008E-07));
#70 = ( GEOMETRIC_REPRESENTATION_CONTEXT(2) 
PARAMETRIC_REPRESENTATION_CONTEXT() REPRESENTATION_CONTEXT('2D SPACE',''
  ) );
#71 = PCURVE('',#72,#77);
#72 = PLANE('',#73);
#73 = AXIS2_PLACEMENT_3D('',#74,#75,#76);
#74 = CARTESIAN_POINT('',(189.,6.,0.));
#75 = DIRECTION('',(-0.,1.,0.));
#76 = DIRECTION('',(0.,0.,1.));
#77 = DEFINITIONAL_REPRESENTATION('',(#78),#81);
#78 = B_SPLINE_CURVE_WITH_KNOTS('',1,(#79,#80),.UNSPECIFIED.,.F.,.F.,(2,
    2),(-5.999999928008E-07,5.0000006),.PIECEWISE_BEZIER_KNOTS.);
#79 = CARTESIAN_POINT('',(17.869597085553,-5.999999928008E-07));
#80 = CARTESIAN_POINT('',(17.869597085553,5.0000006));
#81 = ( GEOMETRIC_REPRESENTATION_CONTEXT(2) 
PARAMETRIC_REPRESENTATION_CONTEXT() REPRESENTATION_CONTEXT('2D SPACE',''
  ) );
#82 = ORIENTED_EDGE('',*,*,#83,.T.);
#83 = EDGE_CURVE('',#58,#84,#86,.T.);
#84 = VERTEX_POINT('',#85);
#85 = CARTESIAN_POINT('',(189.,4.616918432786E-15,18.85));
#86 = SURFACE_CURVE('',#87,(#92,#99),.PCURVE_S1.);
#87 = CIRCLE('',#88,18.85);
#88 = AXIS2_PLACEMENT_3D('',#89,#90,#91);
#89 = CARTESIAN_POINT('',(189.,0.,0.));
#90 = DIRECTION('',(1.,0.,0.));
#91 = DIRECTION('',(-0.,0.,1.));
#92 = PCURVE('',#33,#93);
#93 = DEFINITIONAL_REPRESENTATION('',(#94),#98);
#94 = LINE('',#95,#96);
#95 = CARTESIAN_POINT('',(0.,-5.));
#96 = VECTOR('',#97,1.);
#97 = DIRECTION('',(1.,0.));
#98 = ( GEOMETRIC_REPRESENTATION_CONTEXT(2) 
PARAMETRIC_REPRESENTATION_CONTEXT() REPRESENTATION_CONTEXT('2D SPACE',''
  ) );
#99 = PCURVE('',#100,#105);
#100 = PLANE('',#101);
#101 = AXIS2_PLACEMENT_3D('',#102,#103,#104);
#102 = CARTESIAN_POINT('',(189.,0.,0.));
#103 = DIRECTION('',(1.,0.,0.));
#104 = DIRECTION('',(-0.,0.,1.));
#105 = DEFINITIONAL_REPRESENTATION('',(#106),#110);
#106 = CIRCLE('',#107,18.85);
#107 = AXIS2_PLACEMENT_2D('',#108,#109);
#108 = CARTESIAN_POINT('',(0.,0.));
#109 = DIRECTION('',(1.,0.));
#110 = ( GEOMETRIC_REPRESENTATION_CONTEXT(2) 
PARAMETRIC_REPRESENTATION_CONTEXT() REPRESENTATION_CONTEXT('2D SPACE',''
  ) );
#111 = ORIENTED_EDGE('',*,*,#112,.T.);
#112 = EDGE_CURVE('',#84,#113,#115,.T.);
#113 = VERTEX_POINT('',#114);
#114 = CARTESIAN_POINT('',(189.01084187702,2.308459216393E-15,18.85));
#115 = SURFACE_CURVE('',#116,(#120,#127),.PCURVE_S1.);
#116 = LINE('',#117,#118);
#117 = CARTESIAN_POINT('',(189.,4.616918432786E-15,18.85));
#118 = VECTOR('',#119,1.);
#119 = DIRECTION('',(1.,0.,0.));
#120 = PCURVE('',#33,#121);
#121 = DEFINITIONAL_REPRESENTATION('',(#122),#126);
#122 = LINE('',#123,#124);
#123 = CARTESIAN_POINT('',(6.28318530718,-5.));
#124 = VECTOR('',#125,1.);
#125 = DIRECTION('',(0.,1.));
#126 = ( GEOMETRIC_REPRESENTATION_CONTEXT(2) 
PARAMETRIC_REPRESENTATION_CONTEXT() REPRESENTATION_CONTEXT('2D SPACE',''
  ) );
#127 = PCURVE('',#128,#133);
#128 = CYLINDRICAL_SURFACE('',#129,18.85);
#129 = AXIS2_PLACEMENT_3D('',#130,#131,#132);
#130 = CARTESIAN_POINT('',(194.,0.,0.));
#131 = DIRECTION('',(1.,0.,0.));
#132 = DIRECTION('',(-0.,0.,1.));
#133 = DEFINITIONAL_REPRESENTATION('',(#134),#138);
#134 = LINE('',#135,#136);
#135 = CARTESIAN_POINT('',(0.,-5.));
#136 = VECTOR('',#137,1.);
#137 = DIRECTION('',(0.,1.));
#138 = ( GEOMETRIC_REPRESENTATION_CONTEXT(2) 
PARAMETRIC_REPRESENTATION_CONTEXT() REPRESENTATION_CONTEXT('2D SPACE',''
  ) );
#139 = ORIENTED_EDGE('',*,*,#140,.T.);
#140 = EDGE_CURVE('',#113,#141,#143,.T.);
#141 = VERTEX_POINT('',#142);
#142 = CARTESIAN_POINT('',(190.4715398245,1.22567110899,18.810109790551)
  );
#143 = SURFACE_CURVE('',#144,(#149,#159),.PCURVE_S1.);
#144 = ELLIPSE('',#145,29.325394136319,18.85);
#145 = AXIS2_PLACEMENT_3D('',#146,#147,#148);
#146 = CARTESIAN_POINT('',(189.01084187702,0.,0.));
#147 = DIRECTION('',(-0.642787609687,0.766044443119,0.));
#148 = DIRECTION('',(0.766044443119,0.642787609687,0.));
#149 = PCURVE('',#33,#150);
#150 = DEFINITIONAL_REPRESENTATION('',(#151),#158);
#151 = B_SPLINE_CURVE_WITH_KNOTS('',5,(#152,#153,#154,#155,#156,#157),
  .UNSPECIFIED.,.F.,.F.,(6,6),(4.712388980385,4.783974679019),
  .PIECEWISE_BEZIER_KNOTS.);
#152 = CARTESIAN_POINT('',(6.28318530718,-4.989158122977));
#153 = CARTESIAN_POINT('',(6.268868167453,-4.667529946986));
#154 = CARTESIAN_POINT('',(6.254551027726,-4.345901770993));
#155 = CARTESIAN_POINT('',(6.240233887999,-4.024410943975));
#156 = CARTESIAN_POINT('',(6.225916748272,-3.70319481484));
#157 = CARTESIAN_POINT('',(6.211599608546,-3.382390380751));
#158 = ( GEOMETRIC_REPRESENTATION_CONTEXT(2) 
PARAMETRIC_REPRESENTATION_CONTEXT() REPRESENTATION_CONTEXT('2D SPACE',''
  ) );
#159 = PCURVE('',#160,#165);
#160 = PLANE('',#161);
#161 = AXIS2_PLACEMENT_3D('',#162,#163,#164);
#162 = CARTESIAN_POINT('',(189.01084187702,0.,16.8));
#163 = DIRECTION('',(-0.642787609687,0.766044443119,0.));
#164 = DIRECTION('',(0.766044443119,0.642787609687,0.));
#165 = DEFINITIONAL_REPRESENTATION('',(#166),#170);
#166 = ELLIPSE('',#167,29.325394136319,18.85);
#167 = AXIS2_PLACEMENT_2D('',#168,#169);
#168 = CARTESIAN_POINT('',(-2.17722925731E-14,16.8));
#169 = DIRECTION('',(1.,0.));
#170 = ( GEOMETRIC_REPRESENTATION_CONTEXT(2) 
PARAMETRIC_REPRESENTATION_CONTEXT() REPRESENTATION_CONTEXT('2D SPACE',''
  ) );
#171 = ORIENTED_EDGE('',*,*,#172,.F.);
#172 = EDGE_CURVE('',#173,#141,#175,.T.);
#173 = VERTEX_POINT('',#174);
#174 = CARTESIAN_POINT('',(193.1,2.112515728529E-15,18.85));
#175 = SURFACE_CURVE('',#176,(#204,#235),.PCURVE_S1.);
#176 = B_SPLINE_CURVE_WITH_KNOTS('',6,(#177,#178,#179,#180,#181,#182,
    #183,#184,#185,#186,#187,#188,#189,#190,#191,#192,#193,#194,#195,
    #196,#197,#198,#199,#200,#201,#202,#203),.UNSPECIFIED.,.F.,.F.,(7,5,
    5,5,5,7),(0.,0.234085968329,0.49565286812,0.672402152429,
    0.910198507755,1.),.UNSPECIFIED.);
#177 = CARTESIAN_POINT('',(193.1,2.112515728529E-15,18.85));
#178 = CARTESIAN_POINT('',(193.1,0.170778791474,18.85));
#179 = CARTESIAN_POINT('',(193.07812559452,0.339908128859,
    18.848143695116));
#180 = CARTESIAN_POINT('',(193.03517148413,0.503025227098,
    18.844495770662));
#181 = CARTESIAN_POINT('',(192.97339121916,0.656058844716,
    18.839445820869));
#182 = CARTESIAN_POINT('',(192.89639129713,0.795719435962,18.83360866145
    ));
#183 = CARTESIAN_POINT('',(192.71143298731,1.058888491166,
    18.820748893099));
#184 = CARTESIAN_POINT('',(192.59982427515,1.180108883587,
    18.813593026524));
#185 = CARTESIAN_POINT('',(192.47795827173,1.283642505523,18.80665573216
    ));
#186 = CARTESIAN_POINT('',(192.34865002161,1.369906334477,
    18.800377185189));
#187 = CARTESIAN_POINT('',(192.21407741669,1.43944404422,18.795035453252
    ));
#188 = CARTESIAN_POINT('',(191.98268802863,1.528729778211,
    18.787942669234));
#189 = CARTESIAN_POINT('',(191.88770470674,1.557339847043,
    18.785586659283));
#190 = CARTESIAN_POINT('',(191.79153947572,1.578695846876,
    18.783787492215));
#191 = CARTESIAN_POINT('',(191.69461391788,1.592898149695,18.78257779087
    ));
#192 = CARTESIAN_POINT('',(191.59730942936,1.6,18.781972739838));
#193 = CARTESIAN_POINT('',(191.36908106739,1.6,18.781972739838));
#194 = CARTESIAN_POINT('',(191.23818250035,1.587145112657,
    18.783067839619));
#195 = CARTESIAN_POINT('',(191.10819936325,1.561443185494,
    18.785257254868));
#196 = CARTESIAN_POINT('',(190.98006239074,1.522712353266,
    18.788490419218));
#197 = CARTESIAN_POINT('',(190.85487965023,1.470627765358,
    18.792661202662));
#198 = CARTESIAN_POINT('',(190.68847912808,1.379903255501,
    18.799441187224));
#199 = CARTESIAN_POINT('',(190.64349158692,1.35306965381,18.801406782044
    ));
#200 = CARTESIAN_POINT('',(190.59921045844,1.324250377447,
    18.803469361652));
#201 = CARTESIAN_POINT('',(190.55572471255,1.293424407601,
    18.805616953804));
#202 = CARTESIAN_POINT('',(190.51313223442,1.260571284816,
    18.807835687014));
#203 = CARTESIAN_POINT('',(190.4715398245,1.22567110899,18.810109790551)
  );
#204 = PCURVE('',#33,#205);
#205 = DEFINITIONAL_REPRESENTATION('',(#206),#234);
#206 = B_SPLINE_CURVE_WITH_KNOTS('',6,(#207,#208,#209,#210,#211,#212,
    #213,#214,#215,#216,#217,#218,#219,#220,#221,#222,#223,#224,#225,
    #226,#227,#228,#229,#230,#231,#232,#233),.UNSPECIFIED.,.F.,.F.,(7,5,
    5,5,5,7),(0.,0.234085968329,0.49565286812,0.672402152429,
    0.910198507755,1.),.UNSPECIFIED.);
#207 = CARTESIAN_POINT('',(6.28318530718,-0.9));
#208 = CARTESIAN_POINT('',(6.274125424343,-0.9));
#209 = CARTESIAN_POINT('',(6.265153044475,-0.921874405476));
#210 = CARTESIAN_POINT('',(6.256498286208,-0.964828515863));
#211 = CARTESIAN_POINT('',(6.248375878977,-1.026608780833));
#212 = CARTESIAN_POINT('',(6.240960543901,-1.103608702861));
#213 = CARTESIAN_POINT('',(6.226982662497,-1.288567012684));
#214 = CARTESIAN_POINT('',(6.220541008624,-1.400175724845));
#215 = CARTESIAN_POINT('',(6.215036367985,-1.522041728266));
#216 = CARTESIAN_POINT('',(6.210447990318,-1.651349978386));
#217 = CARTESIAN_POINT('',(6.206748131706,-1.785922583303));
#218 = CARTESIAN_POINT('',(6.201996566011,-2.01731197137));
#219 = CARTESIAN_POINT('',(6.200473658718,-2.11229529326));
#220 = CARTESIAN_POINT('',(6.199336702851,-2.208460524276));
#221 = CARTESIAN_POINT('',(6.198580535447,-2.305386082111));
#222 = CARTESIAN_POINT('',(6.19820241513,-2.402690570637));
#223 = CARTESIAN_POINT('',(6.19820241513,-2.63091893261));
#224 = CARTESIAN_POINT('',(6.198886842246,-2.761817499646));
#225 = CARTESIAN_POINT('',(6.200255277187,-2.891800636745));
#226 = CARTESIAN_POINT('',(6.202317108531,-3.019937609254));
#227 = CARTESIAN_POINT('',(6.205089022528,-3.145120349764));
#228 = CARTESIAN_POINT('',(6.209915414918,-3.311520871911));
#229 = CARTESIAN_POINT('',(6.211342761094,-3.356508413074));
#230 = CARTESIAN_POINT('',(6.212875541945,-3.400789541555));
#231 = CARTESIAN_POINT('',(6.214514830296,-3.444275287448));
#232 = CARTESIAN_POINT('',(6.216261667162,-3.486867765577));
#233 = CARTESIAN_POINT('',(6.218117061746,-3.528460175498));
#234 = ( GEOMETRIC_REPRESENTATION_CONTEXT(2) 
PARAMETRIC_REPRESENTATION_CONTEXT() REPRESENTATION_CONTEXT('2D SPACE',''
  ) );
#235 = PCURVE('',#236,#241);
#236 = CYLINDRICAL_SURFACE('',#237,1.6);
#237 = AXIS2_PLACEMENT_3D('',#238,#239,#240);
#238 = CARTESIAN_POINT('',(191.5,0.,16.8));
#239 = DIRECTION('',(0.,0.,1.));
#240 = DIRECTION('',(1.,0.,-0.));
#241 = DEFINITIONAL_REPRESENTATION('',(#242),#270);
#242 = B_SPLINE_CURVE_WITH_KNOTS('',6,(#243,#244,#245,#246,#247,#248,
    #249,#250,#251,#252,#253,#254,#255,#256,#257,#258,#259,#260,#261,
    #262,#263,#264,#265,#266,#267,#268,#269),.UNSPECIFIED.,.F.,.F.,(7,5,
    5,5,5,7),(0.,0.234085968329,0.49565286812,0.672402152429,
    0.910198507755,1.),.UNSPECIFIED.);
#243 = CARTESIAN_POINT('',(6.28318530718,2.05));
#244 = CARTESIAN_POINT('',(6.389922051851,2.05));
#245 = CARTESIAN_POINT('',(6.495627664559,2.048143695116));
#246 = CARTESIAN_POINT('',(6.599765955493,2.044495770662));
#247 = CARTESIAN_POINT('',(6.701762766832,2.039445820869));
#248 = CARTESIAN_POINT('',(6.800849188329,2.03360866145));
#249 = CARTESIAN_POINT('',(7.001888993146,2.020748893099));
#250 = CARTESIAN_POINT('',(7.103984613418,2.013593026524));
#251 = CARTESIAN_POINT('',(7.202868075011,2.00665573216));
#252 = CARTESIAN_POINT('',(7.299098326217,2.000377185189));
#253 = CARTESIAN_POINT('',(7.393213543891,1.995035453252));
#254 = CARTESIAN_POINT('',(7.54822487312,1.987942669234));
#255 = CARTESIAN_POINT('',(7.610046586354,1.985586659283));
#256 = CARTESIAN_POINT('',(7.671364450422,1.983787492215));
#257 = CARTESIAN_POINT('',(7.732348006654,1.98257779087));
#258 = CARTESIAN_POINT('',(7.793163240623,1.981972739838));
#259 = CARTESIAN_POINT('',(7.935805966856,1.981972739838));
#260 = CARTESIAN_POINT('',(8.017617759997,1.983067839619));
#261 = CARTESIAN_POINT('',(8.099842422724,1.985257254868));
#262 = CARTESIAN_POINT('',(8.182887094666,1.988490419218));
#263 = CARTESIAN_POINT('',(8.26716276683,1.992661202662));
#264 = CARTESIAN_POINT('',(8.385616460412,1.999441187224));
#265 = CARTESIAN_POINT('',(8.418331331553,2.001406782044));
#266 = CARTESIAN_POINT('',(8.451313690842,2.003469361652));
#267 = CARTESIAN_POINT('',(8.484587806549,2.005616953804));
#268 = CARTESIAN_POINT('',(8.518178937839,2.007835687014));
#269 = CARTESIAN_POINT('',(8.552113334772,2.010109790551));
#270 = ( GEOMETRIC_REPRESENTATION_CONTEXT(2) 
PARAMETRIC_REPRESENTATION_CONTEXT() REPRESENTATION_CONTEXT('2D SPACE',''
  ) );
#271 = ORIENTED_EDGE('',*,*,#272,.T.);
#272 = EDGE_CURVE('',#173,#273,#275,.T.);
#273 = VERTEX_POINT('',#274);
#274 = CARTESIAN_POINT('',(199.7,4.616918432786E-15,18.85));
#275 = SURFACE_CURVE('',#276,(#280,#287),.PCURVE_S1.);
#276 = LINE('',#277,#278);
#277 = CARTESIAN_POINT('',(193.1,2.112515728529E-15,18.85));
#278 = VECTOR('',#279,1.);
#279 = DIRECTION('',(1.,3.794549551904E-16,0.));
#280 = PCURVE('',#33,#281);
#281 = DEFINITIONAL_REPRESENTATION('',(#282),#286);
#282 = LINE('',#283,#284);
#283 = CARTESIAN_POINT('',(6.28318530718,-0.9));
#284 = VECTOR('',#285,1.);
#285 = DIRECTION('',(0.,1.));
#286 = ( GEOMETRIC_REPRESENTATION_CONTEXT(2) 
PARAMETRIC_REPRESENTATION_CONTEXT() REPRESENTATION_CONTEXT('2D SPACE',''
  ) );
#287 = PCURVE('',#128,#288);
#288 = DEFINITIONAL_REPRESENTATION('',(#289),#293);
#289 = LINE('',#290,#291);
#290 = CARTESIAN_POINT('',(0.,-0.9));
#291 = VECTOR('',#292,1.);
#292 = DIRECTION('',(0.,1.));
#293 = ( GEOMETRIC_REPRESENTATION_CONTEXT(2) 
PARAMETRIC_REPRESENTATION_CONTEXT() REPRESENTATION_CONTEXT('2D SPACE',''
  ) );
#294 = ORIENTED_EDGE('',*,*,#295,.F.);
#295 = EDGE_CURVE('',#296,#273,#298,.T.);
#296 = VERTEX_POINT('',#297);
#297 = CARTESIAN_POINT('',(199.7,16.824758542101,8.5));
#298 = SURFACE_CURVE('',#299,(#304,#311),.PCURVE_S1.);
#299 = CIRCLE('',#300,18.85);
#300 = AXIS2_PLACEMENT_3D('',#301,#302,#303);
#301 = CARTESIAN_POINT('',(199.7,0.,0.));
#302 = DIRECTION('',(1.,0.,0.));
#303 = DIRECTION('',(-0.,0.,1.));
#304 = PCURVE('',#33,#305);
#305 = DEFINITIONAL_REPRESENTATION('',(#306),#310);
#306 = LINE('',#307,#308);
#307 = CARTESIAN_POINT('',(0.,5.7));
#308 = VECTOR('',#309,1.);
#309 = DIRECTION('',(1.,0.));
#310 = ( GEOMETRIC_REPRESENTATION_CONTEXT(2) 
PARAMETRIC_REPRESENTATION_CONTEXT() REPRESENTATION_CONTEXT('2D SPACE',''
  ) );
#311 = PCURVE('',#312,#317);
#312 = PLANE('',#313);
#313 = AXIS2_PLACEMENT_3D('',#314,#315,#316);
#314 = CARTESIAN_POINT('',(199.7,0.,0.));
#315 = DIRECTION('',(1.,0.,0.));
#316 = DIRECTION('',(-0.,0.,1.));
#317 = DEFINITIONAL_REPRESENTATION('',(#318),#322);
#318 = CIRCLE('',#319,18.85);
#319 = AXIS2_PLACEMENT_2D('',#320,#321);
#320 = CARTESIAN_POINT('',(0.,0.));
#321 = DIRECTION('',(1.,0.));
#322 = ( GEOMETRIC_REPRESENTATION_CONTEXT(2) 
PARAMETRIC_REPRESENTATION_CONTEXT() REPRESENTATION_CONTEXT('2D SPACE',''
  ) );
#323 = ORIENTED_EDGE('',*,*,#324,.F.);
#324 = EDGE_CURVE('',#22,#296,#325,.T.);
#325 = SURFACE_CURVE('',#326,(#330,#336),.PCURVE_S1.);
#326 = LINE('',#327,#328);
#327 = CARTESIAN_POINT('',(194.,16.824758542101,8.5));
#328 = VECTOR('',#329,1.);
#329 = DIRECTION('',(1.,0.,0.));
#330 = PCURVE('',#33,#331);
#331 = DEFINITIONAL_REPRESENTATION('',(#332),#335);
#332 = B_SPLINE_CURVE_WITH_KNOTS('',1,(#333,#334),.UNSPECIFIED.,.F.,.F.,
  (2,2),(-5.999999928008E-07,5.7000006),.PIECEWISE_BEZIER_KNOTS.);
#333 = CARTESIAN_POINT('',(5.180194180274,-5.999999928008E-07));
#334 = CARTESIAN_POINT('',(5.180194180274,5.7000006));
#335 = ( GEOMETRIC_REPRESENTATION_CONTEXT(2) 
PARAMETRIC_REPRESENTATION_CONTEXT() REPRESENTATION_CONTEXT('2D SPACE',''
  ) );
#336 = PCURVE('',#337,#342);
#337 = PLANE('',#338);
#338 = AXIS2_PLACEMENT_3D('',#339,#340,#341);
#339 = CARTESIAN_POINT('',(194.,-30.,8.5));
#340 = DIRECTION('',(0.,0.,1.));
#341 = DIRECTION('',(1.,0.,-0.));
#342 = DEFINITIONAL_REPRESENTATION('',(#343),#346);
#343 = B_SPLINE_CURVE_WITH_KNOTS('',1,(#344,#345),.UNSPECIFIED.,.F.,.F.,
  (2,2),(-5.999999928008E-07,5.7000006),.PIECEWISE_BEZIER_KNOTS.);
#344 = CARTESIAN_POINT('',(-5.999999928008E-07,46.824758542101));
#345 = CARTESIAN_POINT('',(5.7000006,46.824758542101));
#346 = ( GEOMETRIC_REPRESENTATION_CONTEXT(2) 
PARAMETRIC_REPRESENTATION_CONTEXT() REPRESENTATION_CONTEXT('2D SPACE',''
  ) );
#347 = ADVANCED_FACE('',(#348),#337,.F.);
#348 = FACE_BOUND('',#349,.F.);
#349 = EDGE_LOOP('',(#350,#373,#399,#420));
#350 = ORIENTED_EDGE('',*,*,#351,.F.);
#351 = EDGE_CURVE('',#352,#22,#354,.T.);
#352 = VERTEX_POINT('',#353);
#353 = CARTESIAN_POINT('',(194.,13.318783728254,8.5));
#354 = SURFACE_CURVE('',#355,(#359,#366),.PCURVE_S1.);
#355 = LINE('',#356,#357);
#356 = CARTESIAN_POINT('',(194.,-30.,8.5));
#357 = VECTOR('',#358,1.);
#358 = DIRECTION('',(-0.,1.,0.));
#359 = PCURVE('',#337,#360);
#360 = DEFINITIONAL_REPRESENTATION('',(#361),#365);
#361 = LINE('',#362,#363);
#362 = CARTESIAN_POINT('',(0.,0.));
#363 = VECTOR('',#364,1.);
#364 = DIRECTION('',(0.,1.));
#365 = ( GEOMETRIC_REPRESENTATION_CONTEXT(2) 
PARAMETRIC_REPRESENTATION_CONTEXT() REPRESENTATION_CONTEXT('2D SPACE',''
  ) );
#366 = PCURVE('',#45,#367);
#367 = DEFINITIONAL_REPRESENTATION('',(#368),#372);
#368 = LINE('',#369,#370);
#369 = CARTESIAN_POINT('',(8.5,30.));
#370 = VECTOR('',#371,1.);
#371 = DIRECTION('',(0.,-1.));
#372 = ( GEOMETRIC_REPRESENTATION_CONTEXT(2) 
PARAMETRIC_REPRESENTATION_CONTEXT() REPRESENTATION_CONTEXT('2D SPACE',''
  ) );
#373 = ORIENTED_EDGE('',*,*,#374,.T.);
#374 = EDGE_CURVE('',#352,#375,#377,.T.);
#375 = VERTEX_POINT('',#376);
#376 = CARTESIAN_POINT('',(199.7,13.318783728254,8.5));
#377 = SURFACE_CURVE('',#378,(#382,#388),.PCURVE_S1.);
#378 = LINE('',#379,#380);
#379 = CARTESIAN_POINT('',(193.,13.318783728254,8.5));
#380 = VECTOR('',#381,1.);
#381 = DIRECTION('',(1.,0.,0.));
#382 = PCURVE('',#337,#383);
#383 = DEFINITIONAL_REPRESENTATION('',(#384),#387);
#384 = B_SPLINE_CURVE_WITH_KNOTS('',1,(#385,#386),.UNSPECIFIED.,.F.,.F.,
  (2,2),(0.9999994,6.7000006),.PIECEWISE_BEZIER_KNOTS.);
#385 = CARTESIAN_POINT('',(-5.999999928008E-07,43.318783728254));
#386 = CARTESIAN_POINT('',(5.7000006,43.318783728254));
#387 = ( GEOMETRIC_REPRESENTATION_CONTEXT(2) 
PARAMETRIC_REPRESENTATION_CONTEXT() REPRESENTATION_CONTEXT('2D SPACE',''
  ) );
#388 = PCURVE('',#389,#394);
#389 = CYLINDRICAL_SURFACE('',#390,15.8);
#390 = AXIS2_PLACEMENT_3D('',#391,#392,#393);
#391 = CARTESIAN_POINT('',(193.,0.,0.));
#392 = DIRECTION('',(1.,0.,0.));
#393 = DIRECTION('',(-0.,0.,1.));
#394 = DEFINITIONAL_REPRESENTATION('',(#395),#398);
#395 = B_SPLINE_CURVE_WITH_KNOTS('',1,(#396,#397),.UNSPECIFIED.,.F.,.F.,
  (2,2),(1.,6.7),.PIECEWISE_BEZIER_KNOTS.);
#396 = CARTESIAN_POINT('',(5.280421620822,1.));
#397 = CARTESIAN_POINT('',(5.280421620822,6.7));
#398 = ( GEOMETRIC_REPRESENTATION_CONTEXT(2) 
PARAMETRIC_REPRESENTATION_CONTEXT() REPRESENTATION_CONTEXT('2D SPACE',''
  ) );
#399 = ORIENTED_EDGE('',*,*,#400,.T.);
#400 = EDGE_CURVE('',#375,#296,#401,.T.);
#401 = SURFACE_CURVE('',#402,(#406,#413),.PCURVE_S1.);
#402 = LINE('',#403,#404);
#403 = CARTESIAN_POINT('',(199.7,-30.,8.5));
#404 = VECTOR('',#405,1.);
#405 = DIRECTION('',(-0.,1.,0.));
#406 = PCURVE('',#337,#407);
#407 = DEFINITIONAL_REPRESENTATION('',(#408),#412);
#408 = LINE('',#409,#410);
#409 = CARTESIAN_POINT('',(5.7,0.));
#410 = VECTOR('',#411,1.);
#411 = DIRECTION('',(0.,1.));
#412 = ( GEOMETRIC_REPRESENTATION_CONTEXT(2) 
PARAMETRIC_REPRESENTATION_CONTEXT() REPRESENTATION_CONTEXT('2D SPACE',''
  ) );
#413 = PCURVE('',#312,#414);
#414 = DEFINITIONAL_REPRESENTATION('',(#415),#419);
#415 = LINE('',#416,#417);
#416 = CARTESIAN_POINT('',(8.5,30.));
#417 = VECTOR('',#418,1.);
#418 = DIRECTION('',(0.,-1.));
#419 = ( GEOMETRIC_REPRESENTATION_CONTEXT(2) 
PARAMETRIC_REPRESENTATION_CONTEXT() REPRESENTATION_CONTEXT('2D SPACE',''
  ) );
#420 = ORIENTED_EDGE('',*,*,#324,.F.);
#421 = ADVANCED_FACE('',(#422),#389,.F.);
#422 = FACE_BOUND('',#423,.F.);
#423 = EDGE_LOOP('',(#424,#447,#468,#496,#522,#550,#576,#602));
#424 = ORIENTED_EDGE('',*,*,#425,.T.);
#425 = EDGE_CURVE('',#352,#426,#428,.T.);
#426 = VERTEX_POINT('',#427);
#427 = CARTESIAN_POINT('',(194.,6.,14.616429112475));
#428 = SURFACE_CURVE('',#429,(#434,#440),.PCURVE_S1.);
#429 = CIRCLE('',#430,15.8);
#430 = AXIS2_PLACEMENT_3D('',#431,#432,#433);
#431 = CARTESIAN_POINT('',(194.,0.,0.));
#432 = DIRECTION('',(1.,0.,0.));
#433 = DIRECTION('',(-0.,0.,1.));
#434 = PCURVE('',#389,#435);
#435 = DEFINITIONAL_REPRESENTATION('',(#436),#439);
#436 = B_SPLINE_CURVE_WITH_KNOTS('',1,(#437,#438),.UNSPECIFIED.,.F.,.F.,
  (2,2),(5.280421620822,5.893662690735),.PIECEWISE_BEZIER_KNOTS.);
#437 = CARTESIAN_POINT('',(5.280421620822,1.));
#438 = CARTESIAN_POINT('',(5.893662690735,1.));
#439 = ( GEOMETRIC_REPRESENTATION_CONTEXT(2) 
PARAMETRIC_REPRESENTATION_CONTEXT() REPRESENTATION_CONTEXT('2D SPACE',''
  ) );
#440 = PCURVE('',#45,#441);
#441 = DEFINITIONAL_REPRESENTATION('',(#442),#446);
#442 = CIRCLE('',#443,15.8);
#443 = AXIS2_PLACEMENT_2D('',#444,#445);
#444 = CARTESIAN_POINT('',(0.,0.));
#445 = DIRECTION('',(1.,0.));
#446 = ( GEOMETRIC_REPRESENTATION_CONTEXT(2) 
PARAMETRIC_REPRESENTATION_CONTEXT() REPRESENTATION_CONTEXT('2D SPACE',''
  ) );
#447 = ORIENTED_EDGE('',*,*,#448,.F.);
#448 = EDGE_CURVE('',#449,#426,#451,.T.);
#449 = VERTEX_POINT('',#450);
#450 = CARTESIAN_POINT('',(189.,6.,14.616429112475));
#451 = SURFACE_CURVE('',#452,(#456,#462),.PCURVE_S1.);
#452 = LINE('',#453,#454);
#453 = CARTESIAN_POINT('',(188.,6.,14.616429112475));
#454 = VECTOR('',#455,1.);
#455 = DIRECTION('',(1.,0.,0.));
#456 = PCURVE('',#389,#457);
#457 = DEFINITIONAL_REPRESENTATION('',(#458),#461);
#458 = B_SPLINE_CURVE_WITH_KNOTS('',1,(#459,#460),.UNSPECIFIED.,.F.,.F.,
  (2,2),(1.,6.),.PIECEWISE_BEZIER_KNOTS.);
#459 = CARTESIAN_POINT('',(5.893662690735,-4.));
#460 = CARTESIAN_POINT('',(5.893662690735,1.));
#461 = ( GEOMETRIC_REPRESENTATION_CONTEXT(2) 
PARAMETRIC_REPRESENTATION_CONTEXT() REPRESENTATION_CONTEXT('2D SPACE',''
  ) );
#462 = PCURVE('',#72,#463);
#463 = DEFINITIONAL_REPRESENTATION('',(#464),#467);
#464 = B_SPLINE_CURVE_WITH_KNOTS('',1,(#465,#466),.UNSPECIFIED.,.F.,.F.,
  (2,2),(0.9999994,6.0000006),.PIECEWISE_BEZIER_KNOTS.);
#465 = CARTESIAN_POINT('',(14.616429112475,-5.999999928008E-07));
#466 = CARTESIAN_POINT('',(14.616429112475,5.0000006));
#467 = ( GEOMETRIC_REPRESENTATION_CONTEXT(2) 
PARAMETRIC_REPRESENTATION_CONTEXT() REPRESENTATION_CONTEXT('2D SPACE',''
  ) );
#468 = ORIENTED_EDGE('',*,*,#469,.F.);
#469 = EDGE_CURVE('',#470,#449,#472,.T.);
#470 = VERTEX_POINT('',#471);
#471 = CARTESIAN_POINT('',(189.,-6.,14.616429112475));
#472 = SURFACE_CURVE('',#473,(#478,#485),.PCURVE_S1.);
#473 = CIRCLE('',#474,15.8);
#474 = AXIS2_PLACEMENT_3D('',#475,#476,#477);
#475 = CARTESIAN_POINT('',(189.,0.,0.));
#476 = DIRECTION('',(-1.,0.,0.));
#477 = DIRECTION('',(0.,-0.379746835443,0.925090450157));
#478 = PCURVE('',#389,#479);
#479 = DEFINITIONAL_REPRESENTATION('',(#480),#484);
#480 = LINE('',#481,#482);
#481 = CARTESIAN_POINT('',(6.672707923624,-4.));
#482 = VECTOR('',#483,1.);
#483 = DIRECTION('',(-1.,-0.));
#484 = ( GEOMETRIC_REPRESENTATION_CONTEXT(2) 
PARAMETRIC_REPRESENTATION_CONTEXT() REPRESENTATION_CONTEXT('2D SPACE',''
  ) );
#485 = PCURVE('',#100,#486);
#486 = DEFINITIONAL_REPRESENTATION('',(#487),#495);
#487 = ( BOUNDED_CURVE() B_SPLINE_CURVE(2,(#488,#489,#490,#491,#492,#493
,#494),.UNSPECIFIED.,.T.,.F.) B_SPLINE_CURVE_WITH_KNOTS((1,2,2,2,2,1),(
    -2.094395102393,0.,2.094395102393,4.188790204786,6.28318530718,
8.377580409573),.UNSPECIFIED.) CURVE() GEOMETRIC_REPRESENTATION_ITEM() 
RATIONAL_B_SPLINE_CURVE((1.,0.5,1.,0.5,1.,0.5,1.)) REPRESENTATION_ITEM(
  '') );
#488 = CARTESIAN_POINT('',(14.616429112475,6.));
#489 = CARTESIAN_POINT('',(25.008733957888,-19.31639784803));
#490 = CARTESIAN_POINT('',(-2.112062133531,-15.65819892401));
#491 = CARTESIAN_POINT('',(-29.23285822495,-12.));
#492 = CARTESIAN_POINT('',(-12.50436697894,9.658198924018));
#493 = CARTESIAN_POINT('',(4.224124267062,31.316397848035));
#494 = CARTESIAN_POINT('',(14.616429112475,6.));
#495 = ( GEOMETRIC_REPRESENTATION_CONTEXT(2) 
PARAMETRIC_REPRESENTATION_CONTEXT() REPRESENTATION_CONTEXT('2D SPACE',''
  ) );
#496 = ORIENTED_EDGE('',*,*,#497,.T.);
#497 = EDGE_CURVE('',#470,#498,#500,.T.);
#498 = VERTEX_POINT('',#499);
#499 = CARTESIAN_POINT('',(194.,-6.,14.616429112475));
#500 = SURFACE_CURVE('',#501,(#505,#511),.PCURVE_S1.);
#501 = LINE('',#502,#503);
#502 = CARTESIAN_POINT('',(188.,-6.,14.616429112475));
#503 = VECTOR('',#504,1.);
#504 = DIRECTION('',(1.,0.,0.));
#505 = PCURVE('',#389,#506);
#506 = DEFINITIONAL_REPRESENTATION('',(#507),#510);
#507 = B_SPLINE_CURVE_WITH_KNOTS('',1,(#508,#509),.UNSPECIFIED.,.F.,.F.,
  (2,2),(1.,6.),.PIECEWISE_BEZIER_KNOTS.);
#508 = CARTESIAN_POINT('',(6.672707923624,-4.));
#509 = CARTESIAN_POINT('',(6.672707923624,1.));
#510 = ( GEOMETRIC_REPRESENTATION_CONTEXT(2) 
PARAMETRIC_REPRESENTATION_CONTEXT() REPRESENTATION_CONTEXT('2D SPACE',''
  ) );
#511 = PCURVE('',#512,#517);
#512 = PLANE('',#513);
#513 = AXIS2_PLACEMENT_3D('',#514,#515,#516);
#514 = CARTESIAN_POINT('',(189.,-6.,0.));
#515 = DIRECTION('',(-0.,1.,0.));
#516 = DIRECTION('',(0.,0.,1.));
#517 = DEFINITIONAL_REPRESENTATION('',(#518),#521);
#518 = B_SPLINE_CURVE_WITH_KNOTS('',1,(#519,#520),.UNSPECIFIED.,.F.,.F.,
  (2,2),(0.9999994,6.0000006),.PIECEWISE_BEZIER_KNOTS.);
#519 = CARTESIAN_POINT('',(14.616429112475,-5.999999928008E-07));
#520 = CARTESIAN_POINT('',(14.616429112475,5.0000006));
#521 = ( GEOMETRIC_REPRESENTATION_CONTEXT(2) 
PARAMETRIC_REPRESENTATION_CONTEXT() REPRESENTATION_CONTEXT('2D SPACE',''
  ) );
#522 = ORIENTED_EDGE('',*,*,#523,.T.);
#523 = EDGE_CURVE('',#498,#524,#526,.T.);
#524 = VERTEX_POINT('',#525);
#525 = CARTESIAN_POINT('',(194.,-13.31878372825,8.5));
#526 = SURFACE_CURVE('',#527,(#532,#538),.PCURVE_S1.);
#527 = CIRCLE('',#528,15.8);
#528 = AXIS2_PLACEMENT_3D('',#529,#530,#531);
#529 = CARTESIAN_POINT('',(194.,0.,0.));
#530 = DIRECTION('',(1.,0.,0.));
#531 = DIRECTION('',(-0.,0.,1.));
#532 = PCURVE('',#389,#533);
#533 = DEFINITIONAL_REPRESENTATION('',(#534),#537);
#534 = B_SPLINE_CURVE_WITH_KNOTS('',1,(#535,#536),.UNSPECIFIED.,.F.,.F.,
  (2,2),(0.389522616445,1.002763686358),.PIECEWISE_BEZIER_KNOTS.);
#535 = CARTESIAN_POINT('',(6.672707923624,1.));
#536 = CARTESIAN_POINT('',(7.285948993537,1.));
#537 = ( GEOMETRIC_REPRESENTATION_CONTEXT(2) 
PARAMETRIC_REPRESENTATION_CONTEXT() REPRESENTATION_CONTEXT('2D SPACE',''
  ) );
#538 = PCURVE('',#539,#544);
#539 = PLANE('',#540);
#540 = AXIS2_PLACEMENT_3D('',#541,#542,#543);
#541 = CARTESIAN_POINT('',(194.,0.,0.));
#542 = DIRECTION('',(1.,0.,0.));
#543 = DIRECTION('',(-0.,0.,1.));
#544 = DEFINITIONAL_REPRESENTATION('',(#545),#549);
#545 = CIRCLE('',#546,15.8);
#546 = AXIS2_PLACEMENT_2D('',#547,#548);
#547 = CARTESIAN_POINT('',(0.,0.));
#548 = DIRECTION('',(1.,0.));
#549 = ( GEOMETRIC_REPRESENTATION_CONTEXT(2) 
PARAMETRIC_REPRESENTATION_CONTEXT() REPRESENTATION_CONTEXT('2D SPACE',''
  ) );
#550 = ORIENTED_EDGE('',*,*,#551,.T.);
#551 = EDGE_CURVE('',#524,#552,#554,.T.);
#552 = VERTEX_POINT('',#553);
#553 = CARTESIAN_POINT('',(199.7,-13.31878372825,8.5));
#554 = SURFACE_CURVE('',#555,(#559,#565),.PCURVE_S1.);
#555 = LINE('',#556,#557);
#556 = CARTESIAN_POINT('',(193.,-13.31878372825,8.5));
#557 = VECTOR('',#558,1.);
#558 = DIRECTION('',(1.,0.,0.));
#559 = PCURVE('',#389,#560);
#560 = DEFINITIONAL_REPRESENTATION('',(#561),#564);
#561 = B_SPLINE_CURVE_WITH_KNOTS('',1,(#562,#563),.UNSPECIFIED.,.F.,.F.,
  (2,2),(1.,6.7),.PIECEWISE_BEZIER_KNOTS.);
#562 = CARTESIAN_POINT('',(7.285948993537,1.));
#563 = CARTESIAN_POINT('',(7.285948993537,6.7));
#564 = ( GEOMETRIC_REPRESENTATION_CONTEXT(2) 
PARAMETRIC_REPRESENTATION_CONTEXT() REPRESENTATION_CONTEXT('2D SPACE',''
  ) );
#565 = PCURVE('',#566,#571);
#566 = PLANE('',#567);
#567 = AXIS2_PLACEMENT_3D('',#568,#569,#570);
#568 = CARTESIAN_POINT('',(194.,-30.,8.5));
#569 = DIRECTION('',(0.,0.,1.));
#570 = DIRECTION('',(1.,0.,-0.));
#571 = DEFINITIONAL_REPRESENTATION('',(#572),#575);
#572 = B_SPLINE_CURVE_WITH_KNOTS('',1,(#573,#574),.UNSPECIFIED.,.F.,.F.,
  (2,2),(0.9999994,6.7000006),.PIECEWISE_BEZIER_KNOTS.);
#573 = CARTESIAN_POINT('',(-5.999999928008E-07,16.681216271746));
#574 = CARTESIAN_POINT('',(5.7000006,16.681216271746));
#575 = ( GEOMETRIC_REPRESENTATION_CONTEXT(2) 
PARAMETRIC_REPRESENTATION_CONTEXT() REPRESENTATION_CONTEXT('2D SPACE',''
  ) );
#576 = ORIENTED_EDGE('',*,*,#577,.T.);
#577 = EDGE_CURVE('',#552,#375,#578,.T.);
#578 = SURFACE_CURVE('',#579,(#584,#591),.PCURVE_S1.);
#579 = CIRCLE('',#580,15.8);
#580 = AXIS2_PLACEMENT_3D('',#581,#582,#583);
#581 = CARTESIAN_POINT('',(199.7,0.,0.));
#582 = DIRECTION('',(-1.,0.,0.));
#583 = DIRECTION('',(0.,-0.842960995459,0.537974683544));
#584 = PCURVE('',#389,#585);
#585 = DEFINITIONAL_REPRESENTATION('',(#586),#590);
#586 = LINE('',#587,#588);
#587 = CARTESIAN_POINT('',(7.285948993537,6.7));
#588 = VECTOR('',#589,1.);
#589 = DIRECTION('',(-1.,-0.));
#590 = ( GEOMETRIC_REPRESENTATION_CONTEXT(2) 
PARAMETRIC_REPRESENTATION_CONTEXT() REPRESENTATION_CONTEXT('2D SPACE',''
  ) );
#591 = PCURVE('',#312,#592);
#592 = DEFINITIONAL_REPRESENTATION('',(#593),#601);
#593 = ( BOUNDED_CURVE() B_SPLINE_CURVE(2,(#594,#595,#596,#597,#598,#599
,#600),.UNSPECIFIED.,.T.,.F.) B_SPLINE_CURVE_WITH_KNOTS((1,2,2,2,2,1),(
    -2.094395102393,0.,2.094395102393,4.188790204786,6.28318530718,
8.377580409573),.UNSPECIFIED.) CURVE() GEOMETRIC_REPRESENTATION_ITEM() 
RATIONAL_B_SPLINE_CURVE((1.,0.5,1.,0.5,1.,0.5,1.)) REPRESENTATION_ITEM(
  '') );
#594 = CARTESIAN_POINT('',(8.5,13.318783728254));
#595 = CARTESIAN_POINT('',(31.568810112357,-1.403648136082));
#596 = CARTESIAN_POINT('',(7.284405056178,-14.02060779629));
#597 = CARTESIAN_POINT('',(-17.,-26.6375674565));
#598 = CARTESIAN_POINT('',(-15.78440505617,0.701824068041));
#599 = CARTESIAN_POINT('',(-14.56881011235,28.04121559259));
#600 = CARTESIAN_POINT('',(8.5,13.318783728254));
#601 = ( GEOMETRIC_REPRESENTATION_CONTEXT(2) 
PARAMETRIC_REPRESENTATION_CONTEXT() REPRESENTATION_CONTEXT('2D SPACE',''
  ) );
#602 = ORIENTED_EDGE('',*,*,#374,.F.);
#603 = ADVANCED_FACE('',(#604),#566,.F.);
#604 = FACE_BOUND('',#605,.F.);
#605 = EDGE_LOOP('',(#606,#629,#650,#671));
#606 = ORIENTED_EDGE('',*,*,#607,.F.);
#607 = EDGE_CURVE('',#608,#524,#610,.T.);
#608 = VERTEX_POINT('',#609);
#609 = CARTESIAN_POINT('',(194.,-16.8247585421,8.5));
#610 = SURFACE_CURVE('',#611,(#615,#622),.PCURVE_S1.);
#611 = LINE('',#612,#613);
#612 = CARTESIAN_POINT('',(194.,-30.,8.5));
#613 = VECTOR('',#614,1.);
#614 = DIRECTION('',(-0.,1.,0.));
#615 = PCURVE('',#566,#616);
#616 = DEFINITIONAL_REPRESENTATION('',(#617),#621);
#617 = LINE('',#618,#619);
#618 = CARTESIAN_POINT('',(0.,0.));
#619 = VECTOR('',#620,1.);
#620 = DIRECTION('',(0.,1.));
#621 = ( GEOMETRIC_REPRESENTATION_CONTEXT(2) 
PARAMETRIC_REPRESENTATION_CONTEXT() REPRESENTATION_CONTEXT('2D SPACE',''
  ) );
#622 = PCURVE('',#539,#623);
#623 = DEFINITIONAL_REPRESENTATION('',(#624),#628);
#624 = LINE('',#625,#626);
#625 = CARTESIAN_POINT('',(8.5,30.));
#626 = VECTOR('',#627,1.);
#627 = DIRECTION('',(0.,-1.));
#628 = ( GEOMETRIC_REPRESENTATION_CONTEXT(2) 
PARAMETRIC_REPRESENTATION_CONTEXT() REPRESENTATION_CONTEXT('2D SPACE',''
  ) );
#629 = ORIENTED_EDGE('',*,*,#630,.T.);
#630 = EDGE_CURVE('',#608,#631,#633,.T.);
#631 = VERTEX_POINT('',#632);
#632 = CARTESIAN_POINT('',(199.7,-16.8247585421,8.5));
#633 = SURFACE_CURVE('',#634,(#638,#644),.PCURVE_S1.);
#634 = LINE('',#635,#636);
#635 = CARTESIAN_POINT('',(194.,-16.8247585421,8.5));
#636 = VECTOR('',#637,1.);
#637 = DIRECTION('',(1.,0.,0.));
#638 = PCURVE('',#566,#639);
#639 = DEFINITIONAL_REPRESENTATION('',(#640),#643);
#640 = B_SPLINE_CURVE_WITH_KNOTS('',1,(#641,#642),.UNSPECIFIED.,.F.,.F.,
  (2,2),(-5.999999928008E-07,5.7000006),.PIECEWISE_BEZIER_KNOTS.);
#641 = CARTESIAN_POINT('',(-5.999999928008E-07,13.175241457899));
#642 = CARTESIAN_POINT('',(5.7000006,13.175241457899));
#643 = ( GEOMETRIC_REPRESENTATION_CONTEXT(2) 
PARAMETRIC_REPRESENTATION_CONTEXT() REPRESENTATION_CONTEXT('2D SPACE',''
  ) );
#644 = PCURVE('',#128,#645);
#645 = DEFINITIONAL_REPRESENTATION('',(#646),#649);
#646 = B_SPLINE_CURVE_WITH_KNOTS('',1,(#647,#648),.UNSPECIFIED.,.F.,.F.,
  (2,2),(-5.999999928008E-07,5.7000006),.PIECEWISE_BEZIER_KNOTS.);
#647 = CARTESIAN_POINT('',(1.102991126906,-5.999999928008E-07));
#648 = CARTESIAN_POINT('',(1.102991126906,5.7000006));
#649 = ( GEOMETRIC_REPRESENTATION_CONTEXT(2) 
PARAMETRIC_REPRESENTATION_CONTEXT() REPRESENTATION_CONTEXT('2D SPACE',''
  ) );
#650 = ORIENTED_EDGE('',*,*,#651,.T.);
#651 = EDGE_CURVE('',#631,#552,#652,.T.);
#652 = SURFACE_CURVE('',#653,(#657,#664),.PCURVE_S1.);
#653 = LINE('',#654,#655);
#654 = CARTESIAN_POINT('',(199.7,-30.,8.5));
#655 = VECTOR('',#656,1.);
#656 = DIRECTION('',(-0.,1.,0.));
#657 = PCURVE('',#566,#658);
#658 = DEFINITIONAL_REPRESENTATION('',(#659),#663);
#659 = LINE('',#660,#661);
#660 = CARTESIAN_POINT('',(5.7,0.));
#661 = VECTOR('',#662,1.);
#662 = DIRECTION('',(0.,1.));
#663 = ( GEOMETRIC_REPRESENTATION_CONTEXT(2) 
PARAMETRIC_REPRESENTATION_CONTEXT() REPRESENTATION_CONTEXT('2D SPACE',''
  ) );
#664 = PCURVE('',#312,#665);
#665 = DEFINITIONAL_REPRESENTATION('',(#666),#670);
#666 = LINE('',#667,#668);
#667 = CARTESIAN_POINT('',(8.5,30.));
#668 = VECTOR('',#669,1.);
#669 = DIRECTION('',(0.,-1.));
#670 = ( GEOMETRIC_REPRESENTATION_CONTEXT(2) 
PARAMETRIC_REPRESENTATION_CONTEXT() REPRESENTATION_CONTEXT('2D SPACE',''
  ) );
#671 = ORIENTED_EDGE('',*,*,#551,.F.);
#672 = ADVANCED_FACE('',(#673),#539,.F.);
#673 = FACE_BOUND('',#674,.F.);
#674 = EDGE_LOOP('',(#675,#698,#720,#721));
#675 = ORIENTED_EDGE('',*,*,#676,.T.);
#676 = EDGE_CURVE('',#498,#677,#679,.T.);
#677 = VERTEX_POINT('',#678);
#678 = CARTESIAN_POINT('',(194.,-6.,17.869597085553));
#679 = SURFACE_CURVE('',#680,(#684,#691),.PCURVE_S1.);
#680 = LINE('',#681,#682);
#681 = CARTESIAN_POINT('',(194.,-6.,0.));
#682 = VECTOR('',#683,1.);
#683 = DIRECTION('',(0.,0.,1.));
#684 = PCURVE('',#539,#685);
#685 = DEFINITIONAL_REPRESENTATION('',(#686),#690);
#686 = LINE('',#687,#688);
#687 = CARTESIAN_POINT('',(0.,6.));
#688 = VECTOR('',#689,1.);
#689 = DIRECTION('',(1.,0.));
#690 = ( GEOMETRIC_REPRESENTATION_CONTEXT(2) 
PARAMETRIC_REPRESENTATION_CONTEXT() REPRESENTATION_CONTEXT('2D SPACE',''
  ) );
#691 = PCURVE('',#512,#692);
#692 = DEFINITIONAL_REPRESENTATION('',(#693),#697);
#693 = LINE('',#694,#695);
#694 = CARTESIAN_POINT('',(0.,5.));
#695 = VECTOR('',#696,1.);
#696 = DIRECTION('',(1.,0.));
#697 = ( GEOMETRIC_REPRESENTATION_CONTEXT(2) 
PARAMETRIC_REPRESENTATION_CONTEXT() REPRESENTATION_CONTEXT('2D SPACE',''
  ) );
#698 = ORIENTED_EDGE('',*,*,#699,.T.);
#699 = EDGE_CURVE('',#677,#608,#700,.T.);
#700 = SURFACE_CURVE('',#701,(#706,#713),.PCURVE_S1.);
#701 = CIRCLE('',#702,18.85);
#702 = AXIS2_PLACEMENT_3D('',#703,#704,#705);
#703 = CARTESIAN_POINT('',(194.,0.,0.));
#704 = DIRECTION('',(1.,0.,0.));
#705 = DIRECTION('',(-0.,0.,1.));
#706 = PCURVE('',#539,#707);
#707 = DEFINITIONAL_REPRESENTATION('',(#708),#712);
#708 = CIRCLE('',#709,18.85);
#709 = AXIS2_PLACEMENT_2D('',#710,#711);
#710 = CARTESIAN_POINT('',(0.,0.));
#711 = DIRECTION('',(1.,0.));
#712 = ( GEOMETRIC_REPRESENTATION_CONTEXT(2) 
PARAMETRIC_REPRESENTATION_CONTEXT() REPRESENTATION_CONTEXT('2D SPACE',''
  ) );
#713 = PCURVE('',#128,#714);
#714 = DEFINITIONAL_REPRESENTATION('',(#715),#719);
#715 = LINE('',#716,#717);
#716 = CARTESIAN_POINT('',(0.,0.));
#717 = VECTOR('',#718,1.);
#718 = DIRECTION('',(1.,0.));
#719 = ( GEOMETRIC_REPRESENTATION_CONTEXT(2) 
PARAMETRIC_REPRESENTATION_CONTEXT() REPRESENTATION_CONTEXT('2D SPACE',''
  ) );
#720 = ORIENTED_EDGE('',*,*,#607,.T.);
#721 = ORIENTED_EDGE('',*,*,#523,.F.);
#722 = ADVANCED_FACE('',(#723),#512,.F.);
#723 = FACE_BOUND('',#724,.F.);
#724 = EDGE_LOOP('',(#725,#726,#727,#750));
#725 = ORIENTED_EDGE('',*,*,#676,.F.);
#726 = ORIENTED_EDGE('',*,*,#497,.F.);
#727 = ORIENTED_EDGE('',*,*,#728,.T.);
#728 = EDGE_CURVE('',#470,#729,#731,.T.);
#729 = VERTEX_POINT('',#730);
#730 = CARTESIAN_POINT('',(189.,-6.,17.869597085553));
#731 = SURFACE_CURVE('',#732,(#736,#743),.PCURVE_S1.);
#732 = LINE('',#733,#734);
#733 = CARTESIAN_POINT('',(189.,-6.,0.));
#734 = VECTOR('',#735,1.);
#735 = DIRECTION('',(0.,0.,1.));
#736 = PCURVE('',#512,#737);
#737 = DEFINITIONAL_REPRESENTATION('',(#738),#742);
#738 = LINE('',#739,#740);
#739 = CARTESIAN_POINT('',(0.,0.));
#740 = VECTOR('',#741,1.);
#741 = DIRECTION('',(1.,0.));
#742 = ( GEOMETRIC_REPRESENTATION_CONTEXT(2) 
PARAMETRIC_REPRESENTATION_CONTEXT() REPRESENTATION_CONTEXT('2D SPACE',''
  ) );
#743 = PCURVE('',#100,#744);
#744 = DEFINITIONAL_REPRESENTATION('',(#745),#749);
#745 = LINE('',#746,#747);
#746 = CARTESIAN_POINT('',(0.,6.));
#747 = VECTOR('',#748,1.);
#748 = DIRECTION('',(1.,0.));
#749 = ( GEOMETRIC_REPRESENTATION_CONTEXT(2) 
PARAMETRIC_REPRESENTATION_CONTEXT() REPRESENTATION_CONTEXT('2D SPACE',''
  ) );
#750 = ORIENTED_EDGE('',*,*,#751,.T.);
#751 = EDGE_CURVE('',#729,#677,#752,.T.);
#752 = SURFACE_CURVE('',#753,(#757,#763),.PCURVE_S1.);
#753 = LINE('',#754,#755);
#754 = CARTESIAN_POINT('',(189.,-6.,17.869597085553));
#755 = VECTOR('',#756,1.);
#756 = DIRECTION('',(1.,0.,0.));
#757 = PCURVE('',#512,#758);
#758 = DEFINITIONAL_REPRESENTATION('',(#759),#762);
#759 = B_SPLINE_CURVE_WITH_KNOTS('',1,(#760,#761),.UNSPECIFIED.,.F.,.F.,
  (2,2),(-5.999999928008E-07,5.0000006),.PIECEWISE_BEZIER_KNOTS.);
#760 = CARTESIAN_POINT('',(17.869597085553,-5.999999928008E-07));
#761 = CARTESIAN_POINT('',(17.869597085553,5.0000006));
#762 = ( GEOMETRIC_REPRESENTATION_CONTEXT(2) 
PARAMETRIC_REPRESENTATION_CONTEXT() REPRESENTATION_CONTEXT('2D SPACE',''
  ) );
#763 = PCURVE('',#128,#764);
#764 = DEFINITIONAL_REPRESENTATION('',(#765),#768);
#765 = B_SPLINE_CURVE_WITH_KNOTS('',1,(#766,#767),.UNSPECIFIED.,.F.,.F.,
  (2,2),(-5.999999928008E-07,5.0000006),.PIECEWISE_BEZIER_KNOTS.);
#766 = CARTESIAN_POINT('',(0.323938196583,-5.0000006));
#767 = CARTESIAN_POINT('',(0.323938196583,5.999999928008E-07));
#768 = ( GEOMETRIC_REPRESENTATION_CONTEXT(2) 
PARAMETRIC_REPRESENTATION_CONTEXT() REPRESENTATION_CONTEXT('2D SPACE',''
  ) );
#769 = ADVANCED_FACE('',(#770),#312,.T.);
#770 = FACE_BOUND('',#771,.T.);
#771 = EDGE_LOOP('',(#772,#773,#795,#796,#797));
#772 = ORIENTED_EDGE('',*,*,#295,.T.);
#773 = ORIENTED_EDGE('',*,*,#774,.T.);
#774 = EDGE_CURVE('',#273,#631,#775,.T.);
#775 = SURFACE_CURVE('',#776,(#781,#788),.PCURVE_S1.);
#776 = CIRCLE('',#777,18.85);
#777 = AXIS2_PLACEMENT_3D('',#778,#779,#780);
#778 = CARTESIAN_POINT('',(199.7,0.,0.));
#779 = DIRECTION('',(1.,0.,0.));
#780 = DIRECTION('',(-0.,0.,1.));
#781 = PCURVE('',#312,#782);
#782 = DEFINITIONAL_REPRESENTATION('',(#783),#787);
#783 = CIRCLE('',#784,18.85);
#784 = AXIS2_PLACEMENT_2D('',#785,#786);
#785 = CARTESIAN_POINT('',(0.,0.));
#786 = DIRECTION('',(1.,0.));
#787 = ( GEOMETRIC_REPRESENTATION_CONTEXT(2) 
PARAMETRIC_REPRESENTATION_CONTEXT() REPRESENTATION_CONTEXT('2D SPACE',''
  ) );
#788 = PCURVE('',#128,#789);
#789 = DEFINITIONAL_REPRESENTATION('',(#790),#794);
#790 = LINE('',#791,#792);
#791 = CARTESIAN_POINT('',(0.,5.7));
#792 = VECTOR('',#793,1.);
#793 = DIRECTION('',(1.,0.));
#794 = ( GEOMETRIC_REPRESENTATION_CONTEXT(2) 
PARAMETRIC_REPRESENTATION_CONTEXT() REPRESENTATION_CONTEXT('2D SPACE',''
  ) );
#795 = ORIENTED_EDGE('',*,*,#651,.T.);
#796 = ORIENTED_EDGE('',*,*,#577,.T.);
#797 = ORIENTED_EDGE('',*,*,#400,.T.);
#798 = ADVANCED_FACE('',(#799),#236,.F.);
#799 = FACE_BOUND('',#800,.F.);
#800 = EDGE_LOOP('',(#801,#802,#897,#924,#957));
#801 = ORIENTED_EDGE('',*,*,#172,.F.);
#802 = ORIENTED_EDGE('',*,*,#803,.F.);
#803 = EDGE_CURVE('',#804,#173,#806,.T.);
#804 = VERTEX_POINT('',#805);
#805 = CARTESIAN_POINT('',(190.4715398245,-1.22567110899,18.810109790551
    ));
#806 = SURFACE_CURVE('',#807,(#835,#866),.PCURVE_S1.);
#807 = B_SPLINE_CURVE_WITH_KNOTS('',6,(#808,#809,#810,#811,#812,#813,
    #814,#815,#816,#817,#818,#819,#820,#821,#822,#823,#824,#825,#826,
    #827,#828,#829,#830,#831,#832,#833,#834),.UNSPECIFIED.,.F.,.F.,(7,5,
    5,5,5,7),(0.,9.219755862879E-02,0.327531917081,0.565280767375,
    0.763692897857,1.),.UNSPECIFIED.);
#808 = CARTESIAN_POINT('',(190.4715398245,-1.22567110899,18.810109790551
    ));
#809 = CARTESIAN_POINT('',(190.51425070106,-1.261509789763,
    18.807774533814));
#810 = CARTESIAN_POINT('',(190.55801606874,-1.295189805643,
    18.805497648039));
#811 = CARTESIAN_POINT('',(190.60272016942,-1.326732543194,
    18.803296283244));
#812 = CARTESIAN_POINT('',(190.64825749804,-1.356160436844,
    18.801185343726));
#813 = CARTESIAN_POINT('',(190.6945324328,-1.383496484907,
    18.799177628228));
#814 = CARTESIAN_POINT('',(190.86123863089,-1.473258524299,
    18.79245040589));
#815 = CARTESIAN_POINT('',(190.98526794709,-1.524277316667,
    18.78835974909));
#816 = CARTESIAN_POINT('',(191.1121590033,-1.562222095265,
    18.785190906532));
#817 = CARTESIAN_POINT('',(191.24084078179,-1.587404902457,
    18.78304570722));
#818 = CARTESIAN_POINT('',(191.37041070079,-1.6,18.781972739838));
#819 = CARTESIAN_POINT('',(191.63091886411,-1.6,18.781972739838));
#820 = CARTESIAN_POINT('',(191.76181735619,-1.587145126161,
    18.783067838468));
#821 = CARTESIAN_POINT('',(191.89180043848,-1.561443228014,
    18.78525725125));
#822 = CARTESIAN_POINT('',(192.01993740263,-1.522712427881,
    18.788490412989));
#823 = CARTESIAN_POINT('',(192.14512020788,-1.470627842715,
    18.792661196881));
#824 = CARTESIAN_POINT('',(192.36670897159,-1.349813726761,
    18.801689824783));
#825 = CARTESIAN_POINT('',(192.46453654761,-1.285216224061,
    18.806323423117));
#826 = CARTESIAN_POINT('',(192.55843685896,-1.210763984911,
    18.811372106427));
#827 = CARTESIAN_POINT('',(192.64729003128,-1.126265232205,
    18.816681428315));
#828 = CARTESIAN_POINT('',(192.72975572126,-1.031609446622,
    18.822042479881));
#829 = CARTESIAN_POINT('',(192.89287228181,-0.802082148318,
    18.833341948261));
#830 = CARTESIAN_POINT('',(192.97113324619,-0.661625403785,
    18.839261478555));
#831 = CARTESIAN_POINT('',(193.03398574354,-0.507487970845,
    18.844395038481));
#832 = CARTESIAN_POINT('',(193.07771732167,-0.343015571059,
    18.848109063172));
#833 = CARTESIAN_POINT('',(193.1,-0.172365147842,18.85));
#834 = CARTESIAN_POINT('',(193.1,-2.22044604925E-16,18.85));
#835 = PCURVE('',#236,#836);
#836 = DEFINITIONAL_REPRESENTATION('',(#837),#865);
#837 = B_SPLINE_CURVE_WITH_KNOTS('',6,(#838,#839,#840,#841,#842,#843,
    #844,#845,#846,#847,#848,#849,#850,#851,#852,#853,#854,#855,#856,
    #857,#858,#859,#860,#861,#862,#863,#864),.UNSPECIFIED.,.F.,.F.,(7,5,
    5,5,5,7),(0.,9.219755862879E-02,0.327531917081,0.565280767375,
    0.763692897857,1.),.UNSPECIFIED.);
#838 = CARTESIAN_POINT('',(4.014257279587,2.010109790551));
#839 = CARTESIAN_POINT('',(4.049104210588,2.007774533814));
#840 = CARTESIAN_POINT('',(4.083588789085,2.005497648039));
#841 = CARTESIAN_POINT('',(4.117740313066,2.003296283244));
#842 = CARTESIAN_POINT('',(4.151585616001,2.001185343726));
#843 = CARTESIAN_POINT('',(4.18515043885,1.999177628228));
#844 = CARTESIAN_POINT('',(4.303485536727,1.99245040589));
#845 = CARTESIAN_POINT('',(4.38685596387,1.98835974909));
#846 = CARTESIAN_POINT('',(4.469032657224,1.985190906532));
#847 = CARTESIAN_POINT('',(4.550414293795,1.98304570722));
#848 = CARTESIAN_POINT('',(4.631395668384,1.981972739838));
#849 = CARTESIAN_POINT('',(4.794213270455,1.981972739838));
#850 = CARTESIAN_POINT('',(4.876025016755,1.983067838468));
#851 = CARTESIAN_POINT('',(4.95824964365,1.98525725125));
#852 = CARTESIAN_POINT('',(5.041294305355,1.988490412989));
#853 = CARTESIAN_POINT('',(5.12557001224,1.992661196881));
#854 = CARTESIAN_POINT('',(5.283309947062,2.001689824783));
#855 = CARTESIAN_POINT('',(5.356318324325,2.006323423117));
#856 = CARTESIAN_POINT('',(5.430784530065,2.011372106427));
#857 = CARTESIAN_POINT('',(5.506934543464,2.016681428315));
#858 = CARTESIAN_POINT('',(5.585014252995,2.022042479881));
#859 = CARTESIAN_POINT('',(5.761004523712,2.033341948261));
#860 = CARTESIAN_POINT('',(5.860895103427,2.039261478555));
#861 = CARTESIAN_POINT('',(5.963753834104,2.044395038481));
#862 = CARTESIAN_POINT('',(6.068800807984,2.048109063172));
#863 = CARTESIAN_POINT('',(6.175457089779,2.05));
#864 = CARTESIAN_POINT('',(6.28318530718,2.05));
#865 = ( GEOMETRIC_REPRESENTATION_CONTEXT(2) 
PARAMETRIC_REPRESENTATION_CONTEXT() REPRESENTATION_CONTEXT('2D SPACE',''
  ) );
#866 = PCURVE('',#128,#867);
#867 = DEFINITIONAL_REPRESENTATION('',(#868),#896);
#868 = B_SPLINE_CURVE_WITH_KNOTS('',6,(#869,#870,#871,#872,#873,#874,
    #875,#876,#877,#878,#879,#880,#881,#882,#883,#884,#885,#886,#887,
    #888,#889,#890,#891,#892,#893,#894,#895),.UNSPECIFIED.,.F.,.F.,(7,5,
    5,5,5,7),(0.,9.219755862879E-02,0.327531917081,0.565280767375,
    0.763692897857,1.),.UNSPECIFIED.);
#869 = CARTESIAN_POINT('',(6.506824543375E-02,-3.528460175498));
#870 = CARTESIAN_POINT('',(6.69735336629E-02,-3.485749298933));
#871 = CARTESIAN_POINT('',(6.876434487191E-02,-3.44198393126));
#872 = CARTESIAN_POINT('',(7.044176443197E-02,-3.397279830572));
#873 = CARTESIAN_POINT('',(7.200693370508E-02,-3.351742501959));
#874 = CARTESIAN_POINT('',(7.346102639215E-02,-3.3054675672));
#875 = CARTESIAN_POINT('',(7.823629283674E-02,-3.13876136911));
#876 = CARTESIAN_POINT('',(8.095150944826E-02,-3.014732052904));
#877 = CARTESIAN_POINT('',(8.297150106573E-02,-2.887840996699));
#878 = CARTESIAN_POINT('',(8.431229682063E-02,-2.759159218209));
#879 = CARTESIAN_POINT('',(8.498289204951E-02,-2.629589299201));
#880 = CARTESIAN_POINT('',(8.498289204951E-02,-2.369081135887));
#881 = CARTESIAN_POINT('',(8.429846565277E-02,-2.238182643803));
#882 = CARTESIAN_POINT('',(8.293003225652E-02,-2.108199561513));
#883 = CARTESIAN_POINT('',(8.086820262069E-02,-1.980062597368));
#884 = CARTESIAN_POINT('',(7.809628876722E-02,-1.854879792119));
#885 = CARTESIAN_POINT('',(7.166917959032E-02,-1.633291028408));
#886 = CARTESIAN_POINT('',(6.823346693482E-02,-1.535463452385));
#887 = CARTESIAN_POINT('',(6.427472373391E-02,-1.44156314104));
#888 = CARTESIAN_POINT('',(5.978329347468E-02,-1.352709968719));
#889 = CARTESIAN_POINT('',(5.475385618504E-02,-1.270244278733));
#890 = CARTESIAN_POINT('',(4.256259557732E-02,-1.107127718185));
#891 = CARTESIAN_POINT('',(3.510487997015E-02,-1.028866753803));
#892 = CARTESIAN_POINT('',(2.692380885396E-02,-0.966014256459));
#893 = CARTESIAN_POINT('',(1.819711375454E-02,-0.922282678325));
#894 = CARTESIAN_POINT('',(9.144039673289E-03,-0.9));
#895 = CARTESIAN_POINT('',(0.,-0.9));
#896 = ( GEOMETRIC_REPRESENTATION_CONTEXT(2) 
PARAMETRIC_REPRESENTATION_CONTEXT() REPRESENTATION_CONTEXT('2D SPACE',''
  ) );
#897 = ORIENTED_EDGE('',*,*,#898,.F.);
#898 = EDGE_CURVE('',#899,#804,#901,.T.);
#899 = VERTEX_POINT('',#900);
#900 = CARTESIAN_POINT('',(190.4715398245,-1.22567110899,16.8));
#901 = SURFACE_CURVE('',#902,(#906,#912),.PCURVE_S1.);
#902 = LINE('',#903,#904);
#903 = CARTESIAN_POINT('',(190.4715398245,-1.22567110899,16.8));
#904 = VECTOR('',#905,1.);
#905 = DIRECTION('',(0.,0.,1.));
#906 = PCURVE('',#236,#907);
#907 = DEFINITIONAL_REPRESENTATION('',(#908),#911);
#908 = B_SPLINE_CURVE_WITH_KNOTS('',1,(#909,#910),.UNSPECIFIED.,.F.,.F.,
  (2,2),(0.,2.010109790551),.PIECEWISE_BEZIER_KNOTS.);
#909 = CARTESIAN_POINT('',(4.014257279587,0.));
#910 = CARTESIAN_POINT('',(4.014257279587,2.010109790551));
#911 = ( GEOMETRIC_REPRESENTATION_CONTEXT(2) 
PARAMETRIC_REPRESENTATION_CONTEXT() REPRESENTATION_CONTEXT('2D SPACE',''
  ) );
#912 = PCURVE('',#913,#918);
#913 = PLANE('',#914);
#914 = AXIS2_PLACEMENT_3D('',#915,#916,#917);
#915 = CARTESIAN_POINT('',(190.4715398245,-1.22567110899,16.8));
#916 = DIRECTION('',(-0.642787609687,-0.766044443119,0.));
#917 = DIRECTION('',(-0.766044443119,0.642787609687,0.));
#918 = DEFINITIONAL_REPRESENTATION('',(#919),#923);
#919 = LINE('',#920,#921);
#920 = CARTESIAN_POINT('',(0.,0.));
#921 = VECTOR('',#922,1.);
#922 = DIRECTION('',(0.,-1.));
#923 = ( GEOMETRIC_REPRESENTATION_CONTEXT(2) 
PARAMETRIC_REPRESENTATION_CONTEXT() REPRESENTATION_CONTEXT('2D SPACE',''
  ) );
#924 = ORIENTED_EDGE('',*,*,#925,.F.);
#925 = EDGE_CURVE('',#926,#899,#928,.T.);
#926 = VERTEX_POINT('',#927);
#927 = CARTESIAN_POINT('',(190.4715398245,1.22567110899,16.8));
#928 = SURFACE_CURVE('',#929,(#934,#941),.PCURVE_S1.);
#929 = CIRCLE('',#930,1.6);
#930 = AXIS2_PLACEMENT_3D('',#931,#932,#933);
#931 = CARTESIAN_POINT('',(191.5,0.,16.8));
#932 = DIRECTION('',(0.,0.,-1.));
#933 = DIRECTION('',(-0.642787609687,0.766044443119,0.));
#934 = PCURVE('',#236,#935);
#935 = DEFINITIONAL_REPRESENTATION('',(#936),#940);
#936 = LINE('',#937,#938);
#937 = CARTESIAN_POINT('',(8.552113334772,0.));
#938 = VECTOR('',#939,1.);
#939 = DIRECTION('',(-1.,-0.));
#940 = ( GEOMETRIC_REPRESENTATION_CONTEXT(2) 
PARAMETRIC_REPRESENTATION_CONTEXT() REPRESENTATION_CONTEXT('2D SPACE',''
  ) );
#941 = PCURVE('',#942,#947);
#942 = PLANE('',#943);
#943 = AXIS2_PLACEMENT_3D('',#944,#945,#946);
#944 = CARTESIAN_POINT('',(191.5,0.,16.8));
#945 = DIRECTION('',(0.,0.,1.));
#946 = DIRECTION('',(1.,0.,-0.));
#947 = DEFINITIONAL_REPRESENTATION('',(#948),#956);
#948 = ( BOUNDED_CURVE() B_SPLINE_CURVE(2,(#949,#950,#951,#952,#953,#954
,#955),.UNSPECIFIED.,.T.,.F.) B_SPLINE_CURVE_WITH_KNOTS((1,2,2,2,2,1),(
    -2.094395102393,0.,2.094395102393,4.188790204786,6.28318530718,
8.377580409573),.UNSPECIFIED.) CURVE() GEOMETRIC_REPRESENTATION_ITEM() 
RATIONAL_B_SPLINE_CURVE((1.,0.5,1.,0.5,1.,0.5,1.)) REPRESENTATION_ITEM(
  '') );
#949 = CARTESIAN_POINT('',(-1.028460175498,1.22567110899));
#950 = CARTESIAN_POINT('',(1.094464458642,3.007016386515));
#951 = CARTESIAN_POINT('',(1.57569240482,0.277837084267));
#952 = CARTESIAN_POINT('',(2.056920350997,-2.451342217981));
#953 = CARTESIAN_POINT('',(-0.547232229321,-1.503508193257));
#954 = CARTESIAN_POINT('',(-3.151384809639,-0.555674168534));
#955 = CARTESIAN_POINT('',(-1.028460175498,1.22567110899));
#956 = ( GEOMETRIC_REPRESENTATION_CONTEXT(2) 
PARAMETRIC_REPRESENTATION_CONTEXT() REPRESENTATION_CONTEXT('2D SPACE',''
  ) );
#957 = ORIENTED_EDGE('',*,*,#958,.T.);
#958 = EDGE_CURVE('',#926,#141,#959,.T.);
#959 = SURFACE_CURVE('',#960,(#964,#970),.PCURVE_S1.);
#960 = LINE('',#961,#962);
#961 = CARTESIAN_POINT('',(190.4715398245,1.22567110899,16.8));
#962 = VECTOR('',#963,1.);
#963 = DIRECTION('',(0.,0.,1.));
#964 = PCURVE('',#236,#965);
#965 = DEFINITIONAL_REPRESENTATION('',(#966),#969);
#966 = B_SPLINE_CURVE_WITH_KNOTS('',1,(#967,#968),.UNSPECIFIED.,.F.,.F.,
  (2,2),(0.,2.010109790551),.PIECEWISE_BEZIER_KNOTS.);
#967 = CARTESIAN_POINT('',(8.552113334772,0.));
#968 = CARTESIAN_POINT('',(8.552113334772,2.010109790551));
#969 = ( GEOMETRIC_REPRESENTATION_CONTEXT(2) 
PARAMETRIC_REPRESENTATION_CONTEXT() REPRESENTATION_CONTEXT('2D SPACE',''
  ) );
#970 = PCURVE('',#160,#971);
#971 = DEFINITIONAL_REPRESENTATION('',(#972),#976);
#972 = LINE('',#973,#974);
#973 = CARTESIAN_POINT('',(1.906805748151,0.));
#974 = VECTOR('',#975,1.);
#975 = DIRECTION('',(0.,-1.));
#976 = ( GEOMETRIC_REPRESENTATION_CONTEXT(2) 
PARAMETRIC_REPRESENTATION_CONTEXT() REPRESENTATION_CONTEXT('2D SPACE',''
  ) );
#977 = ADVANCED_FACE('',(#978),#942,.T.);
#978 = FACE_BOUND('',#979,.T.);
#979 = EDGE_LOOP('',(#980,#981,#1004));
#980 = ORIENTED_EDGE('',*,*,#925,.F.);
#981 = ORIENTED_EDGE('',*,*,#982,.F.);
#982 = EDGE_CURVE('',#983,#926,#985,.T.);
#983 = VERTEX_POINT('',#984);
#984 = CARTESIAN_POINT('',(189.01084187702,0.,16.8));
#985 = SURFACE_CURVE('',#986,(#990,#997),.PCURVE_S1.);
#986 = LINE('',#987,#988);
#987 = CARTESIAN_POINT('',(189.01084187702,0.,16.8));
#988 = VECTOR('',#989,1.);
#989 = DIRECTION('',(0.766044443119,0.642787609687,0.));
#990 = PCURVE('',#942,#991);
#991 = DEFINITIONAL_REPRESENTATION('',(#992),#996);
#992 = LINE('',#993,#994);
#993 = CARTESIAN_POINT('',(-2.489158122977,0.));
#994 = VECTOR('',#995,1.);
#995 = DIRECTION('',(0.766044443119,0.642787609687));
#996 = ( GEOMETRIC_REPRESENTATION_CONTEXT(2) 
PARAMETRIC_REPRESENTATION_CONTEXT() REPRESENTATION_CONTEXT('2D SPACE',''
  ) );
#997 = PCURVE('',#160,#998);
#998 = DEFINITIONAL_REPRESENTATION('',(#999),#1003);
#999 = LINE('',#1000,#1001);
#1000 = CARTESIAN_POINT('',(0.,0.));
#1001 = VECTOR('',#1002,1.);
#1002 = DIRECTION('',(1.,0.));
#1003 = ( GEOMETRIC_REPRESENTATION_CONTEXT(2) 
PARAMETRIC_REPRESENTATION_CONTEXT() REPRESENTATION_CONTEXT('2D SPACE',''
  ) );
#1004 = ORIENTED_EDGE('',*,*,#1005,.F.);
#1005 = EDGE_CURVE('',#899,#983,#1006,.T.);
#1006 = SURFACE_CURVE('',#1007,(#1011,#1018),.PCURVE_S1.);
#1007 = LINE('',#1008,#1009);
#1008 = CARTESIAN_POINT('',(190.4715398245,-1.22567110899,16.8));
#1009 = VECTOR('',#1010,1.);
#1010 = DIRECTION('',(-0.766044443119,0.642787609687,0.));
#1011 = PCURVE('',#942,#1012);
#1012 = DEFINITIONAL_REPRESENTATION('',(#1013),#1017);
#1013 = LINE('',#1014,#1015);
#1014 = CARTESIAN_POINT('',(-1.028460175498,-1.22567110899));
#1015 = VECTOR('',#1016,1.);
#1016 = DIRECTION('',(-0.766044443119,0.642787609687));
#1017 = ( GEOMETRIC_REPRESENTATION_CONTEXT(2) 
PARAMETRIC_REPRESENTATION_CONTEXT() REPRESENTATION_CONTEXT('2D SPACE',''
  ) );
#1018 = PCURVE('',#913,#1019);
#1019 = DEFINITIONAL_REPRESENTATION('',(#1020),#1024);
#1020 = LINE('',#1021,#1022);
#1021 = CARTESIAN_POINT('',(0.,0.));
#1022 = VECTOR('',#1023,1.);
#1023 = DIRECTION('',(1.,0.));
#1024 = ( GEOMETRIC_REPRESENTATION_CONTEXT(2) 
PARAMETRIC_REPRESENTATION_CONTEXT() REPRESENTATION_CONTEXT('2D SPACE',''
  ) );
#1025 = ADVANCED_FACE('',(#1026),#913,.F.);
#1026 = FACE_BOUND('',#1027,.F.);
#1027 = EDGE_LOOP('',(#1028,#1029,#1030,#1055));
#1028 = ORIENTED_EDGE('',*,*,#1005,.F.);
#1029 = ORIENTED_EDGE('',*,*,#898,.T.);
#1030 = ORIENTED_EDGE('',*,*,#1031,.T.);
#1031 = EDGE_CURVE('',#804,#113,#1032,.T.);
#1032 = SURFACE_CURVE('',#1033,(#1038,#1045),.PCURVE_S1.);
#1033 = ELLIPSE('',#1034,29.325394136319,18.85);
#1034 = AXIS2_PLACEMENT_3D('',#1035,#1036,#1037);
#1035 = CARTESIAN_POINT('',(189.01084187702,0.,0.));
#1036 = DIRECTION('',(-0.642787609687,-0.766044443119,0.));
#1037 = DIRECTION('',(0.766044443119,-0.642787609687,0.));
#1038 = PCURVE('',#913,#1039);
#1039 = DEFINITIONAL_REPRESENTATION('',(#1040),#1044);
#1040 = ELLIPSE('',#1041,29.325394136319,18.85);
#1041 = AXIS2_PLACEMENT_2D('',#1042,#1043);
#1042 = CARTESIAN_POINT('',(1.906805748151,16.8));
#1043 = DIRECTION('',(-1.,-0.));
#1044 = ( GEOMETRIC_REPRESENTATION_CONTEXT(2) 
PARAMETRIC_REPRESENTATION_CONTEXT() REPRESENTATION_CONTEXT('2D SPACE',''
  ) );
#1045 = PCURVE('',#128,#1046);
#1046 = DEFINITIONAL_REPRESENTATION('',(#1047),#1054);
#1047 = B_SPLINE_CURVE_WITH_KNOTS('',5,(#1048,#1049,#1050,#1051,#1052,
    #1053),.UNSPECIFIED.,.F.,.F.,(6,6),(1.499210628161,1.570796326795),
  .PIECEWISE_BEZIER_KNOTS.);
#1048 = CARTESIAN_POINT('',(7.158569863389E-02,-3.382390380751));
#1049 = CARTESIAN_POINT('',(5.726855890711E-02,-3.70319481484));
#1050 = CARTESIAN_POINT('',(4.295141918033E-02,-4.024410943975));
#1051 = CARTESIAN_POINT('',(2.863427945356E-02,-4.345901770993));
#1052 = CARTESIAN_POINT('',(1.431713972678E-02,-4.667529946986));
#1053 = CARTESIAN_POINT('',(6.123233995737E-17,-4.989158122977));
#1054 = ( GEOMETRIC_REPRESENTATION_CONTEXT(2) 
PARAMETRIC_REPRESENTATION_CONTEXT() REPRESENTATION_CONTEXT('2D SPACE',''
  ) );
#1055 = ORIENTED_EDGE('',*,*,#1056,.F.);
#1056 = EDGE_CURVE('',#983,#113,#1057,.T.);
#1057 = SURFACE_CURVE('',#1058,(#1062,#1069),.PCURVE_S1.);
#1058 = LINE('',#1059,#1060);
#1059 = CARTESIAN_POINT('',(189.01084187702,0.,16.8));
#1060 = VECTOR('',#1061,1.);
#1061 = DIRECTION('',(0.,0.,1.));
#1062 = PCURVE('',#913,#1063);
#1063 = DEFINITIONAL_REPRESENTATION('',(#1064),#1068);
#1064 = LINE('',#1065,#1066);
#1065 = CARTESIAN_POINT('',(1.906805748151,0.));
#1066 = VECTOR('',#1067,1.);
#1067 = DIRECTION('',(0.,-1.));
#1068 = ( GEOMETRIC_REPRESENTATION_CONTEXT(2) 
PARAMETRIC_REPRESENTATION_CONTEXT() REPRESENTATION_CONTEXT('2D SPACE',''
  ) );
#1069 = PCURVE('',#160,#1070);
#1070 = DEFINITIONAL_REPRESENTATION('',(#1071),#1075);
#1071 = LINE('',#1072,#1073);
#1072 = CARTESIAN_POINT('',(0.,0.));
#1073 = VECTOR('',#1074,1.);
#1074 = DIRECTION('',(0.,-1.));
#1075 = ( GEOMETRIC_REPRESENTATION_CONTEXT(2) 
PARAMETRIC_REPRESENTATION_CONTEXT() REPRESENTATION_CONTEXT('2D SPACE',''
  ) );
#1076 = ADVANCED_FACE('',(#1077),#160,.F.);
#1077 = FACE_BOUND('',#1078,.F.);
#1078 = EDGE_LOOP('',(#1079,#1080,#1081,#1082));
#1079 = ORIENTED_EDGE('',*,*,#982,.F.);
#1080 = ORIENTED_EDGE('',*,*,#1056,.T.);
#1081 = ORIENTED_EDGE('',*,*,#140,.T.);
#1082 = ORIENTED_EDGE('',*,*,#958,.F.);
#1083 = ADVANCED_FACE('',(#1084),#128,.T.);
#1084 = FACE_BOUND('',#1085,.T.);
#1085 = EDGE_LOOP('',(#1086,#1087,#1088,#1089,#1090,#1091,#1113,#1114,
    #1115));
#1086 = ORIENTED_EDGE('',*,*,#774,.F.);
#1087 = ORIENTED_EDGE('',*,*,#272,.F.);
#1088 = ORIENTED_EDGE('',*,*,#803,.F.);
#1089 = ORIENTED_EDGE('',*,*,#1031,.T.);
#1090 = ORIENTED_EDGE('',*,*,#112,.F.);
#1091 = ORIENTED_EDGE('',*,*,#1092,.T.);
#1092 = EDGE_CURVE('',#84,#729,#1093,.T.);
#1093 = SURFACE_CURVE('',#1094,(#1099,#1106),.PCURVE_S1.);
#1094 = CIRCLE('',#1095,18.85);
#1095 = AXIS2_PLACEMENT_3D('',#1096,#1097,#1098);
#1096 = CARTESIAN_POINT('',(189.,0.,0.));
#1097 = DIRECTION('',(1.,0.,0.));
#1098 = DIRECTION('',(-0.,0.,1.));
#1099 = PCURVE('',#128,#1100);
#1100 = DEFINITIONAL_REPRESENTATION('',(#1101),#1105);
#1101 = LINE('',#1102,#1103);
#1102 = CARTESIAN_POINT('',(0.,-5.));
#1103 = VECTOR('',#1104,1.);
#1104 = DIRECTION('',(1.,0.));
#1105 = ( GEOMETRIC_REPRESENTATION_CONTEXT(2) 
PARAMETRIC_REPRESENTATION_CONTEXT() REPRESENTATION_CONTEXT('2D SPACE',''
  ) );
#1106 = PCURVE('',#100,#1107);
#1107 = DEFINITIONAL_REPRESENTATION('',(#1108),#1112);
#1108 = CIRCLE('',#1109,18.85);
#1109 = AXIS2_PLACEMENT_2D('',#1110,#1111);
#1110 = CARTESIAN_POINT('',(0.,0.));
#1111 = DIRECTION('',(1.,0.));
#1112 = ( GEOMETRIC_REPRESENTATION_CONTEXT(2) 
PARAMETRIC_REPRESENTATION_CONTEXT() REPRESENTATION_CONTEXT('2D SPACE',''
  ) );
#1113 = ORIENTED_EDGE('',*,*,#751,.T.);
#1114 = ORIENTED_EDGE('',*,*,#699,.T.);
#1115 = ORIENTED_EDGE('',*,*,#630,.T.);
#1116 = ADVANCED_FACE('',(#1117),#100,.F.);
#1117 = FACE_BOUND('',#1118,.F.);
#1118 = EDGE_LOOP('',(#1119,#1120,#1121,#1122,#1123));
#1119 = ORIENTED_EDGE('',*,*,#83,.T.);
#1120 = ORIENTED_EDGE('',*,*,#1092,.T.);
#1121 = ORIENTED_EDGE('',*,*,#728,.F.);
#1122 = ORIENTED_EDGE('',*,*,#469,.T.);
#1123 = ORIENTED_EDGE('',*,*,#1124,.T.);
#1124 = EDGE_CURVE('',#449,#58,#1125,.T.);
#1125 = SURFACE_CURVE('',#1126,(#1130,#1137),.PCURVE_S1.);
#1126 = LINE('',#1127,#1128);
#1127 = CARTESIAN_POINT('',(189.,6.,0.));
#1128 = VECTOR('',#1129,1.);
#1129 = DIRECTION('',(0.,0.,1.));
#1130 = PCURVE('',#100,#1131);
#1131 = DEFINITIONAL_REPRESENTATION('',(#1132),#1136);
#1132 = LINE('',#1133,#1134);
#1133 = CARTESIAN_POINT('',(0.,-6.));
#1134 = VECTOR('',#1135,1.);
#1135 = DIRECTION('',(1.,0.));
#1136 = ( GEOMETRIC_REPRESENTATION_CONTEXT(2) 
PARAMETRIC_REPRESENTATION_CONTEXT() REPRESENTATION_CONTEXT('2D SPACE',''
  ) );
#1137 = PCURVE('',#72,#1138);
#1138 = DEFINITIONAL_REPRESENTATION('',(#1139),#1143);
#1139 = LINE('',#1140,#1141);
#1140 = CARTESIAN_POINT('',(0.,0.));
#1141 = VECTOR('',#1142,1.);
#1142 = DIRECTION('',(1.,0.));
#1143 = ( GEOMETRIC_REPRESENTATION_CONTEXT(2) 
PARAMETRIC_REPRESENTATION_CONTEXT() REPRESENTATION_CONTEXT('2D SPACE',''
  ) );
#1144 = ADVANCED_FACE('',(#1145),#72,.T.);
#1145 = FACE_BOUND('',#1146,.T.);
#1146 = EDGE_LOOP('',(#1147,#1168,#1169,#1170));
#1147 = ORIENTED_EDGE('',*,*,#1148,.F.);
#1148 = EDGE_CURVE('',#426,#24,#1149,.T.);
#1149 = SURFACE_CURVE('',#1150,(#1154,#1161),.PCURVE_S1.);
#1150 = LINE('',#1151,#1152);
#1151 = CARTESIAN_POINT('',(194.,6.,0.));
#1152 = VECTOR('',#1153,1.);
#1153 = DIRECTION('',(0.,0.,1.));
#1154 = PCURVE('',#72,#1155);
#1155 = DEFINITIONAL_REPRESENTATION('',(#1156),#1160);
#1156 = LINE('',#1157,#1158);
#1157 = CARTESIAN_POINT('',(0.,5.));
#1158 = VECTOR('',#1159,1.);
#1159 = DIRECTION('',(1.,0.));
#1160 = ( GEOMETRIC_REPRESENTATION_CONTEXT(2) 
PARAMETRIC_REPRESENTATION_CONTEXT() REPRESENTATION_CONTEXT('2D SPACE',''
  ) );
#1161 = PCURVE('',#45,#1162);
#1162 = DEFINITIONAL_REPRESENTATION('',(#1163),#1167);
#1163 = LINE('',#1164,#1165);
#1164 = CARTESIAN_POINT('',(0.,-6.));
#1165 = VECTOR('',#1166,1.);
#1166 = DIRECTION('',(1.,0.));
#1167 = ( GEOMETRIC_REPRESENTATION_CONTEXT(2) 
PARAMETRIC_REPRESENTATION_CONTEXT() REPRESENTATION_CONTEXT('2D SPACE',''
  ) );
#1168 = ORIENTED_EDGE('',*,*,#448,.F.);
#1169 = ORIENTED_EDGE('',*,*,#1124,.T.);
#1170 = ORIENTED_EDGE('',*,*,#57,.T.);
#1171 = ADVANCED_FACE('',(#1172),#45,.F.);
#1172 = FACE_BOUND('',#1173,.F.);
#1173 = EDGE_LOOP('',(#1174,#1175,#1176,#1177));
#1174 = ORIENTED_EDGE('',*,*,#351,.T.);
#1175 = ORIENTED_EDGE('',*,*,#21,.T.);
#1176 = ORIENTED_EDGE('',*,*,#1148,.F.);
#1177 = ORIENTED_EDGE('',*,*,#425,.F.);
#1178 = ( GEOMETRIC_REPRESENTATION_CONTEXT(3) 
GLOBAL_UNCERTAINTY_ASSIGNED_CONTEXT((#1182)) 
GLOBAL_UNIT_ASSIGNED_CONTEXT((#1179,#1180,#1181)) REPRESENTATION_CONTEXT
('Context #1','3D Context with UNIT and UNCERTAINTY') );
#1179 = ( LENGTH_UNIT() NAMED_UNIT(*) SI_UNIT(.MILLI.,.METRE.) );
#1180 = ( NAMED_UNIT(*) PLANE_ANGLE_UNIT() SI_UNIT($,.RADIAN.) );
#1181 = ( NAMED_UNIT(*) SI_UNIT($,.STERADIAN.) SOLID_ANGLE_UNIT() );
#1182 = UNCERTAINTY_MEASURE_WITH_UNIT(LENGTH_MEASURE(1.E-07),#1179,
  'distance_accuracy_value','confusion accuracy');
#1183 = PRODUCT_RELATED_PRODUCT_CATEGORY('part',$,(#7));
ENDSEC;
END-ISO-10303-21;
