ISO-10303-21;
HEADER;
FILE_DESCRIPTION(('Open CASCADE Model'),'2;1');
FILE_NAME('Open CASCADE Shape Model','2026-10-04T21:26:30',('Author'),(
    'Open CASCADE'),'Open CASCADE STEP processor 7.9','Open CASCADE 7.9'
  ,'Unknown');
FILE_SCHEMA(('AUTOMOTIVE_DESIGN { 1 0 10303 214 1 1 1 1 }'));
ENDSEC;
DATA;
#1 = APPLICATION_PROTOCOL_DEFINITION('international standard',
  'automotive_design',2000,#2);
#2 = APPLICATION_CONTEXT(
  'core data for automotive mechanical design processes');
#3 = SHAPE_DEFINITION_REPRESENTATION(#4,#10);
#4 = PRODUCT_DEFINITION_SHAPE('','',#5);
#5 = PRODUCT_DEFINITION('design','',#6,#9);
#6 = PRODUCT_DEFINITION_FORMATION('','',#7);
#7 = PRODUCT('Open CASCADE STEP translator 7.9 22',
  'Open CASCADE STEP translator 7.9 22','',(#8));
#8 = PRODUCT_CONTEXT('',#2,'mechanical');
#9 = PRODUCT_DEFINITION_CONTEXT('part definition',#2,'design');
#10 = ADVANCED_BREP_SHAPE_REPRESENTATION('',(#11,#15),#724);
#11 = AXIS2_PLACEMENT_3D('',#12,#13,#14);
#12 = CARTESIAN_POINT('',(0.,0.,0.));
#13 = DIRECTION('',(0.,0.,1.));
#14 = DIRECTION('',(1.,0.,-0.));
#15 = MANIFOLD_SOLID_BREP('',#16);
#16 = CLOSED_SHELL('',(#17,#481,#665,#712,#718));
#17 = ADVANCED_FACE('',(#18),#61,.T.);
#18 = FACE_BOUND('',#19,.T.);
#19 = EDGE_LOOP('',(#20,#229,#372,#457));
#20 = ORIENTED_EDGE('',*,*,#21,.T.);
#21 = EDGE_CURVE('',#22,#24,#26,.T.);
#22 = VERTEX_POINT('',#23);
#23 = CARTESIAN_POINT('',(440.,0.45,15.5));
#24 = VERTEX_POINT('',#25);
#25 = CARTESIAN_POINT('',(377.4,2.620387992946E-18,15.5));
#26 = SURFACE_CURVE('',#27,(#60,#188),.PCURVE_S1.);
#27 = B_SPLINE_CURVE_WITH_KNOTS('',3,(#28,#29,#30,#31,#32,#33,#34,#35,
    #36,#37,#38,#39,#40,#41,#42,#43,#44,#45,#46,#47,#48,#49,#50,#51,#52,
    #53,#54,#55,#56,#57,#58,#59),.UNSPECIFIED.,.F.,.F.,(4,1,1,1,1,1,1,1,
    1,1,1,1,1,1,1,1,1,1,1,1,1,1,1,1,1,1,1,1,1,4),(0.,0.18521222458,
    0.73867974587,1.653920303555,2.920213870944,4.522727386981,
    6.442687606234,8.657600254253,11.141513112528,13.865320077622,
    16.797102660285,19.902504839389,23.145136694164,26.487001836431,
    29.888943372503,33.311102949155,36.713387371868,40.05593730887,
    43.299592687738,46.406349526846,49.33980309035,52.06557235992,
    54.551700752615,56.769027390139,58.691520547044,60.296553170651,
    61.565038078478,62.480926600853,63.029304994595,63.213738296887),
  .UNSPECIFIED.);
#28 = CARTESIAN_POINT('',(440.,0.45,15.5));
#29 = CARTESIAN_POINT('',(439.938495937,0.455362629126,15.5));
#30 = CARTESIAN_POINT('',(439.69319637907,0.476708791692,15.5));
#31 = CARTESIAN_POINT('',(439.14393317887,0.524134433615,15.5));
#32 = CARTESIAN_POINT('',(438.23554301948,0.601368850054,15.5));
#33 = CARTESIAN_POINT('',(436.97852756369,0.705850729698,15.5));
#34 = CARTESIAN_POINT('',(435.3874438371,0.834267594007,15.5));
#35 = CARTESIAN_POINT('',(433.48075293218,0.982767220656,15.5));
#36 = CARTESIAN_POINT('',(431.28061978778,1.147155346861,15.5));
#37 = CARTESIAN_POINT('',(428.81266362608,1.323046022336,15.5));
#38 = CARTESIAN_POINT('',(426.10566115434,1.505942836814,15.5));
#39 = CARTESIAN_POINT('',(423.19120719558,1.691246057548,15.5));
#40 = CARTESIAN_POINT('',(420.10333956362,1.874199233668,15.5));
#41 = CARTESIAN_POINT('',(416.8781364655,2.049805102879,15.5));
#42 = CARTESIAN_POINT('',(413.55329538402,2.212751137638,15.5));
#43 = CARTESIAN_POINT('',(410.16770215157,2.357387287506,15.5));
#44 = CARTESIAN_POINT('',(406.76099778184,2.477791656911,15.5));
#45 = CARTESIAN_POINT('',(403.37314823238,2.567944452268,15.5));
#46 = CARTESIAN_POINT('',(400.0440202761,2.622010638721,15.5));
#47 = CARTESIAN_POINT('',(396.81296090114,2.634704799561,15.5));
#48 = CARTESIAN_POINT('',(393.71838728474,2.601703793622,15.5));
#49 = CARTESIAN_POINT('',(390.79735734455,2.520009379452,15.5));
#50 = CARTESIAN_POINT('',(388.08523069002,2.388321326688,15.5));
#51 = CARTESIAN_POINT('',(385.61509080859,2.206929040322,15.5));
#52 = CARTESIAN_POINT('',(383.41811127003,1.978486341663,15.5));
#53 = CARTESIAN_POINT('',(381.52133299203,1.705193476131,15.5));
#54 = CARTESIAN_POINT('',(379.95412584547,1.396131182129,15.5));
#55 = CARTESIAN_POINT('',(378.73175435948,1.045454566823,15.5));
#56 = CARTESIAN_POINT('',(377.90463867753,0.691468700307,15.5));
#57 = CARTESIAN_POINT('',(377.45317827836,0.303237299733,15.5));
#58 = CARTESIAN_POINT('',(377.40267351134,6.464275253958E-02,15.5));
#59 = CARTESIAN_POINT('',(377.4,2.620387992946E-18,15.5));
#60 = PCURVE('',#61,#182);
#61 = B_SPLINE_SURFACE_WITH_KNOTS('',3,1,(
    (#62,#63)
    ,(#64,#65)
    ,(#66,#67)
    ,(#68,#69)
    ,(#70,#71)
    ,(#72,#73)
    ,(#74,#75)
    ,(#76,#77)
    ,(#78,#79)
    ,(#80,#81)
    ,(#82,#83)
    ,(#84,#85)
    ,(#86,#87)
    ,(#88,#89)
    ,(#90,#91)
    ,(#92,#93)
    ,(#94,#95)
    ,(#96,#97)
    ,(#98,#99)
    ,(#100,#101)
    ,(#102,#103)
    ,(#104,#105)
    ,(#106,#107)
    ,(#108,#109)
    ,(#110,#111)
    ,(#112,#113)
    ,(#114,#115)
    ,(#116,#117)
    ,(#118,#119)
    ,(#120,#121)
    ,(#122,#123)
    ,(#124,#125)
    ,(#126,#127)
    ,(#128,#129)
    ,(#130,#131)
    ,(#132,#133)
    ,(#134,#135)
    ,(#136,#137)
    ,(#138,#139)
    ,(#140,#141)
    ,(#142,#143)
    ,(#144,#145)
    ,(#146,#147)
    ,(#148,#149)
    ,(#150,#151)
    ,(#152,#153)
    ,(#154,#155)
    ,(#156,#157)
    ,(#158,#159)
    ,(#160,#161)
    ,(#162,#163)
    ,(#164,#165)
    ,(#166,#167)
    ,(#168,#169)
    ,(#170,#171)
    ,(#172,#173)
    ,(#174,#175)
    ,(#176,#177)
    ,(#178,#179)
    ,(#180,#181
    )),.UNSPECIFIED.,.F.,.F.,.F.,(4,1,1,1,1,1,1,1,1,1,1,1,1,1,1,1,1,1,1,
    1,1,1,1,1,1,1,1,1,1,1,1,1,1,1,1,1,1,1,1,1,1,1,1,1,1,1,1,1,1,1,1,1,1,
    1,1,1,1,4),(2,2),(0.,0.185101461616,0.18521222458,0.738240469085,
    0.73867974587,1.652945784763,1.653920303555,2.918514800623,
    2.920213870944,4.520137026836,4.522727386981,6.43906553392,
    6.442687606234,8.652834787577,8.657600254253,11.135522723895,
    11.141513112528,13.858054255897,13.865320077622,16.788542712179,
    16.797102660285,19.892665033927,19.902504839389,23.134065956035,
    23.145136694164,26.474785925064,26.487001836431,29.875707198461,
    29.888943372503,33.29701243839,33.311102949155,36.69865014661,
    36.713387371868,40.040801450533,40.05593730887,43.284342999257,
    43.299592687738,46.391301010377,46.406349526846,49.325291766148,
    49.33980309035,52.051944012979,52.06557235992,54.539298619945,
    54.551700752615,56.75818007391,56.769027390139,58.682531328542,
    58.691520547044,60.289690602047,60.296553170651,61.560520629347,
    61.565038078478,62.478844338492,62.480926600853,63.029061515078,
    63.029304994595,63.213738296887),(0.,1.),.UNSPECIFIED.);
#62 = CARTESIAN_POINT('',(440.,0.45,15.5));
#63 = CARTESIAN_POINT('',(440.,0.45,91.6));
#64 = CARTESIAN_POINT('',(439.93853271844,0.455359422099,15.5));
#65 = CARTESIAN_POINT('',(439.96836368897,0.452543711397,91.6));
#66 = CARTESIAN_POINT('',(439.87702774735,0.460711639862,15.5));
#67 = CARTESIAN_POINT('',(439.93670801531,0.455083577082,91.6));
#68 = CARTESIAN_POINT('',(439.63187047785,0.482003848048,15.5));
#69 = CARTESIAN_POINT('',(439.81052943672,0.465185984364,91.6));
#70 = CARTESIAN_POINT('',(439.44802838536,0.497877603795,15.5));
#71 = CARTESIAN_POINT('',(439.71590912872,0.472713725286,91.6));
#72 = CARTESIAN_POINT('',(438.96057671373,0.539723756514,15.5));
#73 = CARTESIAN_POINT('',(439.46502710795,0.492548288571,91.6));
#74 = CARTESIAN_POINT('',(438.65644728487,0.56558213993,15.5));
#75 = CARTESIAN_POINT('',(439.30849837779,0.504794524586,91.6));
#76 = CARTESIAN_POINT('',(437.9323991137,0.626565246954,15.5));
#77 = CARTESIAN_POINT('',(438.93584867333,0.533651343144,91.6));
#78 = CARTESIAN_POINT('',(437.51142783522,0.661556586952,15.5));
#79 = CARTESIAN_POINT('',(438.71918674045,0.550189477392,91.6));
#80 = CARTESIAN_POINT('',(436.55922243343,0.739691818659,15.5));
#81 = CARTESIAN_POINT('',(438.22911718071,0.587075840848,91.6));
#82 = CARTESIAN_POINT('',(436.02621760644,0.782711963659,15.5));
#83 = CARTESIAN_POINT('',(437.95479914678,0.60735405196,91.6));
#84 = CARTESIAN_POINT('',(434.85694904468,0.875582490971,15.5));
#85 = CARTESIAN_POINT('',(437.35302464665,0.651064157889,91.6));
#86 = CARTESIAN_POINT('',(434.21803288701,0.925345329282,15.5));
#87 = CARTESIAN_POINT('',(437.02420410577,0.674441574473,91.6));
#88 = CARTESIAN_POINT('',(432.84533188383,1.030241509559,15.5));
#89 = CARTESIAN_POINT('',(436.31774541923,0.723627837203,91.6));
#90 = CARTESIAN_POINT('',(432.10787480033,1.085345041538,15.5));
#91 = CARTESIAN_POINT('',(435.93821842305,0.749408347171,91.6));
#92 = CARTESIAN_POINT('',(430.54775791956,1.199382609903,15.5));
#93 = CARTESIAN_POINT('',(435.13532416874,0.802641743294,91.6));
#94 = CARTESIAN_POINT('',(429.72029582063,1.258359281842,15.5));
#95 = CARTESIAN_POINT('',(434.70948652329,0.830099618406,91.6));
#96 = CARTESIAN_POINT('',(427.99098240268,1.378557673229,15.5));
#97 = CARTESIAN_POINT('',(433.81953874557,0.885909347109,91.6));
#98 = CARTESIAN_POINT('',(427.08311787078,1.439901626437,15.5));
#99 = CARTESIAN_POINT('',(433.35233507752,0.914302904186,91.6));
#100 = CARTESIAN_POINT('',(425.20481680502,1.563213318955,15.5));
#101 = CARTESIAN_POINT('',(432.3857394608,0.97119068921,91.6));
#102 = CARTESIAN_POINT('',(424.22710581665,1.625382827744,15.5));
#103 = CARTESIAN_POINT('',(431.88260493875,0.999763113315,91.6));
#104 = CARTESIAN_POINT('',(422.22177589416,1.748676612657,15.5));
#105 = CARTESIAN_POINT('',(430.85066759196,1.056193677261,91.6));
#106 = CARTESIAN_POINT('',(421.18560254127,1.810076197074,15.5));
#107 = CARTESIAN_POINT('',(430.31746354654,1.084163338062,91.6));
#108 = CARTESIAN_POINT('',(419.07669142309,1.930089113506,15.5));
#109 = CARTESIAN_POINT('',(429.23225690023,1.13853868366,91.6));
#110 = CARTESIAN_POINT('',(417.99413354583,1.989041290069,15.5));
#111 = CARTESIAN_POINT('',(428.6752018078,1.165084099969,91.6));
#112 = CARTESIAN_POINT('',(415.8063011972,2.102323060441,15.5));
#113 = CARTESIAN_POINT('',(427.54942255374,1.215713920916,91.6));
#114 = CARTESIAN_POINT('',(414.68999000266,2.157043247757,15.5));
#115 = CARTESIAN_POINT('',(426.97501991962,1.239960357512,91.6));
#116 = CARTESIAN_POINT('',(412.44882268628,2.259921360286,15.5));
#117 = CARTESIAN_POINT('',(425.82184203064,1.285043116409,91.6));
#118 = CARTESIAN_POINT('',(411.31179926075,2.308510240092,15.5));
#119 = CARTESIAN_POINT('',(425.23680661815,1.306058196156,91.6));
#120 = CARTESIAN_POINT('',(409.04351979607,2.397102237325,15.5));
#121 = CARTESIAN_POINT('',(424.06973229093,1.343686577043,91.6));
#122 = CARTESIAN_POINT('',(407.89909094038,2.437567623884,15.5));
#123 = CARTESIAN_POINT('',(423.48091590273,1.360491124851,91.6));
#124 = CARTESIAN_POINT('',(405.63026979259,2.507859573584,15.5));
#125 = CARTESIAN_POINT('',(422.31362669981,1.388691643062,91.6));
#126 = CARTESIAN_POINT('',(404.4918647253,2.538174706718,15.5));
#127 = CARTESIAN_POINT('',(421.72794427882,1.400289321444,91.6));
#128 = CARTESIAN_POINT('',(402.24913500455,2.586172780513,15.5));
#129 = CARTESIAN_POINT('',(420.57415402329,1.417099640186,91.6));
#130 = CARTESIAN_POINT('',(401.13016375679,2.60437129391,15.5));
#131 = CARTESIAN_POINT('',(419.9985104909,1.42252548484,91.6));
#132 = CARTESIAN_POINT('',(398.93994054531,2.626317376778,15.5));
#133 = CARTESIAN_POINT('',(418.87182014051,1.426104722737,91.6));
#134 = CARTESIAN_POINT('',(397.85365293092,2.630616136841,15.5));
#135 = CARTESIAN_POINT('',(418.31303742166,1.424488027681,91.6));
#136 = CARTESIAN_POINT('',(395.74185865807,2.623246413625,15.5));
#137 = CARTESIAN_POINT('',(417.22679289342,1.413249142997,91.6));
#138 = CARTESIAN_POINT('',(394.70120596818,2.612184722251,15.5));
#139 = CARTESIAN_POINT('',(416.69153826929,1.403884678361,91.6));
#140 = CARTESIAN_POINT('',(392.69299384328,2.572985067096,15.5));
#141 = CARTESIAN_POINT('',(415.65868716031,1.376625116341,91.6));
#142 = CARTESIAN_POINT('',(391.71048308272,2.545547382749,15.5));
#143 = CARTESIAN_POINT('',(415.15339782537,1.359035921711,91.6));
#144 = CARTESIAN_POINT('',(389.82998771227,2.472993210652,15.5));
#145 = CARTESIAN_POINT('',(414.18636039654,1.315060060145,91.6));
#146 = CARTESIAN_POINT('',(388.91756519537,2.428735556634,15.5));
#147 = CARTESIAN_POINT('',(413.71718308321,1.289061528349,91.6));
#148 = CARTESIAN_POINT('',(387.18759843072,2.322355311874,15.5));
#149 = CARTESIAN_POINT('',(412.82769472122,1.228212433673,91.6));
#150 = CARTESIAN_POINT('',(386.35645245521,2.261370201779,15.5));
#151 = CARTESIAN_POINT('',(412.4003843148,1.193894921371,91.6));
#152 = CARTESIAN_POINT('',(384.79847358934,2.12196467012,15.5));
#153 = CARTESIAN_POINT('',(411.59948163101,1.116665868677,91.6));
#154 = CARTESIAN_POINT('',(384.05915302595,2.04514208702,15.5));
#155 = CARTESIAN_POINT('',(411.21946106116,1.074524068325,91.6));
#156 = CARTESIAN_POINT('',(382.69257171278,1.873892849272,15.5));
#157 = CARTESIAN_POINT('',(410.51711843745,0.981600766713,91.6));
#158 = CARTESIAN_POINT('',(382.05423468341,1.781975370976,15.5));
#159 = CARTESIAN_POINT('',(410.1890961655,0.93206058398,91.6));
#160 = CARTESIAN_POINT('',(380.89830460064,1.582273607655,15.5));
#161 = CARTESIAN_POINT('',(409.59521605147,0.82525951031,91.6));
#162 = CARTESIAN_POINT('',(380.37087505836,1.478316532064,15.5));
#163 = CARTESIAN_POINT('',(409.32428486509,0.769903477698,91.6));
#164 = CARTESIAN_POINT('',(379.44006016115,1.248596136782,15.5));
#165 = CARTESIAN_POINT('',(408.84626885026,0.648506214315,91.6));
#166 = CARTESIAN_POINT('',(379.02865524557,1.130630144793,15.5));
#167 = CARTESIAN_POINT('',(408.63507147945,0.586414797255,91.6));
#168 = CARTESIAN_POINT('',(378.34983994921,0.881964337614,15.5));
#169 = CARTESIAN_POINT('',(408.28677595956,0.456192199333,91.6));
#170 = CARTESIAN_POINT('',(378.07124533276,0.762772391563,15.5));
#171 = CARTESIAN_POINT('',(408.1438983203,0.393832027549,91.6));
#172 = CARTESIAN_POINT('',(377.65448218405,0.476335748092,15.5));
#173 = CARTESIAN_POINT('',(407.93026381854,0.245408324131,91.6));
#174 = CARTESIAN_POINT('',(377.50374796513,0.346724481244,15.5));
#175 = CARTESIAN_POINT('',(407.85316989737,0.178452307507,91.6));
#176 = CARTESIAN_POINT('',(377.41540128014,0.124771259455,15.5));
#177 = CARTESIAN_POINT('',(407.80792752076,6.416734125198E-02,91.6));
#178 = CARTESIAN_POINT('',(377.40267351134,6.464275253958E-02,15.5));
#179 = CARTESIAN_POINT('',(407.80139698691,3.323163419045E-02,91.6));
#180 = CARTESIAN_POINT('',(377.4,2.620387992946E-18,15.5));
#181 = CARTESIAN_POINT('',(407.8,1.345495681678E-18,91.6));
#182 = DEFINITIONAL_REPRESENTATION('',(#183),#187);
#183 = LINE('',#184,#185);
#184 = CARTESIAN_POINT('',(0.,0.));
#185 = VECTOR('',#186,1.);
#186 = DIRECTION('',(1.,0.));
#187 = ( GEOMETRIC_REPRESENTATION_CONTEXT(2) 
PARAMETRIC_REPRESENTATION_CONTEXT() REPRESENTATION_CONTEXT('2D SPACE',''
  ) );
#188 = PCURVE('',#189,#194);
#189 = PLANE('',#190);
#190 = AXIS2_PLACEMENT_3D('',#191,#192,#193);
#191 = CARTESIAN_POINT('',(440.,0.45,15.5));
#192 = DIRECTION('',(0.,0.,1.));
#193 = DIRECTION('',(-0.999974163747,-7.18831267869E-03,0.));
#194 = DEFINITIONAL_REPRESENTATION('',(#195),#228);
#195 = B_SPLINE_CURVE_WITH_KNOTS('',3,(#196,#197,#198,#199,#200,#201,
    #202,#203,#204,#205,#206,#207,#208,#209,#210,#211,#212,#213,#214,
    #215,#216,#217,#218,#219,#220,#221,#222,#223,#224,#225,#226,#227),
  .UNSPECIFIED.,.F.,.F.,(4,1,1,1,1,1,1,1,1,1,1,1,1,1,1,1,1,1,1,1,1,1,1,1
    ,1,1,1,1,1,4),(0.,0.18521222458,0.73867974587,1.653920303555,
    2.920213870944,4.522727386981,6.442687606234,8.657600254253,
    11.141513112528,13.865320077622,16.797102660285,19.902504839389,
    23.145136694164,26.487001836431,29.888943372503,33.311102949155,
    36.713387371868,40.05593730887,43.299592687738,46.406349526846,
    49.33980309035,52.06557235992,54.551700752615,56.769027390139,
    58.691520547044,60.296553170651,61.565038078478,62.480926600853,
    63.029304994595,63.213738296887),.UNSPECIFIED.);
#196 = CARTESIAN_POINT('',(0.,0.));
#197 = CARTESIAN_POINT('',(6.146392570946E-02,-5.804601011759E-03));
#198 = CARTESIAN_POINT('',(0.306603703128,-2.891350199468E-02));
#199 = CARTESIAN_POINT('',(0.855511802079,-8.028619424328E-02));
#200 = CARTESIAN_POINT('',(1.763323306934,-0.164048407734));
#201 = CARTESIAN_POINT('',(3.019555237736,-0.277563408096));
#202 = CARTESIAN_POINT('',(4.609674756104,-0.417414161919));
#203 = CARTESIAN_POINT('',(6.515248937534,-0.579615842301));
#204 = CARTESIAN_POINT('',(8.714143565484,-0.759814966309));
#205 = CARTESIAN_POINT('',(11.180771607262,-0.953441537995));
#206 = CARTESIAN_POINT('',(13.886389420715,-1.155792407293));
#207 = CARTESIAN_POINT('',(16.799436063414,-1.362040846829));
#208 = CARTESIAN_POINT('',(19.885908791811,-1.567185854174));
#209 = CARTESIAN_POINT('',(23.109766252865,-1.765970954709));
#210 = CARTESIAN_POINT('',(26.433350125858,-1.952812776854));
#211 = CARTESIAN_POINT('',(29.817816197394,-2.121781892623));
#212 = CARTESIAN_POINT('',(33.2235670464,-2.266671607443));
#213 = CARTESIAN_POINT('',(36.610681020033,-2.38117499546));
#214 = CARTESIAN_POINT('',(39.939334319466,-2.459170597743));
#215 = CARTESIAN_POINT('',(43.170218966359,-2.495090295683));
#216 = CARTESIAN_POINT('',(46.264949852122,-2.484334905129));
#217 = CARTESIAN_POINT('',(49.186491568841,-2.423639878191));
#218 = CARTESIAN_POINT('',(51.89949476708,-2.31145084217));
#219 = CARTESIAN_POINT('',(54.37087473382,-2.147819380129));
#220 = CARTESIAN_POINT('',(56.569439628209,-1.935175159444));
#221 = CARTESIAN_POINT('',(58.468133415132,-1.67552399012));
#222 = CARTESIAN_POINT('',(60.03752170734,-1.377735256132));
#223 = CARTESIAN_POINT('',(61.262382384983,-1.035854489447));
#224 = CARTESIAN_POINT('',(62.092021258457,-0.687823334743));
#225 = CARTESIAN_POINT('',(62.546260722285,-0.302847203125));
#226 = CARTESIAN_POINT('',(62.598479276653,-6.462186437752E-02));
#227 = CARTESIAN_POINT('',(62.601617391246,-4.440892098501E-16));
#228 = ( GEOMETRIC_REPRESENTATION_CONTEXT(2) 
PARAMETRIC_REPRESENTATION_CONTEXT() REPRESENTATION_CONTEXT('2D SPACE',''
  ) );
#229 = ORIENTED_EDGE('',*,*,#230,.T.);
#230 = EDGE_CURVE('',#24,#231,#233,.T.);
#231 = VERTEX_POINT('',#232);
#232 = CARTESIAN_POINT('',(407.8,1.345495681678E-18,91.6));
#233 = SURFACE_CURVE('',#234,(#237,#244),.PCURVE_S1.);
#234 = B_SPLINE_CURVE_WITH_KNOTS('',1,(#235,#236),.UNSPECIFIED.,.F.,.F.,
  (2,2),(0.,1.),.PIECEWISE_BEZIER_KNOTS.);
#235 = CARTESIAN_POINT('',(377.4,2.620387992946E-18,15.5));
#236 = CARTESIAN_POINT('',(407.8,1.345495681678E-18,91.6));
#237 = PCURVE('',#61,#238);
#238 = DEFINITIONAL_REPRESENTATION('',(#239),#243);
#239 = LINE('',#240,#241);
#240 = CARTESIAN_POINT('',(63.213738296887,0.));
#241 = VECTOR('',#242,1.);
#242 = DIRECTION('',(0.,1.));
#243 = ( GEOMETRIC_REPRESENTATION_CONTEXT(2) 
PARAMETRIC_REPRESENTATION_CONTEXT() REPRESENTATION_CONTEXT('2D SPACE',''
  ) );
#244 = PCURVE('',#245,#366);
#245 = B_SPLINE_SURFACE_WITH_KNOTS('',3,1,(
    (#246,#247)
    ,(#248,#249)
    ,(#250,#251)
    ,(#252,#253)
    ,(#254,#255)
    ,(#256,#257)
    ,(#258,#259)
    ,(#260,#261)
    ,(#262,#263)
    ,(#264,#265)
    ,(#266,#267)
    ,(#268,#269)
    ,(#270,#271)
    ,(#272,#273)
    ,(#274,#275)
    ,(#276,#277)
    ,(#278,#279)
    ,(#280,#281)
    ,(#282,#283)
    ,(#284,#285)
    ,(#286,#287)
    ,(#288,#289)
    ,(#290,#291)
    ,(#292,#293)
    ,(#294,#295)
    ,(#296,#297)
    ,(#298,#299)
    ,(#300,#301)
    ,(#302,#303)
    ,(#304,#305)
    ,(#306,#307)
    ,(#308,#309)
    ,(#310,#311)
    ,(#312,#313)
    ,(#314,#315)
    ,(#316,#317)
    ,(#318,#319)
    ,(#320,#321)
    ,(#322,#323)
    ,(#324,#325)
    ,(#326,#327)
    ,(#328,#329)
    ,(#330,#331)
    ,(#332,#333)
    ,(#334,#335)
    ,(#336,#337)
    ,(#338,#339)
    ,(#340,#341)
    ,(#342,#343)
    ,(#344,#345)
    ,(#346,#347)
    ,(#348,#349)
    ,(#350,#351)
    ,(#352,#353)
    ,(#354,#355)
    ,(#356,#357)
    ,(#358,#359)
    ,(#360,#361)
    ,(#362,#363)
    ,(#364,#365
    )),.UNSPECIFIED.,.F.,.F.,.F.,(4,1,1,1,1,1,1,1,1,1,1,1,1,1,1,1,1,1,1,
    1,1,1,1,1,1,1,1,1,1,1,1,1,1,1,1,1,1,1,1,1,1,1,1,1,1,1,1,1,1,1,1,1,1,
    1,1,1,1,4),(2,2),(0.,0.184433302292,0.184676781809,0.732811696033,
    0.734893958394,1.648700218409,1.65321766754,2.917185126235,
    2.924047694839,4.522217749842,4.531206968344,6.444710906748,
    6.455558222977,8.662037544272,8.674439676941,11.148165936966,
    11.161794283907,13.873935206537,13.888446530739,16.807388770041,
    16.82243728651,19.914145609149,19.929395297629,23.157800988017,
    23.172936846354,26.500350925019,26.515088150277,29.902635347732,
    29.916725858497,33.324794924383,33.338031098426,36.726736460456,
    36.738952371823,40.068601602722,40.079672340852,43.311233457498,
    43.32107326296,46.416635636601,46.425195584708,49.348418219265,
    49.35568404099,52.072225184358,52.078215572992,54.556138042634,
    54.560903509309,56.771050690652,56.774672762966,58.691010909905,
    58.69360127005,60.293524425943,60.295223496264,61.559817993332,
    61.560792512123,62.475058551017,62.475497827801,63.028526072306,
    63.028636835271,63.213738296887),(0.,1.),.UNSPECIFIED.);
#246 = CARTESIAN_POINT('',(377.4,2.620387992946E-18,15.5));
#247 = CARTESIAN_POINT('',(407.8,1.345495681678E-18,91.6));
#248 = CARTESIAN_POINT('',(377.40267351134,-6.464275253958E-02,15.5));
#249 = CARTESIAN_POINT('',(407.80139698691,-3.323163419045E-02,91.6));
#250 = CARTESIAN_POINT('',(377.41540128014,-0.124771259455,15.5));
#251 = CARTESIAN_POINT('',(407.80792752076,-6.416734125198E-02,91.6));
#252 = CARTESIAN_POINT('',(377.50374796513,-0.346724481244,15.5));
#253 = CARTESIAN_POINT('',(407.85316989737,-0.178452307507,91.6));
#254 = CARTESIAN_POINT('',(377.65448218405,-0.476335748092,15.5));
#255 = CARTESIAN_POINT('',(407.93026381854,-0.245408324131,91.6));
#256 = CARTESIAN_POINT('',(378.07124533276,-0.762772391563,15.5));
#257 = CARTESIAN_POINT('',(408.1438983203,-0.393832027549,91.6));
#258 = CARTESIAN_POINT('',(378.34983994921,-0.881964337614,15.5));
#259 = CARTESIAN_POINT('',(408.28677595956,-0.456192199333,91.6));
#260 = CARTESIAN_POINT('',(379.02865524557,-1.130630144793,15.5));
#261 = CARTESIAN_POINT('',(408.63507147945,-0.586414797255,91.6));
#262 = CARTESIAN_POINT('',(379.44006016115,-1.248596136782,15.5));
#263 = CARTESIAN_POINT('',(408.84626885026,-0.648506214315,91.6));
#264 = CARTESIAN_POINT('',(380.37087505836,-1.478316532064,15.5));
#265 = CARTESIAN_POINT('',(409.32428486509,-0.769903477698,91.6));
#266 = CARTESIAN_POINT('',(380.89830460064,-1.582273607655,15.5));
#267 = CARTESIAN_POINT('',(409.59521605147,-0.82525951031,91.6));
#268 = CARTESIAN_POINT('',(382.05423468341,-1.781975370976,15.5));
#269 = CARTESIAN_POINT('',(410.1890961655,-0.93206058398,91.6));
#270 = CARTESIAN_POINT('',(382.69257171278,-1.873892849272,15.5));
#271 = CARTESIAN_POINT('',(410.51711843745,-0.981600766713,91.6));
#272 = CARTESIAN_POINT('',(384.05915302595,-2.04514208702,15.5));
#273 = CARTESIAN_POINT('',(411.21946106116,-1.074524068325,91.6));
#274 = CARTESIAN_POINT('',(384.79847358934,-2.12196467012,15.5));
#275 = CARTESIAN_POINT('',(411.59948163101,-1.116665868677,91.6));
#276 = CARTESIAN_POINT('',(386.35645245521,-2.261370201779,15.5));
#277 = CARTESIAN_POINT('',(412.4003843148,-1.193894921371,91.6));
#278 = CARTESIAN_POINT('',(387.18759843072,-2.322355311874,15.5));
#279 = CARTESIAN_POINT('',(412.82769472122,-1.228212433673,91.6));
#280 = CARTESIAN_POINT('',(388.91756519537,-2.428735556634,15.5));
#281 = CARTESIAN_POINT('',(413.71718308321,-1.289061528349,91.6));
#282 = CARTESIAN_POINT('',(389.82998771227,-2.472993210652,15.5));
#283 = CARTESIAN_POINT('',(414.18636039654,-1.315060060145,91.6));
#284 = CARTESIAN_POINT('',(391.71048308272,-2.545547382749,15.5));
#285 = CARTESIAN_POINT('',(415.15339782537,-1.359035921711,91.6));
#286 = CARTESIAN_POINT('',(392.69299384328,-2.572985067096,15.5));
#287 = CARTESIAN_POINT('',(415.65868716031,-1.376625116341,91.6));
#288 = CARTESIAN_POINT('',(394.70120596818,-2.612184722251,15.5));
#289 = CARTESIAN_POINT('',(416.69153826929,-1.403884678361,91.6));
#290 = CARTESIAN_POINT('',(395.74185865807,-2.623246413625,15.5));
#291 = CARTESIAN_POINT('',(417.22679289342,-1.413249142997,91.6));
#292 = CARTESIAN_POINT('',(397.85365293092,-2.630616136841,15.5));
#293 = CARTESIAN_POINT('',(418.31303742166,-1.424488027681,91.6));
#294 = CARTESIAN_POINT('',(398.93994054531,-2.626317376778,15.5));
#295 = CARTESIAN_POINT('',(418.87182014051,-1.426104722737,91.6));
#296 = CARTESIAN_POINT('',(401.13016375679,-2.60437129391,15.5));
#297 = CARTESIAN_POINT('',(419.9985104909,-1.42252548484,91.6));
#298 = CARTESIAN_POINT('',(402.24913500455,-2.586172780513,15.5));
#299 = CARTESIAN_POINT('',(420.57415402329,-1.417099640186,91.6));
#300 = CARTESIAN_POINT('',(404.4918647253,-2.538174706718,15.5));
#301 = CARTESIAN_POINT('',(421.72794427882,-1.400289321444,91.6));
#302 = CARTESIAN_POINT('',(405.63026979259,-2.507859573584,15.5));
#303 = CARTESIAN_POINT('',(422.31362669981,-1.388691643062,91.6));
#304 = CARTESIAN_POINT('',(407.89909094038,-2.437567623884,15.5));
#305 = CARTESIAN_POINT('',(423.48091590273,-1.360491124851,91.6));
#306 = CARTESIAN_POINT('',(409.04351979607,-2.397102237325,15.5));
#307 = CARTESIAN_POINT('',(424.06973229093,-1.343686577043,91.6));
#308 = CARTESIAN_POINT('',(411.31179926075,-2.308510240092,15.5));
#309 = CARTESIAN_POINT('',(425.23680661815,-1.306058196156,91.6));
#310 = CARTESIAN_POINT('',(412.44882268628,-2.259921360286,15.5));
#311 = CARTESIAN_POINT('',(425.82184203064,-1.285043116409,91.6));
#312 = CARTESIAN_POINT('',(414.68999000266,-2.157043247757,15.5));
#313 = CARTESIAN_POINT('',(426.97501991962,-1.239960357512,91.6));
#314 = CARTESIAN_POINT('',(415.8063011972,-2.102323060441,15.5));
#315 = CARTESIAN_POINT('',(427.54942255374,-1.215713920916,91.6));
#316 = CARTESIAN_POINT('',(417.99413354583,-1.989041290069,15.5));
#317 = CARTESIAN_POINT('',(428.6752018078,-1.165084099969,91.6));
#318 = CARTESIAN_POINT('',(419.07669142309,-1.930089113506,15.5));
#319 = CARTESIAN_POINT('',(429.23225690023,-1.13853868366,91.6));
#320 = CARTESIAN_POINT('',(421.18560254127,-1.810076197074,15.5));
#321 = CARTESIAN_POINT('',(430.31746354654,-1.084163338062,91.6));
#322 = CARTESIAN_POINT('',(422.22177589416,-1.748676612657,15.5));
#323 = CARTESIAN_POINT('',(430.85066759196,-1.056193677261,91.6));
#324 = CARTESIAN_POINT('',(424.22710581665,-1.625382827744,15.5));
#325 = CARTESIAN_POINT('',(431.88260493875,-0.999763113315,91.6));
#326 = CARTESIAN_POINT('',(425.20481680502,-1.563213318955,15.5));
#327 = CARTESIAN_POINT('',(432.3857394608,-0.97119068921,91.6));
#328 = CARTESIAN_POINT('',(427.08311787078,-1.439901626437,15.5));
#329 = CARTESIAN_POINT('',(433.35233507752,-0.914302904186,91.6));
#330 = CARTESIAN_POINT('',(427.99098240268,-1.378557673229,15.5));
#331 = CARTESIAN_POINT('',(433.81953874557,-0.885909347109,91.6));
#332 = CARTESIAN_POINT('',(429.72029582063,-1.258359281842,15.5));
#333 = CARTESIAN_POINT('',(434.70948652329,-0.830099618406,91.6));
#334 = CARTESIAN_POINT('',(430.54775791956,-1.199382609903,15.5));
#335 = CARTESIAN_POINT('',(435.13532416874,-0.802641743294,91.6));
#336 = CARTESIAN_POINT('',(432.10787480033,-1.085345041538,15.5));
#337 = CARTESIAN_POINT('',(435.93821842305,-0.749408347171,91.6));
#338 = CARTESIAN_POINT('',(432.84533188383,-1.030241509559,15.5));
#339 = CARTESIAN_POINT('',(436.31774541923,-0.723627837203,91.6));
#340 = CARTESIAN_POINT('',(434.21803288701,-0.925345329282,15.5));
#341 = CARTESIAN_POINT('',(437.02420410577,-0.674441574473,91.6));
#342 = CARTESIAN_POINT('',(434.85694904468,-0.875582490971,15.5));
#343 = CARTESIAN_POINT('',(437.35302464665,-0.651064157889,91.6));
#344 = CARTESIAN_POINT('',(436.02621760644,-0.782711963659,15.5));
#345 = CARTESIAN_POINT('',(437.95479914678,-0.60735405196,91.6));
#346 = CARTESIAN_POINT('',(436.55922243343,-0.739691818659,15.5));
#347 = CARTESIAN_POINT('',(438.22911718071,-0.587075840848,91.6));
#348 = CARTESIAN_POINT('',(437.51142783522,-0.661556586952,15.5));
#349 = CARTESIAN_POINT('',(438.71918674045,-0.550189477392,91.6));
#350 = CARTESIAN_POINT('',(437.9323991137,-0.626565246954,15.5));
#351 = CARTESIAN_POINT('',(438.93584867333,-0.533651343144,91.6));
#352 = CARTESIAN_POINT('',(438.65644728487,-0.56558213993,15.5));
#353 = CARTESIAN_POINT('',(439.30849837779,-0.504794524586,91.6));
#354 = CARTESIAN_POINT('',(438.96057671373,-0.539723756514,15.5));
#355 = CARTESIAN_POINT('',(439.46502710795,-0.492548288571,91.6));
#356 = CARTESIAN_POINT('',(439.44802838536,-0.497877603795,15.5));
#357 = CARTESIAN_POINT('',(439.71590912872,-0.472713725286,91.6));
#358 = CARTESIAN_POINT('',(439.63187047785,-0.482003848048,15.5));
#359 = CARTESIAN_POINT('',(439.81052943672,-0.465185984364,91.6));
#360 = CARTESIAN_POINT('',(439.87702774735,-0.460711639862,15.5));
#361 = CARTESIAN_POINT('',(439.93670801531,-0.455083577082,91.6));
#362 = CARTESIAN_POINT('',(439.93853271844,-0.455359422099,15.5));
#363 = CARTESIAN_POINT('',(439.96836368897,-0.452543711397,91.6));
#364 = CARTESIAN_POINT('',(440.,-0.45,15.5));
#365 = CARTESIAN_POINT('',(440.,-0.45,91.6));
#366 = DEFINITIONAL_REPRESENTATION('',(#367),#371);
#367 = LINE('',#368,#369);
#368 = CARTESIAN_POINT('',(0.,0.));
#369 = VECTOR('',#370,1.);
#370 = DIRECTION('',(0.,1.));
#371 = ( GEOMETRIC_REPRESENTATION_CONTEXT(2) 
PARAMETRIC_REPRESENTATION_CONTEXT() REPRESENTATION_CONTEXT('2D SPACE',''
  ) );
#372 = ORIENTED_EDGE('',*,*,#373,.F.);
#373 = EDGE_CURVE('',#374,#231,#376,.T.);
#374 = VERTEX_POINT('',#375);
#375 = CARTESIAN_POINT('',(440.,0.45,91.6));
#376 = SURFACE_CURVE('',#377,(#410,#416),.PCURVE_S1.);
#377 = B_SPLINE_CURVE_WITH_KNOTS('',3,(#378,#379,#380,#381,#382,#383,
    #384,#385,#386,#387,#388,#389,#390,#391,#392,#393,#394,#395,#396,
    #397,#398,#399,#400,#401,#402,#403,#404,#405,#406,#407,#408,#409),
  .UNSPECIFIED.,.F.,.F.,(4,1,1,1,1,1,1,1,1,1,1,1,1,1,1,1,1,1,1,1,1,1,1,1
    ,1,1,1,1,1,4),(0.,9.521522893829E-02,0.379747056894,0.850266712887,
    1.501268831023,2.325134972382,3.312221813961,4.450973201784,
    5.728054961026,7.128511018195,8.635939035402,10.232683409742,
    11.90004318197,13.618492155266,15.367908366356,17.12780998379,
    18.877594725226,20.596779969746,22.26524086917,23.863443907371,
    25.372673489215,26.775249220657,28.054731491003,29.196112568071,
    30.185988842779,31.01270321246,31.666411567513,32.138792506282,
    32.421821359631,32.516818135486),.UNSPECIFIED.);
#378 = CARTESIAN_POINT('',(440.,0.45,91.6));
#379 = CARTESIAN_POINT('',(439.96836368897,0.452543711397,91.6));
#380 = CARTESIAN_POINT('',(439.8421868158,0.462667404034,91.6));
#381 = CARTESIAN_POINT('',(439.55965723963,0.485144736457,91.6));
#382 = CARTESIAN_POINT('',(439.09240035551,0.521701387394,91.6));
#383 = CARTESIAN_POINT('',(438.44581817069,0.571056516573,91.6));
#384 = CARTESIAN_POINT('',(437.62739869094,0.63155705716,91.6));
#385 = CARTESIAN_POINT('',(436.64663804897,0.701285943809,91.6));
#386 = CARTESIAN_POINT('',(435.51493747268,0.778163110831,91.6));
#387 = CARTESIAN_POINT('',(434.24547488781,0.860021959604,91.6));
#388 = CARTESIAN_POINT('',(432.85305224601,0.944650102003,91.6));
#389 = CARTESIAN_POINT('',(431.35392097981,1.029791842964,91.6));
#390 = CARTESIAN_POINT('',(429.76558908746,1.113119400101,91.6));
#391 = CARTESIAN_POINT('',(428.10661410071,1.192188236777,91.6));
#392 = CARTESIAN_POINT('',(426.39638652974,1.264397289229,91.6));
#393 = CARTESIAN_POINT('',(424.65490825387,1.326976009552,91.6));
#394 = CARTESIAN_POINT('',(422.90256973905,1.377016634722,91.6));
#395 = CARTESIAN_POINT('',(421.15992873423,1.411562162742,91.6));
#396 = CARTESIAN_POINT('',(419.44749207657,1.427750262346,91.6));
#397 = CARTESIAN_POINT('',(417.78549927742,1.422999509688,91.6));
#398 = CARTESIAN_POINT('',(416.19371151503,1.395220134292,91.6));
#399 = CARTESIAN_POINT('',(414.69119060953,1.342999327963,91.6));
#400 = CARTESIAN_POINT('',(413.2961244854,1.265790941732,91.6));
#401 = CARTESIAN_POINT('',(412.02552974227,1.163860922666,91.6));
#402 = CARTESIAN_POINT('',(410.89544009892,1.038676371155,91.6));
#403 = CARTESIAN_POINT('',(409.91976185597,0.891480397121,91.6));
#404 = CARTESIAN_POINT('',(409.11360303362,0.72699035785,91.6));
#405 = CARTESIAN_POINT('',(408.4848108997,0.542389153949,91.6));
#406 = CARTESIAN_POINT('',(408.05944356663,0.35724319598,91.6));
#407 = CARTESIAN_POINT('',(407.82741308395,0.156367287184,91.6));
#408 = CARTESIAN_POINT('',(407.80139883115,3.327550491311E-02,91.6));
#409 = CARTESIAN_POINT('',(407.8,1.345495681678E-18,91.6));
#410 = PCURVE('',#61,#411);
#411 = DEFINITIONAL_REPRESENTATION('',(#412),#415);
#412 = B_SPLINE_CURVE_WITH_KNOTS('',1,(#413,#414),.UNSPECIFIED.,.F.,.F.,
  (2,2),(0.,32.516818135486),.PIECEWISE_BEZIER_KNOTS.);
#413 = CARTESIAN_POINT('',(0.,1.));
#414 = CARTESIAN_POINT('',(63.213738296887,1.));
#415 = ( GEOMETRIC_REPRESENTATION_CONTEXT(2) 
PARAMETRIC_REPRESENTATION_CONTEXT() REPRESENTATION_CONTEXT('2D SPACE',''
  ) );
#416 = PCURVE('',#417,#422);
#417 = PLANE('',#418);
#418 = AXIS2_PLACEMENT_3D('',#419,#420,#421);
#419 = CARTESIAN_POINT('',(440.,0.45,91.6));
#420 = DIRECTION('',(0.,0.,1.));
#421 = DIRECTION('',(-0.999902361819,-1.397379077076E-02,0.));
#422 = DEFINITIONAL_REPRESENTATION('',(#423),#456);
#423 = B_SPLINE_CURVE_WITH_KNOTS('',3,(#424,#425,#426,#427,#428,#429,
    #430,#431,#432,#433,#434,#435,#436,#437,#438,#439,#440,#441,#442,
    #443,#444,#445,#446,#447,#448,#449,#450,#451,#452,#453,#454,#455),
  .UNSPECIFIED.,.F.,.F.,(4,1,1,1,1,1,1,1,1,1,1,1,1,1,1,1,1,1,1,1,1,1,1,1
    ,1,1,1,1,1,4),(0.,9.521522893829E-02,0.379747056894,0.850266712887,
    1.501268831023,2.325134972382,3.312221813961,4.450973201784,
    5.728054961026,7.128511018195,8.635939035402,10.232683409742,
    11.90004318197,13.618492155266,15.367908366356,17.12780998379,
    18.877594725226,20.596779969746,22.26524086917,23.863443907371,
    25.372673489215,26.775249220657,28.054731491003,29.196112568071,
    30.185988842779,31.01270321246,31.666411567513,32.138792506282,
    32.421821359631,32.516818135486),.UNSPECIFIED.);
#424 = CARTESIAN_POINT('',(0.,0.));
#425 = CARTESIAN_POINT('',(3.159767682604E-02,-2.985542225206E-03));
#426 = CARTESIAN_POINT('',(0.157620763945,-1.487141562815E-02));
#427 = CARTESIAN_POINT('',(0.439808660906,-4.129456258961E-02));
#428 = CARTESIAN_POINT('',(0.906509087918,-8.437699413649E-02));
#429 = CARTESIAN_POINT('',(1.552338463382,-0.142762508537));
#430 = CARTESIAN_POINT('',(2.369832612252,-0.214693564535));
#431 = CARTESIAN_POINT('',(3.34952311766,-0.298120586989));
#432 = CARTESIAN_POINT('',(4.480038931317,-0.390804394932));
#433 = CARTESIAN_POINT('',(5.748233689743,-0.490394455709));
#434 = CARTESIAN_POINT('',(7.139337801978,-0.59447175783));
#435 = CARTESIAN_POINT('',(8.637132942855,-0.700553732359));
#436 = CARTESIAN_POINT('',(10.22414535152,-0.806068171083));
#437 = CARTESIAN_POINT('',(11.881853467586,-0.90831145698));
#438 = CARTESIAN_POINT('',(13.590905020862,-1.004411821319));
#439 = CARTESIAN_POINT('',(15.33133880001,-1.091319484628));
#440 = CARTESIAN_POINT('',(17.082806962462,-1.165842035688));
#441 = CARTESIAN_POINT('',(18.824795087005,-1.224735491536));
#442 = CARTESIAN_POINT('',(20.536838336344,-1.264851242125));
#443 = CARTESIAN_POINT('',(22.19873524757,-1.28332529296));
#444 = CARTESIAN_POINT('',(23.790755773871,-1.277791939035));
#445 = CARTESIAN_POINT('',(25.293859698591,-1.246572144213));
#446 = CARTESIAN_POINT('',(26.689868504837,-1.188865658598));
#447 = CARTESIAN_POINT('',(27.961763538167,-1.104700616888));
#448 = CARTESIAN_POINT('',(29.093492144348,-0.995319924398));
#449 = CARTESIAN_POINT('',(30.071132009599,-0.861772245938));
#450 = CARTESIAN_POINT('',(30.879510669461,-0.708563361886));
#451 = CARTESIAN_POINT('',(31.510820987854,-0.532766791829));
#452 = CARTESIAN_POINT('',(31.938733979714,-0.353582905287));
#453 = CARTESIAN_POINT('',(32.173548805281,-0.155968955067));
#454 = CARTESIAN_POINT('',(32.201280576908,-3.325270897952E-02));
#455 = CARTESIAN_POINT('',(32.203144256423,-8.881784197001E-16));
#456 = ( GEOMETRIC_REPRESENTATION_CONTEXT(2) 
PARAMETRIC_REPRESENTATION_CONTEXT() REPRESENTATION_CONTEXT('2D SPACE',''
  ) );
#457 = ORIENTED_EDGE('',*,*,#458,.F.);
#458 = EDGE_CURVE('',#22,#374,#459,.T.);
#459 = SURFACE_CURVE('',#460,(#463,#470),.PCURVE_S1.);
#460 = B_SPLINE_CURVE_WITH_KNOTS('',1,(#461,#462),.UNSPECIFIED.,.F.,.F.,
  (2,2),(0.,1.),.PIECEWISE_BEZIER_KNOTS.);
#461 = CARTESIAN_POINT('',(440.,0.45,15.5));
#462 = CARTESIAN_POINT('',(440.,0.45,91.6));
#463 = PCURVE('',#61,#464);
#464 = DEFINITIONAL_REPRESENTATION('',(#465),#469);
#465 = LINE('',#466,#467);
#466 = CARTESIAN_POINT('',(0.,0.));
#467 = VECTOR('',#468,1.);
#468 = DIRECTION('',(0.,1.));
#469 = ( GEOMETRIC_REPRESENTATION_CONTEXT(2) 
PARAMETRIC_REPRESENTATION_CONTEXT() REPRESENTATION_CONTEXT('2D SPACE',''
  ) );
#470 = PCURVE('',#471,#476);
#471 = PLANE('',#472);
#472 = AXIS2_PLACEMENT_3D('',#473,#474,#475);
#473 = CARTESIAN_POINT('',(440.,-0.45,91.6));
#474 = DIRECTION('',(1.,0.,0.));
#475 = DIRECTION('',(-0.,1.,0.));
#476 = DEFINITIONAL_REPRESENTATION('',(#477),#480);
#477 = B_SPLINE_CURVE_WITH_KNOTS('',1,(#478,#479),.UNSPECIFIED.,.F.,.F.,
  (2,2),(0.,1.),.PIECEWISE_BEZIER_KNOTS.);
#478 = CARTESIAN_POINT('',(0.9,-76.1));
#479 = CARTESIAN_POINT('',(0.9,0.));
#480 = ( GEOMETRIC_REPRESENTATION_CONTEXT(2) 
PARAMETRIC_REPRESENTATION_CONTEXT() REPRESENTATION_CONTEXT('2D SPACE',''
  ) );
#481 = ADVANCED_FACE('',(#482),#245,.T.);
#482 = FACE_BOUND('',#483,.T.);
#483 = EDGE_LOOP('',(#484,#565,#586,#664));
#484 = ORIENTED_EDGE('',*,*,#485,.T.);
#485 = EDGE_CURVE('',#24,#486,#488,.T.);
#486 = VERTEX_POINT('',#487);
#487 = CARTESIAN_POINT('',(440.,-0.45,15.5));
#488 = SURFACE_CURVE('',#489,(#522,#529),.PCURVE_S1.);
#489 = B_SPLINE_CURVE_WITH_KNOTS('',3,(#490,#491,#492,#493,#494,#495,
    #496,#497,#498,#499,#500,#501,#502,#503,#504,#505,#506,#507,#508,
    #509,#510,#511,#512,#513,#514,#515,#516,#517,#518,#519,#520,#521),
  .UNSPECIFIED.,.F.,.F.,(4,1,1,1,1,1,1,1,1,1,1,1,1,1,1,1,1,1,1,1,1,1,1,1
    ,1,1,1,1,1,4),(0.,0.184433302292,0.732811696033,1.648700218409,
    2.917185126235,4.522217749842,6.444710906748,8.662037544272,
    11.148165936966,13.873935206537,16.807388770041,19.914145609149,
    23.157800988017,26.500350925019,29.902635347732,33.324794924383,
    36.726736460456,40.068601602722,43.311233457498,46.416635636601,
    49.348418219265,52.072225184358,54.556138042634,56.771050690652,
    58.691010909905,60.293524425943,61.559817993332,62.475058551017,
    63.028526072306,63.213738296887),.UNSPECIFIED.);
#490 = CARTESIAN_POINT('',(377.4,2.620387992946E-18,15.5));
#491 = CARTESIAN_POINT('',(377.40267351134,-6.464275253958E-02,15.5));
#492 = CARTESIAN_POINT('',(377.45317827836,-0.303237299733,15.5));
#493 = CARTESIAN_POINT('',(377.90463867753,-0.691468700307,15.5));
#494 = CARTESIAN_POINT('',(378.73175435948,-1.045454566823,15.5));
#495 = CARTESIAN_POINT('',(379.95412584547,-1.396131182129,15.5));
#496 = CARTESIAN_POINT('',(381.52133299203,-1.705193476131,15.5));
#497 = CARTESIAN_POINT('',(383.41811127003,-1.978486341663,15.5));
#498 = CARTESIAN_POINT('',(385.61509080859,-2.206929040322,15.5));
#499 = CARTESIAN_POINT('',(388.08523069002,-2.388321326688,15.5));
#500 = CARTESIAN_POINT('',(390.79735734455,-2.520009379452,15.5));
#501 = CARTESIAN_POINT('',(393.71838728474,-2.601703793622,15.5));
#502 = CARTESIAN_POINT('',(396.81296090114,-2.634704799561,15.5));
#503 = CARTESIAN_POINT('',(400.0440202761,-2.622010638721,15.5));
#504 = CARTESIAN_POINT('',(403.37314823238,-2.567944452268,15.5));
#505 = CARTESIAN_POINT('',(406.76099778184,-2.477791656911,15.5));
#506 = CARTESIAN_POINT('',(410.16770215157,-2.357387287506,15.5));
#507 = CARTESIAN_POINT('',(413.55329538402,-2.212751137638,15.5));
#508 = CARTESIAN_POINT('',(416.8781364655,-2.049805102879,15.5));
#509 = CARTESIAN_POINT('',(420.10333956362,-1.874199233668,15.5));
#510 = CARTESIAN_POINT('',(423.19120719558,-1.691246057548,15.5));
#511 = CARTESIAN_POINT('',(426.10566115434,-1.505942836814,15.5));
#512 = CARTESIAN_POINT('',(428.81266362608,-1.323046022336,15.5));
#513 = CARTESIAN_POINT('',(431.28061978778,-1.147155346861,15.5));
#514 = CARTESIAN_POINT('',(433.48075293218,-0.982767220656,15.5));
#515 = CARTESIAN_POINT('',(435.3874438371,-0.834267594007,15.5));
#516 = CARTESIAN_POINT('',(436.97852756369,-0.705850729698,15.5));
#517 = CARTESIAN_POINT('',(438.23554301948,-0.601368850054,15.5));
#518 = CARTESIAN_POINT('',(439.14393317887,-0.524134433615,15.5));
#519 = CARTESIAN_POINT('',(439.69319637907,-0.476708791692,15.5));
#520 = CARTESIAN_POINT('',(439.938495937,-0.455362629126,15.5));
#521 = CARTESIAN_POINT('',(440.,-0.45,15.5));
#522 = PCURVE('',#245,#523);
#523 = DEFINITIONAL_REPRESENTATION('',(#524),#528);
#524 = LINE('',#525,#526);
#525 = CARTESIAN_POINT('',(0.,0.));
#526 = VECTOR('',#527,1.);
#527 = DIRECTION('',(1.,0.));
#528 = ( GEOMETRIC_REPRESENTATION_CONTEXT(2) 
PARAMETRIC_REPRESENTATION_CONTEXT() REPRESENTATION_CONTEXT('2D SPACE',''
  ) );
#529 = PCURVE('',#189,#530);
#530 = DEFINITIONAL_REPRESENTATION('',(#531),#564);
#531 = B_SPLINE_CURVE_WITH_KNOTS('',3,(#532,#533,#534,#535,#536,#537,
    #538,#539,#540,#541,#542,#543,#544,#545,#546,#547,#548,#549,#550,
    #551,#552,#553,#554,#555,#556,#557,#558,#559,#560,#561,#562,#563),
  .UNSPECIFIED.,.F.,.F.,(4,1,1,1,1,1,1,1,1,1,1,1,1,1,1,1,1,1,1,1,1,1,1,1
    ,1,1,1,1,1,4),(0.,0.184433302292,0.732811696033,1.648700218409,
    2.917185126235,4.522217749842,6.444710906748,8.662037544272,
    11.148165936966,13.873935206537,16.807388770041,19.914145609149,
    23.157800988017,26.500350925019,29.902635347732,33.324794924383,
    36.726736460456,40.068601602722,43.311233457498,46.416635636601,
    49.348418219265,52.072225184358,54.556138042634,56.771050690652,
    58.691010909905,60.293524425943,61.559817993332,62.475058551017,
    63.028526072306,63.213738296887),.UNSPECIFIED.);
#532 = CARTESIAN_POINT('',(62.601617391246,-4.440892098501E-16));
#533 = CARTESIAN_POINT('',(62.599408621288,6.466030044858E-02));
#534 = CARTESIAN_POINT('',(62.550620251338,0.30361172731));
#535 = CARTESIAN_POINT('',(62.101962244908,0.695078335951));
#536 = CARTESIAN_POINT('',(61.277412493618,1.055000622941));
#537 = CARTESIAN_POINT('',(60.057593362295,1.414454966528));
#538 = CARTESIAN_POINT('',(58.4926483429,1.73477485052));
#539 = CARTESIAN_POINT('',(56.597883585118,2.021695290533));
#540 = CARTESIAN_POINT('',(54.402602925824,2.265924662961));
#541 = CARTESIAN_POINT('',(51.933830768027,2.465068400657));
#542 = CARTESIAN_POINT('',(49.222720799586,2.616248665512));
#543 = CARTESIAN_POINT('',(46.302353572854,2.718938245559));
#544 = CARTESIAN_POINT('',(43.208097130189,2.774183161636));
#545 = CARTESIAN_POINT('',(39.977029984102,2.784715193837));
#546 = CARTESIAN_POINT('',(36.647599395362,2.754581216949));
#547 = CARTESIAN_POINT('',(33.259189328765,2.688783672672));
#548 = CARTESIAN_POINT('',(29.851707471249,2.592870870278));
#549 = CARTESIAN_POINT('',(26.465162019973,2.472575160024));
#550 = CARTESIAN_POINT('',(23.139235532885,2.333533332481));
#551 = CARTESIAN_POINT('',(19.912853452039,2.181115768589));
#552 = CARTESIAN_POINT('',(16.823750474371,2.020363877342));
#553 = CARTESIAN_POINT('',(13.908039796689,1.856015450493));
#554 = CARTESIAN_POINT('',(11.199792544256,1.692582141572));
#555 = CARTESIAN_POINT('',(8.730635788132,1.534436451021));
#556 = CARTESIAN_POINT('',(6.529377813679,1.385867816966));
#557 = CARTESIAN_POINT('',(4.621668708751,1.251077917397));
#558 = CARTESIAN_POINT('',(3.029702989235,1.134101578224));
#559 = CARTESIAN_POINT('',(1.771968961593,1.038658218138));
#560 = CARTESIAN_POINT('',(0.863047086468,0.967955589647));
#561 = CARTESIAN_POINT('',(0.313457166831,0.92447944865));
#562 = CARTESIAN_POINT('',(6.801050363021E-02,0.904897127512));
#563 = CARTESIAN_POINT('',(6.469481410818E-03,0.899976747372));
#564 = ( GEOMETRIC_REPRESENTATION_CONTEXT(2) 
PARAMETRIC_REPRESENTATION_CONTEXT() REPRESENTATION_CONTEXT('2D SPACE',''
  ) );
#565 = ORIENTED_EDGE('',*,*,#566,.T.);
#566 = EDGE_CURVE('',#486,#567,#569,.T.);
#567 = VERTEX_POINT('',#568);
#568 = CARTESIAN_POINT('',(440.,-0.45,91.6));
#569 = SURFACE_CURVE('',#570,(#573,#580),.PCURVE_S1.);
#570 = B_SPLINE_CURVE_WITH_KNOTS('',1,(#571,#572),.UNSPECIFIED.,.F.,.F.,
  (2,2),(0.,1.),.PIECEWISE_BEZIER_KNOTS.);
#571 = CARTESIAN_POINT('',(440.,-0.45,15.5));
#572 = CARTESIAN_POINT('',(440.,-0.45,91.6));
#573 = PCURVE('',#245,#574);
#574 = DEFINITIONAL_REPRESENTATION('',(#575),#579);
#575 = LINE('',#576,#577);
#576 = CARTESIAN_POINT('',(63.213738296887,0.));
#577 = VECTOR('',#578,1.);
#578 = DIRECTION('',(0.,1.));
#579 = ( GEOMETRIC_REPRESENTATION_CONTEXT(2) 
PARAMETRIC_REPRESENTATION_CONTEXT() REPRESENTATION_CONTEXT('2D SPACE',''
  ) );
#580 = PCURVE('',#471,#581);
#581 = DEFINITIONAL_REPRESENTATION('',(#582),#585);
#582 = B_SPLINE_CURVE_WITH_KNOTS('',1,(#583,#584),.UNSPECIFIED.,.F.,.F.,
  (2,2),(0.,1.),.PIECEWISE_BEZIER_KNOTS.);
#583 = CARTESIAN_POINT('',(0.,-76.1));
#584 = CARTESIAN_POINT('',(0.,0.));
#585 = ( GEOMETRIC_REPRESENTATION_CONTEXT(2) 
PARAMETRIC_REPRESENTATION_CONTEXT() REPRESENTATION_CONTEXT('2D SPACE',''
  ) );
#586 = ORIENTED_EDGE('',*,*,#587,.F.);
#587 = EDGE_CURVE('',#231,#567,#588,.T.);
#588 = SURFACE_CURVE('',#589,(#622,#628),.PCURVE_S1.);
#589 = B_SPLINE_CURVE_WITH_KNOTS('',3,(#590,#591,#592,#593,#594,#595,
    #596,#597,#598,#599,#600,#601,#602,#603,#604,#605,#606,#607,#608,
    #609,#610,#611,#612,#613,#614,#615,#616,#617,#618,#619,#620,#621),
  .UNSPECIFIED.,.F.,.F.,(4,1,1,1,1,1,1,1,1,1,1,1,1,1,1,1,1,1,1,1,1,1,1,1
    ,1,1,1,1,1,4),(0.,9.499677585482E-02,0.378025629203,0.850406567972,
    1.504114923025,2.330829292707,3.320705567415,4.462086644482,
    5.741568914829,7.144144646271,8.653374228114,10.251577266316,
    11.92003816574,13.63922341026,15.389008151695,17.14890976913,
    18.898325980219,20.616774953516,22.284134725744,23.880879100084,
    25.38830711729,26.78876317446,28.065844933701,29.204596321525,
    30.191683163103,31.015549304462,31.666551422599,32.137071078592,
    32.421602906547,32.516818135486),.UNSPECIFIED.);
#590 = CARTESIAN_POINT('',(407.8,1.345495681678E-18,91.6));
#591 = CARTESIAN_POINT('',(407.80139883115,-3.327550491311E-02,91.6));
#592 = CARTESIAN_POINT('',(407.82741308395,-0.156367287184,91.6));
#593 = CARTESIAN_POINT('',(408.05944356663,-0.35724319598,91.6));
#594 = CARTESIAN_POINT('',(408.4848108997,-0.542389153949,91.6));
#595 = CARTESIAN_POINT('',(409.11360303362,-0.72699035785,91.6));
#596 = CARTESIAN_POINT('',(409.91976185597,-0.891480397121,91.6));
#597 = CARTESIAN_POINT('',(410.89544009892,-1.038676371155,91.6));
#598 = CARTESIAN_POINT('',(412.02552974227,-1.163860922666,91.6));
#599 = CARTESIAN_POINT('',(413.2961244854,-1.265790941732,91.6));
#600 = CARTESIAN_POINT('',(414.69119060953,-1.342999327963,91.6));
#601 = CARTESIAN_POINT('',(416.19371151503,-1.395220134292,91.6));
#602 = CARTESIAN_POINT('',(417.78549927742,-1.422999509688,91.6));
#603 = CARTESIAN_POINT('',(419.44749207657,-1.427750262346,91.6));
#604 = CARTESIAN_POINT('',(421.15992873423,-1.411562162742,91.6));
#605 = CARTESIAN_POINT('',(422.90256973905,-1.377016634722,91.6));
#606 = CARTESIAN_POINT('',(424.65490825387,-1.326976009552,91.6));
#607 = CARTESIAN_POINT('',(426.39638652974,-1.264397289229,91.6));
#608 = CARTESIAN_POINT('',(428.10661410071,-1.192188236777,91.6));
#609 = CARTESIAN_POINT('',(429.76558908746,-1.113119400101,91.6));
#610 = CARTESIAN_POINT('',(431.35392097981,-1.029791842964,91.6));
#611 = CARTESIAN_POINT('',(432.85305224601,-0.944650102003,91.6));
#612 = CARTESIAN_POINT('',(434.24547488781,-0.860021959604,91.6));
#613 = CARTESIAN_POINT('',(435.51493747268,-0.778163110831,91.6));
#614 = CARTESIAN_POINT('',(436.64663804897,-0.701285943809,91.6));
#615 = CARTESIAN_POINT('',(437.62739869094,-0.63155705716,91.6));
#616 = CARTESIAN_POINT('',(438.44581817069,-0.571056516573,91.6));
#617 = CARTESIAN_POINT('',(439.09240035551,-0.521701387394,91.6));
#618 = CARTESIAN_POINT('',(439.55965723963,-0.485144736457,91.6));
#619 = CARTESIAN_POINT('',(439.8421868158,-0.462667404034,91.6));
#620 = CARTESIAN_POINT('',(439.96836368897,-0.452543711397,91.6));
#621 = CARTESIAN_POINT('',(440.,-0.45,91.6));
#622 = PCURVE('',#245,#623);
#623 = DEFINITIONAL_REPRESENTATION('',(#624),#627);
#624 = B_SPLINE_CURVE_WITH_KNOTS('',1,(#625,#626),.UNSPECIFIED.,.F.,.F.,
  (2,2),(0.,32.516818135486),.PIECEWISE_BEZIER_KNOTS.);
#625 = CARTESIAN_POINT('',(0.,1.));
#626 = CARTESIAN_POINT('',(63.213738296887,1.));
#627 = ( GEOMETRIC_REPRESENTATION_CONTEXT(2) 
PARAMETRIC_REPRESENTATION_CONTEXT() REPRESENTATION_CONTEXT('2D SPACE',''
  ) );
#628 = PCURVE('',#417,#629);
#629 = DEFINITIONAL_REPRESENTATION('',(#630),#663);
#630 = B_SPLINE_CURVE_WITH_KNOTS('',3,(#631,#632,#633,#634,#635,#636,
    #637,#638,#639,#640,#641,#642,#643,#644,#645,#646,#647,#648,#649,
    #650,#651,#652,#653,#654,#655,#656,#657,#658,#659,#660,#661,#662),
  .UNSPECIFIED.,.F.,.F.,(4,1,1,1,1,1,1,1,1,1,1,1,1,1,1,1,1,1,1,1,1,1,1,1
    ,1,1,1,1,1,4),(0.,9.499677585482E-02,0.378025629203,0.850406567972,
    1.504114923025,2.330829292707,3.320705567415,4.462086644482,
    5.741568914829,7.144144646271,8.653374228114,10.251577266316,
    11.92003816574,13.63922341026,15.389008151695,17.14890976913,
    18.898325980219,20.616774953516,22.284134725744,23.880879100084,
    25.38830711729,26.78876317446,28.065844933701,29.204596321525,
    30.191683163103,31.015549304462,31.666551422599,32.137071078592,
    32.421602906547,32.516818135486),.UNSPECIFIED.);
#631 = CARTESIAN_POINT('',(32.203144256423,-8.881784197001E-16));
#632 = CARTESIAN_POINT('',(32.202210546795,3.329180292717E-02));
#633 = CARTESIAN_POINT('',(32.17791889279,0.156735084466));
#634 = CARTESIAN_POINT('',(31.948718063064,0.360833725521));
#635 = CARTESIAN_POINT('',(31.525979452962,0.551905600289));
#636 = CARTESIAN_POINT('',(30.899828291766,0.745275389781));
#637 = CARTESIAN_POINT('',(30.09604673069,0.921014463256));
#638 = CARTESIAN_POINT('',(29.122520636926,1.08182998897));
#639 = CARTESIAN_POINT('',(27.994290636206,1.222793953917));
#640 = CARTESIAN_POINT('',(26.725244300396,1.342469045816));
#641 = CARTESIAN_POINT('',(25.331393281819,1.439164255691));
#642 = CARTESIAN_POINT('',(23.829748802343,1.512375876037));
#643 = CARTESIAN_POINT('',(22.238504642401,1.562395848249));
#644 = CARTESIAN_POINT('',(20.576740503222,1.59037047669));
#645 = CARTESIAN_POINT('',(18.864244835649,1.598113189225));
#646 = CARTESIAN_POINT('',(17.121291247145,1.587922334957));
#647 = CARTESIAN_POINT('',(15.36842457024,1.562373407428));
#648 = CARTESIAN_POINT('',(13.626241867204,1.524135850236));
#649 = CARTESIAN_POINT('',(11.915172245547,1.475832210392));
#650 = CARTESIAN_POINT('',(10.25525434672,1.419953263212));
#651 = CARTESIAN_POINT('',(8.665913134357,1.358828859565));
#652 = CARTESIAN_POINT('',(7.165738487732,1.29464397834));
#653 = CARTESIAN_POINT('',(5.772269223587,1.22948152154));
#654 = CARTESIAN_POINT('',(4.50178670831,1.165369869869));
#655 = CARTESIAN_POINT('',(3.369122363759,1.104314356062));
#656 = CARTESIAN_POINT('',(2.387483104605,1.048297221621));
#657 = CARTESIAN_POINT('',(1.568298111944,0.999239010769));
#658 = CARTESIAN_POINT('',(0.921089379982,0.958923904703));
#659 = CARTESIAN_POINT('',(0.453367282988,0.928900173025));
#660 = CARTESIAN_POINT('',(0.170551198946,0.910373044432));
#661 = CARTESIAN_POINT('',(4.424517910149E-02,0.90201350948));
#662 = CARTESIAN_POINT('',(1.257641169366E-02,0.899912125637));
#663 = ( GEOMETRIC_REPRESENTATION_CONTEXT(2) 
PARAMETRIC_REPRESENTATION_CONTEXT() REPRESENTATION_CONTEXT('2D SPACE',''
  ) );
#664 = ORIENTED_EDGE('',*,*,#230,.F.);
#665 = ADVANCED_FACE('',(#666),#471,.T.);
#666 = FACE_BOUND('',#667,.T.);
#667 = EDGE_LOOP('',(#668,#689,#690,#711));
#668 = ORIENTED_EDGE('',*,*,#669,.T.);
#669 = EDGE_CURVE('',#486,#22,#670,.T.);
#670 = SURFACE_CURVE('',#671,(#675,#682),.PCURVE_S1.);
#671 = LINE('',#672,#673);
#672 = CARTESIAN_POINT('',(440.,-0.45,15.5));
#673 = VECTOR('',#674,1.);
#674 = DIRECTION('',(0.,1.,0.));
#675 = PCURVE('',#471,#676);
#676 = DEFINITIONAL_REPRESENTATION('',(#677),#681);
#677 = LINE('',#678,#679);
#678 = CARTESIAN_POINT('',(0.,-76.1));
#679 = VECTOR('',#680,1.);
#680 = DIRECTION('',(1.,0.));
#681 = ( GEOMETRIC_REPRESENTATION_CONTEXT(2) 
PARAMETRIC_REPRESENTATION_CONTEXT() REPRESENTATION_CONTEXT('2D SPACE',''
  ) );
#682 = PCURVE('',#189,#683);
#683 = DEFINITIONAL_REPRESENTATION('',(#684),#688);
#684 = LINE('',#685,#686);
#685 = CARTESIAN_POINT('',(6.469481410821E-03,0.899976747372));
#686 = VECTOR('',#687,1.);
#687 = DIRECTION('',(-7.18831267869E-03,-0.999974163747));
#688 = ( GEOMETRIC_REPRESENTATION_CONTEXT(2) 
PARAMETRIC_REPRESENTATION_CONTEXT() REPRESENTATION_CONTEXT('2D SPACE',''
  ) );
#689 = ORIENTED_EDGE('',*,*,#458,.T.);
#690 = ORIENTED_EDGE('',*,*,#691,.F.);
#691 = EDGE_CURVE('',#567,#374,#692,.T.);
#692 = SURFACE_CURVE('',#693,(#697,#704),.PCURVE_S1.);
#693 = LINE('',#694,#695);
#694 = CARTESIAN_POINT('',(440.,-0.45,91.6));
#695 = VECTOR('',#696,1.);
#696 = DIRECTION('',(0.,1.,0.));
#697 = PCURVE('',#471,#698);
#698 = DEFINITIONAL_REPRESENTATION('',(#699),#703);
#699 = LINE('',#700,#701);
#700 = CARTESIAN_POINT('',(0.,0.));
#701 = VECTOR('',#702,1.);
#702 = DIRECTION('',(1.,0.));
#703 = ( GEOMETRIC_REPRESENTATION_CONTEXT(2) 
PARAMETRIC_REPRESENTATION_CONTEXT() REPRESENTATION_CONTEXT('2D SPACE',''
  ) );
#704 = PCURVE('',#417,#705);
#705 = DEFINITIONAL_REPRESENTATION('',(#706),#710);
#706 = LINE('',#707,#708);
#707 = CARTESIAN_POINT('',(1.257641169369E-02,0.899912125637));
#708 = VECTOR('',#709,1.);
#709 = DIRECTION('',(-1.397379077076E-02,-0.999902361819));
#710 = ( GEOMETRIC_REPRESENTATION_CONTEXT(2) 
PARAMETRIC_REPRESENTATION_CONTEXT() REPRESENTATION_CONTEXT('2D SPACE',''
  ) );
#711 = ORIENTED_EDGE('',*,*,#566,.F.);
#712 = ADVANCED_FACE('',(#713),#189,.F.);
#713 = FACE_BOUND('',#714,.F.);
#714 = EDGE_LOOP('',(#715,#716,#717));
#715 = ORIENTED_EDGE('',*,*,#21,.T.);
#716 = ORIENTED_EDGE('',*,*,#485,.T.);
#717 = ORIENTED_EDGE('',*,*,#669,.T.);
#718 = ADVANCED_FACE('',(#719),#417,.T.);
#719 = FACE_BOUND('',#720,.T.);
#720 = EDGE_LOOP('',(#721,#722,#723));
#721 = ORIENTED_EDGE('',*,*,#373,.T.);
#722 = ORIENTED_EDGE('',*,*,#587,.T.);
#723 = ORIENTED_EDGE('',*,*,#691,.T.);
#724 = ( GEOMETRIC_REPRESENTATION_CONTEXT(3) 
GLOBAL_UNCERTAINTY_ASSIGNED_CONTEXT((#728)) GLOBAL_UNIT_ASSIGNED_CONTEXT
((#725,#726,#727)) REPRESENTATION_CONTEXT('Context #1',
  '3D Context with UNIT and UNCERTAINTY') );
#725 = ( LENGTH_UNIT() NAMED_UNIT(*) SI_UNIT(.MILLI.,.METRE.) );
#726 = ( NAMED_UNIT(*) PLANE_ANGLE_UNIT() SI_UNIT($,.RADIAN.) );
#727 = ( NAMED_UNIT(*) SI_UNIT($,.STERADIAN.) SOLID_ANGLE_UNIT() );
#728 = UNCERTAINTY_MEASURE_WITH_UNIT(LENGTH_MEASURE(1.E-07),#725,
  'distance_accuracy_value','confusion accuracy');
#729 = PRODUCT_RELATED_PRODUCT_CATEGORY('part',$,(#7));
ENDSEC;
END-ISO-10303-21;
