ISO-10303-21;
HEADER;
FILE_DESCRIPTION(('Open CASCADE Model'),'2;1');
FILE_NAME('Open CASCADE Shape Model','2026-10-05T09:15:39',('Author'),(
    'Open CASCADE'),'Open CASCADE STEP processor 7.9','Open CASCADE 7.9'
  ,'Unknown');
FILE_SCHEMA(('AUTOMOTIVE_DESIGN { 1 0 10303 214 1 1 1 1 }'));
ENDSEC;
DATA;
#1 = APPLICATION_PROTOCOL_DEFINITION('international standard',
  'automotive_design',2000,#2);
#2 = APPLICATION_CONTEXT(
  'core data for automotive mechanical design processes');
#3 = SHAPE_DEFINITION_REPRESENTATION(#4,#10);
#4 = PRODUCT_DEFINITION_SHAPE('','',#5);
#5 = PRODUCT_DEFINITION('design','',#6,#9);
#6 = PRODUCT_DEFINITION_FORMATION('','',#7);
#7 = PRODUCT('Open CASCADE STEP translator 7.9 22',
  'Open CASCADE STEP translator 7.9 22','',(#8));
#8 = PRODUCT_CONTEXT('',#2,'mechanical');
#9 = PRODUCT_DEFINITION_CONTEXT('part definition',#2,'design');
#10 = ADVANCED_BREP_SHAPE_REPRESENTATION('',(#11,#15),#870);
#11 = AXIS2_PLACEMENT_3D('',#12,#13,#14);
#12 = CARTESIAN_POINT('',(0.,0.,0.));
#13 = DIRECTION('',(0.,0.,1.));
#14 = DIRECTION('',(1.,0.,-0.));
#15 = BREP_WITH_VOIDS('',#16,(#724));
#16 = CLOSED_SHELL('',(#17,#481,#587,#691,#717));
#17 = ADVANCED_FACE('',(#18),#61,.T.);
#18 = FACE_BOUND('',#19,.T.);
#19 = EDGE_LOOP('',(#20,#229,#372,#457));
#20 = ORIENTED_EDGE('',*,*,#21,.T.);
#21 = EDGE_CURVE('',#22,#24,#26,.T.);
#22 = VERTEX_POINT('',#23);
#23 = CARTESIAN_POINT('',(435.2,0.45,19.2));
#24 = VERTEX_POINT('',#25);
#25 = CARTESIAN_POINT('',(372.6,-5.169256532197E-18,19.2));
#26 = SURFACE_CURVE('',#27,(#60,#188),.PCURVE_S1.);
#27 = B_SPLINE_CURVE_WITH_KNOTS('',3,(#28,#29,#30,#31,#32,#33,#34,#35,
    #36,#37,#38,#39,#40,#41,#42,#43,#44,#45,#46,#47,#48,#49,#50,#51,#52,
    #53,#54,#55,#56,#57,#58,#59),.UNSPECIFIED.,.F.,.F.,(4,1,1,1,1,1,1,1,
    1,1,1,1,1,1,1,1,1,1,1,1,1,1,1,1,1,1,1,1,1,4),(0.,0.186934509789,
    0.745549537713,1.669304928323,2.947384678844,4.564822478795,
    6.50267575689,8.738246480871,11.24534639052,13.994603742663,
    16.953808026927,20.088288506806,23.361321897748,26.734564056171,
    30.168500249335,33.622908412253,37.057329758885,40.431541172,
    43.706023915424,46.842423356566,49.803994496123,52.556028033718,
    55.066251046553,57.305193802027,59.246504899774,60.867160038649,
    62.147366418456,63.069966540011,63.625518489727,63.812488104518),
  .UNSPECIFIED.);
#28 = CARTESIAN_POINT('',(435.2,0.45,19.2));
#29 = CARTESIAN_POINT('',(435.138243612,0.458298912497,19.2));
#30 = CARTESIAN_POINT('',(434.89193270162,0.491335214419,19.2));
#31 = CARTESIAN_POINT('',(434.34036215342,0.564752138012,19.2));
#32 = CARTESIAN_POINT('',(433.42802000746,0.684374785527,19.2));
#33 = CARTESIAN_POINT('',(432.16526895808,0.84631939811,19.2));
#34 = CARTESIAN_POINT('',(430.56650769709,1.045555387873,19.2));
#35 = CARTESIAN_POINT('',(428.65004551082,1.27622081848,19.2));
#36 = CARTESIAN_POINT('',(426.4379240314,1.531918062441,19.2));
#37 = CARTESIAN_POINT('',(423.9556819477,1.805938793855,19.2));
#38 = CARTESIAN_POINT('',(421.23206349847,2.091384735182,19.2));
#39 = CARTESIAN_POINT('',(418.29867677801,2.38117570109,19.2));
#40 = CARTESIAN_POINT('',(415.189612296,2.667964624417,19.2));
#41 = CARTESIAN_POINT('',(411.94103520514,2.944004323671,19.2));
#42 = CARTESIAN_POINT('',(408.59076584824,3.20102726264,19.2));
#43 = CARTESIAN_POINT('',(405.17786258016,3.43020361482,19.2));
#44 = CARTESIAN_POINT('',(401.7422179111,3.622233265893,19.2));
#45 = CARTESIAN_POINT('',(398.32417409325,3.767605207338,19.2));
#46 = CARTESIAN_POINT('',(394.96415712325,3.857026722442,19.2));
#47 = CARTESIAN_POINT('',(391.70232357869,3.881988833532,19.2));
#48 = CARTESIAN_POINT('',(388.57820461965,3.835401676073,19.2));
#49 = CARTESIAN_POINT('',(385.63035971416,3.712199686587,19.2));
#50 = CARTESIAN_POINT('',(382.89598573023,3.50982103574,19.2));
#51 = CARTESIAN_POINT('',(380.41074458181,3.228400707737,19.2));
#52 = CARTESIAN_POINT('',(378.20821178076,2.870774372575,19.2));
#53 = CARTESIAN_POINT('',(376.32146106491,2.441765651661,19.2));
#54 = CARTESIAN_POINT('',(374.78045186786,1.948768670444,19.2));
#55 = CARTESIAN_POINT('',(373.62640586445,1.400454671278,19.2));
#56 = CARTESIAN_POINT('',(372.88722071922,0.824270087156,19.2));
#57 = CARTESIAN_POINT('',(372.62370973104,0.309393395321,19.2));
#58 = CARTESIAN_POINT('',(372.59961465966,6.320019579311E-02,19.2));
#59 = CARTESIAN_POINT('',(372.6,-5.169256532197E-18,19.2));
#60 = PCURVE('',#61,#182);
#61 = B_SPLINE_SURFACE_WITH_KNOTS('',3,1,(
    (#62,#63)
    ,(#64,#65)
    ,(#66,#67)
    ,(#68,#69)
    ,(#70,#71)
    ,(#72,#73)
    ,(#74,#75)
    ,(#76,#77)
    ,(#78,#79)
    ,(#80,#81)
    ,(#82,#83)
    ,(#84,#85)
    ,(#86,#87)
    ,(#88,#89)
    ,(#90,#91)
    ,(#92,#93)
    ,(#94,#95)
    ,(#96,#97)
    ,(#98,#99)
    ,(#100,#101)
    ,(#102,#103)
    ,(#104,#105)
    ,(#106,#107)
    ,(#108,#109)
    ,(#110,#111)
    ,(#112,#113)
    ,(#114,#115)
    ,(#116,#117)
    ,(#118,#119)
    ,(#120,#121)
    ,(#122,#123)
    ,(#124,#125)
    ,(#126,#127)
    ,(#128,#129)
    ,(#130,#131)
    ,(#132,#133)
    ,(#134,#135)
    ,(#136,#137)
    ,(#138,#139)
    ,(#140,#141)
    ,(#142,#143)
    ,(#144,#145)
    ,(#146,#147)
    ,(#148,#149)
    ,(#150,#151)
    ,(#152,#153)
    ,(#154,#155)
    ,(#156,#157)
    ,(#158,#159)
    ,(#160,#161)
    ,(#162,#163)
    ,(#164,#165)
    ,(#166,#167)
    ,(#168,#169)
    ,(#170,#171)
    ,(#172,#173)
    ,(#174,#175)
    ,(#176,#177)
    ,(#178,#179)
    ,(#180,#181
    )),.UNSPECIFIED.,.F.,.F.,.F.,(4,1,1,1,1,1,1,1,1,1,1,1,1,1,1,1,1,1,1,
    1,1,1,1,1,1,1,1,1,1,1,1,1,1,1,1,1,1,1,1,1,1,1,1,1,1,1,1,1,1,1,1,1,1,
    1,1,1,1,4),(2,2),(0.,0.18661788619,0.186934509789,0.744293905826,
    0.745549537713,1.666519633762,1.669304928323,2.942529248537,
    2.947384678844,4.557421532893,4.564822478795,6.492329899138,
    6.50267575689,8.724639404872,8.738246480871,11.228249091716,
    11.24534639052,13.973877166968,13.994603742663,16.92940560877,
    16.953808026927,20.060259808039,20.088288506806,23.329817988672,
    23.361321897748,26.699844487979,26.734564056171,30.130940610944,
    30.168500249335,33.583006718298,33.622908412253,37.015709438324,
    37.057329758885,40.388948336563,40.431541172,43.663316947983,
    43.706023915424,46.800553671732,46.842423356566,49.763978510253,
    49.803994496123,52.518911741463,52.556028033718,55.033069722947,
    55.066251046553,57.276929301303,57.305193802027,59.224039105115,
    59.246504899774,60.851204692422,60.867160038649,62.138266491196,
    62.147366418456,63.066935758509,63.069966540011,63.625290907598,
    63.625518489727,63.812488104518),(0.,1.),.UNSPECIFIED.);
#62 = CARTESIAN_POINT('',(435.2,0.45,19.2));
#63 = CARTESIAN_POINT('',(435.2,0.45,149.1));
#64 = CARTESIAN_POINT('',(435.13834821297,0.458284856068,19.2));
#65 = CARTESIAN_POINT('',(435.17829640671,0.452628639276,149.1));
#66 = CARTESIAN_POINT('',(435.07658973239,0.46656820182,19.2));
#67 = CARTESIAN_POINT('',(435.15655532289,0.455256230723,149.1));
#68 = CARTESIAN_POINT('',(434.83068539556,0.499487234104,19.2));
#69 = CARTESIAN_POINT('',(435.06998891529,0.46569634286,149.1));
#70 = CARTESIAN_POINT('',(434.64600363816,0.524069658491,19.2));
#71 = CARTESIAN_POINT('',(435.00497548403,0.473487470586,149.1));
#72 = CARTESIAN_POINT('',(434.15707257914,0.588783190384,19.2));
#73 = CARTESIAN_POINT('',(434.83285892422,0.493984444644,149.1));
#74 = CARTESIAN_POINT('',(433.85135210634,0.628869176507,19.2));
#75 = CARTESIAN_POINT('',(434.7252389571,0.506667271598,149.1));
#76 = CARTESIAN_POINT('',(433.12512831035,0.723217197991,19.2));
#77 = CARTESIAN_POINT('',(434.46959691953,0.536486022019,149.1));
#78 = CARTESIAN_POINT('',(432.70164132804,0.777531004946,19.2));
#79 = CARTESIAN_POINT('',(434.32052603276,0.553625871463,149.1));
#80 = CARTESIAN_POINT('',(431.74656481886,0.898492904271,19.2));
#81 = CARTESIAN_POINT('',(433.98433804138,0.591740614055,149.1));
#82 = CARTESIAN_POINT('',(431.20995038055,0.965370220128,19.2));
#83 = CARTESIAN_POINT('',(433.79545396076,0.612772289713,149.1));
#84 = CARTESIAN_POINT('',(430.03709549701,1.109267477328,19.2));
#85 = CARTESIAN_POINT('',(433.3826283206,0.65793786859,149.1));
#86 = CARTESIAN_POINT('',(429.39332247884,1.186759986371,19.2));
#87 = CARTESIAN_POINT('',(433.15603742133,0.682202437993,149.1));
#88 = CARTESIAN_POINT('',(428.01629445801,1.349464003018,19.2));
#89 = CARTESIAN_POINT('',(432.67137397404,0.733027253639,149.1));
#90 = CARTESIAN_POINT('',(427.27260558332,1.435437930406,19.2));
#91 = CARTESIAN_POINT('',(432.40963117779,0.759806574132,149.1));
#92 = CARTESIAN_POINT('',(425.70740110852,1.612546624823,19.2));
#93 = CARTESIAN_POINT('',(431.8587715113,0.814814220448,149.1));
#94 = CARTESIAN_POINT('',(424.87223666446,1.70475809294,19.2));
#95 = CARTESIAN_POINT('',(431.56485313944,0.843357133148,149.1));
#96 = CARTESIAN_POINT('',(423.13706676181,1.891712692313,19.2));
#97 = CARTESIAN_POINT('',(430.95421781545,0.901026652292,149.1));
#98 = CARTESIAN_POINT('',(422.21996853966,1.987848395683,19.2));
#99 = CARTESIAN_POINT('',(430.63148764097,0.930562799051,149.1));
#100 = CARTESIAN_POINT('',(420.33504565312,2.179976250578,19.2));
#101 = CARTESIAN_POINT('',(429.96820115867,0.989342595087,149.1));
#102 = CARTESIAN_POINT('',(419.34654354257,2.277656339075,19.2));
#103 = CARTESIAN_POINT('',(429.62037053204,1.019082797485,149.1));
#104 = CARTESIAN_POINT('',(417.3338379614,2.470143610454,19.2));
#105 = CARTESIAN_POINT('',(428.9121758444,1.07737965417,149.1));
#106 = CARTESIAN_POINT('',(416.28532316571,2.566893146993,19.2));
#107 = CARTESIAN_POINT('',(428.54325926692,1.106505155506,149.1));
#108 = CARTESIAN_POINT('',(414.16829666557,2.75470919381,19.2));
#109 = CARTESIAN_POINT('',(427.79842452886,1.162656173437,149.1));
#110 = CARTESIAN_POINT('',(413.07188644425,2.847913072882,19.2));
#111 = CARTESIAN_POINT('',(427.41269233741,1.190302058366,149.1));
#112 = CARTESIAN_POINT('',(410.87521268623,3.02572236465,19.2));
#113 = CARTESIAN_POINT('',(426.63991308919,1.242542271015,149.1));
#114 = CARTESIAN_POINT('',(409.74361178082,3.112584269494,19.2));
#115 = CARTESIAN_POINT('',(426.24184297561,1.267782382059,149.1));
#116 = CARTESIAN_POINT('',(407.49289348271,3.274688502572,19.2));
#117 = CARTESIAN_POINT('',(425.45014309164,1.314223214133,149.1));
#118 = CARTESIAN_POINT('',(406.33925690299,3.352216020845,19.2));
#119 = CARTESIAN_POINT('',(425.04437199995,1.336064414366,149.1));
#120 = CARTESIAN_POINT('',(404.06074884188,3.492567101919,19.2));
#121 = CARTESIAN_POINT('',(424.24300639514,1.374697399975,149.1));
#122 = CARTESIAN_POINT('',(402.8985494386,3.5576020362,19.2));
#123 = CARTESIAN_POINT('',(423.83428390751,1.392089918504,149.1));
#124 = CARTESIAN_POINT('',(400.61889388577,3.669915716693,19.2));
#125 = CARTESIAN_POINT('',(423.03264516188,1.420826201603,149.1));
#126 = CARTESIAN_POINT('',(399.46179622962,3.719221293202,19.2));
#127 = CARTESIAN_POINT('',(422.62578883681,1.432694175465,149.1));
#128 = CARTESIAN_POINT('',(397.20777342428,3.797203160188,19.2));
#129 = CARTESIAN_POINT('',(421.83331855771,1.449443862619,149.1));
#130 = CARTESIAN_POINT('',(396.06951292645,3.827609433323,19.2));
#131 = CARTESIAN_POINT('',(421.43317081707,1.454736474,149.1));
#132 = CARTESIAN_POINT('',(393.86780519556,3.865282245771,19.2));
#133 = CARTESIAN_POINT('',(420.65927523658,1.457523808956,149.1));
#134 = CARTESIAN_POINT('',(392.7620697959,3.87387882349,19.2));
#135 = CARTESIAN_POINT('',(420.27066086655,1.455283077414,149.1));
#136 = CARTESIAN_POINT('',(390.6390328493,3.86597676469,19.2));
#137 = CARTESIAN_POINT('',(419.52462849341,1.44238509674,149.1));
#138 = CARTESIAN_POINT('',(389.57934125884,3.850330720344,19.2));
#139 = CARTESIAN_POINT('',(419.15231076326,1.431822394308,149.1));
#140 = CARTESIAN_POINT('',(387.56078238653,3.792703010369,19.2));
#141 = CARTESIAN_POINT('',(418.44323219403,1.401910515939,149.1));
#142 = CARTESIAN_POINT('',(386.56036255412,3.751068149407,19.2));
#143 = CARTESIAN_POINT('',(418.09186886757,1.382479745037,149.1));
#144 = CARTESIAN_POINT('',(384.67131168442,3.641023217389,19.2));
#145 = CARTESIAN_POINT('',(417.4285541445,1.334740082254,149.1));
#146 = CARTESIAN_POINT('',(383.74296095718,3.572508036398,19.2));
#147 = CARTESIAN_POINT('',(417.10264759923,1.306196018579,149.1));
#148 = CARTESIAN_POINT('',(382.00751205731,3.409003792787,19.2));
#149 = CARTESIAN_POINT('',(416.4935686792,1.240394860262,149.1));
#150 = CARTESIAN_POINT('',(381.16352770693,3.313643330619,19.2));
#151 = CARTESIAN_POINT('',(416.19743968774,1.202817335684,149.1));
#152 = CARTESIAN_POINT('',(379.60462546026,3.097290621392,19.2));
#153 = CARTESIAN_POINT('',(415.65065434356,1.119302708757,149.1));
#154 = CARTESIAN_POINT('',(378.85660425661,2.976054178067,19.2));
#155 = CARTESIAN_POINT('',(415.3883749245,1.073098896775,149.1));
#156 = CARTESIAN_POINT('',(377.49653561267,2.708727160148,19.2));
#157 = CARTESIAN_POINT('',(414.91169826886,0.972662325377,149.1));
#158 = CARTESIAN_POINT('',(376.85588758355,2.563283367412,19.2));
#159 = CARTESIAN_POINT('',(414.68726123153,0.918483705294,149.1));
#160 = CARTESIAN_POINT('',(375.71592269151,2.247821341406,19.2));
#161 = CARTESIAN_POINT('',(414.2881371791,0.802274301124,149.1));
#162 = CARTESIAN_POINT('',(375.19295206125,2.080735014629,19.2));
#163 = CARTESIAN_POINT('',(414.10516514147,0.741093546108,149.1));
#164 = CARTESIAN_POINT('',(374.29891428933,1.719778172584,19.2));
#165 = CARTESIAN_POINT('',(413.79259591299,0.610208496743,149.1));
#166 = CARTESIAN_POINT('',(373.90762346748,1.534067671187,19.2));
#167 = CARTESIAN_POINT('',(413.6559277663,0.54317148093,149.1));
#168 = CARTESIAN_POINT('',(373.28663022811,1.135486504108,19.2));
#169 = CARTESIAN_POINT('',(413.43927700871,0.400687541752,149.1));
#170 = CARTESIAN_POINT('',(373.03690976965,0.940950629004,19.2));
#171 = CARTESIAN_POINT('',(413.35238652013,0.331407278231,149.1));
#172 = CARTESIAN_POINT('',(372.74174129636,0.539989356247,19.2));
#173 = CARTESIAN_POINT('',(413.24949471026,0.189827456977,149.1));
#174 = CARTESIAN_POINT('',(372.65333430369,0.367277136958,19.2));
#175 = CARTESIAN_POINT('',(413.21865513047,0.129091833377,149.1));
#176 = CARTESIAN_POINT('',(372.60568927087,0.125267991606,19.2));
#177 = CARTESIAN_POINT('',(413.2020087294,4.4023820453E-02,149.1));
#178 = CARTESIAN_POINT('',(372.59961465966,6.320019579311E-02,19.2));
#179 = CARTESIAN_POINT('',(413.19988063835,2.220920811724E-02,149.1));
#180 = CARTESIAN_POINT('',(372.6,-5.169256532197E-18,19.2));
#181 = CARTESIAN_POINT('',(413.2,-1.816192657032E-18,149.1));
#182 = DEFINITIONAL_REPRESENTATION('',(#183),#187);
#183 = LINE('',#184,#185);
#184 = CARTESIAN_POINT('',(0.,0.));
#185 = VECTOR('',#186,1.);
#186 = DIRECTION('',(1.,0.));
#187 = ( GEOMETRIC_REPRESENTATION_CONTEXT(2) 
PARAMETRIC_REPRESENTATION_CONTEXT() REPRESENTATION_CONTEXT('2D SPACE',''
  ) );
#188 = PCURVE('',#189,#194);
#189 = PLANE('',#190);
#190 = AXIS2_PLACEMENT_3D('',#191,#192,#193);
#191 = CARTESIAN_POINT('',(435.2,0.45,19.2));
#192 = DIRECTION('',(-6.363560530735E-18,8.852419760534E-16,1.));
#193 = DIRECTION('',(-0.999974163747,-7.18831267869E-03,0.));
#194 = DEFINITIONAL_REPRESENTATION('',(#195),#228);
#195 = B_SPLINE_CURVE_WITH_KNOTS('',3,(#196,#197,#198,#199,#200,#201,
    #202,#203,#204,#205,#206,#207,#208,#209,#210,#211,#212,#213,#214,
    #215,#216,#217,#218,#219,#220,#221,#222,#223,#224,#225,#226,#227),
  .UNSPECIFIED.,.F.,.F.,(4,1,1,1,1,1,1,1,1,1,1,1,1,1,1,1,1,1,1,1,1,1,1,1
    ,1,1,1,1,1,4),(0.,0.186934509789,0.745549537713,1.669304928323,
    2.947384678844,4.564822478795,6.50267575689,8.738246480871,
    11.24534639052,13.994603742663,16.953808026927,20.088288506806,
    23.361321897748,26.734564056171,30.168500249335,33.622908412253,
    37.057329758885,40.431541172,43.706023915424,46.842423356566,
    49.803994496123,52.556028033718,55.066251046553,57.305193802027,
    59.246504899774,60.867160038649,62.147366418456,63.069966540011,
    63.625518489727,63.812488104518),.UNSPECIFIED.);
#196 = CARTESIAN_POINT('',(0.,0.));
#197 = CARTESIAN_POINT('',(6.169513726218E-02,-8.742622310618E-03));
#198 = CARTESIAN_POINT('',(0.30776220862,-4.354863053828E-02));
#199 = CARTESIAN_POINT('',(0.858790762508,-0.120928518879));
#200 = CARTESIAN_POINT('',(1.770249451968,-0.247106276407));
#201 = CARTESIAN_POINT('',(3.03180376808,-0.418123754326));
#202 = CARTESIAN_POINT('',(4.629091552477,-0.62884699242));
#203 = CARTESIAN_POINT('',(6.543846129309,-0.873282592929));
#204 = CARTESIAN_POINT('',(8.75407242406,-1.144874651508));
#205 = CARTESIAN_POINT('',(11.234280629226,-1.436731435495));
#206 = CARTESIAN_POINT('',(13.955776835682,-1.741748223));
#207 = CARTESIAN_POINT('',(16.887004660337,-2.052617802748));
#208 = CARTESIAN_POINT('',(19.993927287319,-2.361748244159));
#209 = CARTESIAN_POINT('',(23.24043618745,-2.661132599471));
#210 = CARTESIAN_POINT('',(26.588771424685,-2.942231681626));
#211 = CARTESIAN_POINT('',(29.999939124855,-3.195935128581));
#212 = CARTESIAN_POINT('',(33.434114660553,-3.412656306461));
#213 = CARTESIAN_POINT('',(36.851025189992,-3.582594459752));
#214 = CARTESIAN_POINT('',(40.210312559928,-3.696166517125));
#215 = CARTESIAN_POINT('',(43.471882395477,-3.744575062711));
#216 = CARTESIAN_POINT('',(46.596255522034,-3.720446252813));
#217 = CARTESIAN_POINT('',(49.54490988068,-3.618437477314));
#218 = CARTESIAN_POINT('',(52.280667979654,-3.43571959035));
#219 = CARTESIAN_POINT('',(54.767867856071,-3.172171223651));
#220 = CARTESIAN_POINT('',(56.972914481842,-2.830386622672));
#221 = CARTESIAN_POINT('',(58.862700299946,-2.414951539829));
#222 = CARTESIAN_POINT('',(60.407213499543,-1.933044551756));
#223 = CARTESIAN_POINT('',(61.565171139201,-1.393040362487));
#224 = CARTESIAN_POINT('',(62.308478981612,-0.822184158767));
#225 = CARTESIAN_POINT('',(62.575684256301,-0.309214968794));
#226 = CARTESIAN_POINT('',(62.601548418857,-6.320133288366E-02));
#227 = CARTESIAN_POINT('',(62.601617391246,-4.440892098501E-16));
#228 = ( GEOMETRIC_REPRESENTATION_CONTEXT(2) 
PARAMETRIC_REPRESENTATION_CONTEXT() REPRESENTATION_CONTEXT('2D SPACE',''
  ) );
#229 = ORIENTED_EDGE('',*,*,#230,.T.);
#230 = EDGE_CURVE('',#24,#231,#233,.T.);
#231 = VERTEX_POINT('',#232);
#232 = CARTESIAN_POINT('',(413.2,-1.816192657032E-18,149.1));
#233 = SURFACE_CURVE('',#234,(#237,#244),.PCURVE_S1.);
#234 = B_SPLINE_CURVE_WITH_KNOTS('',1,(#235,#236),.UNSPECIFIED.,.F.,.F.,
  (2,2),(0.,1.),.PIECEWISE_BEZIER_KNOTS.);
#235 = CARTESIAN_POINT('',(372.6,-5.169256532197E-18,19.2));
#236 = CARTESIAN_POINT('',(413.2,-1.816192657032E-18,149.1));
#237 = PCURVE('',#61,#238);
#238 = DEFINITIONAL_REPRESENTATION('',(#239),#243);
#239 = LINE('',#240,#241);
#240 = CARTESIAN_POINT('',(63.812488104518,0.));
#241 = VECTOR('',#242,1.);
#242 = DIRECTION('',(0.,1.));
#243 = ( GEOMETRIC_REPRESENTATION_CONTEXT(2) 
PARAMETRIC_REPRESENTATION_CONTEXT() REPRESENTATION_CONTEXT('2D SPACE',''
  ) );
#244 = PCURVE('',#245,#366);
#245 = B_SPLINE_SURFACE_WITH_KNOTS('',3,1,(
    (#246,#247)
    ,(#248,#249)
    ,(#250,#251)
    ,(#252,#253)
    ,(#254,#255)
    ,(#256,#257)
    ,(#258,#259)
    ,(#260,#261)
    ,(#262,#263)
    ,(#264,#265)
    ,(#266,#267)
    ,(#268,#269)
    ,(#270,#271)
    ,(#272,#273)
    ,(#274,#275)
    ,(#276,#277)
    ,(#278,#279)
    ,(#280,#281)
    ,(#282,#283)
    ,(#284,#285)
    ,(#286,#287)
    ,(#288,#289)
    ,(#290,#291)
    ,(#292,#293)
    ,(#294,#295)
    ,(#296,#297)
    ,(#298,#299)
    ,(#300,#301)
    ,(#302,#303)
    ,(#304,#305)
    ,(#306,#307)
    ,(#308,#309)
    ,(#310,#311)
    ,(#312,#313)
    ,(#314,#315)
    ,(#316,#317)
    ,(#318,#319)
    ,(#320,#321)
    ,(#322,#323)
    ,(#324,#325)
    ,(#326,#327)
    ,(#328,#329)
    ,(#330,#331)
    ,(#332,#333)
    ,(#334,#335)
    ,(#336,#337)
    ,(#338,#339)
    ,(#340,#341)
    ,(#342,#343)
    ,(#344,#345)
    ,(#346,#347)
    ,(#348,#349)
    ,(#350,#351)
    ,(#352,#353)
    ,(#354,#355)
    ,(#356,#357)
    ,(#358,#359)
    ,(#360,#361)
    ,(#362,#363)
    ,(#364,#365
    )),.UNSPECIFIED.,.F.,.F.,.F.,(4,1,1,1,1,1,1,1,1,1,1,1,1,1,1,1,1,1,1,
    1,1,1,1,1,1,1,1,1,1,1,1,1,1,1,1,1,1,1,1,1,1,1,1,1,1,1,1,1,1,1,1,1,1,
    1,1,1,1,4),(2,2),(0.,0.186969614792,0.18719719692,0.742521564507,
    0.74555234601,1.665121686062,1.674221613322,2.945328065869,
    2.961283412096,4.565983204744,4.588448999403,6.507294302491,
    6.535558803215,8.746237057966,8.779418381571,11.256460070801,
    11.293576363056,14.008493608395,14.048509594266,16.970064747952,
    17.011934432787,20.106464189094,20.149171156535,23.380946932518,
    23.423539767955,26.755158345633,26.796778666194,30.189579692265,
    30.22948138622,33.643987855183,33.681547493574,37.077924048347,
    37.11264361654,40.45116620677,40.482670115846,43.724199597712,
    43.752228296479,46.858680077591,46.883082495748,49.817884361856,
    49.83861093755,52.567141713998,52.584239012802,55.074241623647,
    55.087848699646,57.309812347628,57.32015820538,59.247665625723,
    59.255066571625,60.865103425675,60.869958855981,62.143183176195,
    62.145968470756,63.066938566806,63.068194198692,63.62555359473,
    63.625870218328,63.812488104518),(0.,1.),.UNSPECIFIED.);
#246 = CARTESIAN_POINT('',(372.6,-5.169256532197E-18,19.2));
#247 = CARTESIAN_POINT('',(413.2,-1.816192657032E-18,149.1));
#248 = CARTESIAN_POINT('',(372.59961465966,-6.32001957931E-02,19.2));
#249 = CARTESIAN_POINT('',(413.19988063835,-2.220920811724E-02,149.1));
#250 = CARTESIAN_POINT('',(372.60568927087,-0.125267991606,19.2));
#251 = CARTESIAN_POINT('',(413.2020087294,-4.402382045299E-02,149.1));
#252 = CARTESIAN_POINT('',(372.65333430369,-0.367277136958,19.2));
#253 = CARTESIAN_POINT('',(413.21865513047,-0.129091833377,149.1));
#254 = CARTESIAN_POINT('',(372.74174129636,-0.539989356247,19.2));
#255 = CARTESIAN_POINT('',(413.24949471026,-0.189827456977,149.1));
#256 = CARTESIAN_POINT('',(373.03690976965,-0.940950629004,19.2));
#257 = CARTESIAN_POINT('',(413.35238652013,-0.331407278231,149.1));
#258 = CARTESIAN_POINT('',(373.28663022811,-1.135486504108,19.2));
#259 = CARTESIAN_POINT('',(413.43927700871,-0.400687541752,149.1));
#260 = CARTESIAN_POINT('',(373.90762346748,-1.534067671187,19.2));
#261 = CARTESIAN_POINT('',(413.6559277663,-0.54317148093,149.1));
#262 = CARTESIAN_POINT('',(374.29891428933,-1.719778172584,19.2));
#263 = CARTESIAN_POINT('',(413.79259591299,-0.610208496743,149.1));
#264 = CARTESIAN_POINT('',(375.19295206125,-2.080735014629,19.2));
#265 = CARTESIAN_POINT('',(414.10516514147,-0.741093546108,149.1));
#266 = CARTESIAN_POINT('',(375.71592269151,-2.247821341406,19.2));
#267 = CARTESIAN_POINT('',(414.2881371791,-0.802274301124,149.1));
#268 = CARTESIAN_POINT('',(376.85588758355,-2.563283367412,19.2));
#269 = CARTESIAN_POINT('',(414.68726123153,-0.918483705294,149.1));
#270 = CARTESIAN_POINT('',(377.49653561267,-2.708727160148,19.2));
#271 = CARTESIAN_POINT('',(414.91169826886,-0.972662325377,149.1));
#272 = CARTESIAN_POINT('',(378.85660425661,-2.976054178067,19.2));
#273 = CARTESIAN_POINT('',(415.3883749245,-1.073098896775,149.1));
#274 = CARTESIAN_POINT('',(379.60462546026,-3.097290621392,19.2));
#275 = CARTESIAN_POINT('',(415.65065434356,-1.119302708756,149.1));
#276 = CARTESIAN_POINT('',(381.16352770693,-3.313643330619,19.2));
#277 = CARTESIAN_POINT('',(416.19743968774,-1.202817335684,149.1));
#278 = CARTESIAN_POINT('',(382.00751205731,-3.409003792787,19.2));
#279 = CARTESIAN_POINT('',(416.4935686792,-1.240394860262,149.1));
#280 = CARTESIAN_POINT('',(383.74296095718,-3.572508036398,19.2));
#281 = CARTESIAN_POINT('',(417.10264759923,-1.306196018579,149.1));
#282 = CARTESIAN_POINT('',(384.67131168442,-3.641023217389,19.2));
#283 = CARTESIAN_POINT('',(417.4285541445,-1.334740082254,149.1));
#284 = CARTESIAN_POINT('',(386.56036255412,-3.751068149407,19.2));
#285 = CARTESIAN_POINT('',(418.09186886757,-1.382479745037,149.1));
#286 = CARTESIAN_POINT('',(387.56078238653,-3.792703010369,19.2));
#287 = CARTESIAN_POINT('',(418.44323219403,-1.401910515939,149.1));
#288 = CARTESIAN_POINT('',(389.57934125884,-3.850330720344,19.2));
#289 = CARTESIAN_POINT('',(419.15231076326,-1.431822394308,149.1));
#290 = CARTESIAN_POINT('',(390.6390328493,-3.86597676469,19.2));
#291 = CARTESIAN_POINT('',(419.52462849341,-1.44238509674,149.1));
#292 = CARTESIAN_POINT('',(392.7620697959,-3.87387882349,19.2));
#293 = CARTESIAN_POINT('',(420.27066086655,-1.455283077414,149.1));
#294 = CARTESIAN_POINT('',(393.86780519556,-3.865282245771,19.2));
#295 = CARTESIAN_POINT('',(420.65927523658,-1.457523808956,149.1));
#296 = CARTESIAN_POINT('',(396.06951292645,-3.827609433323,19.2));
#297 = CARTESIAN_POINT('',(421.43317081707,-1.454736474,149.1));
#298 = CARTESIAN_POINT('',(397.20777342428,-3.797203160188,19.2));
#299 = CARTESIAN_POINT('',(421.83331855771,-1.449443862619,149.1));
#300 = CARTESIAN_POINT('',(399.46179622962,-3.719221293202,19.2));
#301 = CARTESIAN_POINT('',(422.62578883681,-1.432694175465,149.1));
#302 = CARTESIAN_POINT('',(400.61889388577,-3.669915716693,19.2));
#303 = CARTESIAN_POINT('',(423.03264516188,-1.420826201603,149.1));
#304 = CARTESIAN_POINT('',(402.8985494386,-3.5576020362,19.2));
#305 = CARTESIAN_POINT('',(423.83428390751,-1.392089918504,149.1));
#306 = CARTESIAN_POINT('',(404.06074884188,-3.492567101919,19.2));
#307 = CARTESIAN_POINT('',(424.24300639514,-1.374697399975,149.1));
#308 = CARTESIAN_POINT('',(406.33925690299,-3.352216020845,19.2));
#309 = CARTESIAN_POINT('',(425.04437199995,-1.336064414366,149.1));
#310 = CARTESIAN_POINT('',(407.49289348271,-3.274688502572,19.2));
#311 = CARTESIAN_POINT('',(425.45014309164,-1.314223214133,149.1));
#312 = CARTESIAN_POINT('',(409.74361178082,-3.112584269494,19.2));
#313 = CARTESIAN_POINT('',(426.24184297561,-1.267782382059,149.1));
#314 = CARTESIAN_POINT('',(410.87521268623,-3.02572236465,19.2));
#315 = CARTESIAN_POINT('',(426.63991308919,-1.242542271015,149.1));
#316 = CARTESIAN_POINT('',(413.07188644425,-2.847913072882,19.2));
#317 = CARTESIAN_POINT('',(427.41269233741,-1.190302058366,149.1));
#318 = CARTESIAN_POINT('',(414.16829666557,-2.75470919381,19.2));
#319 = CARTESIAN_POINT('',(427.79842452886,-1.162656173437,149.1));
#320 = CARTESIAN_POINT('',(416.28532316571,-2.566893146993,19.2));
#321 = CARTESIAN_POINT('',(428.54325926692,-1.106505155506,149.1));
#322 = CARTESIAN_POINT('',(417.3338379614,-2.470143610454,19.2));
#323 = CARTESIAN_POINT('',(428.9121758444,-1.07737965417,149.1));
#324 = CARTESIAN_POINT('',(419.34654354257,-2.277656339075,19.2));
#325 = CARTESIAN_POINT('',(429.62037053204,-1.019082797485,149.1));
#326 = CARTESIAN_POINT('',(420.33504565312,-2.179976250578,19.2));
#327 = CARTESIAN_POINT('',(429.96820115867,-0.989342595087,149.1));
#328 = CARTESIAN_POINT('',(422.21996853966,-1.987848395683,19.2));
#329 = CARTESIAN_POINT('',(430.63148764097,-0.930562799051,149.1));
#330 = CARTESIAN_POINT('',(423.13706676181,-1.891712692313,19.2));
#331 = CARTESIAN_POINT('',(430.95421781545,-0.901026652292,149.1));
#332 = CARTESIAN_POINT('',(424.87223666446,-1.70475809294,19.2));
#333 = CARTESIAN_POINT('',(431.56485313944,-0.843357133148,149.1));
#334 = CARTESIAN_POINT('',(425.70740110852,-1.612546624823,19.2));
#335 = CARTESIAN_POINT('',(431.8587715113,-0.814814220448,149.1));
#336 = CARTESIAN_POINT('',(427.27260558332,-1.435437930406,19.2));
#337 = CARTESIAN_POINT('',(432.40963117779,-0.759806574132,149.1));
#338 = CARTESIAN_POINT('',(428.01629445801,-1.349464003018,19.2));
#339 = CARTESIAN_POINT('',(432.67137397404,-0.733027253639,149.1));
#340 = CARTESIAN_POINT('',(429.39332247884,-1.186759986371,19.2));
#341 = CARTESIAN_POINT('',(433.15603742133,-0.682202437993,149.1));
#342 = CARTESIAN_POINT('',(430.03709549701,-1.109267477328,19.2));
#343 = CARTESIAN_POINT('',(433.3826283206,-0.65793786859,149.1));
#344 = CARTESIAN_POINT('',(431.20995038055,-0.965370220128,19.2));
#345 = CARTESIAN_POINT('',(433.79545396076,-0.612772289713,149.1));
#346 = CARTESIAN_POINT('',(431.74656481886,-0.898492904271,19.2));
#347 = CARTESIAN_POINT('',(433.98433804138,-0.591740614055,149.1));
#348 = CARTESIAN_POINT('',(432.70164132804,-0.777531004946,19.2));
#349 = CARTESIAN_POINT('',(434.32052603276,-0.553625871463,149.1));
#350 = CARTESIAN_POINT('',(433.12512831035,-0.723217197991,19.2));
#351 = CARTESIAN_POINT('',(434.46959691953,-0.536486022019,149.1));
#352 = CARTESIAN_POINT('',(433.85135210634,-0.628869176507,19.2));
#353 = CARTESIAN_POINT('',(434.7252389571,-0.506667271598,149.1));
#354 = CARTESIAN_POINT('',(434.15707257914,-0.588783190384,19.2));
#355 = CARTESIAN_POINT('',(434.83285892422,-0.493984444644,149.1));
#356 = CARTESIAN_POINT('',(434.64600363816,-0.524069658491,19.2));
#357 = CARTESIAN_POINT('',(435.00497548403,-0.473487470586,149.1));
#358 = CARTESIAN_POINT('',(434.83068539556,-0.499487234104,19.2));
#359 = CARTESIAN_POINT('',(435.06998891529,-0.46569634286,149.1));
#360 = CARTESIAN_POINT('',(435.07658973239,-0.46656820182,19.2));
#361 = CARTESIAN_POINT('',(435.15655532289,-0.455256230723,149.1));
#362 = CARTESIAN_POINT('',(435.13834821297,-0.458284856068,19.2));
#363 = CARTESIAN_POINT('',(435.17829640671,-0.452628639276,149.1));
#364 = CARTESIAN_POINT('',(435.2,-0.45,19.2));
#365 = CARTESIAN_POINT('',(435.2,-0.45,149.1));
#366 = DEFINITIONAL_REPRESENTATION('',(#367),#371);
#367 = LINE('',#368,#369);
#368 = CARTESIAN_POINT('',(0.,0.));
#369 = VECTOR('',#370,1.);
#370 = DIRECTION('',(0.,1.));
#371 = ( GEOMETRIC_REPRESENTATION_CONTEXT(2) 
PARAMETRIC_REPRESENTATION_CONTEXT() REPRESENTATION_CONTEXT('2D SPACE',''
  ) );
#372 = ORIENTED_EDGE('',*,*,#373,.F.);
#373 = EDGE_CURVE('',#374,#231,#376,.T.);
#374 = VERTEX_POINT('',#375);
#375 = CARTESIAN_POINT('',(435.2,0.45,149.1));
#376 = SURFACE_CURVE('',#377,(#410,#416),.PCURVE_S1.);
#377 = B_SPLINE_CURVE_WITH_KNOTS('',3,(#378,#379,#380,#381,#382,#383,
    #384,#385,#386,#387,#388,#389,#390,#391,#392,#393,#394,#395,#396,
    #397,#398,#399,#400,#401,#402,#403,#404,#405,#406,#407,#408,#409),
  .UNSPECIFIED.,.F.,.F.,(4,1,1,1,1,1,1,1,1,1,1,1,1,1,1,1,1,1,1,1,1,1,1,1
    ,1,1,1,1,1,4),(0.,6.558659459841E-02,0.261581050242,0.585695990033,
    1.034147781105,1.601699411533,2.28172024551,3.06626229322,
    3.946152409415,4.911099549081,5.949815878443,7.050150199587,
    8.199231840619,9.383622931465,10.589476855971,11.802700652105,
    13.009119212897,14.194639296846,15.345411557038,16.447989007466,
    17.48948051439,18.457697938079,19.341295237644,20.129896542192,
    20.814205554305,21.386070619857,21.838406685508,22.164786198184,
    22.361019332922,22.426809525464),.UNSPECIFIED.);
#378 = CARTESIAN_POINT('',(435.2,0.45,149.1));
#379 = CARTESIAN_POINT('',(435.17829640671,0.452628639276,149.1));
#380 = CARTESIAN_POINT('',(435.09173263522,0.463090593589,149.1));
#381 = CARTESIAN_POINT('',(434.89788754891,0.486320827131,149.1));
#382 = CARTESIAN_POINT('',(434.57725241372,0.524107648689,149.1));
#383 = CARTESIAN_POINT('',(434.13346944347,0.575134410723,149.1));
#384 = CARTESIAN_POINT('',(433.57159928093,0.637700242165,149.1));
#385 = CARTESIAN_POINT('',(432.89807683223,0.709830349788,149.1));
#386 = CARTESIAN_POINT('',(432.12064853754,0.789379101608,149.1));
#387 = CARTESIAN_POINT('',(431.24828962353,0.874108002678,149.1));
#388 = CARTESIAN_POINT('',(430.29110164167,0.961726765139,149.1));
#389 = CARTESIAN_POINT('',(429.26019241779,1.049894529875,149.1));
#390 = CARTESIAN_POINT('',(428.16754207836,1.136188208641,149.1));
#391 = CARTESIAN_POINT('',(427.025859853,1.218053741691,149.1));
#392 = CARTESIAN_POINT('',(425.84843678138,1.292761867576,149.1));
#393 = CARTESIAN_POINT('',(424.64899920519,1.357391426514,149.1));
#394 = CARTESIAN_POINT('',(423.4415669065,1.408859804279,149.1));
#395 = CARTESIAN_POINT('',(422.24031802502,1.444012303726,149.1));
#396 = CARTESIAN_POINT('',(421.05946038862,1.459771286997,149.1));
#397 = CARTESIAN_POINT('',(419.91310726512,1.453333258353,149.1));
#398 = CARTESIAN_POINT('',(418.81515211756,1.422390536962,149.1));
#399 = CARTESIAN_POINT('',(417.77914648733,1.365342189334,149.1));
#400 = CARTESIAN_POINT('',(416.81816298257,1.281460950292,149.1));
#401 = CARTESIAN_POINT('',(415.94473254812,1.170958786565,149.1));
#402 = CARTESIAN_POINT('',(415.17065749166,1.034989235857,149.1));
#403 = CARTESIAN_POINT('',(414.50755122749,0.87539127167,149.1));
#404 = CARTESIAN_POINT('',(413.96599005348,0.694922825371,149.1));
#405 = CARTESIAN_POINT('',(413.56045948748,0.496794736723,149.1));
#406 = CARTESIAN_POINT('',(413.30110092355,0.291103086218,149.1));
#407 = CARTESIAN_POINT('',(413.20836696075,0.109115495261,149.1));
#408 = CARTESIAN_POINT('',(413.19988049306,2.223624148771E-02,149.1));
#409 = CARTESIAN_POINT('',(413.2,-1.816192657032E-18,149.1));
#410 = PCURVE('',#61,#411);
#411 = DEFINITIONAL_REPRESENTATION('',(#412),#415);
#412 = B_SPLINE_CURVE_WITH_KNOTS('',1,(#413,#414),.UNSPECIFIED.,.F.,.F.,
  (2,2),(0.,22.426809525464),.PIECEWISE_BEZIER_KNOTS.);
#413 = CARTESIAN_POINT('',(0.,1.));
#414 = CARTESIAN_POINT('',(63.812488104518,1.));
#415 = ( GEOMETRIC_REPRESENTATION_CONTEXT(2) 
PARAMETRIC_REPRESENTATION_CONTEXT() REPRESENTATION_CONTEXT('2D SPACE',''
  ) );
#416 = PCURVE('',#417,#422);
#417 = PLANE('',#418);
#418 = AXIS2_PLACEMENT_3D('',#419,#420,#421);
#419 = CARTESIAN_POINT('',(435.2,0.45,149.1));
#420 = DIRECTION('',(0.,0.,1.));
#421 = DIRECTION('',(-0.999790871406,-2.04502678242E-02,0.));
#422 = DEFINITIONAL_REPRESENTATION('',(#423),#456);
#423 = B_SPLINE_CURVE_WITH_KNOTS('',3,(#424,#425,#426,#427,#428,#429,
    #430,#431,#432,#433,#434,#435,#436,#437,#438,#439,#440,#441,#442,
    #443,#444,#445,#446,#447,#448,#449,#450,#451,#452,#453,#454,#455),
  .UNSPECIFIED.,.F.,.F.,(4,1,1,1,1,1,1,1,1,1,1,1,1,1,1,1,1,1,1,1,1,1,1,1
    ,1,1,1,1,1,4),(0.,6.558659459841E-02,0.261581050242,0.585695990033,
    1.034147781105,1.601699411533,2.28172024551,3.06626229322,
    3.946152409415,4.911099549081,5.949815878443,7.050150199587,
    8.199231840619,9.383622931465,10.589476855971,11.802700652105,
    13.009119212897,14.194639296846,15.345411557038,16.447989007466,
    17.48948051439,18.457697938079,19.341295237644,20.129896542192,
    20.814205554305,21.386070619857,21.838406685508,22.164786198184,
    22.361019332922,22.426809525464),.UNSPECIFIED.);
#424 = CARTESIAN_POINT('',(0.,0.));
#425 = CARTESIAN_POINT('',(2.164529807089E-02,-3.071933847792E-03));
#426 = CARTESIAN_POINT('',(0.107977016826,-1.530195257818E-02));
#427 = CARTESIAN_POINT('',(0.301306500091,-4.249151194565E-02));
#428 = CARTESIAN_POINT('',(0.621101830687,-8.682750558703E-02));
#429 = CARTESIAN_POINT('',(1.063748482279,-0.146919077063));
#430 = CARTESIAN_POINT('',(1.624221653692,-0.220962219507));
#431 = CARTESIAN_POINT('',(2.296128169564,-0.306850957123));
#432 = CARTESIAN_POINT('',(3.071767088493,-0.402281689866));
#433 = CARTESIAN_POINT('',(3.942210838587,-0.50483284513));
#434 = CARTESIAN_POINT('',(4.897406817915,-0.61200803459));
#435 = CARTESIAN_POINT('',(5.92629739479,-0.721239730656));
#436 = CARTESIAN_POINT('',(7.016954500948,-0.829860355025));
#437 = CARTESIAN_POINT('',(8.15672379583,-0.93505647493));
#438 = CARTESIAN_POINT('',(9.332372833441,-1.033827594367));
#439 = CARTESIAN_POINT('',(10.530237881146,-1.122972457087));
#440 = CARTESIAN_POINT('',(11.736365129103,-1.19912238523));
#441 = CARTESIAN_POINT('',(12.936643917067,-1.258833394635));
#442 = CARTESIAN_POINT('',(14.116932326938,-1.298737937178));
#443 = CARTESIAN_POINT('',(15.263177374632,-1.315744483307));
#444 = CARTESIAN_POINT('',(16.361535695321,-1.30726170975));
#445 = CARTESIAN_POINT('',(17.39849132113,-1.271411885168));
#446 = CARTESIAN_POINT('',(18.360989250568,-1.207200558139));
#447 = CARTESIAN_POINT('',(19.236496824583,-1.114583389885));
#448 = CARTESIAN_POINT('',(20.013190613545,-0.994472316518));
#449 = CARTESIAN_POINT('',(20.679422024343,-0.848468429527));
#450 = CARTESIAN_POINT('',(21.224560570491,-0.679112795393));
#451 = CARTESIAN_POINT('',(21.634058100923,-0.489319349679));
#452 = CARTESIAN_POINT('',(21.897568874902,-0.288974667275));
#453 = CARTESIAN_POINT('',(21.994005139362,-0.108921569503));
#454 = CARTESIAN_POINT('',(22.004266536291,-2.223403520258E-02));
#455 = CARTESIAN_POINT('',(22.004601791444,1.7763568394E-15));
#456 = ( GEOMETRIC_REPRESENTATION_CONTEXT(2) 
PARAMETRIC_REPRESENTATION_CONTEXT() REPRESENTATION_CONTEXT('2D SPACE',''
  ) );
#457 = ORIENTED_EDGE('',*,*,#458,.F.);
#458 = EDGE_CURVE('',#22,#374,#459,.T.);
#459 = SURFACE_CURVE('',#460,(#463,#470),.PCURVE_S1.);
#460 = B_SPLINE_CURVE_WITH_KNOTS('',1,(#461,#462),.UNSPECIFIED.,.F.,.F.,
  (2,2),(0.,1.),.PIECEWISE_BEZIER_KNOTS.);
#461 = CARTESIAN_POINT('',(435.2,0.45,19.2));
#462 = CARTESIAN_POINT('',(435.2,0.45,149.1));
#463 = PCURVE('',#61,#464);
#464 = DEFINITIONAL_REPRESENTATION('',(#465),#469);
#465 = LINE('',#466,#467);
#466 = CARTESIAN_POINT('',(0.,0.));
#467 = VECTOR('',#468,1.);
#468 = DIRECTION('',(0.,1.));
#469 = ( GEOMETRIC_REPRESENTATION_CONTEXT(2) 
PARAMETRIC_REPRESENTATION_CONTEXT() REPRESENTATION_CONTEXT('2D SPACE',''
  ) );
#470 = PCURVE('',#471,#476);
#471 = PLANE('',#472);
#472 = AXIS2_PLACEMENT_3D('',#473,#474,#475);
#473 = CARTESIAN_POINT('',(435.2,-0.45,149.1));
#474 = DIRECTION('',(1.,-0.,4.375936786821E-16));
#475 = DIRECTION('',(0.,1.,0.));
#476 = DEFINITIONAL_REPRESENTATION('',(#477),#480);
#477 = B_SPLINE_CURVE_WITH_KNOTS('',1,(#478,#479),.UNSPECIFIED.,.F.,.F.,
  (2,2),(0.,1.),.PIECEWISE_BEZIER_KNOTS.);
#478 = CARTESIAN_POINT('',(0.9,-129.9));
#479 = CARTESIAN_POINT('',(0.9,0.));
#480 = ( GEOMETRIC_REPRESENTATION_CONTEXT(2) 
PARAMETRIC_REPRESENTATION_CONTEXT() REPRESENTATION_CONTEXT('2D SPACE',''
  ) );
#481 = ADVANCED_FACE('',(#482),#189,.F.);
#482 = FACE_BOUND('',#483,.F.);
#483 = EDGE_LOOP('',(#484,#485,#566));
#484 = ORIENTED_EDGE('',*,*,#21,.T.);
#485 = ORIENTED_EDGE('',*,*,#486,.T.);
#486 = EDGE_CURVE('',#24,#487,#489,.T.);
#487 = VERTEX_POINT('',#488);
#488 = CARTESIAN_POINT('',(435.2,-0.45,19.2));
#489 = SURFACE_CURVE('',#490,(#523,#559),.PCURVE_S1.);
#490 = B_SPLINE_CURVE_WITH_KNOTS('',3,(#491,#492,#493,#494,#495,#496,
    #497,#498,#499,#500,#501,#502,#503,#504,#505,#506,#507,#508,#509,
    #510,#511,#512,#513,#514,#515,#516,#517,#518,#519,#520,#521,#522),
  .UNSPECIFIED.,.F.,.F.,(4,1,1,1,1,1,1,1,1,1,1,1,1,1,1,1,1,1,1,1,1,1,1,1
    ,1,1,1,1,1,4),(0.,0.186969614792,0.742521564507,1.665121686062,
    2.945328065869,4.565983204744,6.507294302491,8.746237057966,
    11.256460070801,14.008493608395,16.970064747952,20.106464189094,
    23.380946932518,26.755158345633,30.189579692265,33.643987855183,
    37.077924048347,40.45116620677,43.724199597712,46.858680077591,
    49.817884361856,52.567141713998,55.074241623647,57.309812347628,
    59.247665625723,60.865103425675,62.143183176195,63.066938566806,
    63.62555359473,63.812488104518),.UNSPECIFIED.);
#491 = CARTESIAN_POINT('',(372.6,-5.169256532197E-18,19.2));
#492 = CARTESIAN_POINT('',(372.59961465966,-6.32001957931E-02,19.2));
#493 = CARTESIAN_POINT('',(372.62370973104,-0.309393395321,19.2));
#494 = CARTESIAN_POINT('',(372.88722071922,-0.824270087156,19.2));
#495 = CARTESIAN_POINT('',(373.62640586445,-1.400454671278,19.2));
#496 = CARTESIAN_POINT('',(374.78045186786,-1.948768670444,19.2));
#497 = CARTESIAN_POINT('',(376.32146106491,-2.441765651661,19.2));
#498 = CARTESIAN_POINT('',(378.20821178076,-2.870774372575,19.2));
#499 = CARTESIAN_POINT('',(380.41074458181,-3.228400707737,19.2));
#500 = CARTESIAN_POINT('',(382.89598573023,-3.50982103574,19.2));
#501 = CARTESIAN_POINT('',(385.63035971416,-3.712199686587,19.2));
#502 = CARTESIAN_POINT('',(388.57820461965,-3.835401676073,19.2));
#503 = CARTESIAN_POINT('',(391.70232357869,-3.881988833532,19.2));
#504 = CARTESIAN_POINT('',(394.96415712325,-3.857026722442,19.2));
#505 = CARTESIAN_POINT('',(398.32417409325,-3.767605207338,19.2));
#506 = CARTESIAN_POINT('',(401.7422179111,-3.622233265893,19.2));
#507 = CARTESIAN_POINT('',(405.17786258016,-3.43020361482,19.2));
#508 = CARTESIAN_POINT('',(408.59076584824,-3.20102726264,19.2));
#509 = CARTESIAN_POINT('',(411.94103520514,-2.944004323671,19.2));
#510 = CARTESIAN_POINT('',(415.189612296,-2.667964624417,19.2));
#511 = CARTESIAN_POINT('',(418.29867677801,-2.38117570109,19.2));
#512 = CARTESIAN_POINT('',(421.23206349847,-2.091384735182,19.2));
#513 = CARTESIAN_POINT('',(423.9556819477,-1.805938793855,19.2));
#514 = CARTESIAN_POINT('',(426.4379240314,-1.531918062441,19.2));
#515 = CARTESIAN_POINT('',(428.65004551082,-1.27622081848,19.2));
#516 = CARTESIAN_POINT('',(430.56650769709,-1.045555387873,19.2));
#517 = CARTESIAN_POINT('',(432.16526895808,-0.84631939811,19.2));
#518 = CARTESIAN_POINT('',(433.42802000746,-0.684374785527,19.2));
#519 = CARTESIAN_POINT('',(434.34036215342,-0.564752138012,19.2));
#520 = CARTESIAN_POINT('',(434.89193270162,-0.491335214419,19.2));
#521 = CARTESIAN_POINT('',(435.138243612,-0.458298912497,19.2));
#522 = CARTESIAN_POINT('',(435.2,-0.45,19.2));
#523 = PCURVE('',#189,#524);
#524 = DEFINITIONAL_REPRESENTATION('',(#525),#558);
#525 = B_SPLINE_CURVE_WITH_KNOTS('',3,(#526,#527,#528,#529,#530,#531,
    #532,#533,#534,#535,#536,#537,#538,#539,#540,#541,#542,#543,#544,
    #545,#546,#547,#548,#549,#550,#551,#552,#553,#554,#555,#556,#557),
  .UNSPECIFIED.,.F.,.F.,(4,1,1,1,1,1,1,1,1,1,1,1,1,1,1,1,1,1,1,1,1,1,1,1
    ,1,1,1,1,1,4),(0.,0.186969614792,0.742521564507,1.665121686062,
    2.945328065869,4.565983204744,6.507294302491,8.746237057966,
    11.256460070801,14.008493608395,16.970064747952,20.106464189094,
    23.380946932518,26.755158345633,30.189579692265,33.643987855183,
    37.077924048347,40.45116620677,43.724199597712,46.858680077591,
    49.817884361856,52.567141713998,55.074241623647,57.309812347628,
    59.247665625723,60.865103425675,62.143183176195,63.066938566806,
    63.62555359473,63.812488104518),.UNSPECIFIED.);
#526 = CARTESIAN_POINT('',(62.601617391246,-4.440892098501E-16));
#527 = CARTESIAN_POINT('',(62.602457024395,6.319579299002E-02));
#528 = CARTESIAN_POINT('',(62.580132289234,0.309555834715));
#529 = CARTESIAN_POINT('',(62.320329203848,0.826313423442));
#530 = CARTESIAN_POINT('',(61.58530495134,1.407796615065));
#531 = CARTESIAN_POINT('',(60.435230216626,1.96439209137));
#532 = CARTESIAN_POINT('',(58.897804649931,2.468453591341));
#533 = CARTESIAN_POINT('',(57.014186529482,2.911013782369));
#534 = CARTESIAN_POINT('',(54.81428136355,3.284463372266));
#535 = CARTESIAN_POINT('',(52.331127361756,3.583741119879));
#536 = CARTESIAN_POINT('',(49.598278784826,3.805770077196));
#537 = CARTESIAN_POINT('',(46.651395655026,3.950158914514));
#538 = CARTESIAN_POINT('',(43.527692294579,4.019202012258));
#539 = CARTESIAN_POINT('',(40.26576358811,4.01768762552));
#540 = CARTESIAN_POINT('',(36.905190638552,3.952421273318));
#541 = CARTESIAN_POINT('',(33.486190151174,3.831623055452));
#542 = CARTESIAN_POINT('',(30.049253877125,3.66429485384));
#543 = CARTESIAN_POINT('',(26.634791394399,3.459657438552));
#544 = CARTESIAN_POINT('',(23.282761034662,3.226723923787));
#545 = CARTESIAN_POINT('',(20.03228361519,2.974043144255));
#546 = CARTESIAN_POINT('',(16.921237931302,2.709610558114));
#547 = CARTESIAN_POINT('',(13.985843890498,2.440913180273));
#548 = CARTESIAN_POINT('',(11.260243934684,2.17505283483));
#549 = CARTESIAN_POINT('',(8.776096236122,1.918882315327));
#550 = CARTESIAN_POINT('',(6.562193877889,1.679093098502));
#551 = CARTESIAN_POINT('',(4.644123110579,1.462209756857));
#552 = CARTESIAN_POINT('',(3.043970984999,1.274471310448));
#553 = CARTESIAN_POINT('',(1.780088451864,1.121607931286));
#554 = CARTESIAN_POINT('',(0.866909992416,1.008546574987));
#555 = CARTESIAN_POINT('',(0.314825950923,0.939096409777));
#556 = CARTESIAN_POINT('',(6.828392902878E-02,0.907831521229));
#557 = CARTESIAN_POINT('',(6.469481410818E-03,0.899976747372));
#558 = ( GEOMETRIC_REPRESENTATION_CONTEXT(2) 
PARAMETRIC_REPRESENTATION_CONTEXT() REPRESENTATION_CONTEXT('2D SPACE',''
  ) );
#559 = PCURVE('',#245,#560);
#560 = DEFINITIONAL_REPRESENTATION('',(#561),#565);
#561 = LINE('',#562,#563);
#562 = CARTESIAN_POINT('',(0.,0.));
#563 = VECTOR('',#564,1.);
#564 = DIRECTION('',(1.,0.));
#565 = ( GEOMETRIC_REPRESENTATION_CONTEXT(2) 
PARAMETRIC_REPRESENTATION_CONTEXT() REPRESENTATION_CONTEXT('2D SPACE',''
  ) );
#566 = ORIENTED_EDGE('',*,*,#567,.T.);
#567 = EDGE_CURVE('',#487,#22,#568,.T.);
#568 = SURFACE_CURVE('',#569,(#573,#580),.PCURVE_S1.);
#569 = LINE('',#570,#571);
#570 = CARTESIAN_POINT('',(435.2,-0.45,19.2));
#571 = VECTOR('',#572,1.);
#572 = DIRECTION('',(0.,1.,0.));
#573 = PCURVE('',#189,#574);
#574 = DEFINITIONAL_REPRESENTATION('',(#575),#579);
#575 = LINE('',#576,#577);
#576 = CARTESIAN_POINT('',(6.469481410821E-03,0.899976747372));
#577 = VECTOR('',#578,1.);
#578 = DIRECTION('',(-7.18831267869E-03,-0.999974163747));
#579 = ( GEOMETRIC_REPRESENTATION_CONTEXT(2) 
PARAMETRIC_REPRESENTATION_CONTEXT() REPRESENTATION_CONTEXT('2D SPACE',''
  ) );
#580 = PCURVE('',#471,#581);
#581 = DEFINITIONAL_REPRESENTATION('',(#582),#586);
#582 = LINE('',#583,#584);
#583 = CARTESIAN_POINT('',(0.,-129.9));
#584 = VECTOR('',#585,1.);
#585 = DIRECTION('',(1.,0.));
#586 = ( GEOMETRIC_REPRESENTATION_CONTEXT(2) 
PARAMETRIC_REPRESENTATION_CONTEXT() REPRESENTATION_CONTEXT('2D SPACE',''
  ) );
#587 = ADVANCED_FACE('',(#588),#245,.T.);
#588 = FACE_BOUND('',#589,.T.);
#589 = EDGE_LOOP('',(#590,#591,#612,#690));
#590 = ORIENTED_EDGE('',*,*,#486,.T.);
#591 = ORIENTED_EDGE('',*,*,#592,.T.);
#592 = EDGE_CURVE('',#487,#593,#595,.T.);
#593 = VERTEX_POINT('',#594);
#594 = CARTESIAN_POINT('',(435.2,-0.45,149.1));
#595 = SURFACE_CURVE('',#596,(#599,#606),.PCURVE_S1.);
#596 = B_SPLINE_CURVE_WITH_KNOTS('',1,(#597,#598),.UNSPECIFIED.,.F.,.F.,
  (2,2),(0.,1.),.PIECEWISE_BEZIER_KNOTS.);
#597 = CARTESIAN_POINT('',(435.2,-0.45,19.2));
#598 = CARTESIAN_POINT('',(435.2,-0.45,149.1));
#599 = PCURVE('',#245,#600);
#600 = DEFINITIONAL_REPRESENTATION('',(#601),#605);
#601 = LINE('',#602,#603);
#602 = CARTESIAN_POINT('',(63.812488104518,0.));
#603 = VECTOR('',#604,1.);
#604 = DIRECTION('',(0.,1.));
#605 = ( GEOMETRIC_REPRESENTATION_CONTEXT(2) 
PARAMETRIC_REPRESENTATION_CONTEXT() REPRESENTATION_CONTEXT('2D SPACE',''
  ) );
#606 = PCURVE('',#471,#607);
#607 = DEFINITIONAL_REPRESENTATION('',(#608),#611);
#608 = B_SPLINE_CURVE_WITH_KNOTS('',1,(#609,#610),.UNSPECIFIED.,.F.,.F.,
  (2,2),(0.,1.),.PIECEWISE_BEZIER_KNOTS.);
#609 = CARTESIAN_POINT('',(0.,-129.9));
#610 = CARTESIAN_POINT('',(0.,0.));
#611 = ( GEOMETRIC_REPRESENTATION_CONTEXT(2) 
PARAMETRIC_REPRESENTATION_CONTEXT() REPRESENTATION_CONTEXT('2D SPACE',''
  ) );
#612 = ORIENTED_EDGE('',*,*,#613,.F.);
#613 = EDGE_CURVE('',#231,#593,#614,.T.);
#614 = SURFACE_CURVE('',#615,(#648,#654),.PCURVE_S1.);
#615 = B_SPLINE_CURVE_WITH_KNOTS('',3,(#616,#617,#618,#619,#620,#621,
    #622,#623,#624,#625,#626,#627,#628,#629,#630,#631,#632,#633,#634,
    #635,#636,#637,#638,#639,#640,#641,#642,#643,#644,#645,#646,#647),
  .UNSPECIFIED.,.F.,.F.,(4,1,1,1,1,1,1,1,1,1,1,1,1,1,1,1,1,1,1,1,1,1,1,1
    ,1,1,1,1,1,4),(0.,6.579019254287E-02,0.262023327281,0.588402839956,
    1.040738905608,1.61260397116,2.296912983272,3.08551428782,
    3.969111587385,4.937329011074,5.978820517998,7.081397968427,
    8.232170228618,9.417690312568,10.624108873359,11.837332669494,
    13.043186593999,14.227577684845,15.376659325877,16.476993647022,
    17.515709976384,18.48065711605,19.360547232244,20.145089279954,
    20.825110113932,21.39266174436,21.841113535432,22.165228475223,
    22.361222930866,22.426809525464),.UNSPECIFIED.);
#616 = CARTESIAN_POINT('',(413.2,-1.816192657032E-18,149.1));
#617 = CARTESIAN_POINT('',(413.19988049306,-2.223624148771E-02,149.1));
#618 = CARTESIAN_POINT('',(413.20836696075,-0.109115495261,149.1));
#619 = CARTESIAN_POINT('',(413.30110092355,-0.291103086218,149.1));
#620 = CARTESIAN_POINT('',(413.56045948748,-0.496794736723,149.1));
#621 = CARTESIAN_POINT('',(413.96599005348,-0.694922825371,149.1));
#622 = CARTESIAN_POINT('',(414.50755122749,-0.87539127167,149.1));
#623 = CARTESIAN_POINT('',(415.17065749166,-1.034989235857,149.1));
#624 = CARTESIAN_POINT('',(415.94473254812,-1.170958786565,149.1));
#625 = CARTESIAN_POINT('',(416.81816298257,-1.281460950292,149.1));
#626 = CARTESIAN_POINT('',(417.77914648733,-1.365342189334,149.1));
#627 = CARTESIAN_POINT('',(418.81515211756,-1.422390536962,149.1));
#628 = CARTESIAN_POINT('',(419.91310726512,-1.453333258353,149.1));
#629 = CARTESIAN_POINT('',(421.05946038862,-1.459771286997,149.1));
#630 = CARTESIAN_POINT('',(422.24031802502,-1.444012303726,149.1));
#631 = CARTESIAN_POINT('',(423.4415669065,-1.408859804279,149.1));
#632 = CARTESIAN_POINT('',(424.64899920519,-1.357391426514,149.1));
#633 = CARTESIAN_POINT('',(425.84843678138,-1.292761867576,149.1));
#634 = CARTESIAN_POINT('',(427.025859853,-1.218053741691,149.1));
#635 = CARTESIAN_POINT('',(428.16754207836,-1.136188208641,149.1));
#636 = CARTESIAN_POINT('',(429.26019241779,-1.049894529875,149.1));
#637 = CARTESIAN_POINT('',(430.29110164167,-0.961726765139,149.1));
#638 = CARTESIAN_POINT('',(431.24828962353,-0.874108002678,149.1));
#639 = CARTESIAN_POINT('',(432.12064853754,-0.789379101608,149.1));
#640 = CARTESIAN_POINT('',(432.89807683223,-0.709830349788,149.1));
#641 = CARTESIAN_POINT('',(433.57159928093,-0.637700242165,149.1));
#642 = CARTESIAN_POINT('',(434.13346944347,-0.575134410723,149.1));
#643 = CARTESIAN_POINT('',(434.57725241372,-0.524107648689,149.1));
#644 = CARTESIAN_POINT('',(434.89788754891,-0.486320827131,149.1));
#645 = CARTESIAN_POINT('',(435.09173263522,-0.463090593589,149.1));
#646 = CARTESIAN_POINT('',(435.17829640671,-0.452628639276,149.1));
#647 = CARTESIAN_POINT('',(435.2,-0.45,149.1));
#648 = PCURVE('',#245,#649);
#649 = DEFINITIONAL_REPRESENTATION('',(#650),#653);
#650 = B_SPLINE_CURVE_WITH_KNOTS('',1,(#651,#652),.UNSPECIFIED.,.F.,.F.,
  (2,2),(0.,22.426809525464),.PIECEWISE_BEZIER_KNOTS.);
#651 = CARTESIAN_POINT('',(0.,1.));
#652 = CARTESIAN_POINT('',(63.812488104518,1.));
#653 = ( GEOMETRIC_REPRESENTATION_CONTEXT(2) 
PARAMETRIC_REPRESENTATION_CONTEXT() REPRESENTATION_CONTEXT('2D SPACE',''
  ) );
#654 = PCURVE('',#417,#655);
#655 = DEFINITIONAL_REPRESENTATION('',(#656),#689);
#656 = B_SPLINE_CURVE_WITH_KNOTS('',3,(#657,#658,#659,#660,#661,#662,
    #663,#664,#665,#666,#667,#668,#669,#670,#671,#672,#673,#674,#675,
    #676,#677,#678,#679,#680,#681,#682,#683,#684,#685,#686,#687,#688),
  .UNSPECIFIED.,.F.,.F.,(4,1,1,1,1,1,1,1,1,1,1,1,1,1,1,1,1,1,1,1,1,1,1,1
    ,1,1,1,1,1,4),(0.,6.579019254287E-02,0.262023327281,0.588402839956,
    1.040738905608,1.61260397116,2.296912983272,3.08551428782,
    3.969111587385,4.937329011074,5.978820517998,7.081397968427,
    8.232170228618,9.417690312568,10.624108873359,11.837332669494,
    13.043186593999,14.227577684845,15.376659325877,16.476993647022,
    17.515709976384,18.48065711605,19.360547232244,20.145089279954,
    20.825110113932,21.39266174436,21.841113535432,22.165228475223,
    22.361222930866,22.426809525464),.UNSPECIFIED.);
#657 = CARTESIAN_POINT('',(22.004601791444,1.7763568394E-15));
#658 = CARTESIAN_POINT('',(22.005176010479,2.222914730499E-02));
#659 = CARTESIAN_POINT('',(21.998468021566,0.109263782679));
#660 = CARTESIAN_POINT('',(21.909475147057,0.293109749203));
#661 = CARTESIAN_POINT('',(21.654377271762,0.504062335797));
#662 = CARTESIAN_POINT('',(21.252983286283,0.710442198881));
#663 = CARTESIAN_POINT('',(20.715225996256,0.901947975119));
#664 = CARTESIAN_POINT('',(20.055522227681,1.075073263507));
#665 = CARTESIAN_POINT('',(19.284389666176,1.226844421315));
#666 = CARTESIAN_POINT('',(18.413401689847,1.35518536219));
#667 = CARTESIAN_POINT('',(17.454334548017,1.458701429313));
#668 = CARTESIAN_POINT('',(16.419712230184,1.536924439106));
#669 = CARTESIAN_POINT('',(15.322619483374,1.590314166316));
#670 = CARTESIAN_POINT('',(14.1766377545,1.620194076981));
#671 = CARTESIAN_POINT('',(12.995704793773,1.62858724429));
#672 = CARTESIAN_POINT('',(11.793988249752,1.618007957586));
#673 = CARTESIAN_POINT('',(10.585755917575,1.591242657218));
#674 = CARTESIAN_POINT('',(9.385247486291,1.55115543384));
#675 = CARTESIAN_POINT('',(8.206542846314,1.500541548718));
#676 = CARTESIAN_POINT('',(7.063425207279,1.442040843371));
#677 = CARTESIAN_POINT('',(5.969238643436,1.37811020316));
#678 = CARTESIAN_POINT('',(4.936741957757,1.311043246555));
#679 = CARTESIAN_POINT('',(3.977962324111,1.24301755827));
#680 = CARTESIAN_POINT('',(3.104053116578,1.176146349867));
#681 = CARTESIAN_POINT('',(2.32516061109,1.112512850805));
#682 = CARTESIAN_POINT('',(1.65030393518,1.054171542112));
#683 = CARTESIAN_POINT('',(1.087271787748,1.003109190281));
#684 = CARTESIAN_POINT('',(0.642538114256,0.96116858));
#685 = CARTESIAN_POINT('',(0.321197282418,0.929946735135));
#686 = CARTESIAN_POINT('',(0.126917670157,0.910685543631));
#687 = CARTESIAN_POINT('',(4.015805186708E-02,0.901996029522));
#688 = CARTESIAN_POINT('',(1.840524104182E-02,0.899811784265));
#689 = ( GEOMETRIC_REPRESENTATION_CONTEXT(2) 
PARAMETRIC_REPRESENTATION_CONTEXT() REPRESENTATION_CONTEXT('2D SPACE',''
  ) );
#690 = ORIENTED_EDGE('',*,*,#230,.F.);
#691 = ADVANCED_FACE('',(#692),#417,.T.);
#692 = FACE_BOUND('',#693,.T.);
#693 = EDGE_LOOP('',(#694,#695,#696));
#694 = ORIENTED_EDGE('',*,*,#373,.T.);
#695 = ORIENTED_EDGE('',*,*,#613,.T.);
#696 = ORIENTED_EDGE('',*,*,#697,.T.);
#697 = EDGE_CURVE('',#593,#374,#698,.T.);
#698 = SURFACE_CURVE('',#699,(#703,#710),.PCURVE_S1.);
#699 = LINE('',#700,#701);
#700 = CARTESIAN_POINT('',(435.2,-0.45,149.1));
#701 = VECTOR('',#702,1.);
#702 = DIRECTION('',(0.,1.,0.));
#703 = PCURVE('',#417,#704);
#704 = DEFINITIONAL_REPRESENTATION('',(#705),#709);
#705 = LINE('',#706,#707);
#706 = CARTESIAN_POINT('',(1.840524104178E-02,0.899811784265));
#707 = VECTOR('',#708,1.);
#708 = DIRECTION('',(-2.04502678242E-02,-0.999790871406));
#709 = ( GEOMETRIC_REPRESENTATION_CONTEXT(2) 
PARAMETRIC_REPRESENTATION_CONTEXT() REPRESENTATION_CONTEXT('2D SPACE',''
  ) );
#710 = PCURVE('',#471,#711);
#711 = DEFINITIONAL_REPRESENTATION('',(#712),#716);
#712 = LINE('',#713,#714);
#713 = CARTESIAN_POINT('',(0.,0.));
#714 = VECTOR('',#715,1.);
#715 = DIRECTION('',(1.,0.));
#716 = ( GEOMETRIC_REPRESENTATION_CONTEXT(2) 
PARAMETRIC_REPRESENTATION_CONTEXT() REPRESENTATION_CONTEXT('2D SPACE',''
  ) );
#717 = ADVANCED_FACE('',(#718),#471,.T.);
#718 = FACE_BOUND('',#719,.T.);
#719 = EDGE_LOOP('',(#720,#721,#722,#723));
#720 = ORIENTED_EDGE('',*,*,#567,.T.);
#721 = ORIENTED_EDGE('',*,*,#458,.T.);
#722 = ORIENTED_EDGE('',*,*,#697,.F.);
#723 = ORIENTED_EDGE('',*,*,#592,.F.);
#724 = ORIENTED_CLOSED_SHELL('',*,#725,.F.);
#725 = CLOSED_SHELL('',(#726,#862,#866));
#726 = ADVANCED_FACE('',(#727),#740,.T.);
#727 = FACE_BOUND('',#728,.T.);
#728 = EDGE_LOOP('',(#729,#763,#786,#809,#832,#859,#860,#861));
#729 = ORIENTED_EDGE('',*,*,#730,.F.);
#730 = EDGE_CURVE('',#731,#731,#733,.T.);
#731 = VERTEX_POINT('',#732);
#732 = CARTESIAN_POINT('',(380.47417509189,-2.694222958124E-16,
    25.397093512813));
#733 = SURFACE_CURVE('',#734,(#739,#751),.PCURVE_S1.);
#734 = CIRCLE('',#735,1.1);
#735 = AXIS2_PLACEMENT_3D('',#736,#737,#738);
#736 = CARTESIAN_POINT('',(381.5,0.,25.));
#737 = DIRECTION('',(-0.360994102558,0.,-0.932568098274));
#738 = DIRECTION('',(-0.932568098274,0.,0.360994102558));
#739 = PCURVE('',#740,#745);
#740 = CYLINDRICAL_SURFACE('',#741,1.1);
#741 = AXIS2_PLACEMENT_3D('',#742,#743,#744);
#742 = CARTESIAN_POINT('',(393.5,0.,56.));
#743 = DIRECTION('',(-0.360994102558,0.,-0.932568098274));
#744 = DIRECTION('',(-0.932568098274,0.,0.360994102558));
#745 = DEFINITIONAL_REPRESENTATION('',(#746),#750);
#746 = LINE('',#747,#748);
#747 = CARTESIAN_POINT('',(0.,33.241540277189));
#748 = VECTOR('',#749,1.);
#749 = DIRECTION('',(1.,0.));
#750 = ( GEOMETRIC_REPRESENTATION_CONTEXT(2) 
PARAMETRIC_REPRESENTATION_CONTEXT() REPRESENTATION_CONTEXT('2D SPACE',''
  ) );
#751 = PCURVE('',#752,#757);
#752 = PLANE('',#753);
#753 = AXIS2_PLACEMENT_3D('',#754,#755,#756);
#754 = CARTESIAN_POINT('',(381.5,0.,25.));
#755 = DIRECTION('',(-0.360994102558,0.,-0.932568098274));
#756 = DIRECTION('',(-0.932568098274,0.,0.360994102558));
#757 = DEFINITIONAL_REPRESENTATION('',(#758),#762);
#758 = CIRCLE('',#759,1.1);
#759 = AXIS2_PLACEMENT_2D('',#760,#761);
#760 = CARTESIAN_POINT('',(0.,0.));
#761 = DIRECTION('',(1.,0.));
#762 = ( GEOMETRIC_REPRESENTATION_CONTEXT(2) 
PARAMETRIC_REPRESENTATION_CONTEXT() REPRESENTATION_CONTEXT('2D SPACE',''
  ) );
#763 = ORIENTED_EDGE('',*,*,#764,.F.);
#764 = EDGE_CURVE('',#765,#731,#767,.T.);
#765 = VERTEX_POINT('',#766);
#766 = CARTESIAN_POINT('',(392.47417509189,-2.694222958124E-16,
    56.397093512813));
#767 = SEAM_CURVE('',#768,(#772,#779),.PCURVE_S1.);
#768 = LINE('',#769,#770);
#769 = CARTESIAN_POINT('',(392.47417509189,-2.694222958124E-16,
    56.397093512813));
#770 = VECTOR('',#771,1.);
#771 = DIRECTION('',(-0.360994102558,0.,-0.932568098274));
#772 = PCURVE('',#740,#773);
#773 = DEFINITIONAL_REPRESENTATION('',(#774),#778);
#774 = LINE('',#775,#776);
#775 = CARTESIAN_POINT('',(0.,-0.));
#776 = VECTOR('',#777,1.);
#777 = DIRECTION('',(0.,1.));
#778 = ( GEOMETRIC_REPRESENTATION_CONTEXT(2) 
PARAMETRIC_REPRESENTATION_CONTEXT() REPRESENTATION_CONTEXT('2D SPACE',''
  ) );
#779 = PCURVE('',#740,#780);
#780 = DEFINITIONAL_REPRESENTATION('',(#781),#785);
#781 = LINE('',#782,#783);
#782 = CARTESIAN_POINT('',(6.28318530718,-0.));
#783 = VECTOR('',#784,1.);
#784 = DIRECTION('',(0.,1.));
#785 = ( GEOMETRIC_REPRESENTATION_CONTEXT(2) 
PARAMETRIC_REPRESENTATION_CONTEXT() REPRESENTATION_CONTEXT('2D SPACE',''
  ) );
#786 = ORIENTED_EDGE('',*,*,#787,.T.);
#787 = EDGE_CURVE('',#765,#788,#790,.T.);
#788 = VERTEX_POINT('',#789);
#789 = CARTESIAN_POINT('',(394.5258249081,-2.694222958124E-16,
    55.602906487187));
#790 = SEAM_CURVE('',#791,(#796,#803),.PCURVE_S1.);
#791 = CIRCLE('',#792,1.1);
#792 = AXIS2_PLACEMENT_3D('',#793,#794,#795);
#793 = CARTESIAN_POINT('',(393.5,0.,56.));
#794 = DIRECTION('',(-0.360994102558,0.,-0.932568098274));
#795 = DIRECTION('',(-0.932568098274,0.,0.360994102558));
#796 = PCURVE('',#740,#797);
#797 = DEFINITIONAL_REPRESENTATION('',(#798),#802);
#798 = LINE('',#799,#800);
#799 = CARTESIAN_POINT('',(0.,0.));
#800 = VECTOR('',#801,1.);
#801 = DIRECTION('',(1.,0.));
#802 = ( GEOMETRIC_REPRESENTATION_CONTEXT(2) 
PARAMETRIC_REPRESENTATION_CONTEXT() REPRESENTATION_CONTEXT('2D SPACE',''
  ) );
#803 = PCURVE('',#740,#804);
#804 = DEFINITIONAL_REPRESENTATION('',(#805),#808);
#805 = B_SPLINE_CURVE_WITH_KNOTS('',1,(#806,#807),.UNSPECIFIED.,.F.,.F.,
  (2,2),(0.,3.14159265359),.PIECEWISE_BEZIER_KNOTS.);
#806 = CARTESIAN_POINT('',(6.28318530718,0.));
#807 = CARTESIAN_POINT('',(9.424777960769,0.));
#808 = ( GEOMETRIC_REPRESENTATION_CONTEXT(2) 
PARAMETRIC_REPRESENTATION_CONTEXT() REPRESENTATION_CONTEXT('2D SPACE',''
  ) );
#809 = ORIENTED_EDGE('',*,*,#810,.T.);
#810 = EDGE_CURVE('',#788,#811,#813,.T.);
#811 = VERTEX_POINT('',#812);
#812 = CARTESIAN_POINT('',(406.5258249081,-2.694222958124E-16,
    86.602906487187));
#813 = SEAM_CURVE('',#814,(#818,#825),.PCURVE_S1.);
#814 = LINE('',#815,#816);
#815 = CARTESIAN_POINT('',(394.5258249081,-2.694222958124E-16,
    55.602906487187));
#816 = VECTOR('',#817,1.);
#817 = DIRECTION('',(0.360994102558,0.,0.932568098274));
#818 = PCURVE('',#740,#819);
#819 = DEFINITIONAL_REPRESENTATION('',(#820),#824);
#820 = LINE('',#821,#822);
#821 = CARTESIAN_POINT('',(3.14159265359,0.));
#822 = VECTOR('',#823,1.);
#823 = DIRECTION('',(-0.,-1.));
#824 = ( GEOMETRIC_REPRESENTATION_CONTEXT(2) 
PARAMETRIC_REPRESENTATION_CONTEXT() REPRESENTATION_CONTEXT('2D SPACE',''
  ) );
#825 = PCURVE('',#740,#826);
#826 = DEFINITIONAL_REPRESENTATION('',(#827),#831);
#827 = LINE('',#828,#829);
#828 = CARTESIAN_POINT('',(9.424777960769,0.));
#829 = VECTOR('',#830,1.);
#830 = DIRECTION('',(-0.,-1.));
#831 = ( GEOMETRIC_REPRESENTATION_CONTEXT(2) 
PARAMETRIC_REPRESENTATION_CONTEXT() REPRESENTATION_CONTEXT('2D SPACE',''
  ) );
#832 = ORIENTED_EDGE('',*,*,#833,.F.);
#833 = EDGE_CURVE('',#811,#811,#834,.T.);
#834 = SURFACE_CURVE('',#835,(#840,#847),.PCURVE_S1.);
#835 = CIRCLE('',#836,1.1);
#836 = AXIS2_PLACEMENT_3D('',#837,#838,#839);
#837 = CARTESIAN_POINT('',(405.5,0.,87.));
#838 = DIRECTION('',(0.360994102558,0.,0.932568098274));
#839 = DIRECTION('',(0.932568098274,0.,-0.360994102558));
#840 = PCURVE('',#740,#841);
#841 = DEFINITIONAL_REPRESENTATION('',(#842),#846);
#842 = LINE('',#843,#844);
#843 = CARTESIAN_POINT('',(9.424777960769,-33.24154027718));
#844 = VECTOR('',#845,1.);
#845 = DIRECTION('',(-1.,-0.));
#846 = ( GEOMETRIC_REPRESENTATION_CONTEXT(2) 
PARAMETRIC_REPRESENTATION_CONTEXT() REPRESENTATION_CONTEXT('2D SPACE',''
  ) );
#847 = PCURVE('',#848,#853);
#848 = PLANE('',#849);
#849 = AXIS2_PLACEMENT_3D('',#850,#851,#852);
#850 = CARTESIAN_POINT('',(405.5,0.,87.));
#851 = DIRECTION('',(0.360994102558,0.,0.932568098274));
#852 = DIRECTION('',(0.932568098274,0.,-0.360994102558));
#853 = DEFINITIONAL_REPRESENTATION('',(#854),#858);
#854 = CIRCLE('',#855,1.1);
#855 = AXIS2_PLACEMENT_2D('',#856,#857);
#856 = CARTESIAN_POINT('',(0.,0.));
#857 = DIRECTION('',(1.,0.));
#858 = ( GEOMETRIC_REPRESENTATION_CONTEXT(2) 
PARAMETRIC_REPRESENTATION_CONTEXT() REPRESENTATION_CONTEXT('2D SPACE',''
  ) );
#859 = ORIENTED_EDGE('',*,*,#810,.F.);
#860 = ORIENTED_EDGE('',*,*,#787,.F.);
#861 = ORIENTED_EDGE('',*,*,#764,.T.);
#862 = ADVANCED_FACE('',(#863),#752,.T.);
#863 = FACE_BOUND('',#864,.T.);
#864 = EDGE_LOOP('',(#865));
#865 = ORIENTED_EDGE('',*,*,#730,.T.);
#866 = ADVANCED_FACE('',(#867),#848,.T.);
#867 = FACE_BOUND('',#868,.T.);
#868 = EDGE_LOOP('',(#869));
#869 = ORIENTED_EDGE('',*,*,#833,.T.);
#870 = ( GEOMETRIC_REPRESENTATION_CONTEXT(3) 
GLOBAL_UNCERTAINTY_ASSIGNED_CONTEXT((#874)) GLOBAL_UNIT_ASSIGNED_CONTEXT
((#871,#872,#873)) REPRESENTATION_CONTEXT('Context #1',
  '3D Context with UNIT and UNCERTAINTY') );
#871 = ( LENGTH_UNIT() NAMED_UNIT(*) SI_UNIT(.MILLI.,.METRE.) );
#872 = ( NAMED_UNIT(*) PLANE_ANGLE_UNIT() SI_UNIT($,.RADIAN.) );
#873 = ( NAMED_UNIT(*) SI_UNIT($,.STERADIAN.) SOLID_ANGLE_UNIT() );
#874 = UNCERTAINTY_MEASURE_WITH_UNIT(LENGTH_MEASURE(1.E-07),#871,
  'distance_accuracy_value','confusion accuracy');
#875 = PRODUCT_RELATED_PRODUCT_CATEGORY('part',$,(#7));
ENDSEC;
END-ISO-10303-21;
